<?xml version="1.0" encoding="UTF-8"?>
<svg version="1.1" xmlns="http://www.w3.org/2000/svg" width="300" height="300">
    <path d="M0 0 C2.43994141 1.14477539 2.43994141 1.14477539 4.8515625 2.59765625 C6.22997314 3.41641235 6.22997314 3.41641235 7.63623047 4.25170898 C9.11567139 5.14805054 9.11567139 5.14805054 10.625 6.0625 C12.78566379 7.34769089 14.94715585 8.63149008 17.109375 9.9140625 C18.23794922 10.58598633 19.36652344 11.25791016 20.52929688 11.95019531 C25.68913385 15.00883161 30.90369388 17.97229882 36.11743164 20.93774414 C39.07461088 22.61987346 42.02949714 24.30601973 44.984375 25.9921875 C45.56960937 26.32607483 46.15484375 26.65996216 46.7578125 27.00396729 C57.19518636 32.96204044 67.59418497 38.98705428 78 45 C82.43707463 47.56323729 86.87468665 50.12554194 91.3125 52.6875 C92.27623535 53.24445557 93.2399707 53.80141113 94.23291016 54.37524414 C101.1198326 58.35119348 108.02136429 62.30116845 114.92651367 66.24536133 C115.89732628 66.79999306 116.86813889 67.35462479 117.86837006 67.92606354 C120.24552836 69.28413285 122.62273965 70.64210933 125 72 C125.56210665 91.31417187 125.98453963 110.62667327 126.24349213 129.94734383 C126.36696342 138.91999717 126.53504797 147.88755422 126.81054688 156.85693359 C127.05073874 164.68059657 127.20480495 172.50057054 127.25812387 180.3278178 C127.28928147 184.46999288 127.36166956 188.60162315 127.53752136 192.74039078 C128.56388886 217.84944813 128.56388886 217.84944813 122.64449692 224.74324989 C116.91452131 229.36353095 110.63495443 232.30350004 103.78815842 234.90473747 C100.21454654 236.30854694 97.13992694 238.0986621 93.8828125 240.12109375 C91.96389348 241.22717308 90.04463128 242.33265727 88.125 243.4375 C85.94009462 244.69659802 83.75519908 245.95571311 81.5703125 247.21484375 C80.48524414 247.83987793 79.40017578 248.46491211 78.28222656 249.10888672 C72.85340058 252.23680148 67.42680719 255.36858448 62 258.5 C59.83334417 259.75001879 57.6666775 261.00001878 55.5 262.25 C54.4275 262.86875 53.355 263.4875 52.25 264.125 C49 266 45.75 267.875 42.5 269.75 C41.42588867 270.37011963 40.35177734 270.99023926 39.24511719 271.62915039 C37.09626575 272.86798943 34.94589273 274.10419322 32.79394531 275.33764648 C27.70316444 278.25985983 22.63232365 281.20685331 17.61242676 284.24905396 C15.23750276 285.68613607 12.85378932 287.10826117 10.46923828 288.52929688 C8.78710668 289.54020016 7.11796688 290.57262227 5.44921875 291.60546875 C4.42957031 292.21132813 3.40992188 292.8171875 2.359375 293.44140625 C1.46702148 293.98482666 0.57466797 294.52824707 -0.34472656 295.08813477 C-3.94061284 296.32302215 -5.57805281 295.5314044 -9 294 C-10.64422579 293.15205726 -12.26231535 292.25167158 -13.8515625 291.3046875 C-14.77066406 290.76199219 -15.68976563 290.21929687 -16.63671875 289.66015625 C-17.62285156 289.07105469 -18.60898438 288.48195313 -19.625 287.875 C-21.78313461 286.60034343 -23.94201956 285.3269566 -26.1015625 284.0546875 C-27.79394043 283.05646973 -27.79394043 283.05646973 -29.52050781 282.03808594 C-34.72904743 278.97813757 -39.98070614 275.99368379 -45.23114014 273.00640869 C-55.49624847 267.1659832 -65.72253749 261.2632805 -75.91308594 255.29345703 C-81.26416822 252.16386317 -86.62893936 249.06009755 -92.015625 245.9921875 C-92.61741577 245.64931702 -93.21920654 245.30644653 -93.8392334 244.95318604 C-96.72674201 243.30893444 -99.61597168 241.66787933 -102.5078125 240.03125 C-104.67282809 238.80077352 -106.81787589 237.53445515 -108.9407959 236.23269653 C-111.8842118 234.50617675 -114.80208799 233.30841434 -118.01281738 232.16159058 C-123.93634829 229.77819172 -129.05512877 227.15263749 -133 222 C-136.45470082 212.07784746 -135.39296547 200.84143432 -135.02787876 190.49390888 C-134.90205674 186.32257783 -134.8910454 182.15090198 -134.86737061 177.97796631 C-134.80542623 170.09208313 -134.64165167 162.21180598 -134.44038081 154.32838225 C-134.21610777 145.34720879 -134.10669498 136.36575397 -134.00647211 127.38247347 C-133.79792593 108.91848084 -133.44661554 90.45969234 -133 72 C-132.33736239 71.62593175 -131.67472479 71.2518635 -130.99200726 70.86645985 C-127.96346135 69.15653335 -124.9352195 67.44606907 -121.90698242 65.7355957 C-120.86455132 65.14714119 -119.82212021 64.55868668 -118.74810028 63.95240021 C-111.90294326 60.08532933 -105.08677033 56.17754005 -98.3125 52.1875 C-89.5749328 47.06587877 -80.7999168 42.0133798 -72 37 C-63.30587381 32.046351 -54.63638781 27.05391297 -46 22 C-44.06515634 20.87360829 -42.13025979 19.74730743 -40.1953125 18.62109375 C-36.25961394 16.32816065 -32.33768062 14.01378854 -28.42449951 11.68276978 C-25.87212364 10.16689601 -23.31163009 8.66510711 -20.74951172 7.16577148 C-19.51091559 6.43677749 -18.27579503 5.70184222 -17.04443359 4.96069336 C-15.32785508 3.92844244 -13.59773535 2.91881273 -11.8671875 1.91015625 C-10.87831543 1.32371338 -9.88944336 0.73727051 -8.87060547 0.13305664 C-5.35412329 -1.25493399 -3.60599939 -1.03670984 0 0 Z " fill="#FBFBFC" transform="translate(154,3)"/>
    <path d="M0 0 C2.43994141 1.14477539 2.43994141 1.14477539 4.8515625 2.59765625 C6.22997314 3.41641235 6.22997314 3.41641235 7.63623047 4.25170898 C9.11567139 5.14805054 9.11567139 5.14805054 10.625 6.0625 C12.78566379 7.34769089 14.94715585 8.63149008 17.109375 9.9140625 C18.23794922 10.58598633 19.36652344 11.25791016 20.52929688 11.95019531 C25.68913385 15.00883161 30.90369388 17.97229882 36.11743164 20.93774414 C39.07461088 22.61987346 42.02949714 24.30601973 44.984375 25.9921875 C45.56960937 26.32607483 46.15484375 26.65996216 46.7578125 27.00396729 C57.19518636 32.96204044 67.59418497 38.98705428 78 45 C82.43707463 47.56323729 86.87468665 50.12554194 91.3125 52.6875 C92.27623535 53.24445557 93.2399707 53.80141113 94.23291016 54.37524414 C101.1198326 58.35119348 108.02136429 62.30116845 114.92651367 66.24536133 C115.89732628 66.79999306 116.86813889 67.35462479 117.86837006 67.92606354 C120.24552836 69.28413285 122.62273965 70.64210933 125 72 C125.56210665 91.31417187 125.98453963 110.62667327 126.24349213 129.94734383 C126.36696342 138.91999717 126.53504797 147.88755422 126.81054688 156.85693359 C127.05073874 164.68059657 127.20480495 172.50057054 127.25812387 180.3278178 C127.28928147 184.46999288 127.36166956 188.60162315 127.53752136 192.74039078 C128.56388886 217.84944813 128.56388886 217.84944813 122.64449692 224.74324989 C116.91452131 229.36353095 110.63495443 232.30350004 103.78815842 234.90473747 C100.21454654 236.30854694 97.13992694 238.0986621 93.8828125 240.12109375 C91.96389348 241.22717308 90.04463128 242.33265727 88.125 243.4375 C85.94009462 244.69659802 83.75519908 245.95571311 81.5703125 247.21484375 C80.48524414 247.83987793 79.40017578 248.46491211 78.28222656 249.10888672 C72.85340058 252.23680148 67.42680719 255.36858448 62 258.5 C59.83334417 259.75001879 57.6666775 261.00001878 55.5 262.25 C54.4275 262.86875 53.355 263.4875 52.25 264.125 C49 266 45.75 267.875 42.5 269.75 C41.42588867 270.37011963 40.35177734 270.99023926 39.24511719 271.62915039 C37.09626575 272.86798943 34.94589273 274.10419322 32.79394531 275.33764648 C27.70316444 278.25985983 22.63232365 281.20685331 17.61242676 284.24905396 C15.23750276 285.68613607 12.85378932 287.10826117 10.46923828 288.52929688 C8.78710668 289.54020016 7.11796688 290.57262227 5.44921875 291.60546875 C4.42957031 292.21132813 3.40992188 292.8171875 2.359375 293.44140625 C1.46702148 293.98482666 0.57466797 294.52824707 -0.34472656 295.08813477 C-3.94061284 296.32302215 -5.57805281 295.5314044 -9 294 C-10.64422579 293.15205726 -12.26231535 292.25167158 -13.8515625 291.3046875 C-14.77066406 290.76199219 -15.68976563 290.21929687 -16.63671875 289.66015625 C-17.62285156 289.07105469 -18.60898438 288.48195313 -19.625 287.875 C-21.78313461 286.60034343 -23.94201956 285.3269566 -26.1015625 284.0546875 C-27.79394043 283.05646973 -27.79394043 283.05646973 -29.52050781 282.03808594 C-34.72904743 278.97813757 -39.98070614 275.99368379 -45.23114014 273.00640869 C-55.49624847 267.1659832 -65.72253749 261.2632805 -75.91308594 255.29345703 C-81.26416822 252.16386317 -86.62893936 249.06009755 -92.015625 245.9921875 C-92.61741577 245.64931702 -93.21920654 245.30644653 -93.8392334 244.95318604 C-96.72674201 243.30893444 -99.61597168 241.66787933 -102.5078125 240.03125 C-104.67282809 238.80077352 -106.81787589 237.53445515 -108.9407959 236.23269653 C-111.8842118 234.50617675 -114.80208799 233.30841434 -118.01281738 232.16159058 C-123.93634829 229.77819172 -129.05512877 227.15263749 -133 222 C-136.45470082 212.07784746 -135.39296547 200.84143432 -135.02787876 190.49390888 C-134.90205674 186.32257783 -134.8910454 182.15090198 -134.86737061 177.97796631 C-134.80542623 170.09208313 -134.64165167 162.21180598 -134.44038081 154.32838225 C-134.21610777 145.34720879 -134.10669498 136.36575397 -134.00647211 127.38247347 C-133.79792593 108.91848084 -133.44661554 90.45969234 -133 72 C-132.33736239 71.62593175 -131.67472479 71.2518635 -130.99200726 70.86645985 C-127.96346135 69.15653335 -124.9352195 67.44606907 -121.90698242 65.7355957 C-120.86455132 65.14714119 -119.82212021 64.55868668 -118.74810028 63.95240021 C-111.90294326 60.08532933 -105.08677033 56.17754005 -98.3125 52.1875 C-89.5749328 47.06587877 -80.7999168 42.0133798 -72 37 C-63.30587381 32.046351 -54.63638781 27.05391297 -46 22 C-44.06515634 20.87360829 -42.13025979 19.74730743 -40.1953125 18.62109375 C-36.25961394 16.32816065 -32.33768062 14.01378854 -28.42449951 11.68276978 C-25.87212364 10.16689601 -23.31163009 8.66510711 -20.74951172 7.16577148 C-19.51091559 6.43677749 -18.27579503 5.70184222 -17.04443359 4.96069336 C-15.32785508 3.92844244 -13.59773535 2.91881273 -11.8671875 1.91015625 C-10.87831543 1.32371338 -9.88944336 0.73727051 -8.87060547 0.13305664 C-5.35412329 -1.25493399 -3.60599939 -1.03670984 0 0 Z M-10.4765625 12.0078125 C-11.60964844 12.6575 -12.74273437 13.3071875 -13.91015625 13.9765625 C-15.14850967 14.69258353 -16.38678902 15.40873269 -17.625 16.125 C-18.90217067 16.85967597 -20.17951646 17.59404759 -21.45703125 18.328125 C-30.29972956 23.41528222 -39.11279242 28.55322871 -47.91650391 33.70751953 C-55.58189082 38.18985421 -63.28515136 42.60365192 -71 47 C-79.95998705 52.10740332 -88.90284088 57.24258009 -97.8125 62.4375 C-98.72322266 62.96794922 -99.63394531 63.49839844 -100.57226562 64.04492188 C-102.33947506 65.07760689 -104.08927282 66.14082164 -105.81793213 67.23681641 C-109 69 -109 69 -112.78936768 70.19885254 C-117.4601311 71.85694937 -121.16550238 73.82065808 -124 78 C-126.70186317 87.21683687 -125.79176284 97.45740222 -125.52090907 106.98068929 C-125.42672386 110.85200783 -125.41829717 114.72352252 -125.40052795 118.59580994 C-125.35402106 125.91761464 -125.23110848 133.23603413 -125.08028561 140.55635208 C-124.91224576 148.89449508 -124.83005989 157.23280546 -124.75485408 165.57222188 C-124.59833056 182.71676844 -124.33474005 199.85802566 -124 217 C-123.30519028 217.38777115 -122.61038055 217.7755423 -121.89451599 218.17506409 C-118.67777999 219.97111435 -115.46193435 221.76875329 -112.24609375 223.56640625 C-111.15373413 224.17601196 -110.06137451 224.78561768 -108.93591309 225.41369629 C-101.60141751 229.51553565 -94.31467964 233.69189221 -87.0625 237.9375 C-85.95640381 238.58460938 -84.85030762 239.23171875 -83.71069336 239.8984375 C-82.84581299 240.40632812 -81.98093262 240.91421875 -81.08984375 241.4375 C-74.78429525 245.13213343 -68.45701776 248.78846027 -62.125 252.4375 C-61.05137207 253.05641113 -59.97774414 253.67532227 -58.87158203 254.31298828 C-54.44701255 256.8629532 -50.02172789 259.41167469 -45.59619141 261.95996094 C-43.32502236 263.267869 -41.05410551 264.5762151 -38.78344727 265.88500977 C-36.57794139 267.15552921 -34.37142079 268.42428906 -32.16381836 269.69116211 C-27.32846105 272.47178032 -22.51570113 275.27489582 -17.765625 278.19921875 C-16.9826001 278.67705811 -16.1995752 279.15489746 -15.39282227 279.6472168 C-13.97401274 280.51753934 -12.56232816 281.39964326 -11.15991211 282.29614258 C-7.62698519 284.49450909 -7.62698519 284.49450909 -3.58642578 284.75073242 C-0.88649202 283.96705333 1.23951366 282.94890216 3.67578125 281.55078125 C4.57321045 281.03990967 5.47063965 280.52903809 6.39526367 280.00268555 C7.35795166 279.44492432 8.32063965 278.88716309 9.3125 278.3125 C10.32868408 277.73089111 11.34486816 277.14928223 12.3918457 276.55004883 C20.50849237 271.89352882 28.5888398 267.17374458 36.66333008 262.44458008 C45.00147123 257.5650744 53.38506784 252.76785574 61.77957153 247.98635864 C70.99394985 242.73649926 80.17277802 237.42871165 89.30859375 232.04296875 C98.12519512 226.86660396 107.05171075 221.97127181 116 217 C116 171.13 116 125.26 116 78 C107.42 73.05 98.84 68.1 90 63 C73.75 53.625 73.75 53.625 57.5 44.25 C56.42661377 43.6307666 55.35322754 43.0115332 54.24731445 42.37353516 C52.08950197 41.12858718 49.93178647 39.8834711 47.77416992 38.63818359 C42.22283408 35.43447349 36.66963459 32.2340637 31.11328125 29.0390625 C28.84625229 27.73455203 26.57932355 26.42986738 24.3125 25.125 C23.22904297 24.50165771 22.14558594 23.87831543 21.02929688 23.23608398 C14.36074932 19.39015037 7.72612014 15.49542782 1.18481445 11.43603516 C-3.99683495 8.2592045 -5.29002915 9.02267994 -10.4765625 12.0078125 Z " fill="#2A77EB" transform="translate(154,3)"/>
    <path d="M0 0 C1.32451172 0.41958984 1.32451172 0.41958984 2.67578125 0.84765625 C5.79081858 2.28288086 7.73670757 3.39182491 10 6 C11.27334154 11.21588228 10.5640445 16.72305038 10 22 C1.06490816 28.0951526 1.06490816 28.0951526 -4 29 C-9.08161038 27.54662829 -12.77034025 25.19683586 -17 22 C-18.42834286 10.98324443 -18.42834286 10.98324443 -17 6 C-12.4039527 1.10905765 -6.67015976 -2.13787172 0 0 Z " fill="#FF9806" transform="translate(192,60)"/>
    <path d="M0 0 C1.65 0 3.3 0 5 0 C5.67126129 2.4363189 6.33716354 4.87388883 7 7.3125 C7.19078125 8.00279297 7.3815625 8.69308594 7.578125 9.40429688 C8.37716184 12.35787949 9 14.92559219 9 18 C9.66 18 10.32 18 11 18 C11.103125 16.700625 11.20625 15.40125 11.3125 14.0625 C11.848308 9.09839647 13.24930225 4.65751666 15 0 C16.32 0 17.64 0 19 0 C20.65 5.28 22.3 10.56 24 16 C25.68373405 12.6325319 26.68218415 9.84984234 27.625 6.25 C27.88539063 5.26515625 28.14578125 4.2803125 28.4140625 3.265625 C28.60742188 2.51796875 28.80078125 1.7703125 29 1 C30.65 0.67 32.3 0.34 34 0 C31.71143755 7.6805543 29.36446331 15.34249954 27 23 C25.35 23 23.7 23 22 23 C19.60251894 17.26689311 18.41588046 12.19518473 18 6 C17.34 6 16.68 6 16 6 C15.87882813 6.72445312 15.75765625 7.44890625 15.6328125 8.1953125 C14.75060421 13.28497573 13.83557653 18.14883346 12 23 C10.35 23 8.7 23 7 23 C5.82847622 19.54329268 4.66360923 16.08437878 3.5 12.625 C3.16613281 11.64015625 2.83226563 10.6553125 2.48828125 9.640625 C2.17246094 8.69960937 1.85664062 7.75859375 1.53125 6.7890625 C1.23798828 5.91975098 0.94472656 5.05043945 0.64257812 4.15478516 C0 2 0 2 0 0 Z " fill="#232B38" transform="translate(117,62)"/>
    <path d="M0 0 C1.59134766 -0.03867187 1.59134766 -0.03867187 3.21484375 -0.078125 C6.0625 0.25 6.0625 0.25 7.72216797 1.47875977 C9.45539582 3.76920933 9.40993058 5.0677998 9.35546875 7.91796875 C9.34580078 8.81064453 9.33613281 9.70332031 9.32617188 10.62304688 C9.30103516 11.55181641 9.27589844 12.48058594 9.25 13.4375 C9.22969727 14.84805664 9.22969727 14.84805664 9.20898438 16.28710938 C9.17363096 18.60865038 9.12428674 20.92903653 9.0625 23.25 C8.0725 23.25 7.0825 23.25 6.0625 23.25 C6.0625 22.59 6.0625 21.93 6.0625 21.25 C5.216875 21.765625 4.37125 22.28125 3.5 22.8125 C-0.56568269 24.51269458 -2.70832542 24.30729365 -6.9375 23.25 C-8.9375 21.25 -8.9375 21.25 -9.3125 17.875 C-8.9375 14.25 -8.9375 14.25 -7.5625 11.8125 C-3.52010252 9.40631102 0.47129515 9.93457371 5.0625 10.25 C4.7325 8.27 4.4025 6.29 4.0625 4.25 C0.1025 4.25 -3.8575 4.25 -7.9375 4.25 C-7.9375 3.26 -7.9375 2.27 -7.9375 1.25 C-5.23187257 -0.10281371 -3.01856345 0.04390638 0 0 Z " fill="#1A2234" transform="translate(104.9375,61.75)"/>
    <path d="M0 0 C1.98 0 3.96 0 6 0 C7.00777029 2.74737377 8.00641446 5.49749952 9 8.25 C9.28617188 9.02730469 9.57234375 9.80460938 9.8671875 10.60546875 C10.27324219 11.73662109 10.27324219 11.73662109 10.6875 12.890625 C10.93886719 13.58188477 11.19023438 14.27314453 11.44921875 14.98535156 C12 17 12 17 12 21 C10.68 21 9.36 21 8 21 C7.67 19.35 7.34 17.7 7 16 C3.04 16.495 3.04 16.495 -1 17 C-1.33 18.32 -1.66 19.64 -2 21 C-3.65 21 -5.3 21 -7 21 C-5.180206 13.74839665 -2.93841629 6.87619244 0 0 Z " fill="#575F68" transform="translate(92,174)"/>
    <path d="M0 0 C1.65 0 3.3 0 5 0 C5 2.64 5 5.28 5 8 C5.66 7.67 6.32 7.34 7 7 C10 6.8125 10 6.8125 13 7 C15 9 15 9 15.1953125 12.2578125 C15.17210937 13.53398437 15.14890625 14.81015625 15.125 16.125 C15.10695312 17.40632813 15.08890625 18.68765625 15.0703125 20.0078125 C15.04710937 20.99523437 15.02390625 21.98265625 15 23 C13.35 23 11.7 23 10 23 C10 18.71 10 14.42 10 10 C8.68 10.33 7.36 10.66 6 11 C5.67 14.96 5.34 18.92 5 23 C3.35 23 1.7 23 0 23 C0 15.41 0 7.82 0 0 Z " fill="#616871" transform="translate(134,172)"/>
    <path d="M0 0 C2.68289052 0.53949429 3.57210334 1.21578843 5.15625 3.43359375 C5.83419648 6.50130156 5.74572938 9.3527298 5.15625 12.43359375 C2.59596234 15.52099946 1.01478089 16.2759044 -2.90625 16.99609375 C-5.84375 16.43359375 -5.84375 16.43359375 -8.21875 14.37109375 C-10.23845801 10.72008312 -10.36791181 8.55200794 -9.84375 4.43359375 C-7.97740232 -0.41891022 -4.62296488 -0.00770494 0 0 Z " fill="#505862" transform="translate(178.84375,144.56640625)"/>
    <path d="M0 0 C2.68289052 0.53949429 3.57210334 1.21578843 5.15625 3.43359375 C5.83419648 6.50130156 5.74572938 9.3527298 5.15625 12.43359375 C2.59596234 15.52099946 1.01478089 16.2759044 -2.90625 16.99609375 C-5.84375 16.43359375 -5.84375 16.43359375 -8.21875 14.37109375 C-10.23845801 10.72008312 -10.36791181 8.55200794 -9.84375 4.43359375 C-7.97740232 -0.41891022 -4.62296488 -0.00770494 0 0 Z " fill="#505862" transform="translate(110.84375,144.56640625)"/>
    <path d="M0 0 C0.66 0 1.32 0 2 0 C2 7.26 2 14.52 2 22 C-2.95 22.495 -2.95 22.495 -8 23 C-11.41569282 18.4457429 -11.41569282 18.4457429 -11.375 14.4375 C-11.38273438 13.67308594 -11.39046875 12.90867187 -11.3984375 12.12109375 C-10.90281807 9.48264915 -10.13849676 8.58759596 -8 7 C-4.90498792 6.74734595 -2.79870027 6.60064987 0 8 C0 5.36 0 2.72 0 0 Z " fill="#F5F5F5" transform="translate(200,92)"/>
    <path d="M0 0 C3.63 1.98 7.26 3.96 11 6 C11 11.28 11 16.56 11 22 C10.34 22 9.68 22 9 22 C8.67 18.04 8.34 14.08 8 10 C6.96875 11.216875 5.9375 12.43375 4.875 13.6875 C1.81390157 17.19747641 -1.33361083 20.13842796 -5 23 C-6.98 21.35 -8.96 19.7 -11 18 C-10.505 16.515 -10.505 16.515 -10 15 C-8.88238281 15.11601563 -8.88238281 15.11601563 -7.7421875 15.234375 C-4.21179791 14.9326323 -3.3864594 13.90939861 -1.125 11.25 C-0.50882813 10.55390625 0.10734375 9.8578125 0.7421875 9.140625 C2.21599195 7.10367087 2.21599195 7.10367087 1.8203125 4.859375 C1.04922943 2.80821086 1.04922943 2.80821086 -1 1 C-0.67 0.67 -0.34 0.34 0 0 Z " fill="#FF9C1D" transform="translate(191,60)"/>
    <path d="M0 0 C0.90105469 0.02707031 1.80210938 0.05414063 2.73046875 0.08203125 C3.76107422 0.13423828 3.76107422 0.13423828 4.8125 0.1875 C5.1425 1.5075 5.4725 2.8275 5.8125 4.1875 C3.1725 4.1875 0.5325 4.1875 -2.1875 4.1875 C-2.1875 5.1775 -2.1875 6.1675 -2.1875 7.1875 C0.7825 8.8375 3.7525 10.4875 6.8125 12.1875 C7.125 14.9375 7.125 14.9375 6.8125 18.1875 C3.98536823 21.44298507 2.4402243 22.13430303 -1.875 22.5 C-5.1875 22.1875 -5.1875 22.1875 -7.1875 21.1875 C-7.1875 20.1975 -7.1875 19.2075 -7.1875 18.1875 C-4.2175 17.8575 -1.2475 17.5275 1.8125 17.1875 C1.17510008 14.1049163 1.17510008 14.1049163 -1 13.265625 C-1.721875 12.99234375 -2.44375 12.7190625 -3.1875 12.4375 C-5.36328125 11.42578125 -5.36328125 11.42578125 -7.1875 10.1875 C-8.375 6.625 -8.375 6.625 -8.1875 3.1875 C-5.88183829 -0.11930429 -3.87787715 -0.15108612 0 0 Z " fill="#5B626B" transform="translate(91.1875,138.8125)"/>
    <path d="M0 0 C0.99386719 0.02707031 1.98773438 0.05414063 3.01171875 0.08203125 C4.15060547 0.13423828 4.15060547 0.13423828 5.3125 0.1875 C5.6425 1.5075 5.9725 2.8275 6.3125 4.1875 C3.0125 4.1875 -0.2875 4.1875 -3.6875 4.1875 C-3.6875 5.5075 -3.6875 6.8275 -3.6875 8.1875 C-2.97722656 8.53683594 -2.26695312 8.88617188 -1.53515625 9.24609375 C-0.61605469 9.70113281 0.30304688 10.15617187 1.25 10.625 C2.16652344 11.07746094 3.08304688 11.52992187 4.02734375 11.99609375 C6.3125 13.1875 6.3125 13.1875 7.3125 14.1875 C7.69548208 17.63433871 7.68956052 19.56453045 5.875 22.5625 C2.1271546 24.93918245 -1.35894532 24.67376489 -5.6875 24.1875 C-6.6775 23.8575 -7.6675 23.5275 -8.6875 23.1875 C-8.6875 22.1975 -8.6875 21.2075 -8.6875 20.1875 C-5.3875 20.1875 -2.0875 20.1875 1.3125 20.1875 C1.9725 18.5375 2.6325 16.8875 3.3125 15.1875 C2.69761719 15.00574219 2.08273438 14.82398437 1.44921875 14.63671875 C0.64097656 14.38535156 -0.16726562 14.13398437 -1 13.875 C-1.80050781 13.63136719 -2.60101563 13.38773438 -3.42578125 13.13671875 C-5.83691441 12.1247924 -7.08857243 11.24326402 -8.6875 9.1875 C-9.3234447 4.0999424 -9.3234447 4.0999424 -7.51953125 1.51171875 C-4.95574213 -0.3414252 -3.12504272 -0.11029563 0 0 Z " fill="#262F3D" transform="translate(161.6875,61.8125)"/>
    <path d="M0 0 C9.9609375 -0.1953125 9.9609375 -0.1953125 13 0 C15 2 15 2 15.1953125 5.2578125 C15.16050781 7.17207031 15.16050781 7.17207031 15.125 9.125 C15.10695312 10.40632812 15.08890625 11.68765625 15.0703125 13.0078125 C15.04710937 13.99523437 15.02390625 14.98265625 15 16 C13.35 16 11.7 16 10 16 C10 11.71 10 7.42 10 3 C8.35 3 6.7 3 5 3 C5 7.29 5 11.58 5 16 C3.35 16 1.7 16 0 16 C0 10.72 0 5.44 0 0 Z " fill="#656C75" transform="translate(188,145)"/>
    <path d="M0 0 C1.9375 1.125 1.9375 1.125 3 3 C3.1875 6.1875 3.1875 6.1875 3 9 C-0.3 9 -3.6 9 -7 9 C-5.39519216 12.12606964 -5.39519216 12.12606964 -3.0546875 12.51171875 C-1.97574219 12.59873047 -1.97574219 12.59873047 -0.875 12.6875 C0.40375 12.790625 1.6825 12.89375 3 13 C2.67 13.99 2.34 14.98 2 16 C0.56344146 16.08131463 -0.8744483 16.13933559 -2.3125 16.1875 C-3.51326172 16.23970703 -3.51326172 16.23970703 -4.73828125 16.29296875 C-7 16 -7 16 -8.76953125 14.80078125 C-10.39104734 12.42770532 -10.40050639 10.85671589 -10.375 8 C-10.38273438 7.13375 -10.39046875 6.2675 -10.3984375 5.375 C-9.40073819 -0.57207037 -5.30344576 -0.56822633 0 0 Z " fill="#525A64" transform="translate(184,179)"/>
    <path d="M0 0 C0.33 0 0.66 0 1 0 C1 49.5 1 99 1 150 C0.67 150 0.34 150 0 150 C0 100.5 0 51 0 0 Z " fill="#3973D8" transform="translate(280,75)"/>
    <path d="M0 0 C0.33 0 0.66 0 1 0 C1 49.5 1 99 1 150 C0.67 150 0.34 150 0 150 C0 100.5 0 51 0 0 Z " fill="#007BF0" transform="translate(19,75)"/>
    <path d="M0 0 C1.32 0 2.64 0 4 0 C4.33 3.96 4.66 7.92 5 12 C5.99 12 6.98 12 8 12 C8.33 8.04 8.66 4.08 9 0 C10.65 0 12.3 0 14 0 C14 4.95 14 9.9 14 15 C12.02 15 10.04 15 8 15 C6.9275 15.20625 5.855 15.4125 4.75 15.625 C3.8425 15.74875 2.935 15.8725 2 16 C0 14 0 14 -0.1953125 10.7421875 C-0.17210937 9.46601563 -0.14890625 8.18984375 -0.125 6.875 C-0.10695312 5.59367188 -0.08890625 4.31234375 -0.0703125 2.9921875 C-0.04710937 2.00476563 -0.02390625 1.01734375 0 0 Z " fill="#5C646D" transform="translate(130,145)"/>
    <path d="M0 0 C1.32 0 2.64 0 4 0 C4 1.32 4 2.64 4 4 C5.32 4 6.64 4 8 4 C8 5.32 8 6.64 8 8 C6.68 8 5.36 8 4 8 C4 10.97 4 13.94 4 17 C5.32 17 6.64 17 8 17 C8 17.99 8 18.98 8 20 C4.625 20.125 4.625 20.125 1 20 C-1 18 -1 18 -1.1953125 15.3984375 C-1.17210937 14.40070313 -1.14890625 13.40296875 -1.125 12.375 C-1.10695312 11.37210938 -1.08890625 10.36921875 -1.0703125 9.3359375 C-1.04710937 8.56507813 -1.02390625 7.79421875 -1 7 C-1.66 7 -2.32 7 -3 7 C-3 6.34 -3 5.68 -3 5 C-2.34 4.67 -1.68 4.34 -1 4 C-0.34786708 1.97536745 -0.34786708 1.97536745 0 0 Z " fill="#5C646D" transform="translate(207,175)"/>
    <path d="M0 0 C1.32 0 2.64 0 4 0 C4 1.32 4 2.64 4 4 C5.32 4 6.64 4 8 4 C8 4.99 8 5.98 8 7 C6.68 7 5.36 7 4 7 C4 9.97 4 12.94 4 16 C5.32 16 6.64 16 8 16 C8 16.99 8 17.98 8 19 C4.625 19.125 4.625 19.125 1 19 C-1 17 -1 17 -1.1953125 14.6171875 C-1.17210937 13.71226562 -1.14890625 12.80734375 -1.125 11.875 C-1.10695312 10.96492187 -1.08890625 10.05484375 -1.0703125 9.1171875 C-1.04710937 8.41851562 -1.02390625 7.71984375 -1 7 C-1.66 7 -2.32 7 -3 7 C-3 6.01 -3 5.02 -3 4 C-2.01 4 -1.02 4 0 4 C0 2.68 0 1.36 0 0 Z " fill="#565D67" transform="translate(150,141)"/>
    <path d="M0 0 C1.23556641 0.01740234 1.23556641 0.01740234 2.49609375 0.03515625 C3.32238281 0.04417969 4.14867187 0.05320313 5 0.0625 C5.63808594 0.07410156 6.27617187 0.08570313 6.93359375 0.09765625 C6.93359375 1.08765625 6.93359375 2.07765625 6.93359375 3.09765625 C4.62359375 3.09765625 2.31359375 3.09765625 -0.06640625 3.09765625 C-0.06640625 3.75765625 -0.06640625 4.41765625 -0.06640625 5.09765625 C1.35671875 5.53078125 1.35671875 5.53078125 2.80859375 5.97265625 C5.93359375 7.09765625 5.93359375 7.09765625 7.93359375 9.09765625 C7.74609375 11.59765625 7.74609375 11.59765625 6.93359375 14.09765625 C3.28941635 16.52710785 1.22118103 16.259452 -3.06640625 16.09765625 C-3.39640625 14.77765625 -3.72640625 13.45765625 -4.06640625 12.09765625 C-1.75640625 12.09765625 0.55359375 12.09765625 2.93359375 12.09765625 C3.26359375 11.43765625 3.59359375 10.77765625 3.93359375 10.09765625 C2.98484375 9.80890625 2.03609375 9.52015625 1.05859375 9.22265625 C-2.06640625 8.09765625 -2.06640625 8.09765625 -4.06640625 6.09765625 C-3.34205084 0.15794191 -3.34205084 0.15794191 0 0 Z " fill="#586069" transform="translate(210.06640625,144.90234375)"/>
    <path d="M0 0 C3.0625 0.3125 3.0625 0.3125 4.9375 1.4375 C6.59104531 4.19340884 6.45615568 6.16325452 6.0625 9.3125 C4.9375 11.1875 4.9375 11.1875 3.0625 12.3125 C0 12.6875 0 12.6875 -2.9375 12.3125 C-5.38647847 8.63903229 -5.25287716 6.64893601 -4.9375 2.3125 C-2.9375 0.3125 -2.9375 0.3125 0 0 Z " fill="#515B67" transform="translate(141.9375,221.6875)"/>
    <path d="M0 0 C1.32 0 2.64 0 4 0 C4 1.32 4 2.64 4 4 C5.32 4 6.64 4 8 4 C8 4.99 8 5.98 8 7 C6.68 7 5.36 7 4 7 C4.33 9.97 4.66 12.94 5 16 C5.99 16.33 6.98 16.66 8 17 C8 17.99 8 18.98 8 20 C5.125 20.125 5.125 20.125 2 20 C0 18 0 18 -0.1953125 15.3984375 C-0.17210937 14.40070313 -0.14890625 13.40296875 -0.125 12.375 C-0.10695312 11.37210938 -0.08890625 10.36921875 -0.0703125 9.3359375 C-0.04710937 8.56507813 -0.02390625 7.79421875 0 7 C-0.66 7 -1.32 7 -2 7 C-2 6.34 -2 5.68 -2 5 C-1.34 5 -0.68 5 0 5 C0 3.35 0 1.7 0 0 Z " fill="#4F5762" transform="translate(163,175)"/>
    <path d="M0 0 C0 1.32 0 2.64 0 4 C-2.31 4 -4.62 4 -7 4 C-7 6.31 -7 8.62 -7 11 C-4.69 11.66 -2.38 12.32 0 13 C-0.33 13.99 -0.66 14.98 -1 16 C-4.25 16.3125 -4.25 16.3125 -8 16 C-11.22456813 13.27151928 -11.91290117 11.62057913 -12.5 7.4375 C-12 4 -12 4 -10.5 1.5625 C-6.86353539 -0.71029038 -4.24217465 -0.28281164 0 0 Z " fill="#626971" transform="translate(131,179)"/>
    <path d="M0 0 C0.33 0.99 0.66 1.98 1 3 C-0.98 3.66 -2.96 4.32 -5 5 C-5 6.98 -5 8.96 -5 11 C-3.02 11.66 -1.04 12.32 1 13 C1 13.99 1 14.98 1 16 C-6.48291925 16.36801242 -6.48291925 16.36801242 -8.734375 14.765625 C-11.07155934 11.50510857 -10.61505962 7.82857339 -10 4 C-7.29698633 -0.26244464 -4.85478777 -0.44134434 0 0 Z " fill="#4C545E" transform="translate(201,179)"/>
    <path d="M0 0 C1.32 0 2.64 0 4 0 C4 6.27 4 12.54 4 19 C4.99 19 5.98 19 7 19 C7 19.99 7 20.98 7 22 C5.00045254 22.04254356 2.99958364 22.04080783 1 22 C0 21 0 21 -0.11352539 18.95874023 C-0.10828857 18.08419189 -0.10305176 17.20964355 -0.09765625 16.30859375 C-0.09443359 15.36435547 -0.09121094 14.42011719 -0.08789062 13.44726562 C-0.07951172 12.45404297 -0.07113281 11.46082031 -0.0625 10.4375 C-0.05798828 9.44041016 -0.05347656 8.44332031 -0.04882812 7.41601562 C-0.03700007 4.94395151 -0.02051849 2.47200482 0 0 Z " fill="#4E5660" transform="translate(120,138)"/>
    <path d="M0 0 C1.32 0 2.64 0 4 0 C4 0.66 4 1.32 4 2 C4.99 1.34 5.98 0.68 7 0 C7.99 0 8.98 0 10 0 C10 1.32 10 2.64 10 4 C8.35 4 6.7 4 5 4 C5 7.96 5 11.92 5 16 C3.35 16 1.7 16 0 16 C0 10.72 0 5.44 0 0 Z " fill="#606870" transform="translate(107,179)"/>
    <path d="M0 0 C2 2 2 2 2.125 5.125 C2.08375 6.07375 2.0425 7.0225 2 8 C-1.63 8 -5.26 8 -9 8 C-9.33 9.32 -9.66 10.64 -10 12 C-10.08131463 10.56344146 -10.13933559 9.1255517 -10.1875 7.6875 C-10.22230469 6.88699219 -10.25710937 6.08648437 -10.29296875 5.26171875 C-10 3 -10 3 -8.7109375 1.2265625 C-5.907554 -0.78316905 -3.32363543 -0.30214868 0 0 Z " fill="#888B91" transform="translate(183,99)"/>
    <path d="M0 0 C1.875 1.1875 1.875 1.1875 3 3 C3 4.65 3 6.3 3 8 C-0.63 8 -4.26 8 -8 8 C-8.33 9.32 -8.66 10.64 -9 12 C-9.08131463 10.56344146 -9.13933559 9.1255517 -9.1875 7.6875 C-9.22230469 6.88699219 -9.25710937 6.08648437 -9.29296875 5.26171875 C-9 3 -9 3 -7.67578125 1.23046875 C-5.08865228 -0.6691714 -3.11047001 -0.38880875 0 0 Z " fill="#898C92" transform="translate(119,99)"/>
    <path d="M0 0 C0.66 0 1.32 0 2 0 C2 7.26 2 14.52 2 22 C-2.95 22.495 -2.95 22.495 -8 23 C-11.41569282 18.4457429 -11.41569282 18.4457429 -11.375 14.4375 C-11.38273438 13.67308594 -11.39046875 12.90867187 -11.3984375 12.12109375 C-10.90281807 9.48264915 -10.13849676 8.58759596 -8 7 C-4.90498792 6.74734595 -2.79870027 6.60064987 0 8 C0 5.36 0 2.72 0 0 Z M-8.9375 9 C-10.56615754 12.06570831 -10.30406939 14.59442283 -10 18 C-9.01 19.485 -9.01 19.485 -8 21 C-4.92078868 21.25660094 -2.78863007 21.39431504 0 20 C0 16.37 0 12.74 0 9 C-4.57239006 7.86733849 -4.57239006 7.86733849 -8.9375 9 Z " fill="#3B4048" transform="translate(200,92)"/>
    <path d="M0 0 C1.65 0 3.3 0 5 0 C5 5.28 5 10.56 5 16 C3.35 16 1.7 16 0 16 C0 10.72 0 5.44 0 0 Z " fill="#696F77" transform="translate(153,179)"/>
    <path d="M0 0 C2.33294775 -0.04241723 4.66702567 -0.04092937 7 0 C8 1 8 1 8.09765625 3.50390625 C8.08605469 4.51324219 8.07445312 5.52257812 8.0625 6.5625 C8.05347656 7.57441406 8.04445312 8.58632812 8.03515625 9.62890625 C8.02355469 10.41136719 8.01195312 11.19382813 8 12 C5.36 12 2.72 12 0 12 C-0.625 9.625 -0.625 9.625 -1 7 C1 5 1 5 3.625 4.875 C4.40875 4.91625 5.1925 4.9575 6 5 C6 4.01 6 3.02 6 2 C4.02 2 2.04 2 0 2 C0 1.34 0 0.68 0 0 Z " fill="#6B747D" transform="translate(168,222)"/>
    <path d="M0 0 C1.59134766 -0.03867187 1.59134766 -0.03867187 3.21484375 -0.078125 C6.0625 0.25 6.0625 0.25 7.72216797 1.47875977 C9.45539582 3.76920933 9.40993058 5.0677998 9.35546875 7.91796875 C9.34580078 8.81064453 9.33613281 9.70332031 9.32617188 10.62304688 C9.30103516 11.55181641 9.27589844 12.48058594 9.25 13.4375 C9.22969727 14.84805664 9.22969727 14.84805664 9.20898438 16.28710938 C9.17363096 18.60865038 9.12428674 20.92903653 9.0625 23.25 C8.0725 23.25 7.0825 23.25 6.0625 23.25 C6.3925 22.59 6.7225 21.93 7.0625 21.25 C7.29524209 18.37089412 7.48222757 15.50853505 7.625 12.625 C7.66818359 11.82320312 7.71136719 11.02140625 7.75585938 10.1953125 C7.86201457 8.2137489 7.96276855 6.23189729 8.0625 4.25 C7.0725 4.58 6.0825 4.91 5.0625 5.25 C4.7325 4.92 4.4025 4.59 4.0625 4.25 C2.04285801 4.17755947 0.02082876 4.16622812 -2 4.1875 C-3.10472656 4.19652344 -4.20945312 4.20554687 -5.34765625 4.21484375 C-6.20230469 4.22644531 -7.05695313 4.23804687 -7.9375 4.25 C-7.9375 3.26 -7.9375 2.27 -7.9375 1.25 C-5.23187257 -0.10281371 -3.01856345 0.04390638 0 0 Z " fill="#0F1219" transform="translate(104.9375,61.75)"/>
    <path d="M0 0 C3.625 0.375 3.625 0.375 7 1 C7.33 2.65 7.66 4.3 8 6 C5.36 6 2.72 6 0 6 C0.66 7.32 1.32 8.64 2 10 C3.65 10 5.3 10 7 10 C7 10.66 7 11.32 7 12 C3.625 12.125 3.625 12.125 0 12 C-2 10 -2 10 -2.265625 8.125 C-2.26046875 7.42375 -2.2553125 6.7225 -2.25 6 C-2.25515625 5.29875 -2.2603125 4.5975 -2.265625 3.875 C-2 2 -2 2 0 0 Z " fill="#515966" transform="translate(191,222)"/>
    <path d="M0 0 C0.99 0.33 1.98 0.66 3 1 C1.52278578 4.45201639 -0.43794001 6.64961936 -3.125 9.25 C-3.84945312 9.95640625 -4.57390625 10.6628125 -5.3203125 11.390625 C-5.87460938 11.92171875 -6.42890625 12.4528125 -7 13 C-9 12 -11 11 -13 10 C-12.67 9.01 -12.34 8.02 -12 7 C-10.9790625 7.2165625 -10.9790625 7.2165625 -9.9375 7.4375 C-5.30799805 6.74799971 -3.00808751 3.39818532 0 0 Z " fill="#FFF5EC" transform="translate(193,68)"/>
    <path d="M0 0 C2.01822917 0.06510417 4.03645833 0.13020833 6.0546875 0.1953125 C6.0546875 2.1753125 6.0546875 4.1553125 6.0546875 6.1953125 C3.48255616 7.81480261 2.37799591 8.23940001 -0.6953125 7.8203125 C-1.4378125 7.6140625 -2.1803125 7.4078125 -2.9453125 7.1953125 C-3.5703125 4.8203125 -3.5703125 4.8203125 -3.9453125 2.1953125 C-1.9453125 0.1953125 -1.9453125 0.1953125 0 0 Z " fill="#EFEFF0" transform="translate(103.9453125,74.8046875)"/>
    <path d="M0 0 C1.32 0 2.64 0 4 0 C4.06058594 0.81984375 4.12117187 1.6396875 4.18359375 2.484375 C4.26738281 3.56203125 4.35117188 4.6396875 4.4375 5.75 C4.51871094 6.81734375 4.59992188 7.8846875 4.68359375 8.984375 C4.94090773 11.43679962 5.31812218 13.63921291 6 16 C1.125 15.125 1.125 15.125 0 14 C-0.07271741 11.64686445 -0.08370868 9.29166332 -0.0625 6.9375 C-0.05347656 5.64714844 -0.04445312 4.35679687 -0.03515625 3.02734375 C-0.02355469 2.02832031 -0.01195312 1.02929688 0 0 Z " fill="#4D5661" transform="translate(130,145)"/>
    <path d="M0 0 C1.32 0 2.64 0 4 0 C4 4.95 4 9.9 4 15 C2.68 15 1.36 15 0 15 C0 10.05 0 5.1 0 0 Z " fill="#49515C" transform="translate(161,145)"/>
    <path d="M0 0 C2.625 0.375 2.625 0.375 5 1 C5.125 4.375 5.125 4.375 5 8 C4.34 8.66 3.68 9.32 3 10 C0.875 9.625 0.875 9.625 -1 9 C-1.625 5.625 -1.625 5.625 -2 2 C-1.34 1.34 -0.68 0.68 0 0 Z " fill="#ECEDED" transform="translate(175,148)"/>
    <path d="M0 0 C2.625 0.375 2.625 0.375 5 1 C5.125 4.375 5.125 4.375 5 8 C4.34 8.66 3.68 9.32 3 10 C0.875 9.625 0.875 9.625 -1 9 C-1.625 5.625 -1.625 5.625 -2 2 C-1.34 1.34 -0.68 0.68 0 0 Z " fill="#ECEDED" transform="translate(107,148)"/>
    <path d="M0 0 C0.33 0 0.66 0 1 0 C1.33 4.62 1.66 9.24 2 14 C2.66 12.68 3.32 11.36 4 10 C4 10.66 4 11.32 4 12 C4.639375 12.12375 5.27875 12.2475 5.9375 12.375 C6.618125 12.58125 7.29875 12.7875 8 13 C9.24546405 15.49092811 8.7767578 16.41080733 8 19 C8.66 19 9.32 19 10 19 C9.67 19.66 9.34 20.32 9 21 C6.03 19.35 3.06 17.7 0 16 C0 10.72 0 5.44 0 0 Z " fill="#FFA32F" transform="translate(175,66)"/>
    <path d="M0 0 C1.32 0.33 2.64 0.66 4 1 C5.265625 3.87109375 5.265625 3.87109375 6.25 7.4375 C6.58515625 8.61183594 6.9203125 9.78617188 7.265625 10.99609375 C8 14 8 14 8 16 C7.34 16 6.68 16 6 16 C5.67 14.35 5.34 12.7 5 11 C3.02 11 1.04 11 -1 11 C-1 10.67 -1 10.34 -1 10 C0.65 10 2.3 10 4 10 C3.34 8.02 2.68 6.04 2 4 C1.71125 4.639375 1.4225 5.27875 1.125 5.9375 C0 8 0 8 -2 9 C-1.34 6.03 -0.68 3.06 0 0 Z " fill="#59606B" transform="translate(106,218)"/>
    <path d="M0 0 C2.5 0.125 2.5 0.125 3.5 1.125 C3.625 4.125 3.625 4.125 3.5 7.125 C2.5 8.125 2.5 8.125 0 8.25 C-2.5 8.125 -2.5 8.125 -3.5 7.125 C-3.625 4.125 -3.625 4.125 -3.5 1.125 C-2.5 0.125 -2.5 0.125 0 0 Z " fill="#EFEFF0" transform="translate(142.5,223.875)"/>
    <path d="M0 0 C2 1 2 1 2.6328125 2.84765625 C2.87644531 3.94400391 2.87644531 3.94400391 3.125 5.0625 C3.29257813 5.79597656 3.46015625 6.52945313 3.6328125 7.28515625 C3.75398438 7.85105469 3.87515625 8.41695312 4 9 C1.69 9 -0.62 9 -3 9 C-3.33 10.32 -3.66 11.64 -4 13 C-4.66 13 -5.32 13 -6 13 C-5.5020163 9.26512223 -5.12508244 7.18762365 -3 4 C-2.67 4.33 -2.34 4.66 -2 5 C-1.34 3.35 -0.68 1.7 0 0 Z " fill="#737A82" transform="translate(107,221)"/>
    <path d="M0 0 C0.94875 0.04125 1.8975 0.0825 2.875 0.125 C2.875 0.785 2.875 1.445 2.875 2.125 C0.895 2.125 -1.085 2.125 -3.125 2.125 C-1.19245228 4.1495738 0.50658688 5.54605792 2.875 7.125 C2.545 8.775 2.215 10.425 1.875 12.125 C-0.435 12.125 -2.745 12.125 -5.125 12.125 C-5.125 11.465 -5.125 10.805 -5.125 10.125 C-3.145 10.125 -1.165 10.125 0.875 10.125 C0.875 9.135 0.875 8.145 0.875 7.125 C-0.775 6.795 -2.425 6.465 -4.125 6.125 C-4.75 4.25 -4.75 4.25 -5.125 2.125 C-3.125 0.125 -3.125 0.125 0 0 Z " fill="#5B6670" transform="translate(121.125,221.875)"/>
    <path d="M0 0 C0.66 0 1.32 0 2 0 C2 0.99 2 1.98 2 3 C3.32 3 4.64 3 6 3 C6 3.66 6 4.32 6 5 C4.68 5 3.36 5 2 5 C2 7.64 2 10.28 2 13 C3.32 13 4.64 13 6 13 C6 13.66 6 14.32 6 15 C4.33388095 15.042721 2.66617115 15.04063832 1 15 C0 14 0 14 -0.09765625 11.93359375 C-0.08025391 10.69802734 -0.08025391 10.69802734 -0.0625 9.4375 C-0.05347656 8.61121094 -0.04445312 7.78492188 -0.03515625 6.93359375 C-0.02355469 6.29550781 -0.01195312 5.65742188 0 5 C-0.66 5 -1.32 5 -2 5 C-2 4.34 -2 3.68 -2 3 C-1.34 3 -0.68 3 0 3 C0 2.01 0 1.02 0 0 Z " fill="#5B646D" transform="translate(181,219)"/>
    <path d="M0 0 C0.33 0 0.66 0 1 0 C1 1.98 1 3.96 1 6 C4.3 6 7.6 6 11 6 C11 10.95 11 15.9 11 21 C10.67 21 10.34 21 10 21 C10 16.38 10 11.76 10 7 C7.03 7 4.06 7 1 7 C1 11.62 1 16.24 1 21 C0.67 21 0.34 21 0 21 C0 16.38 0 11.76 0 7 C-0.99 6.67 -1.98 6.34 -3 6 C-2.01 6 -1.02 6 0 6 C0 4.02 0 2.04 0 0 Z " fill="#020407" transform="translate(157,93)"/>
    <path d="M0 0 C6.34507042 -0.35915493 6.34507042 -0.35915493 8.9375 1.0625 C10.55479605 4.01168691 10.18630138 6.70867559 10 10 C8.68 10 7.36 10 6 10 C5.62875 8.3603125 5.62875 8.3603125 5.25 6.6875 C3.97997149 2.94091591 3.34243648 1.89404734 0 0 Z " fill="#4A535E" transform="translate(174,145)"/>
    <path d="M0 0 C6.34507042 -0.35915493 6.34507042 -0.35915493 8.9375 1.0625 C10.55479605 4.01168691 10.18630138 6.70867559 10 10 C8.68 10 7.36 10 6 10 C5.62875 8.3603125 5.62875 8.3603125 5.25 6.6875 C3.97997149 2.94091591 3.34243648 1.89404734 0 0 Z " fill="#4A535E" transform="translate(106,145)"/>
    <path d="M0 0 C0.33 1.32 0.66 2.64 1 4 C2.65 4 4.3 4 6 4 C6 4.33 6 4.66 6 5 C4.35 5 2.7 5 1 5 C1 9.29 1 13.58 1 18 C2.65 18 4.3 18 6 18 C6 18.33 6 18.66 6 19 C3.69 19 1.38 19 -1 19 C-1 14.38 -1 9.76 -1 5 C-1.66 4.67 -2.32 4.34 -3 4 C-2.01 4 -1.02 4 0 4 C0 2.68 0 1.36 0 0 Z " fill="#363D47" transform="translate(139,95)"/>
    <path d="M0 0 C0.66 0.33 1.32 0.66 2 1 C2.125 8.75 2.125 8.75 1 11 C-0.65 11 -2.3 11 -4 11 C-4.33 10.01 -4.66 9.02 -5 8 C-3.6875 6.0625 -3.6875 6.0625 -2 4 C-1.30419733 2.68163705 -0.62775567 1.35208914 0 0 Z " fill="#2B333F" transform="translate(143,74)"/>
    <path d="M0 0 C1.98 0 3.96 0 6 0 C6 0.66 6 1.32 6 2 C4.35 2 2.7 2 1 2 C1 2.99 1 3.98 1 5 C2.98 5.66 4.96 6.32 7 7 C6.125 10.875 6.125 10.875 5 12 C3.00041636 12.04080783 0.99954746 12.04254356 -1 12 C-0.67 11.34 -0.34 10.68 0 10 C1.32 10 2.64 10 4 10 C4 9.34 4 8.68 4 8 C1.53673288 6.3553326 1.53673288 6.3553326 -1 5 C-0.67 3.35 -0.34 1.7 0 0 Z " fill="#4D5763" transform="translate(128,222)"/>
    <path d="M0 0 C0 0.66 0 1.32 0 2 C-1.98 2.33 -3.96 2.66 -6 3 C-6 4.65 -6 6.3 -6 8 C-4.02 8.66 -2.04 9.32 0 10 C0 10.66 0 11.32 0 12 C-2.8125 12.25 -2.8125 12.25 -6 12 C-8.35210784 9.88310295 -8.91810953 8.55958485 -9.375 5.4375 C-9 3 -9 3 -7.875 1.1875 C-5.22464043 -0.49106106 -3.06753576 -0.20450238 0 0 Z " fill="#5C656F" transform="translate(159,222)"/>
    <path d="M0 0 C2 2 2 2 2 5 C2.66 5 3.32 5 4 5 C4.33 4.01 4.66 3.02 5 2 C5.79953138 5.28696233 6.09658936 6.71023192 5 10 C3.35 10 1.7 10 0 10 C-1.125 3.375 -1.125 3.375 0 0 Z " fill="#181F2B" transform="translate(124,75)"/>
    <path d="M0 0 C0.33 0 0.66 0 1 0 C1.66 1.98 2.32 3.96 3 6 C5.97 6.495 5.97 6.495 9 7 C8.67 7.99 8.34 8.98 8 10 C1.47692308 10.36923077 1.47692308 10.36923077 -0.9375 8.5 C-1.288125 8.005 -1.63875 7.51 -2 7 C-1.34 4.69 -0.68 2.38 0 0 Z " fill="#49525D" transform="translate(122,185)"/>
    <path d="M0 0 C3.63 0 7.26 0 11 0 C11.33 1.32 11.66 2.64 12 4 C7.71 4 3.42 4 -1 4 C-0.67 2.68 -0.34 1.36 0 0 Z " fill="#1A212A" transform="translate(156,62)"/>
    <path d="M0 0 C1.4540625 0.0309375 1.4540625 0.0309375 2.9375 0.0625 C3.2675 2.3725 3.5975 4.6825 3.9375 7.0625 C2.9475 7.3925 1.9575 7.7225 0.9375 8.0625 C0.9375 6.7425 0.9375 5.4225 0.9375 4.0625 C-0.0525 4.0625 -1.0425 4.0625 -2.0625 4.0625 C-2.0625 4.7225 -2.0625 5.3825 -2.0625 6.0625 C-2.7225 6.0625 -3.3825 6.0625 -4.0625 6.0625 C-4.105221 4.39638095 -4.10313832 2.72867115 -4.0625 1.0625 C-3.0625 0.0625 -3.0625 0.0625 0 0 Z " fill="#545B66" transform="translate(95.0625,173.9375)"/>
    <path d="M0 0 C0.66 0 1.32 0 2 0 C2 5.94 2 11.88 2 18 C1.01 17.34 0.02 16.68 -1 16 C-1.4375 9.875 -1.4375 9.875 0 7 C-1.32 6.67 -2.64 6.34 -4 6 C-3.01 6 -2.02 6 -1 6 C-1.020625 5.195625 -1.04125 4.39125 -1.0625 3.5625 C-1 1 -1 1 0 0 Z " fill="#444C57" transform="translate(111,66)"/>
    <path d="M0 0 C2.64 0 5.28 0 8 0 C5 2 5 2 3 3 C2.53101037 5.8159849 2.53101037 5.8159849 2.375 9.0625 C2.30023438 10.16722656 2.22546875 11.27195312 2.1484375 12.41015625 C2.09945312 13.26480469 2.05046875 14.11945313 2 15 C1.34 15 0.68 15 0 15 C0 10.05 0 5.1 0 0 Z " fill="#454C55" transform="translate(126,99)"/>
    <path d="M0 0 C0.99 0.33 1.98 0.66 3 1 C3 2.98 3 4.96 3 7 C-0.3 7 -3.6 7 -7 7 C-7.33 7.66 -7.66 8.32 -8 9 C-7.67 7.68 -7.34 6.36 -7 5 C-4.69 5 -2.38 5 0 5 C0 3.35 0 1.7 0 0 Z " fill="#424C58" transform="translate(184,181)"/>
    <path d="M0 0 C1.98 0.66 3.96 1.32 6 2 C2.375 5 2.375 5 -1 5 C-1.33 6.98 -1.66 8.96 -2 11 C-2.33 11 -2.66 11 -3 11 C-3.36923077 4.6 -3.36923077 4.6 -1.5 1.5625 C-1.005 1.046875 -0.51 0.53125 0 0 Z " fill="#5F656E" transform="translate(172,145)"/>
    <path d="M0 0 C1.98 0.66 3.96 1.32 6 2 C2.375 5 2.375 5 -1 5 C-1.33 6.98 -1.66 8.96 -2 11 C-2.33 11 -2.66 11 -3 11 C-3.36923077 4.6 -3.36923077 4.6 -1.5 1.5625 C-1.005 1.046875 -0.51 0.53125 0 0 Z " fill="#5F656E" transform="translate(104,145)"/>
    <path d="M0 0 C1.98 0 3.96 0 6 0 C6.33 0.66 6.66 1.32 7 2 C6.01 3.485 6.01 3.485 5 5 C4.54227937 7.73872955 4.54227937 7.73872955 4.375 10.6875 C4.30023438 11.68136719 4.22546875 12.67523438 4.1484375 13.69921875 C4.09945312 14.45847656 4.05046875 15.21773437 4 16 C3.67 16 3.34 16 3 16 C3 11.38 3 6.76 3 2 C2.01 1.67 1.02 1.34 0 1 C0 0.67 0 0.34 0 0 Z " fill="#6F747C" transform="translate(141,179)"/>
    <path d="M0 0 C0.33 0.99 0.66 1.98 1 3 C0.01 3 -0.98 3 -2 3 C-1.34 3.66 -0.68 4.32 0 5 C-6.75 5.125 -6.75 5.125 -9 4 C-9 3.01 -9 2.02 -9 1 C-4.545 0.505 -4.545 0.505 0 0 Z " fill="#5F666F" transform="translate(93,156)"/>
    <path d="M0 0 C0.33 0 0.66 0 1 0 C1 2.97 1 5.94 1 9 C2.32 9 3.64 9 5 9 C5 9.99 5 10.98 5 12 C2.69 12 0.38 12 -2 12 C-1.7834375 11.2575 -1.7834375 11.2575 -1.5625 10.5 C-0.78005593 7.02247078 -0.41305236 3.54044877 0 0 Z " fill="#656C74" transform="translate(153,148)"/>
    <path d="M0 0 C0.33 0 0.66 0 1 0 C1 2.97 1 5.94 1 9 C2.32 9 3.64 9 5 9 C5 9.99 5 10.98 5 12 C2.69 12 0.38 12 -2 12 C-1.34 8.04 -0.68 4.08 0 0 Z " fill="#676D75" transform="translate(210,183)"/>
    <path d="M0 0 C0.66 0 1.32 0 2 0 C2.66 2.97 3.32 5.94 4 9 C3.01 9.33 2.02 9.66 1 10 C0.34 9.34 -0.32 8.68 -1 8 C-0.96712417 5.27130593 -0.43602229 2.7033382 0 0 Z " fill="#4C555F" transform="translate(171,150)"/>
    <path d="M0 0 C0.66 0 1.32 0 2 0 C2.66 2.97 3.32 5.94 4 9 C3.01 9.33 2.02 9.66 1 10 C0.34 9.34 -0.32 8.68 -1 8 C-0.96712417 5.27130593 -0.43602229 2.7033382 0 0 Z " fill="#4C555F" transform="translate(103,150)"/>
    <path d="M0 0 C2.33294775 -0.04241723 4.66702567 -0.04092937 7 0 C8 1 8 1 8.09765625 3.50390625 C8.08605469 4.51324219 8.07445312 5.52257812 8.0625 6.5625 C8.05347656 7.57441406 8.04445312 8.58632812 8.03515625 9.62890625 C8.02355469 10.41136719 8.01195312 11.19382813 8 12 C7.01 11.34 6.02 10.68 5 10 C5.66 10 6.32 10 7 10 C6.67 7.69 6.34 5.38 6 3 C3.03 2.505 3.03 2.505 0 2 C0 1.34 0 0.68 0 0 Z " fill="#444E59" transform="translate(168,222)"/>
    <path d="M0 0 C0.66 0.33 1.32 0.66 2 1 C2.40729228 3.32156597 2.74438677 5.6568787 3 8 C1.35 8 -0.3 8 -2 8 C-1.125 2.25 -1.125 2.25 0 0 Z " fill="#E3E3E5" transform="translate(94,179)"/>
    <path d="M0 0 C0.53625 0.165 1.0725 0.33 1.625 0.5 C4.45886009 1.09660212 7.1119806 1.0656368 10 1 C10 1.99 10 2.98 10 4 C7.36 4 4.72 4 2 4 C1.34 2.68 0.68 1.36 0 0 Z " fill="#4B535D" transform="translate(192,191)"/>
    <path d="M0 0 C2.31 0 4.62 0 7 0 C7.33 1.32 7.66 2.64 8 4 C5.36 3.67 2.72 3.34 0 3 C0 2.01 0 1.02 0 0 Z " fill="#4F5862" transform="translate(89,139)"/>
    <path d="M0 0 C0.66 0.33 1.32 0.66 2 1 C2.6328125 3.06640625 2.6328125 3.06640625 3.125 5.5625 C3.29257813 6.38878906 3.46015625 7.21507812 3.6328125 8.06640625 C3.75398438 8.70449219 3.87515625 9.34257812 4 10 C3.34 10 2.68 10 2 10 C1.67 8.35 1.34 6.7 1 5 C-0.98 5 -2.96 5 -5 5 C-5 4.67 -5 4.34 -5 4 C-3.35 4 -1.7 4 0 4 C0 2.68 0 1.36 0 0 Z " fill="#46505D" transform="translate(110,224)"/>
    <path d="M0 0 C1.65 0.33 3.3 0.66 5 1 C5 1.99 5 2.98 5 4 C2.69 4 0.38 4 -2 4 C-1.34 2.68 -0.68 1.36 0 0 Z " fill="#DBDCDE" transform="translate(179,182)"/>
    <path d="M0 0 C0 4.29 0 8.58 0 13 C-0.33 13 -0.66 13 -1 13 C-1 9.7 -1 6.4 -1 3 C-3.97 2.505 -3.97 2.505 -7 2 C-4 0 -4 0 0 0 Z " fill="#5E646D" transform="translate(201,146)"/>
    <path d="M0 0 C0.99 0.33 1.98 0.66 3 1 C2.67 2.65 2.34 4.3 2 6 C-0.31 6 -2.62 6 -5 6 C-5 5.34 -5 4.68 -5 4 C-3.02 4 -1.04 4 1 4 C0.67 2.68 0.34 1.36 0 0 Z " fill="#555C69" transform="translate(121,228)"/>
    <path d="M0 0 C0.66 0.33 1.32 0.66 2 1 C2.625 4.0625 2.625 4.0625 3 7 C1.35 7 -0.3 7 -2 7 C-1.34 4.69 -0.68 2.38 0 0 Z " fill="#EAEBEC" transform="translate(107,221)"/>
    <path d="M0 0 C0.99 0.33 1.98 0.66 3 1 C4.1875 4.0625 4.1875 4.0625 5 7 C3 7 1 7 -1 7 C-0.67 4.69 -0.34 2.38 0 0 Z " fill="#5F656E" transform="translate(192,185)"/>
    <path d="M0 0 C1.98 0.495 1.98 0.495 4 1 C3.67 2.32 3.34 3.64 3 5 C1.68 4.67 0.36 4.34 -1 4 C-0.67 2.68 -0.34 1.36 0 0 Z " fill="#616972" transform="translate(154,172)"/>
    <path d="M0 0 C1.32 0.33 2.64 0.66 4 1 C3.79375 1.78375 3.5875 2.5675 3.375 3.375 C3.25125 4.24125 3.1275 5.1075 3 6 C3.66 6.66 4.32 7.32 5 8 C3.68 7.67 2.36 7.34 1 7 C0.67 4.69 0.34 2.38 0 0 Z " fill="#555E67" transform="translate(83,142)"/>
    <path d="M0 0 C2.9628331 0.39504441 5.38326241 1.59817629 8 3 C5.36 3.66 2.72 4.32 0 5 C0 4.34 0 3.68 0 3 C-0.66 2.67 -1.32 2.34 -2 2 C-1.34 1.34 -0.68 0.68 0 0 Z " fill="#303742" transform="translate(100,72)"/>
    <path d="M0 0 C3.375 -0.125 3.375 -0.125 7 0 C7.66 0.66 8.32 1.32 9 2 C8.34 2 7.68 2 7 2 C6.67 2.66 6.34 3.32 6 4 C4.68 3.67 3.36 3.34 2 3 C2 2.34 2 1.68 2 1 C1.34 0.67 0.68 0.34 0 0 Z " fill="#5C636C" transform="translate(177,179)"/>
    <path d="M0 0 C0.99 0 1.98 0 3 0 C2.34 2.97 1.68 5.94 1 9 C-1 6 -1 6 -0.625 2.8125 C-0.41875 1.884375 -0.2125 0.95625 0 0 Z " fill="#0E1524" transform="translate(145,69)"/>
    <path d="M0 0 C0 0.33 0 0.66 0 1 C-4.455 1.495 -4.455 1.495 -9 2 C-9 1.01 -9 0.02 -9 -1 C-5.79937313 -2.60031344 -3.27728194 -1.03173691 0 0 Z " fill="#2A3340" transform="translate(106,64)"/>
    <path d="M0 0 C0.99 0 1.98 0 3 0 C3 1.98 3 3.96 3 6 C1.66666667 6 0.33333333 6 -1 6 C-1.042721 4.33388095 -1.04063832 2.66617115 -1 1 C-0.67 0.67 -0.34 0.34 0 0 Z " fill="#151B27" transform="translate(97,75)"/>
    <path d="M0 0 C0.391875 0.66 0.78375 1.32 1.1875 2 C2.85416667 4.29166667 2.85416667 4.29166667 5.6875 4.25 C6.8321875 4.12625 6.8321875 4.12625 8 4 C8 4.66 8 5.32 8 6 C5.69 6 3.38 6 1 6 C-0.0625 4.125 -0.0625 4.125 -1 2 C-0.67 1.34 -0.34 0.68 0 0 Z " fill="#4D5560" transform="translate(190,228)"/>
    <path d="M0 0 C1.65 0 3.3 0 5 0 C4.67 1.32 4.34 2.64 4 4 C2.68 3.67 1.36 3.34 0 3 C0 2.01 0 1.02 0 0 Z " fill="#E5E6E7" transform="translate(169,229)"/>
    <path d="M0 0 C1.98 0 3.96 0 6 0 C6 0.99 6 1.98 6 3 C4.02 3 2.04 3 0 3 C0 2.01 0 1.02 0 0 Z " fill="#EBECED" transform="translate(191,224)"/>
    <path d="M0 0 C0.99 0.99 1.98 1.98 3 3 C2.01 4.485 2.01 4.485 1 6 C-1.31 5.67 -3.62 5.34 -6 5 C-2.25 3.875 -2.25 3.875 0 5 C0 3.35 0 1.7 0 0 Z " fill="#424D58" transform="translate(94,154)"/>
    <path d="M0 0 C0.66 0.66 1.32 1.32 2 2 C1.625 5.625 1.625 5.625 1 9 C-1 6 -1 6 -0.625 2.8125 C-0.41875 1.884375 -0.2125 0.95625 0 0 Z " fill="#111A26" transform="translate(138,73)"/>
    <path d="M0 0 C-0.33 0.99 -0.66 1.98 -1 3 C-3.31 3 -5.62 3 -8 3 C-7 1 -7 1 -5.125 0.375 C-3 0 -3 0 0 0 Z " fill="#47505B" transform="translate(187,192)"/>
    <path d="M0 0 C0.99 0.33 1.98 0.66 3 1 C3.6875 3.0625 3.6875 3.0625 4 5 C2.35 5 0.7 5 -1 5 C-0.67 3.35 -0.34 1.7 0 0 Z " fill="#60676F" transform="translate(86,190)"/>
    <path d="M0 0 C2.475 0.495 2.475 0.495 5 1 C4.625 2.9375 4.625 2.9375 4 5 C3.01 5.495 3.01 5.495 2 6 C2 4.68 2 3.36 2 2 C1.34 2 0.68 2 0 2 C0 1.34 0 0.68 0 0 Z " fill="#4D555F" transform="translate(94,176)"/>
    <path d="M0 0 C-2 2 -2 2 -5.125 2.125 C-6.548125 2.063125 -6.548125 2.063125 -8 2 C-8 1.34 -8 0.68 -8 0 C-5.13822943 -1.43088528 -3.06624227 -0.59991697 0 0 Z " fill="#58606A" transform="translate(181,159)"/>
    <path d="M0 0 C-2 2 -2 2 -5.125 2.125 C-6.548125 2.063125 -6.548125 2.063125 -8 2 C-8 1.34 -8 0.68 -8 0 C-5.13822943 -1.43088528 -3.06624227 -0.59991697 0 0 Z " fill="#58606A" transform="translate(113,159)"/>
    <path d="M0 0 C3.3 0.33 6.6 0.66 10 1 C10 1.33 10 1.66 10 2 C6.7 2.33 3.4 2.66 0 3 C0 2.01 0 1.02 0 0 Z " fill="#0F121F" transform="translate(153,82)"/>
    <path d="M0 0 C2.475 0.99 2.475 0.99 5 2 C4.34 3.32 3.68 4.64 3 6 C2.67 5.34 2.34 4.68 2 4 C1.01 3.67 0.02 3.34 -1 3 C-0.67 2.01 -0.34 1.02 0 0 Z " fill="#151A29" transform="translate(163,73)"/>
    <path d="M0 0 C0.99 0.33 1.98 0.66 3 1 C3 1.99 3 2.98 3 4 C0.36 3.67 -2.28 3.34 -5 3 C-2 1 -2 1 0 0 Z " fill="#383E47" transform="translate(165,62)"/>
    <path d="M0 0 C2 1 2 1 2 1 Z " fill="#007BF0" transform="translate(147,299)"/>
    <path d="M0 0 C2 1 2 1 2 1 Z " fill="#1D77E4" transform="translate(153,298)"/>
    <path d="M0 0 C2 1 2 1 2 1 Z " fill="#1D77E4" transform="translate(145,298)"/>
    <path d="M0 0 C2 1 2 1 2 1 Z " fill="#007BF0" transform="translate(156,296)"/>
    <path d="M0 0 C2 1 2 1 2 1 Z " fill="#1D77E4" transform="translate(140,295)"/>
    <path d="M0 0 C2 1 2 1 2 1 Z " fill="#1D77E4" transform="translate(138,294)"/>
    <path d="M0 0 C2 1 2 1 2 1 Z " fill="#1D77E4" transform="translate(161,293)"/>
    <path d="M0 0 C2 1 2 1 2 1 Z " fill="#1D77E4" transform="translate(163,292)"/>
    <path d="M0 0 C2 1 2 1 2 1 Z " fill="#007BF0" transform="translate(135,292)"/>
    <path d="M0 0 C2 1 2 1 2 1 Z " fill="#1D77E4" transform="translate(165,291)"/>
    <path d="M0 0 C2 1 2 1 2 1 Z " fill="#007BF0" transform="translate(133,291)"/>
    <path d="M0 0 C2 1 2 1 2 1 Z " fill="#1D77E4" transform="translate(131,290)"/>
    <path d="M0 0 C2 1 2 1 2 1 Z " fill="#007BF0" transform="translate(168,289)"/>
    <path d="M0 0 C2 1 2 1 2 1 Z " fill="#007BF0" transform="translate(170,288)"/>
    <path d="M0 0 C2 1 2 1 2 1 Z " fill="#007BF0" transform="translate(128,288)"/>
    <path d="M0 0 C2 1 2 1 2 1 Z " fill="#1D77E4" transform="translate(172,287)"/>
    <path d="M0 0 C2 1 2 1 2 1 Z " fill="#1D77E4" transform="translate(124,286)"/>
    <path d="M0 0 C2 1 2 1 2 1 Z " fill="#007BF0" transform="translate(175,285)"/>
    <path d="M0 0 C2 1 2 1 2 1 Z " fill="#007BF0" transform="translate(121,284)"/>
    <path d="M0 0 C2 1 2 1 2 1 Z " fill="#1D77E4" transform="translate(179,283)"/>
    <path d="M0 0 C2 1 2 1 2 1 Z " fill="#007BF0" transform="translate(182,281)"/>
    <path d="M0 0 C2 1 2 1 2 1 Z " fill="#1D77E4" transform="translate(116,281)"/>
    <path d="M0 0 C2 1 2 1 2 1 Z " fill="#1D77E4" transform="translate(114,280)"/>
    <path d="M0 0 C2 1 2 1 2 1 Z " fill="#1D77E4" transform="translate(112,279)"/>
    <path d="M0 0 C2 1 2 1 2 1 Z " fill="#1D77E4" transform="translate(187,278)"/>
    <path d="M0 0 C2 1 2 1 2 1 Z " fill="#1D77E4" transform="translate(189,277)"/>
    <path d="M0 0 C2 1 2 1 2 1 Z " fill="#007BF0" transform="translate(109,277)"/>
    <path d="M0 0 C2 1 2 1 2 1 Z " fill="#1D77E4" transform="translate(191,276)"/>
    <path d="M0 0 C2 1 2 1 2 1 Z " fill="#007BF0" transform="translate(107,276)"/>
    <path d="M0 0 C2 1 2 1 2 1 Z " fill="#1D77E4" transform="translate(105,275)"/>
    <path d="M0 0 C2 1 2 1 2 1 Z " fill="#1D77E4" transform="translate(196,273)"/>
    <path d="M0 0 C2 1 2 1 2 1 Z " fill="#007BF0" transform="translate(102,273)"/>
    <path d="M0 0 C2 1 2 1 2 1 Z " fill="#1D77E4" transform="translate(198,272)"/>
    <path d="M0 0 C2 1 2 1 2 1 Z " fill="#1D77E4" transform="translate(98,271)"/>
    <path d="M0 0 C2 1 2 1 2 1 Z " fill="#007BF0" transform="translate(201,270)"/>
    <path d="M0 0 C2 1 2 1 2 1 Z " fill="#1D77E4" transform="translate(203,269)"/>
    <path d="M0 0 C2 1 2 1 2 1 Z " fill="#007BF0" transform="translate(95,269)"/>
    <path d="M0 0 C2 1 2 1 2 1 Z " fill="#1D77E4" transform="translate(205,268)"/>
    <path d="M0 0 C2 1 2 1 2 1 Z " fill="#007BF0" transform="translate(208,266)"/>
    <path d="M0 0 C2 1 2 1 2 1 Z " fill="#1D77E4" transform="translate(90,266)"/>
    <path d="M0 0 C2 1 2 1 2 1 Z " fill="#1D77E4" transform="translate(88,265)"/>
    <path d="M0 0 C2 1 2 1 2 1 Z " fill="#1D77E4" transform="translate(86,264)"/>
    <path d="M0 0 C2 1 2 1 2 1 Z " fill="#007BF0" transform="translate(215,262)"/>
    <path d="M0 0 C2 1 2 1 2 1 Z " fill="#1D77E4" transform="translate(217,261)"/>
    <path d="M0 0 C2 1 2 1 2 1 Z " fill="#007BF0" transform="translate(81,261)"/>
    <path d="M0 0 C2 1 2 1 2 1 Z " fill="#1D77E4" transform="translate(79,260)"/>
    <path d="M0 0 C2 1 2 1 2 1 Z " fill="#1D77E4" transform="translate(222,258)"/>
    <path d="M0 0 C2 1 2 1 2 1 Z " fill="#007BF0" transform="translate(76,258)"/>
    <path d="M0 0 C2 1 2 1 2 1 Z " fill="#1D77E4" transform="translate(224,257)"/>
    <path d="M0 0 C2 1 2 1 2 1 Z " fill="#1D77E4" transform="translate(74,257)"/>
    <path d="M0 0 C2 1 2 1 2 1 Z " fill="#1D77E4" transform="translate(72,256)"/>
    <path d="M0 0 C2 1 2 1 2 1 Z " fill="#007BF0" transform="translate(227,255)"/>
    <path d="M0 0 C2 1 2 1 2 1 Z " fill="#007BF0" transform="translate(229,254)"/>
    <path d="M0 0 C2 1 2 1 2 1 Z " fill="#007BF0" transform="translate(69,254)"/>
    <path d="M0 0 C2 1 2 1 2 1 Z " fill="#1D77E4" transform="translate(231,253)"/>
    <path d="M0 0 C2 1 2 1 2 1 Z " fill="#007BF0" transform="translate(234,251)"/>
    <path d="M0 0 C2 1 2 1 2 1 Z " fill="#007BF0" transform="translate(62,250)"/>
    <path d="M0 0 C2 1 2 1 2 1 Z " fill="#1D77E4" transform="translate(238,249)"/>
    <path d="M0 0 C2 1 2 1 2 1 Z " fill="#1D77E4" transform="translate(60,249)"/>
    <path d="M0 0 C2 1 2 1 2 1 Z " fill="#007BF0" transform="translate(241,247)"/>
    <path d="M0 0 C2 1 2 1 2 1 Z " fill="#1D77E4" transform="translate(55,246)"/>
    <path d="M0 0 C2 1 2 1 2 1 Z " fill="#1D77E4" transform="translate(53,245)"/>
    <path d="M0 0 C2 1 2 1 2 1 Z " fill="#1D77E4" transform="translate(246,244)"/>
    <path d="M0 0 C2 1 2 1 2 1 Z " fill="#1D77E4" transform="translate(248,243)"/>
    <path d="M0 0 C2 1 2 1 2 1 Z " fill="#007BF0" transform="translate(50,243)"/>
    <path d="M0 0 C2 1 2 1 2 1 Z " fill="#1D77E4" transform="translate(250,242)"/>
    <path d="M0 0 C2 1 2 1 2 1 Z " fill="#007BF0" transform="translate(48,242)"/>
    <path d="M0 0 C2 1 2 1 2 1 Z " fill="#1D77E4" transform="translate(46,241)"/>
    <path d="M0 0 C2 1 2 1 2 1 Z " fill="#007BF0" transform="translate(253,240)"/>
    <path d="M0 0 C2 1 2 1 2 1 Z " fill="#007BF0" transform="translate(255,239)"/>
    <path d="M0 0 C2 1 2 1 2 1 Z " fill="#007BF0" transform="translate(43,239)"/>
    <path d="M0 0 C2 1 2 1 2 1 Z " fill="#1D77E4" transform="translate(257,238)"/>
    <path d="M0 0 C2 1 2 1 2 1 Z " fill="#1D77E4" transform="translate(39,237)"/>
    <path d="M0 0 C2 1 2 1 2 1 Z " fill="#007BF0" transform="translate(260,236)"/>
    <path d="M0 0 C2 1 2 1 2 1 Z " fill="#1D77E4" transform="translate(262,235)"/>
    <path d="M0 0 C2 1 2 1 2 1 Z " fill="#007BF0" transform="translate(36,235)"/>
    <path d="M0 0 C2 1 2 1 2 1 Z " fill="#1D77E4" transform="translate(264,234)"/>
    <path d="M0 0 C2 1 2 1 2 1 Z " fill="#007BF0" transform="translate(267,232)"/>
    <path d="M0 0 C2 1 2 1 2 1 Z " fill="#1D77E4" transform="translate(31,232)"/>
    <path d="M0 0 C2 1 2 1 2 1 Z " fill="#1D77E4" transform="translate(29,231)"/>
    <path d="M0 0 C2 1 2 1 2 1 Z " fill="#1D77E4" transform="translate(27,230)"/>
    <path d="M0 0 C2 1 2 1 2 1 Z " fill="#1D77E4" transform="translate(274,228)"/>
    <path d="M0 0 C2 1 2 1 2 1 Z " fill="#007BF0" transform="translate(24,228)"/>
    <path d="M0 0 C2 1 2 1 2 1 Z " fill="#1D77E4" transform="translate(276,227)"/>
    <path d="M0 0 C2 1 2 1 2 1 Z " fill="#007BF0" transform="translate(22,227)"/>
    <path d="M0 0 C2 1 2 1 2 1 Z " fill="#1D77E4" transform="translate(277,73)"/>
    <path d="M0 0 C2 1 2 1 2 1 Z " fill="#1D77E4" transform="translate(275,72)"/>
    <path d="M0 0 C2 1 2 1 2 1 Z " fill="#007BF0" transform="translate(23,72)"/>
    <path d="M0 0 C2 1 2 1 2 1 Z " fill="#1D77E4" transform="translate(273,71)"/>
    <path d="M0 0 C2 1 2 1 2 1 Z " fill="#1D77E4" transform="translate(26,70)"/>
    <path d="M0 0 C2 1 2 1 2 1 Z " fill="#1D77E4" transform="translate(28,69)"/>
    <path d="M0 0 C2 1 2 1 2 1 Z " fill="#007BF0" transform="translate(268,68)"/>
    <path d="M0 0 C2 1 2 1 2 1 Z " fill="#1D77E4" transform="translate(265,66)"/>
    <path d="M0 0 C2 1 2 1 2 1 Z " fill="#1D77E4" transform="translate(33,66)"/>
    <path d="M0 0 C2 1 2 1 2 1 Z " fill="#1D77E4" transform="translate(35,65)"/>
    <path d="M0 0 C2 1 2 1 2 1 Z " fill="#007BF0" transform="translate(261,64)"/>
    <path d="M0 0 C2 1 2 1 2 1 Z " fill="#1D77E4" transform="translate(258,62)"/>
    <path d="M0 0 C2 1 2 1 2 1 Z " fill="#007BF0" transform="translate(256,61)"/>
    <path d="M0 0 C2 1 2 1 2 1 Z " fill="#007BF0" transform="translate(42,61)"/>
    <path d="M0 0 C2 1 2 1 2 1 Z " fill="#007BF0" transform="translate(254,60)"/>
    <path d="M0 0 C2 1 2 1 2 1 Z " fill="#1D77E4" transform="translate(45,59)"/>
    <path d="M0 0 C2 1 2 1 2 1 Z " fill="#1D77E4" transform="translate(251,58)"/>
    <path d="M0 0 C2 1 2 1 2 1 Z " fill="#1D77E4" transform="translate(47,58)"/>
    <path d="M0 0 C2 1 2 1 2 1 Z " fill="#1D77E4" transform="translate(249,57)"/>
    <path d="M0 0 C2 1 2 1 2 1 Z " fill="#007BF0" transform="translate(49,57)"/>
    <path d="M0 0 C2 1 2 1 2 1 Z " fill="#1D77E4" transform="translate(52,55)"/>
    <path d="M0 0 C2 1 2 1 2 1 Z " fill="#1D77E4" transform="translate(244,54)"/>
    <path d="M0 0 C2 1 2 1 2 1 Z " fill="#007BF0" transform="translate(54,54)"/>
    <path d="M0 0 C2 1 2 1 2 1 Z " fill="#007BF0" transform="translate(242,53)"/>
    <path d="M0 0 C2 1 2 1 2 1 Z " fill="#007BF0" transform="translate(56,53)"/>
    <path d="M0 0 C2 1 2 1 2 1 Z " fill="#1D77E4" transform="translate(59,51)"/>
    <path d="M0 0 C2 1 2 1 2 1 Z " fill="#1D77E4" transform="translate(61,50)"/>
    <path d="M0 0 C2 1 2 1 2 1 Z " fill="#007BF0" transform="translate(235,49)"/>
    <path d="M0 0 C2 1 2 1 2 1 Z " fill="#1D77E4" transform="translate(63,49)"/>
    <path d="M0 0 C2 1 2 1 2 1 Z " fill="#1D77E4" transform="translate(232,47)"/>
    <path d="M0 0 C2 1 2 1 2 1 Z " fill="#1D77E4" transform="translate(230,46)"/>
    <path d="M0 0 C2 1 2 1 2 1 Z " fill="#007BF0" transform="translate(68,46)"/>
    <path d="M0 0 C2 1 2 1 2 1 Z " fill="#007BF0" transform="translate(228,45)"/>
    <path d="M0 0 C2 1 2 1 2 1 Z " fill="#1D77E4" transform="translate(71,44)"/>
    <path d="M0 0 C2 1 2 1 2 1 Z " fill="#1D77E4" transform="translate(225,43)"/>
    <path d="M0 0 C2 1 2 1 2 1 Z " fill="#1D77E4" transform="translate(223,42)"/>
    <path d="M0 0 C2 1 2 1 2 1 Z " fill="#007BF0" transform="translate(75,42)"/>
    <path d="M0 0 C2 1 2 1 2 1 Z " fill="#1D77E4" transform="translate(78,40)"/>
    <path d="M0 0 C2 1 2 1 2 1 Z " fill="#1D77E4" transform="translate(218,39)"/>
    <path d="M0 0 C2 1 2 1 2 1 Z " fill="#007BF0" transform="translate(80,39)"/>
    <path d="M0 0 C2 1 2 1 2 1 Z " fill="#1D77E4" transform="translate(216,38)"/>
    <path d="M0 0 C2 1 2 1 2 1 Z " fill="#007BF0" transform="translate(82,38)"/>
    <path d="M0 0 C2 1 2 1 2 1 Z " fill="#1D77E4" transform="translate(214,37)"/>
    <path d="M0 0 C2 1 2 1 2 1 Z " fill="#1D77E4" transform="translate(85,36)"/>
    <path d="M0 0 C2 1 2 1 2 1 Z " fill="#1D77E4" transform="translate(87,35)"/>
    <path d="M0 0 C2 1 2 1 2 1 Z " fill="#007BF0" transform="translate(209,34)"/>
    <path d="M0 0 C2 1 2 1 2 1 Z " fill="#1D77E4" transform="translate(206,32)"/>
    <path d="M0 0 C2 1 2 1 2 1 Z " fill="#007BF0" transform="translate(94,31)"/>
    <path d="M0 0 C2 1 2 1 2 1 Z " fill="#007BF0" transform="translate(202,30)"/>
    <path d="M0 0 C2 1 2 1 2 1 Z " fill="#1D77E4" transform="translate(97,29)"/>
    <path d="M0 0 C2 1 2 1 2 1 Z " fill="#1D77E4" transform="translate(199,28)"/>
    <path d="M0 0 C2 1 2 1 2 1 Z " fill="#007BF0" transform="translate(197,27)"/>
    <path d="M0 0 C2 1 2 1 2 1 Z " fill="#007BF0" transform="translate(101,27)"/>
    <path d="M0 0 C2 1 2 1 2 1 Z " fill="#007BF0" transform="translate(195,26)"/>
    <path d="M0 0 C2 1 2 1 2 1 Z " fill="#1D77E4" transform="translate(104,25)"/>
    <path d="M0 0 C2 1 2 1 2 1 Z " fill="#1D77E4" transform="translate(192,24)"/>
    <path d="M0 0 C2 1 2 1 2 1 Z " fill="#007BF0" transform="translate(106,24)"/>
    <path d="M0 0 C2 1 2 1 2 1 Z " fill="#1D77E4" transform="translate(190,23)"/>
    <path d="M0 0 C2 1 2 1 2 1 Z " fill="#007BF0" transform="translate(108,23)"/>
    <path d="M0 0 C2 1 2 1 2 1 Z " fill="#1D77E4" transform="translate(111,21)"/>
    <path d="M0 0 C2 1 2 1 2 1 Z " fill="#1D77E4" transform="translate(113,20)"/>
    <path d="M0 0 C2 1 2 1 2 1 Z " fill="#007BF0" transform="translate(183,19)"/>
    <path d="M0 0 C2 1 2 1 2 1 Z " fill="#1D77E4" transform="translate(180,17)"/>
    <path d="M0 0 C2 1 2 1 2 1 Z " fill="#1D77E4" transform="translate(118,17)"/>
    <path d="M0 0 C2 1 2 1 2 1 Z " fill="#1D77E4" transform="translate(120,16)"/>
    <path d="M0 0 C2 1 2 1 2 1 Z " fill="#007BF0" transform="translate(176,15)"/>
    <path d="M0 0 C2 1 2 1 2 1 Z " fill="#1D77E4" transform="translate(122,15)"/>
    <path d="M0 0 C2 1 2 1 2 1 Z " fill="#1D77E4" transform="translate(173,13)"/>
    <path d="M0 0 C2 1 2 1 2 1 Z " fill="#007BF0" transform="translate(171,12)"/>
    <path d="M0 0 C2 1 2 1 2 1 Z " fill="#007BF0" transform="translate(127,12)"/>
    <path d="M0 0 C2 1 2 1 2 1 Z " fill="#007BF0" transform="translate(169,11)"/>
    <path d="M0 0 C2 1 2 1 2 1 Z " fill="#1D77E4" transform="translate(130,10)"/>
    <path d="M0 0 C2 1 2 1 2 1 Z " fill="#1D77E4" transform="translate(166,9)"/>
    <path d="M0 0 C2 1 2 1 2 1 Z " fill="#1D77E4" transform="translate(164,8)"/>
    <path d="M0 0 C2 1 2 1 2 1 Z " fill="#007BF0" transform="translate(134,8)"/>
    <path d="M0 0 C2 1 2 1 2 1 Z " fill="#1D77E4" transform="translate(137,6)"/>
    <path d="M0 0 C2 1 2 1 2 1 Z " fill="#1D77E4" transform="translate(159,5)"/>
    <path d="M0 0 C2 1 2 1 2 1 Z " fill="#007BF0" transform="translate(139,5)"/>
    <path d="M0 0 C2 1 2 1 2 1 Z " fill="#1D77E4" transform="translate(157,4)"/>
    <path d="M0 0 C2 1 2 1 2 1 Z " fill="#007BF0" transform="translate(141,4)"/>
    <path d="M0 0 C2 1 2 1 2 1 Z " fill="#1D77E4" transform="translate(155,3)"/>
    <path d="M0 0 C2 1 2 1 2 1 Z " fill="#1D77E4" transform="translate(144,2)"/>
    <path d="M0 0 C2 1 2 1 2 1 Z " fill="#1D77E4" transform="translate(146,1)"/>
    <path d="M0 0 C2 1 2 1 2 1 Z " fill="#007BF0" transform="translate(150,0)"/>
    <path d="" fill="#007BF0" transform="translate(0,0)"/>
    <path d="" fill="#3A73D8" transform="translate(0,0)"/>
    <path d="" fill="#3A73D8" transform="translate(0,0)"/>
    <path d="" fill="#3A73D8" transform="translate(0,0)"/>
    <path d="" fill="#3A73D8" transform="translate(0,0)"/>
    <path d="" fill="#3A73D8" transform="translate(0,0)"/>
    <path d="" fill="#3A73D8" transform="translate(0,0)"/>
    <path d="" fill="#3A73D8" transform="translate(0,0)"/>
    <path d="" fill="#007BF0" transform="translate(0,0)"/>
    <path d="" fill="#3A73D8" transform="translate(0,0)"/>
    <path d="" fill="#007BF0" transform="translate(0,0)"/>
    <path d="" fill="#3A73D8" transform="translate(0,0)"/>
    <path d="" fill="#3A73D8" transform="translate(0,0)"/>
    <path d="" fill="#3A73D8" transform="translate(0,0)"/>
    <path d="" fill="#007BF0" transform="translate(0,0)"/>
    <path d="" fill="#3A73D8" transform="translate(0,0)"/>
    <path d="" fill="#3A73D8" transform="translate(0,0)"/>
    <path d="" fill="#3A73D8" transform="translate(0,0)"/>
    <path d="" fill="#3A73D8" transform="translate(0,0)"/>
    <path d="" fill="#3A73D8" transform="translate(0,0)"/>
    <path d="" fill="#3A73D8" transform="translate(0,0)"/>
    <path d="" fill="#007BF0" transform="translate(0,0)"/>
    <path d="" fill="#3A73D8" transform="translate(0,0)"/>
    <path d="" fill="#3A73D8" transform="translate(0,0)"/>
    <path d="" fill="#007BF0" transform="translate(0,0)"/>
    <path d="" fill="#3A73D8" transform="translate(0,0)"/>
    <path d="" fill="#007BF0" transform="translate(0,0)"/>
    <path d="" fill="#3A73D8" transform="translate(0,0)"/>
    <path d="" fill="#3A73D8" transform="translate(0,0)"/>
    <path d="" fill="#3A73D8" transform="translate(0,0)"/>
    <path d="" fill="#3A73D8" transform="translate(0,0)"/>
    <path d="" fill="#3A73D8" transform="translate(0,0)"/>
    <path d="" fill="#3A73D8" transform="translate(0,0)"/>
    <path d="" fill="#3A73D8" transform="translate(0,0)"/>
    <path d="" fill="#3A73D8" transform="translate(0,0)"/>
    <path d="" fill="#007BF0" transform="translate(0,0)"/>
    <path d="" fill="#3A73D8" transform="translate(0,0)"/>
    <path d="" fill="#007BF0" transform="translate(0,0)"/>
    <path d="" fill="#3A73D8" transform="translate(0,0)"/>
    <path d="" fill="#007BF0" transform="translate(0,0)"/>
    <path d="" fill="#3A73D8" transform="translate(0,0)"/>
    <path d="" fill="#3A73D8" transform="translate(0,0)"/>
    <path d="" fill="#3A73D8" transform="translate(0,0)"/>
    <path d="" fill="#3A73D8" transform="translate(0,0)"/>
    <path d="" fill="#3A73D8" transform="translate(0,0)"/>
    <path d="" fill="#3A73D8" transform="translate(0,0)"/>
    <path d="" fill="#3A73D8" transform="translate(0,0)"/>
    <path d="" fill="#3A73D8" transform="translate(0,0)"/>
    <path d="" fill="#3A73D8" transform="translate(0,0)"/>
    <path d="" fill="#3A73D8" transform="translate(0,0)"/>
    <path d="" fill="#007BF0" transform="translate(0,0)"/>
    <path d="" fill="#3A73D8" transform="translate(0,0)"/>
    <path d="" fill="#007BF0" transform="translate(0,0)"/>
    <path d="" fill="#3A73D8" transform="translate(0,0)"/>
    <path d="" fill="#3A73D8" transform="translate(0,0)"/>
    <path d="" fill="#007BF0" transform="translate(0,0)"/>
    <path d="" fill="#3A73D8" transform="translate(0,0)"/>
    <path d="" fill="#3A73D8" transform="translate(0,0)"/>
    <path d="" fill="#3A73D8" transform="translate(0,0)"/>
    <path d="" fill="#3A73D8" transform="translate(0,0)"/>
    <path d="" fill="#3A73D8" transform="translate(0,0)"/>
    <path d="" fill="#007BF0" transform="translate(0,0)"/>
    <path d="" fill="#3A73D8" transform="translate(0,0)"/>
    <path d="" fill="#007BF0" transform="translate(0,0)"/>
    <path d="" fill="#007BF0" transform="translate(0,0)"/>
    <path d="" fill="#007BF0" transform="translate(0,0)"/>
    <path d="" fill="#3A73D8" transform="translate(0,0)"/>
    <path d="" fill="#3A73D8" transform="translate(0,0)"/>
    <path d="" fill="#3A73D8" transform="translate(0,0)"/>
    <path d="" fill="#3A73D8" transform="translate(0,0)"/>
    <path d="" fill="#3A73D8" transform="translate(0,0)"/>
    <path d="" fill="#3A73D8" transform="translate(0,0)"/>
    <path d="" fill="#3A73D8" transform="translate(0,0)"/>
    <path d="" fill="#3A73D8" transform="translate(0,0)"/>
    <path d="" fill="#3A73D8" transform="translate(0,0)"/>
    <path d="" fill="#007BF0" transform="translate(0,0)"/>
    <path d="" fill="#3A73D8" transform="translate(0,0)"/>
    <path d="" fill="#3A73D8" transform="translate(0,0)"/>
    <path d="" fill="#007BF0" transform="translate(0,0)"/>
    <path d="" fill="#3A73D8" transform="translate(0,0)"/>
    <path d="" fill="#3A73D8" transform="translate(0,0)"/>
    <path d="" fill="#007BF0" transform="translate(0,0)"/>
    <path d="" fill="#3A73D8" transform="translate(0,0)"/>
    <path d="" fill="#3A73D8" transform="translate(0,0)"/>
    <path d="" fill="#3A73D8" transform="translate(0,0)"/>
    <path d="" fill="#3A73D8" transform="translate(0,0)"/>
    <path d="" fill="#3A73D8" transform="translate(0,0)"/>
    <path d="" fill="#007BF0" transform="translate(0,0)"/>
    <path d="" fill="#3A73D8" transform="translate(0,0)"/>
    <path d="" fill="#3A73D8" transform="translate(0,0)"/>
    <path d="" fill="#007BF0" transform="translate(0,0)"/>
    <path d="" fill="#007BF0" transform="translate(0,0)"/>
    <path d="" fill="#3A73D8" transform="translate(0,0)"/>
    <path d="" fill="#3A73D8" transform="translate(0,0)"/>
    <path d="" fill="#007BF0" transform="translate(0,0)"/>
    <path d="" fill="#3A73D8" transform="translate(0,0)"/>
    <path d="" fill="#3A73D8" transform="translate(0,0)"/>
    <path d="" fill="#3A73D8" transform="translate(0,0)"/>
    <path d="" fill="#3A73D8" transform="translate(0,0)"/>
    <path d="" fill="#3A73D8" transform="translate(0,0)"/>
    <path d="" fill="#007BF0" transform="translate(0,0)"/>
    <path d="" fill="#3A73D8" transform="translate(0,0)"/>
    <path d="" fill="#3A73D8" transform="translate(0,0)"/>
    <path d="" fill="#3A73D8" transform="translate(0,0)"/>
    <path d="" fill="#3A73D8" transform="translate(0,0)"/>
    <path d="" fill="#007BF0" transform="translate(0,0)"/>
    <path d="" fill="#3A73D8" transform="translate(0,0)"/>
    <path d="" fill="#007BF0" transform="translate(0,0)"/>
    <path d="" fill="#3A73D8" transform="translate(0,0)"/>
    <path d="" fill="#3A73D8" transform="translate(0,0)"/>
    <path d="" fill="#3A73D8" transform="translate(0,0)"/>
    <path d="" fill="#3A73D8" transform="translate(0,0)"/>
    <path d="" fill="#3A73D8" transform="translate(0,0)"/>
    <path d="" fill="#3A73D8" transform="translate(0,0)"/>
    <path d="" fill="#3A73D8" transform="translate(0,0)"/>
    <path d="" fill="#3A73D8" transform="translate(0,0)"/>
    <path d="" fill="#3A73D8" transform="translate(0,0)"/>
    <path d="" fill="#007BF0" transform="translate(0,0)"/>
    <path d="" fill="#3A73D8" transform="translate(0,0)"/>
    <path d="" fill="#3A73D8" transform="translate(0,0)"/>
    <path d="" fill="#007BF0" transform="translate(0,0)"/>
    <path d="" fill="#3A73D8" transform="translate(0,0)"/>
    <path d="" fill="#3A73D8" transform="translate(0,0)"/>
    <path d="" fill="#3A73D8" transform="translate(0,0)"/>
    <path d="" fill="#007BF0" transform="translate(0,0)"/>
    <path d="" fill="#3A73D8" transform="translate(0,0)"/>
    <path d="" fill="#3A73D8" transform="translate(0,0)"/>
    <path d="" fill="#3A73D8" transform="translate(0,0)"/>
    <path d="" fill="#3A73D8" transform="translate(0,0)"/>
    <path d="" fill="#3A73D8" transform="translate(0,0)"/>
</svg>
