<svg xmlns="http://www.w3.org/2000/svg" id="Layer_1" x="0" y="0" enable-background="new 0 0 4000 850" version="1.1" viewBox="0 0 850 850" xml:space="preserve"><g><g><g><g><g><g><g><linearGradient id="SVGID_1_" x1="165.434" x2="172.226" y1="451.54" y2="451.54" gradientUnits="userSpaceOnUse"><stop offset="0" stop-color="#ff5b91"/><stop offset="1" stop-color="#ffbb6b"/></linearGradient><path fill="url(#SVGID_1_)" d="M168.8,455.8c-1.9,0-3.4-1.5-3.4-3.4l0-1.7c0-1.9,1.5-3.4,3.4-3.4c0,0,0,0,0,0c1.9,0,3.4,1.5,3.4,3.4
								v1.7C172.2,454.3,170.7,455.8,168.8,455.8z"/></g></g><g><g><linearGradient id="SVGID_2_" x1="165.916" x2="390.134" y1="328.636" y2="328.636" gradientUnits="userSpaceOnUse"><stop offset="0" stop-color="#ff5b91"/><stop offset="1" stop-color="#ffbb6b"/></linearGradient><path fill="url(#SVGID_2_)" d="M169.3,440.8c-0.1,0-0.1,0-0.2,0c-1.9-0.1-3.3-1.7-3.2-3.6c0.1-1.1,0.1-2.3,0.2-3.4
								c0.2-1.9,1.8-3.2,3.7-3.1c1.9,0.1,3.3,1.8,3.1,3.6c-0.1,1.1-0.2,2.2-0.2,3.3C172.6,439.4,171.1,440.8,169.3,440.8z
								 M170.9,424.2c-0.1,0-0.3,0-0.5,0c-1.8-0.2-3.2-2-2.9-3.8c0.1-1.1,0.3-2.2,0.5-3.3c0.3-1.9,2-3.1,3.9-2.8
								c1.8,0.3,3.1,2,2.8,3.9c-0.2,1.1-0.3,2.2-0.5,3.2C174.1,423,172.6,424.2,170.9,424.2z M173.8,407.9c-0.2,0-0.5,0-0.7-0.1
								c-1.8-0.4-3-2.2-2.6-4c0.2-1.1,0.5-2.2,0.7-3.3c0.4-1.8,2.2-3,4-2.6c1.8,0.4,3,2.2,2.6,4c-0.2,1.1-0.5,2.1-0.7,3.2
								C176.8,406.8,175.3,407.9,173.8,407.9z M177.8,391.7c-0.3,0-0.6,0-0.9-0.1c-1.8-0.5-2.8-2.4-2.3-4.2c0.3-1.1,0.6-2.2,1-3.3
								c0.5-1.8,2.4-2.8,4.2-2.3c1.8,0.5,2.8,2.4,2.3,4.2c-0.3,1-0.6,2.1-0.9,3.2C180.6,390.7,179.2,391.7,177.8,391.7z
								 M182.9,375.9c-0.4,0-0.8-0.1-1.2-0.2c-1.7-0.6-2.7-2.6-2-4.3c0.4-1.1,0.8-2.1,1.2-3.2c0.7-1.7,2.6-2.6,4.4-2
								c1.7,0.7,2.6,2.6,1.9,4.4c-0.4,1-0.8,2-1.2,3.1C185.6,375,184.3,375.9,182.9,375.9z M189.2,360.4c-0.5,0-0.9-0.1-1.4-0.3
								c-1.7-0.8-2.4-2.8-1.7-4.5l1.4-3.1c0.8-1.7,2.8-2.4,4.5-1.7c1.7,0.8,2.4,2.8,1.6,4.5l-1.4,3
								C191.7,359.7,190.5,360.4,189.2,360.4z M196.5,345.5c-0.5,0-1.1-0.1-1.6-0.4c-1.6-0.9-2.3-2.9-1.4-4.6c0.5-1,1.1-2,1.6-3
								c0.9-1.6,3-2.2,4.6-1.3c1.6,0.9,2.2,3,1.3,4.6c-0.5,1-1.1,1.9-1.6,2.9C198.9,344.9,197.7,345.5,196.5,345.5z M204.9,331.1
								c-0.6,0-1.3-0.2-1.8-0.5c-1.6-1-2-3.1-1-4.7c0.6-1,1.2-1.9,1.8-2.8c1-1.6,3.1-2,4.7-1c1.6,1,2,3.1,1,4.7
								c-0.6,0.9-1.2,1.8-1.8,2.8C207.2,330.6,206,331.1,204.9,331.1z M214.3,317.4c-0.7,0-1.4-0.2-2-0.7c-1.5-1.1-1.8-3.2-0.7-4.7
								c0.7-0.9,1.3-1.8,2-2.7c1.1-1.5,3.3-1.8,4.8-0.6c1.5,1.1,1.8,3.3,0.6,4.7c-0.7,0.9-1.3,1.7-2,2.6
								C216.4,316.9,215.4,317.4,214.3,317.4z M224.7,304.4c-0.8,0-1.6-0.3-2.2-0.8c-1.4-1.2-1.6-3.4-0.4-4.8
								c0.7-0.9,1.5-1.7,2.2-2.6c1.2-1.4,3.4-1.5,4.8-0.3c1.4,1.2,1.5,3.4,0.3,4.8c-0.7,0.8-1.4,1.6-2.1,2.5
								C226.6,304,225.7,304.4,224.7,304.4z M236,292.2c-0.9,0-1.7-0.3-2.4-1c-1.3-1.3-1.4-3.5,0-4.8c0.8-0.8,1.6-1.6,2.4-2.4
								c1.3-1.3,3.5-1.3,4.8,0c1.3,1.3,1.3,3.5,0,4.8c-0.8,0.8-1.6,1.5-2.3,2.3C237.7,291.8,236.8,292.2,236,292.2z M248,280.7
								c-0.9,0-1.9-0.4-2.5-1.1c-1.2-1.4-1.1-3.5,0.3-4.8c0.8-0.7,1.7-1.5,2.6-2.2c1.4-1.2,3.6-1,4.8,0.4c1.2,1.4,1,3.6-0.4,4.8
								c-0.8,0.7-1.7,1.4-2.5,2.1C249.6,280.5,248.9,280.7,248,280.7z M260.9,270.2c-1,0-2-0.5-2.7-1.3c-1.1-1.5-0.8-3.6,0.6-4.8
								c0.9-0.7,1.8-1.4,2.7-2c1.5-1.1,3.6-0.8,4.8,0.7c1.1,1.5,0.8,3.6-0.7,4.7c-0.9,0.7-1.7,1.3-2.6,2
								C262.3,270,261.6,270.2,260.9,270.2z M274.5,260.6c-1.1,0-2.2-0.5-2.8-1.5c-1-1.6-0.6-3.7,1-4.7c1-0.6,1.9-1.2,2.8-1.8
								c1.6-1,3.7-0.5,4.7,1c1,1.6,0.5,3.7-1,4.7c-0.9,0.6-1.8,1.2-2.8,1.8C275.8,260.5,275.1,260.6,274.5,260.6z M288.7,252
								c-1.2,0-2.3-0.6-3-1.7c-0.9-1.6-0.3-3.7,1.3-4.6c1-0.5,2-1.1,2.9-1.6c1.6-0.9,3.7-0.3,4.6,1.4c0.9,1.6,0.3,3.7-1.4,4.6
								c-1,0.5-1.9,1-2.9,1.6C289.8,251.9,289.2,252,288.7,252z M303.5,244.5c-1.3,0-2.5-0.7-3.1-2c-0.8-1.7-0.1-3.7,1.6-4.5
								c1-0.5,2-0.9,3.1-1.4c1.7-0.8,3.7,0,4.5,1.7c0.8,1.7,0,3.7-1.7,4.5c-1,0.5-2,0.9-3,1.4C304.5,244.4,304,244.5,303.5,244.5z
								 M318.8,238c-1.4,0-2.7-0.8-3.2-2.2c-0.6-1.7,0.2-3.7,2-4.4c1-0.4,2.1-0.8,3.1-1.2c1.7-0.6,3.7,0.3,4.4,2
								c0.7,1.8-0.3,3.7-2,4.4c-1,0.4-2.1,0.8-3.1,1.1C319.6,238,319.2,238,318.8,238z M334.5,232.7c-1.4,0-2.8-0.9-3.2-2.4
								c-0.5-1.8,0.5-3.7,2.3-4.2c1.1-0.3,2.2-0.6,3.3-0.9c1.8-0.5,3.7,0.5,4.2,2.3c0.5,1.8-0.5,3.7-2.3,4.2
								c-1.1,0.3-2.1,0.6-3.1,0.9C335.2,232.6,334.8,232.7,334.5,232.7z M350.6,228.4c-1.6,0-3-1.1-3.3-2.6
								c-0.4-1.8,0.7-3.6,2.6-4.1c1.1-0.2,2.2-0.5,3.3-0.7c1.8-0.4,3.6,0.8,4,2.6c0.4,1.8-0.8,3.6-2.6,4c-1.1,0.2-2.1,0.5-3.2,0.7
								C351.1,228.4,350.8,228.4,350.6,228.4z M366.9,225.4c-1.6,0-3.1-1.2-3.4-2.9c-0.3-1.9,1-3.6,2.8-3.9c1.1-0.2,2.2-0.3,3.3-0.5
								c1.9-0.2,3.6,1,3.8,2.9c0.2,1.9-1,3.6-2.9,3.8c-1.1,0.1-2.1,0.3-3.2,0.5C367.3,225.4,367.1,225.4,366.9,225.4z M383.4,223.5
								c-1.7,0-3.2-1.3-3.4-3.1c-0.1-1.9,1.2-3.5,3.1-3.6c1.1-0.1,2.2-0.2,3.4-0.2c1.8-0.1,3.5,1.3,3.6,3.2c0.1,1.9-1.3,3.5-3.2,3.6
								c-1.1,0.1-2.2,0.1-3.3,0.2C383.6,223.5,383.5,223.5,383.4,223.5z"/></g></g><g><g><linearGradient id="SVGID_3_" x1="396.732" x2="405.217" y1="219.4" y2="219.4" gradientUnits="userSpaceOnUse"><stop offset="0" stop-color="#ff5b91"/><stop offset="1" stop-color="#ffbb6b"/></linearGradient><path fill="url(#SVGID_3_)" d="M400.1,222.8c-1.9,0-3.4-1.5-3.4-3.4c0-1.9,1.5-3.4,3.4-3.4l1.7,0c1.9,0,3.4,1.5,3.4,3.4
								c0,1.9-1.5,3.4-3.4,3.4L400.1,222.8C400.1,222.8,400.1,222.8,400.1,222.8z"/></g></g></g><g><g><linearGradient id="SVGID_4_" x1="165.434" x2="401.827" y1="570.583" y2="570.583" gradientUnits="userSpaceOnUse"><stop offset="0" stop-color="#ff5b91"/><stop offset="1" stop-color="#ffbb6b"/></linearGradient><path fill="url(#SVGID_4_)" d="M401.8,688.8c-130.3,0-236.4-106-236.4-236.4h6.8c0,126.6,103,229.6,229.6,229.6V688.8z"/></g></g><g><g><g><linearGradient id="SVGID_5_" x1="631.417" x2="638.209" y1="453.24" y2="453.24" gradientUnits="userSpaceOnUse"><stop offset="0" stop-color="#ff5b91"/><stop offset="1" stop-color="#ffbb6b"/></linearGradient><path fill="url(#SVGID_5_)" d="M634.8,457.5L634.8,457.5c-1.9,0-3.4-1.5-3.4-3.4v-1.7c0-1.9,1.5-3.4,3.4-3.4c1.9,0,3.4,1.5,3.4,3.4
								v1.7C638.2,456,636.7,457.5,634.8,457.5z"/></g></g><g><g><linearGradient id="SVGID_6_" x1="413.509" x2="637.728" y1="576.147" y2="576.147" gradientUnits="userSpaceOnUse"><stop offset="0" stop-color="#ff5b91"/><stop offset="1" stop-color="#ffbb6b"/></linearGradient><path fill="url(#SVGID_6_)" d="M416.9,688.3c-1.8,0-3.3-1.4-3.4-3.2c-0.1-1.9,1.3-3.5,3.2-3.6c1.1-0.1,2.2-0.1,3.3-0.2
								c1.8-0.1,3.5,1.3,3.6,3.1c0.2,1.9-1.2,3.5-3.1,3.6c-1.1,0.1-2.3,0.2-3.4,0.2C417,688.3,417,688.3,416.9,688.3z M433.4,686.7
								c-1.7,0-3.1-1.2-3.4-2.9c-0.2-1.9,1-3.6,2.9-3.8c1.1-0.1,2.2-0.3,3.2-0.5c1.8-0.3,3.6,1,3.9,2.8c0.3,1.9-1,3.6-2.8,3.9
								c-1.1,0.2-2.2,0.3-3.3,0.5C433.7,686.6,433.6,686.7,433.4,686.7z M449.8,683.8c-1.6,0-3-1.1-3.3-2.7c-0.4-1.8,0.8-3.6,2.6-4
								c1.1-0.2,2.1-0.5,3.2-0.7c1.9-0.4,3.6,0.7,4,2.6c0.4,1.8-0.7,3.6-2.6,4.1c-1.1,0.2-2.2,0.5-3.3,0.7
								C450.3,683.8,450,683.8,449.8,683.8z M466,679.8c-1.5,0-2.8-1-3.3-2.5c-0.5-1.8,0.5-3.7,2.3-4.2c1.1-0.3,2.1-0.6,3.2-0.9
								c1.8-0.5,3.7,0.5,4.2,2.3c0.5,1.8-0.5,3.7-2.3,4.2c-1.1,0.3-2.2,0.6-3.3,0.9C466.6,679.8,466.2,679.8,466,679.8z
								 M481.8,674.7c-1.4,0-2.7-0.9-3.2-2.2c-0.6-1.8,0.3-3.7,2-4.4c1-0.4,2-0.8,3.1-1.1c1.8-0.7,3.7,0.2,4.4,2
								c0.7,1.8-0.2,3.7-2,4.4c-1,0.4-2.1,0.8-3.2,1.2C482.6,674.6,482.2,674.7,481.8,674.7z M497.2,668.4c-1.3,0-2.5-0.7-3.1-2
								c-0.8-1.7,0-3.7,1.7-4.5c1-0.5,2-0.9,3-1.4c1.7-0.8,3.7-0.1,4.5,1.6c0.8,1.7,0.1,3.7-1.6,4.5c-1,0.5-2,0.9-3.1,1.4
								C498.1,668.4,497.6,668.4,497.2,668.4z M512,661.1c-1.2,0-2.4-0.6-3-1.8c-0.9-1.6-0.3-3.7,1.4-4.6c1-0.5,1.9-1,2.9-1.6
								c1.6-0.9,3.7-0.3,4.6,1.3c0.9,1.6,0.3,3.7-1.3,4.6c-1,0.5-1.9,1.1-2.9,1.6C513.1,661,512.6,661.1,512,661.1z M526.4,652.7
								c-1.1,0-2.2-0.6-2.9-1.6c-1-1.6-0.5-3.7,1.1-4.7c0.9-0.6,1.9-1.2,2.7-1.8c1.6-1,3.7-0.6,4.7,1c1,1.6,0.6,3.7-1,4.7
								c-0.9,0.6-1.9,1.2-2.8,1.8C527.6,652.6,527,652.7,526.4,652.7z M540.1,643.3c-1,0-2.1-0.5-2.7-1.4c-1.1-1.5-0.8-3.6,0.7-4.7
								c0.9-0.7,1.8-1.3,2.6-2c1.5-1.1,3.6-0.8,4.7,0.7c1.1,1.5,0.8,3.6-0.6,4.8c-0.9,0.7-1.8,1.4-2.7,2
								C541.5,643.1,540.8,643.3,540.1,643.3z M553.1,633c-1,0-1.9-0.4-2.6-1.2c-1.2-1.4-1-3.6,0.4-4.8c0.8-0.7,1.7-1.4,2.5-2.1
								c1.4-1.2,3.6-1.1,4.8,0.3c1.2,1.4,1.1,3.6-0.3,4.8c-0.8,0.7-1.7,1.5-2.5,2.2C554.7,632.7,553.9,633,553.1,633z M565.3,621.8
								c-0.9,0-1.7-0.3-2.4-1c-1.3-1.3-1.3-3.5,0-4.8c0.8-0.8,1.5-1.5,2.3-2.3c1.3-1.3,3.5-1.3,4.8,0c1.3,1.3,1.3,3.5,0,4.8
								c-0.8,0.8-1.6,1.6-2.4,2.4C567.1,621.4,566.2,621.8,565.3,621.8z M576.8,609.7c-0.8,0-1.6-0.3-2.2-0.8
								c-1.4-1.2-1.6-3.4-0.3-4.8c0.7-0.8,1.4-1.6,2.2-2.5c1.2-1.4,3.3-1.6,4.8-0.4c1.4,1.2,1.6,3.4,0.4,4.8
								c-0.7,0.9-1.5,1.7-2.2,2.6C578.6,609.3,577.7,609.7,576.8,609.7z M587.3,596.8c-0.7,0-1.4-0.2-2-0.7
								c-1.5-1.1-1.8-3.3-0.6-4.7c0.7-0.9,1.3-1.7,2-2.6c1.1-1.5,3.2-1.8,4.7-0.7c1.5,1.1,1.8,3.2,0.7,4.7c-0.7,0.9-1.3,1.8-2,2.7
								C589.3,596.3,588.3,596.8,587.3,596.8z M596.9,583.2c-0.6,0-1.3-0.2-1.9-0.6c-1.6-1-2-3.1-1-4.7c0.6-0.9,1.2-1.8,1.8-2.8
								c1-1.6,3.1-2,4.7-1c1.6,1,2,3.1,1,4.7c-0.6,1-1.2,1.9-1.8,2.8C599.1,582.7,598,583.2,596.9,583.2z M605.5,569
								c-0.6,0-1.1-0.1-1.7-0.4c-1.6-0.9-2.2-3-1.3-4.6c0.5-1,1.1-1.9,1.6-2.9c0.9-1.6,2.9-2.3,4.6-1.4c1.6,0.9,2.3,2.9,1.4,4.6
								c-0.5,1-1.1,2-1.6,3C607.9,568.4,606.7,569,605.5,569z M613.1,554.2c-0.5,0-1-0.1-1.4-0.3c-1.7-0.8-2.4-2.8-1.7-4.5l1.4-3
								c0.8-1.7,2.8-2.5,4.5-1.7c1.7,0.8,2.5,2.8,1.7,4.5l-1.4,3.1C615.6,553.4,614.4,554.2,613.1,554.2z M619.6,538.8
								c-0.4,0-0.8-0.1-1.2-0.2c-1.8-0.7-2.6-2.6-2-4.4c0.4-1,0.8-2,1.2-3.1c0.6-1.8,2.6-2.7,4.3-2c1.8,0.6,2.7,2.6,2,4.3
								c-0.4,1.1-0.8,2.1-1.2,3.2C622.2,538,620.9,538.8,619.6,538.8z M625,523c-0.3,0-0.6,0-1-0.1c-1.8-0.5-2.8-2.4-2.3-4.2
								c0.3-1,0.6-2.1,0.9-3.2c0.5-1.8,2.4-2.8,4.2-2.3c1.8,0.5,2.8,2.4,2.3,4.2c-0.3,1.1-0.6,2.2-1,3.3
								C627.8,522.1,626.4,523,625,523z M629.2,507c-0.2,0-0.5,0-0.7-0.1c-1.8-0.4-3-2.2-2.6-4c0.2-1.1,0.5-2.1,0.7-3.2
								c0.4-1.8,2.2-3,4-2.6c1.8,0.4,3,2.2,2.6,4c-0.2,1.1-0.5,2.2-0.7,3.3C632.1,505.9,630.7,507,629.2,507z M632.2,490.6
								c-0.2,0-0.3,0-0.5,0c-1.9-0.3-3.1-2-2.8-3.9c0.2-1.1,0.3-2.2,0.5-3.2c0.2-1.8,2-3.1,3.8-2.9c1.8,0.2,3.1,2,2.9,3.8
								c-0.2,1.1-0.3,2.2-0.5,3.3C635.3,489.4,633.9,490.6,632.2,490.6z M634.1,474.1c-0.1,0-0.2,0-0.3,0c-1.9-0.1-3.3-1.8-3.1-3.6
								c0.1-1.1,0.2-2.2,0.2-3.3c0.1-1.9,1.7-3.2,3.6-3.2c1.9,0.1,3.3,1.7,3.2,3.6c-0.1,1.1-0.1,2.3-0.2,3.4
								C637.3,472.7,635.9,474.1,634.1,474.1z"/></g></g><g><g><linearGradient id="SVGID_7_" x1="398.426" x2="406.92" y1="685.381" y2="685.381" gradientUnits="userSpaceOnUse"><stop offset="0" stop-color="#ff5b91"/><stop offset="1" stop-color="#ffbb6b"/></linearGradient><path fill="url(#SVGID_7_)" d="M401.8,688.8c-1.9,0-3.4-1.5-3.4-3.4c0-1.9,1.5-3.4,3.4-3.4l1.7,0c0,0,0,0,0,0c1.9,0,3.4,1.5,3.4,3.4
								c0,1.9-1.5,3.4-3.4,3.4L401.8,688.8z"/></g></g></g><g><g><linearGradient id="SVGID_8_" x1="401.827" x2="638.209" y1="334.197" y2="334.197" gradientUnits="userSpaceOnUse"><stop offset="0" stop-color="#ff5b91"/><stop offset="1" stop-color="#ffbb6b"/></linearGradient><path fill="url(#SVGID_8_)" d="M638.2,452.4h-6.8c0-126.6-103-229.6-229.6-229.6V216C532.2,216,638.2,322,638.2,452.4z"/></g></g></g><g><g><g><linearGradient id="SVGID_9_" x1="529.164" x2="536.971" y1="583.493" y2="583.493" gradientUnits="userSpaceOnUse"><stop offset="0" stop-color="#ff5b91"/><stop offset="1" stop-color="#ffbb6b"/></linearGradient><path fill="url(#SVGID_9_)" d="M532.5,587.4c-0.9,0-1.7-0.3-2.4-1c-1.3-1.3-1.3-3.4,0-4.7l1.2-1.1c1.3-1.3,3.4-1.3,4.7,0
							c1.3,1.3,1.3,3.4,0,4.7l-1.2,1.2C534.2,587.1,533.3,587.4,532.5,587.4z"/></g></g><g><g><linearGradient id="SVGID_10_" x1="278.528" x2="526.296" y1="615.391" y2="615.391" gradientUnits="userSpaceOnUse"><stop offset="0" stop-color="#ff5b91"/><stop offset="1" stop-color="#ffbb6b"/></linearGradient><path fill="url(#SVGID_10_)" d="M401.8,641.2H401c-1.8,0-3.3-1.5-3.3-3.3c0-1.8,1.5-3.3,3.3-3.3l3.2,0c0,0,0,0,0,0
							c1.8,0,3.3,1.5,3.3,3.3c0,1.8-1.4,3.3-3.3,3.4L401.8,641.2z M388.1,640.7c-0.1,0-0.2,0-0.2,0c-1.1-0.1-2.2-0.2-3.3-0.3
							c-1.8-0.2-3.2-1.8-3-3.6c0.2-1.8,1.8-3.2,3.6-3c1,0.1,2.1,0.2,3.2,0.3c1.8,0.1,3.2,1.7,3.1,3.5
							C391.3,639.4,389.8,640.7,388.1,640.7z M417.2,640.6c-1.7,0-3.2-1.3-3.3-3c-0.2-1.8,1.2-3.4,3-3.6c1.1-0.1,2.1-0.2,3.2-0.3
							c1.9-0.1,3.5,1.2,3.6,3c0.2,1.8-1.2,3.5-3,3.6c-1.1,0.1-2.2,0.2-3.3,0.3C417.4,640.6,417.3,640.6,417.2,640.6z M372,638.8
							c-0.2,0-0.3,0-0.5,0c-1.1-0.2-2.2-0.4-3.3-0.6c-1.8-0.3-3-2.1-2.7-3.9c0.3-1.8,2.1-3,3.9-2.7c1,0.2,2.1,0.4,3.1,0.5
							c1.8,0.3,3,2,2.8,3.8C375,637.7,373.6,638.8,372,638.8z M433.3,638.6c-1.6,0-3-1.1-3.3-2.8c-0.3-1.8,0.9-3.5,2.7-3.8
							c1-0.2,2.1-0.4,3.1-0.6c1.8-0.3,3.5,0.8,3.9,2.6c0.3,1.8-0.8,3.5-2.6,3.9c-1.1,0.2-2.1,0.4-3.2,0.6
							C433.6,638.5,433.5,638.6,433.3,638.6z M356.1,635.5c-0.3,0-0.5,0-0.8-0.1c-1.1-0.3-2.1-0.6-3.2-0.8c-1.8-0.5-2.8-2.3-2.3-4.1
							c0.5-1.8,2.3-2.8,4.1-2.3c1,0.3,2.1,0.5,3.1,0.8c1.8,0.4,2.9,2.3,2.4,4C358.9,634.5,357.6,635.5,356.1,635.5z M449.1,635.1
							c-1.5,0-2.8-1-3.2-2.5c-0.5-1.8,0.6-3.6,2.4-4c1-0.3,2-0.5,3.1-0.8c1.7-0.5,3.6,0.5,4.1,2.3c0.5,1.8-0.5,3.6-2.3,4.1
							c-1.1,0.3-2.1,0.6-3.2,0.9C449.7,635.1,449.4,635.1,449.1,635.1z M340.6,630.9c-0.4,0-0.7-0.1-1.1-0.2
							c-1.1-0.4-2.1-0.7-3.1-1.1c-1.7-0.6-2.6-2.5-1.9-4.3c0.6-1.7,2.5-2.6,4.3-2c1,0.4,2,0.7,3,1.1c1.7,0.6,2.6,2.5,2,4.2
							C343.2,630,341.9,630.9,340.6,630.9z M464.6,630.3c-1.4,0-2.6-0.8-3.1-2.2c-0.6-1.7,0.3-3.6,2-4.2c1-0.4,2-0.7,3-1.1
							c1.7-0.7,3.6,0.2,4.3,1.9c0.6,1.7-0.2,3.6-1.9,4.3c-1,0.4-2.1,0.8-3.1,1.1C465.3,630.3,464.9,630.3,464.6,630.3z M325.5,624.9
							c-0.5,0-0.9-0.1-1.4-0.3c-1-0.5-2-0.9-3-1.4c-1.7-0.8-2.4-2.8-1.6-4.4c0.8-1.6,2.8-2.4,4.4-1.6c1,0.5,1.9,0.9,2.9,1.3
							c1.7,0.8,2.4,2.7,1.7,4.4C328,624.1,326.8,624.9,325.5,624.9z M479.6,624.2c-1.3,0-2.5-0.7-3-1.9c-0.8-1.7-0.1-3.6,1.6-4.4
							c1-0.4,1.9-0.9,2.9-1.4c1.7-0.8,3.6-0.1,4.4,1.5c0.8,1.7,0.1,3.6-1.6,4.4c-1,0.5-2,0.9-3,1.4
							C480.5,624.1,480,624.2,479.6,624.2z M311.1,617.5c-0.6,0-1.1-0.1-1.6-0.4c-1-0.5-1.9-1.1-2.9-1.6c-1.6-0.9-2.1-3-1.2-4.5
							c0.9-1.6,2.9-2.1,4.5-1.2c0.9,0.5,1.9,1.1,2.8,1.6c1.6,0.9,2.2,2.9,1.3,4.5C313.3,616.9,312.2,617.5,311.1,617.5z
							 M493.9,616.8c-1.1,0-2.3-0.6-2.9-1.7c-0.9-1.6-0.4-3.6,1.2-4.5c0.9-0.5,1.8-1.1,2.8-1.6c1.6-0.9,3.6-0.4,4.5,1.1
							c0.9,1.6,0.4,3.6-1.2,4.5c-1,0.6-1.9,1.1-2.8,1.7C495.1,616.6,494.5,616.8,493.9,616.8z M297.3,609c-0.6,0-1.3-0.2-1.9-0.6
							c-0.9-0.6-1.8-1.2-2.7-1.9c-1.5-1.1-1.8-3.1-0.8-4.6c1.1-1.5,3.1-1.8,4.6-0.8c0.9,0.6,1.7,1.2,2.6,1.8c1.5,1,1.9,3.1,0.9,4.6
							C299.4,608.5,298.4,609,297.3,609z M507.6,608.1c-1,0-2.1-0.5-2.7-1.4c-1.1-1.5-0.7-3.6,0.8-4.6c0.9-0.6,1.7-1.2,2.6-1.8
							c1.5-1.1,3.6-0.7,4.6,0.7c1.1,1.5,0.7,3.6-0.7,4.6c-0.9,0.6-1.8,1.3-2.7,1.9C508.9,607.9,508.3,608.1,507.6,608.1z
							 M284.3,599.3c-0.7,0-1.5-0.2-2.1-0.8c-0.8-0.7-1.7-1.4-2.5-2.1c-1.4-1.2-1.6-3.3-0.4-4.7c1.2-1.4,3.3-1.6,4.7-0.4
							c0.8,0.7,1.6,1.4,2.5,2.1c1.4,1.2,1.6,3.2,0.5,4.7C286.2,598.9,285.3,599.3,284.3,599.3z M520.5,598.3c-0.9,0-1.9-0.4-2.5-1.2
							c-1.2-1.4-1-3.5,0.4-4.7c0.8-0.7,1.6-1.4,2.4-2.1c1.4-1.2,3.5-1,4.7,0.3c1.2,1.4,1,3.5-0.3,4.7c-0.8,0.7-1.7,1.4-2.5,2.1
							C522,598,521.3,598.3,520.5,598.3z"/></g></g><g><g><linearGradient id="SVGID_11_" x1="267.661" x2="275.479" y1="584.478" y2="584.478" gradientUnits="userSpaceOnUse"><stop offset="0" stop-color="#ff5b91"/><stop offset="1" stop-color="#ffbb6b"/></linearGradient><path fill="url(#SVGID_11_)" d="M272.2,588.4c-0.8,0-1.7-0.3-2.3-1l-1.2-1.2c-1.3-1.3-1.3-3.4,0-4.7c1.3-1.3,3.4-1.3,4.7,0l1.2,1.1
							c1.3,1.3,1.3,3.4,0.1,4.7C273.9,588,273,588.4,272.2,588.4z"/></g></g></g><g><g><linearGradient id="SVGID_12_" x1="530.337" x2="590.642" y1="453.381" y2="453.381" gradientUnits="userSpaceOnUse"><stop offset="0" stop-color="#ff5b91"/><stop offset="1" stop-color="#ffbb6b"/></linearGradient><path fill="url(#SVGID_12_)" d="M533.6,586.2c-0.8,0-1.7-0.3-2.3-1c-1.3-1.3-1.3-3.4,0-4.7c34-34.3,52.7-79.9,52.7-128.2
						c0-47.3-18.1-92.1-50.8-126.2c-1.2-1.3-1.2-3.4,0.1-4.7c1.3-1.3,3.4-1.2,4.7,0.1c34,35.3,52.7,81.8,52.7,130.8
						c0,50.1-19.4,97.3-54.6,132.9C535.4,585.9,534.5,586.2,533.6,586.2z"/></g></g><g><g><g><linearGradient id="SVGID_13_" x1="267.324" x2="275.128" y1="320.639" y2="320.639" gradientUnits="userSpaceOnUse"><stop offset="0" stop-color="#ff5b91"/><stop offset="1" stop-color="#ffbb6b"/></linearGradient><path fill="url(#SVGID_13_)" d="M270.6,324.5c-0.8,0-1.7-0.3-2.3-1c-1.3-1.3-1.3-3.4,0-4.7l1.2-1.2c1.3-1.3,3.4-1.3,4.7,0
							c1.3,1.3,1.3,3.4,0,4.7l-1.2,1.1C272.3,324.2,271.5,324.5,270.6,324.5z"/></g></g><g><g><linearGradient id="SVGID_14_" x1="278.166" x2="528.17" y1="290.214" y2="290.214" gradientUnits="userSpaceOnUse"><stop offset="0" stop-color="#ff5b91"/><stop offset="1" stop-color="#ffbb6b"/></linearGradient><path fill="url(#SVGID_14_)" d="M524.9,316.9c-0.8,0-1.6-0.3-2.2-0.8c-0.8-0.7-1.6-1.4-2.4-2.1c-1.4-1.2-1.5-3.3-0.4-4.7
							c1.2-1.4,3.3-1.5,4.7-0.4c0.8,0.7,1.7,1.4,2.5,2.2c1.4,1.2,1.5,3.3,0.3,4.7C526.7,316.5,525.8,316.9,524.9,316.9z
							 M281.5,314.5c-0.9,0-1.9-0.4-2.5-1.2c-1.2-1.4-1-3.5,0.4-4.7c0.8-0.7,1.7-1.4,2.5-2.1c1.4-1.2,3.5-1,4.7,0.5
							c1.2,1.4,1,3.5-0.5,4.7c-0.8,0.7-1.7,1.4-2.5,2.1C283,314.3,282.2,314.5,281.5,314.5z M512.1,306.5c-0.7,0-1.4-0.2-2-0.6
							c-0.9-0.6-1.7-1.3-2.6-1.9c-1.5-1.1-1.8-3.1-0.8-4.6c1.1-1.5,3.1-1.8,4.6-0.8c0.9,0.6,1.8,1.3,2.7,2c1.5,1.1,1.8,3.2,0.7,4.6
							C514.1,306.1,513.1,306.5,512.1,306.5z M294.4,304.4c-1,0-2.1-0.5-2.7-1.4c-1.1-1.5-0.7-3.6,0.8-4.6c0.9-0.6,1.8-1.3,2.7-1.9
							c1.5-1,3.6-0.7,4.6,0.8c1,1.5,0.6,3.6-0.9,4.6c-0.9,0.6-1.8,1.2-2.6,1.8C295.7,304.2,295.1,304.4,294.4,304.4z M498.5,297.4
							c-0.6,0-1.2-0.2-1.7-0.5c-0.9-0.6-1.8-1.1-2.8-1.7c-1.6-0.9-2.1-3-1.2-4.5c0.9-1.6,3-2.1,4.6-1.2c1,0.6,1.9,1.1,2.9,1.7
							c1.6,1,2.1,3,1.1,4.6C500.8,296.8,499.7,297.4,498.5,297.4z M308.1,295.5c-1.1,0-2.2-0.6-2.9-1.6c-0.9-1.6-0.4-3.6,1.2-4.5
							c0.9-0.6,1.9-1.1,2.9-1.7c1.6-0.9,3.6-0.3,4.5,1.3c0.9,1.6,0.3,3.6-1.3,4.5c-0.9,0.5-1.9,1.1-2.8,1.6
							C309.3,295.4,308.7,295.5,308.1,295.5z M484.2,289.4c-0.5,0-1-0.1-1.5-0.3c-1-0.5-1.9-0.9-2.9-1.4c-1.6-0.8-2.4-2.8-1.6-4.4
							c0.8-1.7,2.8-2.4,4.4-1.6c1,0.5,2,1,3,1.5c1.6,0.8,2.3,2.8,1.5,4.4C486.6,288.8,485.4,289.4,484.2,289.4z M322.6,287.9
							c-1.2,0-2.4-0.7-3-1.9c-0.8-1.7-0.1-3.6,1.6-4.4c1-0.5,2-0.9,3-1.4c1.7-0.8,3.6,0,4.4,1.7c0.8,1.7,0,3.6-1.7,4.4
							c-1,0.4-2,0.9-2.9,1.4C323.6,287.8,323.1,287.9,322.6,287.9z M469.2,282.8c-0.4,0-0.8-0.1-1.2-0.2c-1-0.4-2-0.8-3-1.1
							c-1.7-0.6-2.6-2.5-2-4.3c0.6-1.7,2.6-2.6,4.3-2c1.1,0.4,2.1,0.8,3.1,1.2c1.7,0.7,2.5,2.6,1.9,4.3
							C471.8,282,470.5,282.8,469.2,282.8z M337.7,281.6c-1.4,0-2.6-0.8-3.1-2.2c-0.6-1.7,0.2-3.6,2-4.3c1-0.4,2.1-0.8,3.1-1.1
							c1.7-0.6,3.6,0.3,4.2,2c0.6,1.7-0.3,3.6-2,4.2c-1,0.3-2,0.7-3,1.1C338.5,281.5,338.1,281.6,337.7,281.6z M453.7,277.5
							c-0.3,0-0.6,0-0.9-0.1c-1-0.3-2.1-0.6-3.1-0.9c-1.8-0.5-2.8-2.3-2.3-4.1c0.5-1.8,2.3-2.8,4.1-2.3c1.1,0.3,2.1,0.6,3.2,0.9
							c1.7,0.5,2.8,2.3,2.3,4.1C456.5,276.6,455.1,277.5,453.7,277.5z M353.3,276.6c-1.5,0-2.8-1-3.2-2.5c-0.5-1.8,0.6-3.6,2.3-4.1
							c1.1-0.3,2.1-0.6,3.2-0.8c1.7-0.4,3.6,0.6,4,2.4c0.5,1.8-0.6,3.6-2.4,4c-1,0.3-2.1,0.5-3.1,0.8
							C353.9,276.6,353.6,276.6,353.3,276.6z M437.8,273.7c-0.2,0-0.4,0-0.7-0.1c-1.1-0.2-2.1-0.4-3.2-0.6c-1.8-0.3-3-2-2.7-3.8
							c0.3-1.8,2-3,3.8-2.7c1.1,0.2,2.2,0.4,3.3,0.6c1.8,0.4,3,2.1,2.6,3.9C440.7,272.6,439.3,273.7,437.8,273.7z M369.3,273
							c-1.6,0-3-1.1-3.3-2.7c-0.3-1.8,0.9-3.5,2.7-3.9c1.1-0.2,2.2-0.4,3.3-0.5c1.8-0.3,3.5,1,3.8,2.8c0.3,1.8-1,3.5-2.8,3.8
							c-1.1,0.2-2.1,0.3-3.2,0.5C369.7,273,369.5,273,369.3,273z M421.6,271.2c-0.1,0-0.2,0-0.4,0c-1.1-0.1-2.1-0.2-3.2-0.3
							c-1.8-0.2-3.2-1.8-3-3.6c0.2-1.8,1.7-3.2,3.6-3c1.1,0.1,2.2,0.2,3.3,0.3c1.8,0.2,3.1,1.8,2.9,3.6
							C424.7,270,423.2,271.2,421.6,271.2z M385.5,270.9c-1.7,0-3.1-1.3-3.3-3c-0.2-1.8,1.2-3.4,3-3.6c1.1-0.1,2.2-0.2,3.3-0.3
							c1.9-0.2,3.4,1.2,3.5,3.1c0.1,1.8-1.2,3.4-3.1,3.5c-1.1,0.1-2.1,0.2-3.2,0.2C385.7,270.9,385.6,270.9,385.5,270.9z
							 M405.2,270.2C405.1,270.2,405.1,270.2,405.2,270.2c-1.1,0-2.2,0-3.3,0c-1.8,0-3.3-1.5-3.3-3.3c0-1.8,1.5-3.3,3.3-3.3
							c1.1,0,2.2,0,3.3,0c1.8,0,3.3,1.5,3.3,3.4C408.4,268.8,407,270.2,405.2,270.2z"/></g></g><g><g><linearGradient id="SVGID_15_" x1="531.124" x2="538.905" y1="323.265" y2="323.265" gradientUnits="userSpaceOnUse"><stop offset="0" stop-color="#ff5b91"/><stop offset="1" stop-color="#ffbb6b"/></linearGradient><path fill="url(#SVGID_15_)" d="M535.6,327.2c-0.9,0-1.7-0.3-2.4-1l-1.1-1.2c-1.3-1.3-1.2-3.4,0.1-4.7c1.3-1.3,3.4-1.3,4.7,0.1l1.2,1.2
							c1.3,1.3,1.2,3.4-0.1,4.7C537.2,326.9,536.4,327.2,535.6,327.2z"/></g></g></g><g><g><linearGradient id="SVGID_16_" x1="213.001" x2="274.3" y1="452.56" y2="452.56" gradientUnits="userSpaceOnUse"><stop offset="0" stop-color="#ff5b91"/><stop offset="1" stop-color="#ffbb6b"/></linearGradient><path fill="url(#SVGID_16_)" d="M271,587.2c-0.8,0-1.7-0.3-2.3-1C232.8,550.5,213,503,213,452.4c0-50.4,19.6-97.8,55.3-133.5
						c1.3-1.3,3.4-1.3,4.7,0c1.3,1.3,1.3,3.4,0,4.7c-34.4,34.4-53.4,80.2-53.4,128.8c0,48.8,19.1,94.7,53.7,129.2
						c1.3,1.3,1.3,3.4,0,4.7C272.7,586.9,271.8,587.2,271,587.2z"/></g></g><g><g><linearGradient id="SVGID_17_" x1="375.134" x2="428.509" y1="241.499" y2="241.499" gradientUnits="userSpaceOnUse"><stop offset="0" stop-color="#ff5b91"/><stop offset="1" stop-color="#ffbb6b"/></linearGradient><polygon fill="url(#SVGID_17_)" points="401.8 216.1 375.1 242.2 383.6 242.2 383.6 266.9 420.7 266.9 420.7 242.2 428.5 242.2"/></g></g><g><g><linearGradient id="SVGID_18_" x1="234.283" x2="283.984" y1="309.481" y2="309.481" gradientUnits="userSpaceOnUse"><stop offset="0" stop-color="#ff5b91"/><stop offset="1" stop-color="#ffbb6b"/></linearGradient><polygon fill="url(#SVGID_18_)" points="270.6 321.2 284 307.9 266.5 290.4 272 284.9 234.8 285.3 234.3 322.6 240.3 316.6 257.8 334.1 270.6 321.2"/></g></g><g><g><linearGradient id="SVGID_19_" x1="165.557" x2="216.306" y1="452.391" y2="452.391" gradientUnits="userSpaceOnUse"><stop offset="0" stop-color="#ff5b91"/><stop offset="1" stop-color="#ffbb6b"/></linearGradient><polygon fill="url(#SVGID_19_)" points="165.6 452.4 191.6 479.1 191.6 470.6 216.3 470.6 216.3 433.5 191.6 433.5 191.6 425.7"/></g></g><g><g><linearGradient id="SVGID_20_" x1="234.283" x2="283.543" y1="595.07" y2="595.07" gradientUnits="userSpaceOnUse"><stop offset="0" stop-color="#ff5b91"/><stop offset="1" stop-color="#ffbb6b"/></linearGradient><polygon fill="url(#SVGID_20_)" points="234.8 619.5 272 619.9 266 613.9 283.5 596.5 257.3 570.2 239.8 587.7 234.3 582.2"/></g></g><g><g><linearGradient id="SVGID_21_" x1="375.134" x2="428.509" y1="663.281" y2="663.281" gradientUnits="userSpaceOnUse"><stop offset="0" stop-color="#ff5b91"/><stop offset="1" stop-color="#ffbb6b"/></linearGradient><polygon fill="url(#SVGID_21_)" points="401.8 688.7 428.5 662.6 420 662.6 420 637.9 383 637.9 383 662.6 375.1 662.6"/></g></g><g><g><linearGradient id="SVGID_22_" x1="519.647" x2="569.36" y1="595.299" y2="595.299" gradientUnits="userSpaceOnUse"><stop offset="0" stop-color="#ff5b91"/><stop offset="1" stop-color="#ffbb6b"/></linearGradient><polygon fill="url(#SVGID_22_)" points="568.9 619.5 569.4 582.2 563.4 588.2 545.9 570.7 519.6 596.9 537.1 614.4 531.6 619.9"/></g></g><g><g><linearGradient id="SVGID_23_" x1="587.337" x2="638.112" y1="452.391" y2="452.391" gradientUnits="userSpaceOnUse"><stop offset="0" stop-color="#ff5b91"/><stop offset="1" stop-color="#ffbb6b"/></linearGradient><polygon fill="url(#SVGID_23_)" points="638.1 452.4 612.1 425.7 612.1 434.2 587.3 434.2 587.3 471.3 612.1 471.3 612.1 479.1"/></g></g><g><g><linearGradient id="SVGID_24_" x1="520.111" x2="569.36" y1="309.71" y2="309.71" gradientUnits="userSpaceOnUse"><stop offset="0" stop-color="#ff5b91"/><stop offset="1" stop-color="#ffbb6b"/></linearGradient><polygon fill="url(#SVGID_24_)" points="535.6 323.8 546.4 334.6 563.8 317.1 569.4 322.6 568.9 285.3 531.6 284.9 537.6 290.8 520.1 308.3 535.6 323.8"/></g></g></g><g><g><path fill="#76dcff" d="M197.7,625.2c-1.1,0-2.1-0.9-2.1-2v-13.8c0-1.1,0.9-2,2.1-2c1.1,0,2,0.9,2,2v13.8
					C199.8,624.3,198.8,625.2,197.7,625.2z"/></g><g><path fill="#76dcff" d="M190.1,632.8h-13.8c-1.1,0-2-0.9-2-2c0-1.1,0.9-2,2-2h13.8c1.1,0,2,0.9,2,2
					C192.1,631.9,191.2,632.8,190.1,632.8z"/></g><g><path fill="#76dcff" d="M197.7,654.2c-1.1,0-2.1-0.9-2.1-2v-13.8c0-1.1,0.9-2,2.1-2c1.1,0,2,0.9,2,2v13.8
					C199.8,653.3,198.8,654.2,197.7,654.2z"/></g><g><path fill="#76dcff" d="M219.1,632.8h-13.8c-1.1,0-2-0.9-2-2c0-1.1,0.9-2,2-2h13.8c1.1,0,2,0.9,2,2
					C221.1,631.9,220.2,632.8,219.1,632.8z"/></g></g><g><g><path fill="#76dcff" d="M654.7,388.8c-1.1,0-2-0.9-2-2V373c0-1.1,0.9-2,2-2s2,0.9,2,2v13.8C656.7,387.9,655.8,388.8,654.7,388.8z"/></g><g><path fill="#76dcff" d="M647,396.5h-13.8c-1.1,0-2-0.9-2-2c0-1.1,0.9-2,2-2H647c1.1,0,2,0.9,2,2
					C649.1,395.5,648.2,396.5,647,396.5z"/></g><g><path fill="#76dcff" d="M654.7,417.8c-1.1,0-2-0.9-2-2V402c0-1.1,0.9-2,2-2s2,0.9,2,2v13.8C656.7,416.9,655.8,417.8,654.7,417.8z"/></g><g><path fill="#76dcff" d="M676,396.5h-13.8c-1.1,0-2-0.9-2-2c0-1.1,0.9-2,2-2H676c1.1,0,2,0.9,2,2
					C678.1,395.5,677.2,396.5,676,396.5z"/></g></g><g><g><path fill="#76dcff" d="M474.7,632c-0.9,0-1.6-0.7-1.6-1.6v-7.3c0-0.9,0.7-1.6,1.6-1.6s1.6,0.7,1.6,1.6v7.3
					C476.2,631.3,475.5,632,474.7,632z"/></g><g><path fill="#76dcff" d="M470.7,636h-7.3c-0.9,0-1.6-0.7-1.6-1.6c0-0.9,0.7-1.6,1.6-1.6h7.3c0.9,0,1.6,0.7,1.6,1.6
					C472.2,635.3,471.5,636,470.7,636z"/></g><g><path fill="#76dcff" d="M474.7,647.3c-0.9,0-1.6-0.7-1.6-1.6v-7.3c0-0.9,0.7-1.6,1.6-1.6s1.6,0.7,1.6,1.6v7.3
					C476.2,646.6,475.5,647.3,474.7,647.3z"/></g><g><path fill="#76dcff" d="M485.9,636h-7.3c-0.9,0-1.6-0.7-1.6-1.6c0-0.9,0.7-1.6,1.6-1.6h7.3c0.9,0,1.6,0.7,1.6,1.6
					C487.5,635.3,486.8,636,485.9,636z"/></g></g><g><g><path fill="#76dcff" d="M591.3,284.3c-0.9,0-1.6-0.7-1.6-1.6v-5.2c0-0.9,0.7-1.6,1.6-1.6c0.9,0,1.6,0.7,1.6,1.6v5.2
					C592.9,283.6,592.2,284.3,591.3,284.3z"/></g><g><path fill="#76dcff" d="M588.4,287.2h-5.2c-0.9,0-1.6-0.7-1.6-1.6c0-0.9,0.7-1.6,1.6-1.6h5.2c0.9,0,1.6,0.7,1.6,1.6
					C590,286.5,589.3,287.2,588.4,287.2z"/></g><g><path fill="#76dcff" d="M591.3,295.3c-0.9,0-1.6-0.7-1.6-1.6v-5.2c0-0.9,0.7-1.6,1.6-1.6c0.9,0,1.6,0.7,1.6,1.6v5.2
					C592.9,294.6,592.2,295.3,591.3,295.3z"/></g><g><path fill="#76dcff" d="M599.5,287.2h-5.2c-0.9,0-1.6-0.7-1.6-1.6c0-0.9,0.7-1.6,1.6-1.6h5.2c0.9,0,1.6,0.7,1.6,1.6
					C601.1,286.5,600.4,287.2,599.5,287.2z"/></g></g><g><g><path fill="#76dcff" d="M249.3,364.3c-0.9,0-1.6-0.7-1.6-1.6v-6.6c0-0.9,0.7-1.6,1.6-1.6s1.6,0.7,1.6,1.6v6.6
					C250.8,363.6,250.1,364.3,249.3,364.3z"/></g><g><path fill="#76dcff" d="M245.6,367.9h-6.6c-0.9,0-1.6-0.7-1.6-1.6s0.7-1.6,1.6-1.6h6.6c0.9,0,1.6,0.7,1.6,1.6
					S246.5,367.9,245.6,367.9z"/></g><g><path fill="#76dcff" d="M249.3,378.1c-0.9,0-1.6-0.7-1.6-1.6V370c0-0.9,0.7-1.6,1.6-1.6s1.6,0.7,1.6,1.6v6.6
					C250.8,377.4,250.1,378.1,249.3,378.1z"/></g><g><path fill="#76dcff" d="M259.5,367.9h-6.6c-0.9,0-1.6-0.7-1.6-1.6s0.7-1.6,1.6-1.6h6.6c0.9,0,1.6,0.7,1.6,1.6
					S260.3,367.9,259.5,367.9z"/></g></g><g><g><path fill="#76dcff" d="M419.1,191.3c-1.1,0-2-0.9-2-2V180c0-1.1,0.9-2,2-2c1.1,0,2,0.9,2,2v9.3
					C421.2,190.4,420.3,191.3,419.1,191.3z"/></g><g><path fill="#76dcff" d="M414,196.4h-9.3c-1.1,0-2-0.9-2-2c0-1.1,0.9-2,2-2h9.3c1.1,0,2.1,0.9,2.1,2
					C416.1,195.5,415.1,196.4,414,196.4z"/></g><g><path fill="#76dcff" d="M419.1,210.8c-1.1,0-2-0.9-2-2v-9.3c0-1.1,0.9-2,2-2c1.1,0,2,0.9,2,2v9.3
					C421.2,209.9,420.3,210.8,419.1,210.8z"/></g><g><path fill="#76dcff" d="M433.5,196.4h-9.3c-1.1,0-2-0.9-2-2c0-1.1,0.9-2,2-2h9.3c1.1,0,2,0.9,2,2
					C435.6,195.5,434.7,196.4,433.5,196.4z"/></g></g><g><g><polygon fill="#76dcff" points="581.9 209.5 581.9 212.8 564.2 224.7 564.2 221.4"/></g><g><polygon fill="#76dcff" points="581.9 216.5 581.9 219.9 564.2 231.8 564.2 228.4"/></g><g><polygon fill="#76dcff" points="567 233.7 581.9 223.6 581.9 233.7"/></g><g><polygon fill="#76dcff" points="590.8 181.1 581.9 181.1 581.9 205.7 564.2 217.6 564.2 181.1 554.9 181.1 572.9 161.2"/></g></g><g><g><polygon fill="#76dcff" points="633.8 281.5 633.8 284.8 616.1 296.7 616.1 293.4"/></g><g><polygon fill="#76dcff" points="633.8 288.6 633.8 291.9 616.1 303.8 616.1 300.4"/></g><g><polygon fill="#76dcff" points="618.8 305.7 633.8 295.6 633.8 305.7"/></g><g><polygon fill="#76dcff" points="642.7 253.1 633.8 253.1 633.8 277.7 616.1 289.6 616.1 253.1 606.8 253.1 624.8 233.2"/></g></g><g><g><polygon fill="#76dcff" points="148 390.4 148 393.7 130.3 405.6 130.3 402.2"/></g><g><polygon fill="#76dcff" points="148 397.4 148 400.7 130.3 412.6 130.3 409.3"/></g><g><polygon fill="#76dcff" points="133.1 414.5 148 404.5 148 414.5"/></g><g><polygon fill="#76dcff" points="156.9 362 148 362 148 386.6 130.3 398.5 130.3 362 121 362 139 342.1"/></g></g><g><linearGradient id="SVGID_25_" x1="292.253" x2="343.27" y1="234.834" y2="234.834" gradientUnits="userSpaceOnUse"><stop offset="0" stop-color="#a026a1"/><stop offset="1" stop-color="#ef4ebf"/></linearGradient><path fill="url(#SVGID_25_)" d="M319.3,211.8l5.3,10.8c0.8,1.7,3.1,3.3,4.9,3.6l12,1.7c1.9,0.3,2.3,1.6,0.9,2.9l-8.7,8.4
				c-1.4,1.3-2.2,3.9-1.9,5.8l2,11.9c0.3,1.9-0.8,2.7-2.5,1.8l-10.7-5.6c-1.7-0.9-4.4-0.9-6.1,0l-10.7,5.6c-1.7,0.9-2.8,0.1-2.5-1.8
				l2-11.9c0.3-1.9-0.5-4.5-1.9-5.8l-8.7-8.4c-1.4-1.3-0.9-2.6,0.9-2.9l12-1.7c1.9-0.3,4.1-1.9,4.9-3.6l5.3-10.8
				C317.1,210.1,318.4,210.1,319.3,211.8z"/></g><g><path fill="#76dcff" d="M201.3,359l4.3,8.6c0.7,1.4,2.4,2.6,3.9,2.9l9.5,1.4c1.5,0.2,1.8,1.2,0.7,2.3l-6.9,6.7
				c-1.1,1.1-1.8,3.1-1.5,4.6l1.6,9.5c0.3,1.5-0.6,2.1-2,1.4l-8.5-4.5c-1.3-0.7-3.5-0.7-4.8,0l-8.5,4.5c-1.3,0.7-2.2,0.1-2-1.4
				l1.6-9.5c0.3-1.5-0.4-3.6-1.5-4.6l-6.9-6.7c-1.1-1.1-0.7-2.1,0.8-2.3l9.5-1.4c1.5-0.2,3.3-1.5,3.9-2.9l4.2-8.6
				C199.5,357.7,200.6,357.7,201.3,359z"/></g><g><path fill="#76dcff" d="M653.6,457.2l3.5,7c0.5,1.1,2,2.1,3.2,2.3l7.8,1.1c1.2,0.2,1.5,1,0.6,1.9L663,475c-0.9,0.9-1.4,2.5-1.2,3.8
				l1.3,7.7c0.2,1.2-0.5,1.7-1.6,1.2l-6.9-3.6c-1.1-0.6-2.9-0.6-4,0l-6.9,3.6c-1.1,0.6-1.8,0.1-1.6-1.2l1.3-7.7
				c0.2-1.2-0.3-2.9-1.2-3.8l-5.6-5.5c-0.9-0.9-0.6-1.7,0.6-1.9l7.7-1.1c1.2-0.2,2.6-1.2,3.2-2.3l3.5-7
				C652.2,456.1,653.1,456.1,653.6,457.2z"/></g><g><g><g><linearGradient id="SVGID_26_" x1="277.421" x2="526.226" y1="436.86" y2="436.86" gradientUnits="userSpaceOnUse"><stop offset="0" stop-color="#a026a1"/><stop offset="1" stop-color="#ef4ebf"/></linearGradient><path fill="url(#SVGID_26_)" d="M526.2,398.6c0,26.2-8.1,50.5-22,70.5c0,0-0.1,0.1-0.3,0.3v0c-1.3,1.6-6.4,8-9.8,12
						c-0.6,0.7-1.1,1.4-1.5,1.9c-2.5,3-4.9,6-7,9c-11.9,16-19.4,31.5-24.5,47c-1,2.9-1.9,5.8-2.7,8.7c-4.8,16.8-7.6,33.8-11.1,51.6
						h-91.1c-0.7-3.3-1.3-6.6-1.9-9.9c-2.7-14.2-5.2-28-9.1-41.7c-0.8-2.9-1.7-5.8-2.7-8.7c-5.2-15.4-12.6-30.9-24.5-46.9
						c-2.2-3-4.5-6-7.1-9c-0.4-0.5-1-1.2-1.6-1.9c-3.3-4-8.5-10.4-9.8-12v0c-0.2-0.2-0.3-0.3-0.3-0.3c-13.8-20-22-44.3-22-70.5
						c0-3.1,0.1-6.1,0.3-9.1c0.5-7.1,1.6-14.1,3.3-20.8c0.8-3.2,1.7-6.4,2.8-9.6c7.6-22.7,21.5-42.4,39.7-57.1
						c21.4-17.4,48.6-27.8,78.3-27.8c31.3,0,59.9,11.6,81.8,30.7v0c16.5,14.4,29.1,33.1,36.2,54.3c1,3.1,2,6.2,2.7,9.4
						c1.7,6.8,2.8,13.8,3.3,20.9C526.1,392.5,526.2,395.5,526.2,398.6z"/></g><g><linearGradient id="SVGID_27_" x1="362.611" x2="441.032" y1="667.984" y2="667.984" gradientUnits="userSpaceOnUse"><stop offset="0" stop-color="#a026a1"/><stop offset="1" stop-color="#ef4ebf"/></linearGradient><polygon fill="url(#SVGID_27_)" points="441 660.8 418.7 675.2 384.9 675.2 374.4 668.4 362.6 660.8"/></g><g><g><path fill="#fff" d="M420.7,606.2L412,605l23.3-168.7h-19c-2.1,0-3.9-1.4-4.3-3.5l-3.1-14.1l-5.2,42.7
							c-0.2,2-1.8,3.5-3.8,3.8c-2,0.1-3.9-0.8-4.7-2.7l-10.9-26.2h-16L391.7,605l-8.7,1.1l-24-173.7c-0.2-1.2,0.2-2.5,1.1-3.5
							c0.8-0.9,2-1.5,3.3-1.5h24c1.8,0,3.4,1.1,4,2.7l5.6,13.6l6.4-52c0.3-2.1,2-3.8,4.2-3.9c2.3,0.3,4,1.4,4.5,3.5l7.8,36.1h20.4
							c1.3,0,2.5,0.6,3.3,1.5c0.8,0.9,1.2,2.2,1.1,3.5L420.7,606.2z"/></g></g><g><linearGradient id="SVGID_28_" x1="356.276" x2="447.397" y1="605.61" y2="605.61" gradientUnits="userSpaceOnUse"><stop offset="0" stop-color="#ff5b91"/><stop offset="1" stop-color="#ffbb6b"/></linearGradient><polygon fill="url(#SVGID_28_)" points="447.4 599.6 441 611.6 362.6 611.6 356.3 599.6"/></g><g><linearGradient id="SVGID_29_" x1="362.611" x2="441.032" y1="636.214" y2="636.214" gradientUnits="userSpaceOnUse"><stop offset="0" stop-color="#ff5b91"/><stop offset="1" stop-color="#ffbb6b"/></linearGradient><rect width="78.4" height="49.1" x="362.6" y="611.6" fill="url(#SVGID_29_)"/></g><g><g><linearGradient id="SVGID_30_" x1="358.577" x2="447.372" y1="622.696" y2="622.696" gradientUnits="userSpaceOnUse"><stop offset="0" stop-color="#a026a1"/><stop offset="1" stop-color="#ef4ebf"/></linearGradient><path fill="url(#SVGID_30_)" d="M447.4,620.7c-0.1,1.2-1.2,2.1-2.6,2.3c-1.2,0.2-2.5,0.3-3.7,0.5c-12.5,1.7-25.1,2.6-37.7,3.2
							c-7.5,0.3-14.9,0.6-22.4,0.8c-6.1,0.1-12.2,0.1-18.3-0.1c-0.3,0-0.7,0-1,0c-1.8-0.1-3.1-1.2-3.1-2.6c0-1.2,1.2-2.1,2.6-2.4
							c0.5-0.1,0.9-0.1,1.4-0.2c5.5-0.7,10.9-1.3,16.4-1.8c7.9-0.7,15.7-1.3,23.6-1.7c12.8-0.7,25.5-1.1,38.4-0.8
							c1.1,0,2.2,0.1,3.3,0.1C446.1,618.2,447.5,619.3,447.4,620.7z"/></g><g><linearGradient id="SVGID_31_" x1="357.409" x2="446.236" y1="636.169" y2="636.169" gradientUnits="userSpaceOnUse"><stop offset="0" stop-color="#a026a1"/><stop offset="1" stop-color="#ef4ebf"/></linearGradient><path fill="url(#SVGID_31_)" d="M446.2,634.1c-0.1,1.2-1.2,2.1-2.6,2.3c-0.8,0.1-1.7,0.3-2.6,0.3c-12.9,1.8-25.8,2.7-38.8,3.4
							c-6.7,0.3-13.4,0.6-20.1,0.7c-6.5,0.2-13,0.2-19.5,0c-0.7,0-1.4,0-2.1-0.1c-1.8-0.1-3.2-1.2-3.1-2.6c0.1-1.2,1.2-2.1,2.6-2.3
							c0.8-0.1,1.7-0.2,2.6-0.3c6.4-0.9,12.8-1.5,19.2-2c6.5-0.6,13.1-1,19.6-1.4c13.1-0.7,26.4-1.1,39.6-0.7c0.7,0,1.4,0,2.1,0.1
							C445,631.6,446.3,632.8,446.2,634.1z"/></g><g><linearGradient id="SVGID_32_" x1="356.274" x2="445.066" y1="649.652" y2="649.652" gradientUnits="userSpaceOnUse"><stop offset="0" stop-color="#a026a1"/><stop offset="1" stop-color="#ef4ebf"/></linearGradient><path fill="url(#SVGID_32_)" d="M445.1,647.6c-0.1,1.2-1.2,2.1-2.6,2.3c-0.5,0.1-1,0.1-1.5,0.2c-13.3,1.9-26.6,2.8-40,3.5
							c-6.9,0.3-13.9,0.6-20.8,0.7c-5.8,0.1-11.7,0.1-17.6,0c-1.1,0-2.2,0-3.2-0.1c-1.8-0.1-3.2-1.2-3.1-2.6c0-1.2,1.2-2.1,2.6-2.4
							c1.2-0.2,2.5-0.3,3.7-0.5c6.3-0.8,12.7-1.4,19-2c6.2-0.5,12.5-0.9,18.7-1.3c13.5-0.7,27.1-1.1,40.7-0.7c0.3,0,0.7,0,1,0
							C443.8,645.1,445.1,646.3,445.1,647.6z"/></g></g></g><g><path fill="#cfdce5" d="M503.9,469.3c7.9,9.9,15.4,20,22.3,30.7c6.8,10.7,13.2,21.7,18,33.7c2.4,6,4.3,12.2,5.1,18.9
					c0.4,3.3,0.4,6.8-0.4,10.4c-0.4,1.8-1,3.5-2,5.2c-0.5,0.8-1,1.6-1.6,2.4c-0.3,0.4-0.5,0.6-1.1,1.2l-0.9,0.8
					c-3.2,2.7-6.8,4-10.3,4.5c-3.6,0.5-7,0.4-10.4,0c-6.7-0.9-13-2.8-19.1-5.1c-12.2-4.6-23.5-10.6-34.5-17.2
					c-11-6.6-21.5-13.8-31.8-21.3c-20.5-15.1-39.8-31.7-58.4-49c-36.7-35-70.9-73.1-98.2-116.2c-6.7-10.8-13.1-22-18.1-33.8
					c-2.5-5.9-4.8-12-6.4-18.3c-1.5-6.3-2.6-13-1.1-19.9c0.8-3.4,2.5-6.8,5.3-9.3c2.7-2.4,6.2-3.7,9.6-4.1
					c6.8-0.9,13.2,0.6,19.3,2.5c12.2,3.9,23.4,10,34.1,16.6c-5.6-2.9-11.3-5.6-17.1-8c-5.8-2.4-11.7-4.6-17.7-6.1
					c-6-1.5-12.3-2.4-18-1.3c-2.9,0.5-5.5,1.7-7.4,3.6c-1.8,1.8-3,4.4-3.5,7.1c-1,5.6,0.2,11.7,1.9,17.5c1.7,5.8,4.1,11.6,6.8,17.1
					c5.4,11.2,11.8,21.9,18.7,32.3c14,20.7,29.5,40.4,46.2,59.2c16.5,18.8,34,36.9,52.3,54c18.2,17.3,37.2,33.6,57.2,48.7
					c10,7.6,20.2,14.8,30.7,21.4c10.6,6.6,21.4,12.7,32.8,17.4c5.7,2.3,11.5,4.2,17.3,5.2c2.9,0.4,5.8,0.6,8.5,0.3
					c2.7-0.3,5.3-1.2,7-2.5c4.1-3.1,5-8.9,4.6-14.8c-0.4-5.9-2-11.9-4-17.7c-4-11.7-9.6-23-15.8-34
					C517.7,490.4,511,479.8,503.9,469.3z"/></g><g><path fill="#cfdce5" d="M525.9,389.5c12.6,2.1,25.2,4.8,37.5,8.8c6.1,2,12.2,4.3,18.1,7.2c5.8,2.9,11.6,6.3,16.3,11.5
					c2.3,2.6,4.3,5.8,4.9,9.6c0.7,3.9-0.1,7.7-1.6,11c-3.1,6.5-8.1,11.3-13.3,15.5c-10.4,8.3-22.2,14.2-34.1,19.4
					c-23.9,10.2-49.2,16.7-74.6,21.2c-25.5,4.4-51.3,6.5-77.2,6.6c-25.8-0.1-51.7-2.2-77.2-6.6c-25.4-4.6-50.7-11-74.6-21.2
					c-11.9-5.2-23.7-11.1-34.1-19.4c-5.1-4.2-10.1-9-13.3-15.5c-1.5-3.2-2.4-7.2-1.6-11c0.7-3.8,2.7-7,4.9-9.6
					c4.7-5.2,10.5-8.6,16.3-11.5c5.9-2.9,11.9-5.2,18.1-7.2c12.3-4,24.8-6.7,37.5-8.8c-6.2,1.5-12.4,3.2-18.5,5.1
					c-6.1,1.8-12.2,3.8-18.1,6.1c-5.9,2.3-11.7,4.9-17.2,8c-5.4,3.1-10.7,6.7-14.3,11.3c-1.8,2.3-3.1,4.8-3.5,7.4
					c-0.4,2.5,0.3,5.2,1.5,7.7c2.6,5,7.2,9.2,12.1,12.9c9.9,7.3,21.4,12.8,33.1,17.4c23.5,9.1,48.2,15.2,73.2,19.2
					c25,4,50.3,6,75.7,6c25.3,0.1,50.7-1.9,75.7-5.9c25-4,49.7-10.1,73.2-19.2c11.7-4.6,23.1-10.1,33.1-17.4
					c4.9-3.7,9.5-7.9,12.1-12.9c1.3-2.5,1.9-5.2,1.6-7.7c-0.3-2.6-1.7-5.1-3.5-7.4c-3.7-4.6-8.9-8.2-14.3-11.3
					c-5.5-3.1-11.3-5.7-17.2-8C550.6,396.1,538.3,392.6,525.9,389.5z"/></g><g><path fill="#cfdce5" d="M483.6,304.8c10.8-6.5,21.6-12.9,33.4-17.6c3-1.2,6-2.2,9.2-2.9c3.2-0.7,6.5-1.1,10-0.5
					c3.5,0.5,7,2.6,9,5.5c2.2,3,3.2,6.4,3.6,9.8c0.7,6.8-0.6,13.3-2.3,19.6c-1.8,6.2-4.1,12.2-6.7,18.1
					c-5.2,11.7-11.6,22.7-18.3,33.4c-27.4,42.7-61.4,80.5-98,115.3c-18.5,17.2-37.8,33.7-58.2,48.7c-10.3,7.4-20.8,14.6-31.7,21.1
					c-10.9,6.5-22.2,12.5-34.4,17c-6.1,2.2-12.4,4.1-19,4.9c-3.3,0.4-6.8,0.5-10.4-0.1c-3.5-0.6-7.2-2-10.1-4.8
					c-2.9-2.6-4.6-6.3-5.2-9.8c-0.7-3.5-0.6-7-0.2-10.3c0.8-6.6,2.8-12.8,5.2-18.8c4.9-11.9,11.2-22.8,18-33.5
					c6.8-10.6,14.3-20.8,22.2-30.6c-13.8,20.9-27.5,42.3-35.7,65.7c-2,5.8-3.6,11.8-4.1,17.6c-0.5,5.8,0.5,11.8,4.2,14.9
					c3.6,3.2,9.6,3.5,15.3,2.7c5.8-0.8,11.6-2.7,17.2-5c22.6-9.5,43.4-23.5,63.3-38.4c19.9-15,38.9-31.2,57-48.3
					c18.2-17,35.7-35,52.2-53.6c16.6-18.6,32.2-38.2,46.2-58.7c7-10.3,13.4-20.9,18.9-32c2.7-5.5,5.2-11.2,7.1-17
					c1.8-5.8,3.2-11.8,2.9-17.5c-0.2-2.8-0.9-5.6-2.3-7.8c-1.5-2.3-3.6-3.8-6.4-4.4c-5.5-1.2-11.8,0.4-17.6,2.3
					c-5.9,1.9-11.6,4.4-17.3,7C494.8,299.2,489.2,302,483.6,304.8z"/></g></g></g><g><path fill="#ffa992" d="M725.7,288.1c-0.6,0.9-1.4,1.5-2.2,1.9c0,0,0,0,0,0c-1,0.5-2,0.7-3,0.8c-1.9,0.2-3.6-0.1-3.6-0.1
			s0,0.2-0.1,0.5v0c-0.5,2.1-2.8,11.1-4.5,15.6c-0.5,1.2-0.9,2.1-1.2,2.5c-1.9,2.2-4.8,2.7-6.3,0.7c-0.4-0.5-0.6-1.3-0.9-2.3
			c-0.6-2.4-0.9-5.7-1-7c0-0.4,0-0.6,0-0.6h-0.2c-9.2,0.4-13.5-5.5-14.4-11.1c-0.1-0.9-0.2-1.8-0.1-2.6c0.1-1.6,0.3-3.8,0.6-6.3
			c1-7.4,3.2-17.4,5.9-22.2c0,0,0.3,0.7,1,1.7c0,0,0,0,0,0c1.3,2.6,8.7,9.3,23,4c0,0,3.8,9.9,1.7,17.4c0,0,0,0,0,0
			c0,0.2-0.1,0.4-0.2,0.6l4.8-2.3C726.5,279.5,728.2,284.4,725.7,288.1z"/><path fill="#f99c87" d="M583.8,378.3c-7.5,1.2-14.4-1.1-17.3-3.6c-0.4-0.4-0.8-0.8-1-1.1c-0.1-0.2-0.3-0.4-0.4-0.6
			c-0.8-1.6-0.5-2.5-0.2-3c0.1-0.3,0.3-0.4,0.3-0.4c-0.1-0.1-0.1-0.2-0.2-0.4c-0.9-1.9-0.4-3.3,0-4c0.2-0.3,0.4-0.5,0.4-0.5
			c0,0,0,0,0,0c0,0,0,0,0,0c-0.5-1.8-0.1-2.9,0.3-3.5c0.3-0.5,0.7-0.6,0.7-0.6s-9.9-2.8-8.9-4.7c1.1-1.9,7.7-0.3,12.6,1.1
			c5,1.4,13.3,4.8,15.6,6.2C583.5,365,582.6,375.5,583.8,378.3z"/><path fill="#f30041" d="M626.7,647.5c-5,4-20.5,15.4-20.5,15.4h36.7l4.2-15.4C631.4,651.9,626.7,647.5,626.7,647.5z"/><path fill="#f30041" d="M754.4,647.3c-13.7,7.7-19.3,2.2-19.3,2.2l1.4,13.5h36.2L754.4,647.3z"/><path fill="#1e1a1e" d="M756.2,570.2c-1.8-28.4-5.4-37.9-5.4-37.9l-3.8-87.8c0,0-0.1,0.1-0.1,0.1l-1.6-21.6c-2,1.9-16.5,6.6-38.3,6.7
			c-18.7,0.1-30.6-4.6-34.1-6.6h0c-0.3,1.9-46.2,224.4-46.2,224.4s4.6,4.4,20.3,0c0,0,21.4-54.8,25.9-66.9
			c4.5-12.1,4.5-28.6,3.3-31.7l31.8-85.3c0,0,19.7,142.2,21.7,154.9c2,12.7,5.2,31,5.2,31s5.6,5.5,19.3-2.2
			C754.4,647.3,758,598.6,756.2,570.2z"/><path fill="#2d97f7" d="M784.4,392.4c-0.5-3.2-15.6-47.1-17-51.8c-1.5-4.7-8.6-21.3-14-24.3c-3.7-2-21.4-5.6-32.4-7.7
			c-5.1-1-8.8-1.6-8.8-1.6c-0.5,1.2-0.9,2.1-1.2,2.5c-0.8,1-1.9,1.6-2.9,1.8c0,0,0,0,0,0c-1.3,0.3-2.5,0-3.4-1.2
			c-0.4-0.5-0.6-1.3-0.9-2.3c-2,0.2-4.2,0.5-6.5,0.8c-8.4,1.1-17.9,2.5-21.3,3.8c-6.7,2.5-17.6,21.6-22.4,29.9
			c-4.8,8.3-16,28.7-17.2,29.1c-1.2,0.4-33.4-6.4-39.3-7.4c-5.9-0.9-9.5-2.4-11.3-0.9c-2.2,1.8-3.1,12.3-1.9,15.2
			c0,0,14.1,9.8,25.9,15.5c11.8,5.6,26.5,9,31.7,7.8c5.2-1.2,34.1-29.8,34.1-29.8s-4.4,49.7-3.6,50.6c0.1,0.1,0.5,0.4,1,0.7
			c3.5,1.9,15.4,6.7,34.1,6.6c21.7-0.1,36.2-4.8,38.3-6.7l1.6,21.6c0,0,0,0,0-0.1c0.2-0.2,1.2-1.3,2.8-3.1
			c7.1-7.9,25.7-28.7,29.9-34.2C784.9,400.4,784.9,395.7,784.4,392.4z M755.1,392.3c-0.2,1.1-2.9,6.9-5.4,11.9
			c-2,4.1-3.8,7.7-3.8,7.7v-46.6C748.3,369.9,755.5,390.3,755.1,392.3z"/><path fill="#122a36" d="M724.9,279.4c-1.6-0.1-4.8,2.3-4.8,2.3L724.9,279.4z"/><g><path fill="#db553c" d="M714,294.9c-2.8,3-7.8,5.4-11.1,6c0-0.4,0-0.6,0-0.6h-0.2c3.2-0.5,8.3-2.9,11-5.8c0.1-0.1,0.3-0.1,0.5,0
				C714.1,294.5,714.1,294.7,714,294.9z"/></g><g><path fill="#2d97f7" d="M675.5,372.1C675.5,372.1,675.5,372.1,675.5,372.1c-0.2,0-0.3-0.2-0.3-0.4c0-0.3,4.6-30.3,5.2-36.9
				c0-0.2,0.2-0.3,0.4-0.3c0.2,0,0.3,0.2,0.3,0.4c-0.7,6.6-5.2,36.6-5.2,36.9C675.8,372,675.7,372.1,675.5,372.1z"/></g><g><path fill="#1e1a1e" d="M708.5,466.8c-0.2,0-0.3-0.1-0.3-0.3l-1.4-16.2l-3-0.9c-0.2,0-0.3-0.2-0.2-0.4c0.1-0.2,0.2-0.3,0.4-0.2
				l3.2,0.9c0.1,0,0.2,0.1,0.2,0.3l1.4,16.4C708.8,466.6,708.7,466.7,708.5,466.8C708.5,466.7,708.5,466.8,708.5,466.8z"/></g><g><path fill="#122a36" d="M652,548.2c-0.2,0-0.3-0.1-0.3-0.3c0-0.2,0.1-0.3,0.3-0.4c1.1-0.1,4.8-1.1,6.8-2.8
				c0.1-0.1,0.3-0.1,0.5,0.1c0.1,0.1,0.1,0.3-0.1,0.5C657.1,547.1,653.2,548.1,652,548.2C652.1,548.2,652,548.2,652,548.2z"/></g><g><path fill="#122a36" d="M736.7,543.7c-2.6,0-4.7-1.2-5.2-1.8c-0.1-0.1-0.1-0.3,0-0.5c0.1-0.1,0.3-0.1,0.5,0c0.7,0.8,5.1,3,9.6-0.1
				c0.1-0.1,0.3-0.1,0.4,0.1c0.1,0.1,0.1,0.3-0.1,0.4C740.2,543.3,738.3,543.7,736.7,543.7z"/></g><path fill="#2d97f7" d="M708,311.3l-14.5,15.5l3.8-18.1c2.3-0.3,4.5-0.6,6.5-0.8c0.2,1,0.5,1.8,0.9,2.3
			C705.5,311.3,706.7,311.6,708,311.3z"/><path fill="#2d97f7" d="M722.5,326.8L708,311.3c1-0.2,2.1-0.9,2.9-1.8c0.4-0.4,0.8-1.3,1.2-2.5c0,0,3.6,0.7,8.8,1.6L722.5,326.8z"/><polygon fill="#f30041" points="702.4 317.3 707.5 327.9 714.1 317.8 708 311.3"/><path fill="#2d97f7" d="M698.2,321.8c0,0,5.8,16.1,8.3,19.2c0,0,9.4-13.7,11.7-18.8l-4.1-4.4l-6.6,10.1l-5.1-10.6L698.2,321.8z"/><path fill="#0a0651" d="M749.8,404.2v37.2c-1.6,1.7-2.6,2.9-2.8,3.1c0,0,0,0.1,0,0.1l-1.6-21.6c0,0,0.6-13.3,0.7-13.9v2.9
			C746,411.9,747.8,408.3,749.8,404.2z"/><polygon fill="#2d97f7" points="693.5 326.8 708.2 313.8 722.5 326.8 708 311.3"/><g><path fill="#2d97f7" d="M746,365.7c-0.2,0-0.3-0.1-0.3-0.3c-0.1-0.7-3.2-16.3-3.5-18.8c-0.3-2.5,0.4-8.3,1.8-10.7
				c0.1-0.2,0.3-0.2,0.4-0.1c0.2,0.1,0.2,0.3,0.1,0.4c-1.3,2.2-2,7.8-1.7,10.3c0.3,2.5,3.5,18.6,3.5,18.8
				C746.4,365.4,746.3,365.6,746,365.7C746.1,365.7,746,365.7,746,365.7z"/></g><path fill="#db553c" d="M578.6,366.2c0,0.2-0.2,0.3-0.3,0.3c0,0,0,0,0,0c0,0-0.5,0-1.4-0.1c0.2,0.4,0.2,0.9,0,1.4
			c-0.3,0.8-1.1,1.6-2.3,1.6c-0.1,0-0.2,0-0.3,0c0.6,0.8,0.7,1.5,0.6,2.1c-0.2,0.7-0.8,1.1-1.6,1.2h-0.1c0.2,0.3,0.4,0.7,0.4,1.1
			c0,0.9-0.6,1.9-2.5,2c-0.2,0-0.5,0-0.7,0c-1.6,0-2.8-0.4-3.8-1c-0.4-0.4-0.8-0.8-1-1.1c-0.1-0.2-0.3-0.4-0.4-0.6
			c1.4,1.2,2.9,2.2,5.8,2c1.2-0.1,2-0.6,1.9-1.4c0-0.6-0.5-1.2-1.2-1.2c0,0,0,0,0,0c0,0,0,0,0,0c-1.9-0.3-4.7-1.1-6.7-2.5l0.1-0.7
			c1.8,1.4,4.7,2.3,6.6,2.6h0c0.6,0.1,1.1,0.1,1.5,0.1c0.5,0,0.9-0.3,1-0.7c0.1-0.5-0.1-1.4-1.2-2.1c0,0,0,0,0,0
			c-2.4-0.7-6.3-2.6-8-3.8c0.2-0.3,0.4-0.5,0.4-0.5c0,0,0,0,0,0c1.9,1.4,7.5,4,9.1,4c0.9,0,1.5-0.6,1.7-1.2c0.2-0.5,0.1-1-0.3-1.3
			c-0.8-0.1-1.7-0.2-2.7-0.4c-2.5-0.5-4.6-1-5.2-2c-0.1-0.2-0.2-0.5-0.1-0.8c0.1-0.5,0.7-0.9,1.4-1.1c-1-0.3-2.6-0.7-3.7-0.6
			c0.3-0.5,0.7-0.6,0.7-0.6c1.8,0.1,3.9,0.9,4.3,1c1.6-0.2,3.5-0.2,4.7,0c0.2,0,0.3,0.2,0.3,0.3c0,0.2-0.2,0.3-0.4,0.3
			c-3.4-0.3-6.5,0.1-6.7,1c0,0.1,0,0.2,0,0.3c0.5,0.8,3.1,1.3,4.8,1.7c2.6,0.5,4.8,0.6,4.8,0.6C578.4,365.8,578.6,366,578.6,366.2z"/></g><g><path fill="#ffa992" d="M147.3,281.6c0,1.5-0.1,3-0.2,4.4c-0.2,2.1-0.7,3.9-1.2,5.5c-1.7,5-4.5,7.4-5.4,8l0,0
			c-0.1,0.1-0.2,0.2-0.2,0.2s0,0.2,0,0.5v0.1c0,1.4,0.1,4.5,0.1,6.4c0,0.6,0,1.1-0.1,1.4c-0.3,1.6-2.4,4.7-5.6,4.7
			c-3.2,0-5.4-2.2-6.4-4.3c-0.3-0.6-0.6-1.5-0.9-2.5c-0.4-1.4-0.9-3-1.2-4.3c-0.1-0.6-0.3-1.1-0.4-1.5c-0.1-0.4-0.2-0.7-0.2-0.8
			c0,0,0-0.1,0-0.1c-3.2-2.1-7.7-10.3-7.7-10.3c0,0,0,0,0,0c-5.9-0.3-9.6-9.1-8.6-11.4c0.6-1.3,1.5-1.4,2.5-0.8
			c0.8,0.5,1.7,1.3,2.7,2.3c0,0,0-0.2,0.1-0.6c0.1-1.3,0.5-4.2,1.1-6.4c0.8-2.8,3.4-6.6,3.4-6.6s6.4,1,12.6-0.8
			c6.2-1.7,11-6.3,11-6.3c1,2,1.9,4.8,2.7,7.9C146.6,270.9,147.4,276.3,147.3,281.6z"/><polygon fill="#f30041" points="259.5 295.7 269.2 268.8 271.2 268.8 263 294.5"/><path fill="#f13508" d="M101.1,649.2c-5.1,3.1-20.5,13.6-20.5,13.6H118l1.6-17.9l0,0l-0.2,1.7L101.1,649.2z"/><path fill="#f13508" d="M227.4,643.6c0.1,0.5,0.2,0.8,0.2,0.8c-7.3,2.1-18.9,0.9-18.9,0.9l0.4,15.7h41.6L227.4,643.6z"/><path fill="#1e1a1e" d="M227.4,643.6c-1.9-9.4-20.3-98.1-24.4-111.8c-3.6-12.2-22-75.9-27.8-96l0,0.1c-7.7,5.9-27.1,9.8-27.1,9.8
			l-6.6-35l-11.4,39.7c0,0-12.1-1.7-17.2-4.6c-2.7-1.5-5.3-4-7.1-6l-6.7,5.5c-2.4,13-0.5,115.5,0,129.2c0.5,13.7,2,74.6,2,74.6
			l18.3-2.6l0.2-1.7L140.7,462l35.4,100.2c0,0,6.7,30.9,15.6,51c8.9,20.1,16.9,32.2,16.9,32.2s11.7,1.2,18.9-0.9
			C227.5,644.5,227.5,644.2,227.4,643.6z"/><path fill="#db1ddb" d="M255,317.2c-3.3-3-5.6-7.8-5.6-7.8c0-0.2,0-0.5,0-1l0,0c0,0-37.2,37.6-38.7,37.8
			c-1.5,0.3-33.4-34.8-37.3-36.5c-1.9-0.8-9.3-3.1-16.6-5.2c-0.2-0.1-0.4-0.1-0.6-0.2c-7.7-2.3-14.9-4.3-14.9-4.3l-1.1,0.1
			c0.1,1.6,0.2,6.6,0,7.9c-0.3,1.6-2.4,4.7-5.6,4.7c-3.2,0-5.4-2.2-6.4-4.3c-0.7-1.3-1.5-4.6-2.1-6.8c-2.3,1-13,5.3-21.9,9.3
			c-0.2,0.1-0.4,0.2-0.6,0.3c-4.7,2.1-8.8,4.1-10.8,5.5c-5.8,4-6.7,5.2-13.2,21.1c-4.9,12.2-9,29-11.5,39.3
			c-0.8,3.2-1.4,5.7-1.8,7.4c-1.4,5.5-1.1,12,0.4,18.8c0.5,2.1,1,4.2,1.7,6.3c2.9,9.1,16.5,34.5,23.4,40.7c0,0,7.5-6,9.3-8.9
			c1.7-2.8,2-5,2-5s1,1.4,2.7,3.2c1.8,2,4.4,4.5,7.1,6c5.1,2.8,17.2,4.6,17.2,4.6l10.9-38.1l0.5-1.7l0.2,0.9l6.4,34.1
			c0,0,19.5-3.9,27.1-9.8v-0.1l1.2-85c0,0,21.5,21.7,26.2,25.3c4.7,3.6,8.3,5.9,11.3,5.8c2.9-0.1,19.2-15.2,29-28.3
			c9.8-13.2,18-32.4,18-32.4S258.3,320.3,255,317.2z M102.5,411.4c0,0.2,0,0.4,0,0.6c-0.6,7.7-1.7,15.3-1.7,15.3s-0.1-0.3-0.3-1
			l-0.1-0.3c-1.7-5.7-8.5-28.6-8.2-31.1c0.3-2.8,4.4-15.3,6.2-19.7c0,0,0.1,0.3,0.2,0.7c0.5,2.4,2.4,10.7,3.5,18.1
			c0,0.3,0.1,0.5,0.1,0.8c0.4,2.6,0.6,5.1,0.7,7.2C102.9,404.8,102.8,408.1,102.5,411.4z"/><path fill="#ffa992" d="M271.8,305.5c-0.5-0.4-0.9-0.4-1.3-0.3c-0.6,0.2-1.1,0.7-1.4,1c0.2-0.3,0.5-0.8,0.9-1.4c0.5-1,0.9-2.1,0.3-3
			c-0.7-1.1-1.9-0.7-2.6-0.3c-0.2,0.1-0.4,0.3-0.5,0.3c0-0.1,0.3-0.5,0.5-1c0.5-1.2,1-2.9,0-3.4c-1.1-0.7-2.8,0.3-3.5,0.8
			c-0.2,0.1-0.3,0.2-0.4,0.3c0-0.1,0.2-0.6,0.3-1.2c0.2-0.8,0.2-1.7-0.4-2.4c-0.8-0.9-2.8,0-3.7,0.5c-0.3,0.1-0.5,0.3-0.6,0.3
			c0.2-0.3,0.5-0.6,0.7-1.1c0.9-1.7,1.5-4.1,1.1-4.2c-0.4-0.1-9.3,4.6-10.5,6.2c-1,1.4-1.3,8.8-1.4,11.7c0,0.4,0,0.7,0,1
			c0,0,2.3,4.8,5.6,7.8c3.3,3,5.8,3.9,5.8,3.9s4.8-4.5,7.8-7.8C271.7,309.9,273.2,306.7,271.8,305.5z"/><path fill="#ffa992" d="M103.1,436.6c2.7,1.3,9.7,6.2,9.5,8.2c-0.2,1.9-5.2,0.3-5.8,0c-0.6-0.3,1.6,8.3,2.1,12.5
			c0.5,4.2-0.2,3.8-1,3.8s-3.5-8.2-3.5-8.2s1.5,7.9,1.9,9.6c0.4,1.7-0.6,2.6-1.4,2.5c-0.8-0.1-3.9-8.3-3.9-8.3s2.1,7.6,1.2,8.3
			c-0.9,0.7-2.6-1.9-3.9-6.3c0,0,2,5.9,0.7,6.4c-1.3,0.5-6.2-10.6-7.1-14.7L103.1,436.6z"/><g><path fill="#db1ddb" d="M98.2,376c-0.2,0-0.3-0.1-0.3-0.3c-0.4-6.6-5.8-38.2-11.1-47.1c-0.1-0.2,0-0.4,0.1-0.4
				c0.2-0.1,0.3,0,0.4,0.1c5.3,8.9,10.8,40.7,11.2,47.4C98.5,375.9,98.4,376,98.2,376C98.2,376,98.2,376,98.2,376z"/></g><g><path fill="#db1ddb" d="M129.3,398.6l-4.2,13.9c0,0.1-0.1,0.2-0.2,0.2c-0.1,0-4.9,1-10.8,1c-3.7,0-7.9-0.4-11.6-1.7
				c0-0.2,0-0.4,0-0.6c0,0,0,0,0.1,0c8.7,3,20.3,1,21.9,0.7l4-13.2c-1.3,0.2-5.1,0.5-12-0.1c-7.4-0.6-13-2.9-14.5-4
				c0-0.3-0.1-0.5-0.1-0.8c0.2,0,0.3,0.1,0.4,0.2c0.5,0.6,6.1,3.3,14.3,3.9c8.5,0.7,12.3,0,12.3,0c0.1,0,0.2,0,0.3,0.1
				C129.3,398.4,129.3,398.6,129.3,398.6z"/></g><g><path fill="#db1ddb" d="M157.9,412.1c-1,0-1.9,0-2.6-0.1c-0.1,0-0.2,0-0.2,0c-0.3,0-0.8,0-3.2-12.7c0-0.1,0-0.2,0.1-0.2
				c0.1-0.1,0.1-0.1,0.2-0.1c0.1,0,12.9-2,17.9-6c0.1-0.1,0.2-0.1,0.3-0.1c0.1,0,0.2,0.1,0.2,0.2l3.3,14.7c0,0.1,0,0.3-0.1,0.3
				C169.2,411.4,162.3,412.1,157.9,412.1z M155.2,411.3c0,0,0.1,0,0.1,0c3.6,0.2,12.4,0.2,17.8-3.7l-3.2-14
				c-4.9,3.5-15.4,5.4-17.4,5.8C153.4,403.8,154.8,410.4,155.2,411.3z"/></g><g><path fill="#db1ddb" d="M159.3,332.9L142.1,407c0,0.1-0.1,0.2-0.3,0.2c0,0,0,0,0,0c-0.1,0-0.2-0.1-0.3-0.2l-31.9-67
				c0-0.1,0-0.2,0-0.3l8.4-10.7l-14.5-17.8c0.2-0.1,0.4-0.2,0.6-0.3l14.5,17.9c0.1,0.1,0.1,0.3,0,0.4l-8.4,10.7l31.4,65.9l17-73
				l-10.5-7.7c-0.1-0.1-0.2-0.2-0.1-0.4l8.2-20.5c0.2,0,0.4,0.1,0.6,0.2l-8.1,20.3l10.5,7.7C159.3,332.6,159.3,332.8,159.3,332.9z"/></g><g><path fill="#5383f9" d="M141.7,396.9l0,14.8l-0.2-0.9l-0.5,1.7l0.1-15.5c0-0.3,0.1-0.5,0.3-0.5
				C141.6,396.3,141.7,396.6,141.7,396.9z"/></g><path fill="#db553c" d="M270.5,305.2c-1.1,1.3-2.8,3.4-3.3,4.2c-0.8,1.3-2.8,3.9-4.4,3.9c-0.2,0-0.4,0-0.6-0.1
			c-1-0.5-1.2-1.4-1.2-2.1c-0.2,0.1-0.5,0.2-0.7,0.2c-0.1,0-0.3,0-0.4,0c-0.7-0.2-1.1-0.6-1.3-1c-0.2-0.3-0.2-0.7-0.1-1.1
			c-0.2,0.1-0.4,0.1-0.6,0.1c-0.2,0-0.4,0-0.6-0.1c-1-0.3-1.6-1-1.6-2.1c-0.1-2.3,1.5-8.7,4.2-12.1c0.1-0.1,0.3-0.2,0.4-0.1
			c0,0,0,0,0,0c0.1,0.1,0.2,0.3,0,0.5c-0.1,0.1-0.1,0.2-0.2,0.3c-2.6,3.4-4,9.6-3.9,11.4c0,1.1,0.8,1.4,1.1,1.5
			c0.5,0.2,1.1,0,1.3-0.3c0.4-0.7,3.6-7.3,5.1-10.6c0.1-0.1,0.2-0.2,0.4-0.2c0,0,0,0,0.1,0c0.1,0.1,0.2,0.3,0.1,0.4
			c0,0-0.1,0.2-0.2,0.5c-0.9,1.9-4.4,9.3-4.9,10.2c-0.2,0.6-0.3,1.1-0.1,1.4c0.1,0.3,0.5,0.5,1,0.7c1,0.3,2.6-2,3.7-3.5l0.1-0.1
			c1.2-1.7,3.4-5.9,3.4-5.9c0.1-0.1,0.2-0.2,0.4-0.1c-0.2,0.5-0.4,1-0.5,1c0.1,0,0.2-0.2,0.5-0.3c-0.5,1-2.3,4.2-3.3,5.7l-0.1,0.1
			c-0.8,1.2-1.7,2.5-2.6,3.2c-0.1,0.3-0.3,1.5,0.8,2c0.9,0.5,2.8-1.4,4.2-3.5c0.5-0.8,2.2-2.9,3.3-4.2c-0.3,0.6-0.7,1.1-0.9,1.4
			C269.4,305.9,269.9,305.4,270.5,305.2z"/><g><path fill="#db553c" d="M140.3,299.7c0,0,0,0.2,0,0.5v0.1c-2.2,1-4.7,1.4-7,1.4c-3,0-5.7-0.6-7.5-1.5c-0.1-0.4-0.2-0.7-0.2-0.8
				c2.9,1.5,9.8,2.6,15,0C140.4,299.6,140.3,299.7,140.3,299.7z"/></g><path fill="#122a36" d="M102.2,428.5l0.9,8.2l-2.6-10.2c0.2,0.6,0.3,1,0.3,1s2.3-16.1,2-25.2c-0.3-8-3.5-22.7-4.3-26.1v-0.3
			l-0.7-2.7c2.4,4.5,5.6,20.6,6.3,25.6C104.8,403.5,102.2,428.5,102.2,428.5z"/><path fill="#ffa700" d="M134.6,312.8c-3.2,0-5.4-2.1-6.4-4.3c-0.3-0.6-0.6-1.5-0.9-2.5h0c-3,4.9-1.4,16.9,0.9,28.8
			c2.2,11.9,13.6,66.5,13.6,66.5s1.2-52.5,1.2-65.4s-1.8-27.5-2.6-29.1c0,0,0,0,0,0c0,0.6,0,1.1-0.1,1.4
			C140,309.7,137.9,312.8,134.6,312.8z"/></g></g></svg>