<svg xmlns="http://www.w3.org/2000/svg" viewBox="0 0 2500 1657.5" xml:space="preserve"><path fill="#0C3461" d="M2200.9 25.5V1284c0 14.1-11.4 25.5-25.5 25.5H324.6c-14.1 0-25.5-11.4-25.5-25.5V25.5c0-14.1 11.4-25.5 25.5-25.5h1850.8c14.1 0 25.5 11.4 25.5 25.5z"/><path fill="#ED4944" d="M447.5 56.1h96.9v24.7h-96.9z"/><path fill="#68B7E6" d="M506.8 149.9h100.8v24.7H506.8z"/><path fill="#7CD96C" d="M621.6 149.9h186.9v24.7H621.6z"/><path fill="#ED4944" d="M582.8 243.7H753v24.7H582.8z"/><path fill="#AEC7E6" d="M767 243.7h215.8v24.7H767z"/><path fill="#ED4944" d="M582.8 290.6H753v24.7H582.8z"/><path fill="#AEC7E6" d="M767 290.6h306.4v24.7H767z"/><path fill="#ED4944" d="M582.8 337.5H753v24.7H582.8z"/><path fill="#AEC7E6" d="M767 337.5h77.2v24.7H767z"/><path fill="#7B7A5C" d="M582.8 431.3h158.9V456H582.8z"/><path fill="#ED4944" d="M582.8 478.2h113.9v24.7H582.8z"/><path fill="#AEC7E6" d="M657.2 525.1h149.6v24.7H657.2zM960.6 525.1h108.8v24.7H960.6z"/><path fill="#F9812B" d="M820.8 525.1h125.7v24.7H820.8z"/><path fill="#ED4944" d="M657.2 572h116.3v24.7H657.2zM582.8 712.7h116.3v24.7H582.8z"/><path fill="#AEC7E6" d="M657.2 759.6h141.6v24.7H657.2z"/><path fill="#F9812B" d="M812.8 759.6h129.4v24.7H812.8z"/><path fill="#ED4944" d="M657.2 806.5h117.7v24.7H657.2z"/><path fill="#AEC7E6" d="M789 806.5h153.3v24.7H789z"/><path fill="#FFE7AD" d="M657.2 994.1h117.7v24.7H657.2z"/><path fill="#ED4944" d="M657.2 1041h117.7v24.7H657.2z"/><path fill="#AEC7E6" d="M789 1041h153.3v24.7H789zM657.2 1228.6h129.9v24.7H657.2z"/><path fill="#8B85C3" d="M801.1 1228.6h153.3v24.7H801.1z"/><path fill="#F9812B" d="M789 994.1h153.3v24.7H789z"/><path fill="#AEC7E6" d="M956.3 994.1h116.6v24.7H956.3z"/><path fill="#7CD96C" d="M1086.9 994.1h116.6v24.7h-116.6z"/><path fill="#AEC7E6" d="M1217.5 994.1h653.1v24.7h-653.1zM956.3 759.6h116.6v24.7H956.3z"/><path fill="#7CD96C" d="M1086.9 759.6h116.2v24.7h-116.2z"/><path fill="#68B7E6" d="M713.1 712.7h140.7v24.7H713.1z"/><path fill="#7CD96C" d="M867.8 712.7h81.9v24.7h-81.9z"/><path fill="#AEC7E6" d="M963.7 712.7H1763v24.7H963.7zM1217.2 759.6h802.4v24.7h-802.4zM787.5 572h159.1v24.7H787.5z"/><path fill="#68B7E6" d="M710.8 478.2h149.4v24.7H710.8z"/><path fill="#7CD96C" d="M874.2 478.2h57.2v24.7h-57.2z"/><path fill="#AEC7E6" d="M945.4 478.2h122.8v24.7H945.4zM1082.3 478.2h122.8v24.7h-122.8zM1219.1 478.2h122.8v24.7h-122.8zM1356 478.2h122.8v24.7H1356z"/><path fill="#7CD96C" d="M1083.4 525.1H1346v24.7h-262.6z"/><path fill="#AEC7E6" d="M1360 525.1h692.4v24.7H1360z"/><path fill="#ED4944" d="M582.8 943.2h117.7v24.7H582.8z"/><path fill="#68B7E6" d="M714.6 943.2h153.3v24.7H714.6z"/><path fill="#ED4944" d="M582.8 1181.7h117.7v24.7H582.8z"/><path fill="#68B7E6" d="M714.6 1181.7h153.3v24.7H714.6z"/><path fill="#AEC7E6" d="M1108.3 1181.7h106.9v24.7h-106.9z"/><path fill="#7CD96C" d="M881.9 1181.7h212.3v24.7H881.9zM881.9 943.2h67.7v24.7h-67.7z"/><path fill="#AEC7E6" d="M963.7 943.2H1521v24.7H963.7z"/><path opacity=".5" fill="#092749" d="M1921.8 467.2h279.1v388.3h-279.1zM299.1 531.3h182v296.3h-182z"/><path fill="#0C3461" d="M1360.5 103.5h-158.9c-13.4 0-24.3 10.9-24.3 24.3v134.9c0 13.4 10.9 24.3 24.3 24.3h158.9c13.4 0 24.3-10.9 24.3-24.3V127.8c0-13.4-10.9-24.3-24.3-24.3zM460.2 1167.8v95.7c0 9.5-7.5 17.3-16.8 17.3H299.1v-130.2h144.3c9.3 0 16.8 7.7 16.8 17.2zM2082.7 1137h-226c-10.2 0-18.4 8.2-18.4 18.4v102.1c0 10.2 8.2 18.4 18.4 18.4h226c10.2 0 18.4-8.2 18.4-18.4v-102.1c0-10.2-8.3-18.4-18.4-18.4zM2200.9 111.8v194.8H1949c-14.5 0-26.2-11.6-26.2-25.8V137.6c0-14.3 11.7-25.8 26.2-25.8h251.9zM478.9 203.8v113.8c0 11.3-9 20.5-20 20.5H299.1V183.3h159.7c11.1 0 20.1 9.2 20.1 20.5z"/><path fill="#175294" d="M2484.7 829.6h-506.6c-8.4 0-15.3-6.8-15.3-15.3V456.5c0-8.4 6.8-15.3 15.3-15.3h506.6c8.4 0 15.3 6.8 15.3 15.3v357.7c0 8.5-6.8 15.4-15.3 15.4z"/><path fill="#ED4944" d="M2001.4 493.1h53.5v13.6h-53.5z"/><path fill="#68B7E6" d="M2001.4 544.9h55.6v13.6h-55.6z"/><path fill="#7CD96C" d="M2064.8 544.9H2168v13.6h-103.2z"/><path fill="#ED4944" d="M2043.4 596.6h93.9v13.6h-93.9z"/><path fill="#AEC7E6" d="M2145 596.6h119.1v13.6H2145z"/><path fill="#ED4944" d="M2043.4 622.5h65.7v13.6h-65.7z"/><path fill="#AEC7E6" d="M2121.4 622.5h192.8v13.6h-192.8z"/><path fill="#ED4944" d="M2043.4 648.4h47V662h-47z"/><path fill="#AEC7E6" d="M2100.3 648.4h87.3V662h-87.3z"/><path fill="#7B7A5C" d="M2043.4 700.2h87.7v13.6h-87.7z"/><path fill="#ED4944" d="M2043.4 726h62.9v13.6h-62.9z"/><path fill="#AEC7E6" d="M2084.4 751.9h82.6v13.6h-82.6zM2251.9 751.9h30.1v13.6h-30.1z"/><path fill="#F9812B" d="M2174.7 751.9h69.4v13.6h-69.4z"/><path fill="#ED4944" d="M2084.4 777.8h64.2v13.6h-64.2z"/><path fill="#AEC7E6" d="M2156.3 777.8h87.8v13.6h-87.8z"/><path fill="#68B7E6" d="M2114 726h82.4v13.6H2114z"/><path fill="#7CD96C" d="M2204.2 726h31.5v13.6h-31.5z"/><path fill="#AEC7E6" d="M2243.5 726h37.8v13.6h-37.8zM2289 726h25.1v13.6H2289zM2321.9 726h33.8v13.6h-33.8zM2363.5 726h67.8v13.6h-67.8z"/><path fill="#7CD96C" d="M2289.7 751.9h68.3v13.6h-68.3z"/><path fill="#AEC7E6" d="M2365.7 751.9h95.6v13.6h-95.6z"/><path fill="#175294" d="M452.4 802.7H15.3c-8.4 0-15.3-6.8-15.3-15.3V521.7c0-8.4 6.8-15.3 15.3-15.3h437.1c8.4 0 15.3 6.8 15.3 15.3v265.7c0 8.4-6.9 15.3-15.3 15.3z"/><path fill="#ED4944" d="M54.8 540.9h55.9v10.4H54.8z"/><path fill="#AEC7E6" d="M90.5 560.7h68v10.4h-68z"/><path fill="#F9812B" d="M165.3 560.7h62.2v10.4h-62.2z"/><path fill="#ED4944" d="M90.5 580.4h56.6v10.4H90.5z"/><path fill="#AEC7E6" d="M153.8 580.4h73.6v10.4h-73.6z"/><path fill="#FFE7AD" d="M90.5 659.4h56.6v10.4H90.5z"/><path fill="#ED4944" d="M90.5 679.1h56.6v10.4H90.5z"/><path fill="#AEC7E6" d="M153.8 679.1h59.6v10.4h-59.6zM90.5 758.1h62.4v10.4H90.5z"/><path fill="#8B85C3" d="M159.7 758.1h73.6v10.4h-73.6z"/><path fill="#F9812B" d="M153.8 659.4h59.6v10.4h-59.6z"/><path fill="#AEC7E6" d="M220.2 659.4h29.9v10.4h-29.9z"/><path fill="#7CD96C" d="M256.8 659.4h56v10.4h-56z"/><path fill="#AEC7E6" d="M319.5 659.4h48.4v10.4h-48.4zM234.2 560.7h29.9v10.4h-29.9z"/><path fill="#7CD96C" d="M270.8 560.7h55.8v10.4h-55.8z"/><path fill="#68B7E6" d="M117.4 540.9H185v10.4h-67.6z"/><path fill="#7CD96C" d="M191.7 540.9H231v10.4h-39.3z"/><path fill="#AEC7E6" d="M237.8 540.9H379v10.4H237.8zM333.4 560.7h97.2v10.4h-97.2z"/><path fill="#ED4944" d="M54.8 637.9h56.6v10.4H54.8z"/><path fill="#68B7E6" d="M118.1 637.9h59.6v10.4h-59.6z"/><path fill="#ED4944" d="M54.8 738.4h56.6v10.4H54.8z"/><path fill="#68B7E6" d="M118.1 738.4h73.6v10.4h-73.6z"/><path fill="#AEC7E6" d="M281.1 738.4h51.4v10.4h-51.4z"/><path fill="#7CD96C" d="M198.5 738.4h75.9v10.4h-75.9zM184.4 637.9h32.5v10.4h-32.5z"/><path fill="#AEC7E6" d="M223.7 637.9h193v10.4h-193z"/><path opacity=".75" fill="#AEC7E6" d="M1398.5 254h-158.9c-13.4 0-24.3-10.9-24.3-24.3V94.8c0-13.4 10.9-24.3 24.3-24.3h158.9c13.4 0 24.3 10.9 24.3 24.3v134.9c0 13.4-10.9 24.3-24.3 24.3z"/><g fill="#E9F0F7"><path d="M1299.5 113.7c3.5 0 6 .3 7.6.9 1.6.6 2.8 1.5 3.5 2.9 1 2 1.5 4.8 1.5 8.2V177c0 9.3-3.4 17.5-10.1 24.6-6.7 7.1-15.3 10.7-25.8 10.7-5.8 0-11-1.3-15.5-3.9-4.1-2.2-6.9-4.2-8.5-6l-1.1-1.1c-3.1-3.3-4.6-6.1-4.6-8.4 0-2.3 1.5-5.1 4.6-8.3 3.1-3.2 5.8-4.8 8.2-4.8 2.4 0 5 1.5 8 4.4 2.9 2.9 6.1 4.4 9.5 4.4 3.4 0 6.2-1.1 8.4-3.5 2.2-2.3 3.3-5.4 3.3-9.2v-49.7c0-5.3.9-8.7 2.7-10.2 2.1-1.4 4.8-2.3 8.3-2.3zM1324.2 197.4c-2.3-2.8-3.5-5.4-3.5-7.6 0-2.3 1.9-5.2 5.7-9 2.2-2.1 4.6-3.2 7-3.2 2.5 0 5.9 2.2 10.4 6.6 1.2 1.5 3 2.9 5.3 4.3s4.4 2.1 6.4 2.1c8.2 0 12.3-3.4 12.3-10.1 0-2-1.1-3.7-3.4-5.1-2.3-1.4-5.1-2.4-8.4-3-3.4-.6-7-1.6-10.9-3-3.9-1.4-7.5-3-10.9-4.8-3.4-1.9-6.2-4.8-8.4-8.8-2.3-4-3.4-8.9-3.4-14.5 0-7.8 2.9-14.6 8.7-20.4 5.8-5.8 13.7-8.7 23.7-8.7 5.3 0 10.2.7 14.5 2.1 4.4 1.4 7.4 2.8 9.1 4.2l3.3 2.5c2.7 2.6 4.1 4.7 4.1 6.5 0 1.8-1.1 4.2-3.2 7.3-3 4.4-6.1 6.6-9.3 6.6-1.9 0-4.2-.9-6.9-2.7-.3-.2-.8-.6-1.5-1.3-.8-.7-1.4-1.3-2.1-1.7-1.9-1.1-4.2-1.7-7.1-1.7-2.9 0-5.3.7-7.2 2.1-1.9 1.4-2.9 3.3-2.9 5.7 0 2.4 1.1 4.4 3.4 5.9s5.1 2.5 8.4 3.1c3.4.5 7 1.4 11 2.5s7.7 2.5 11 4c3.4 1.6 6.2 4.4 8.4 8.3 2.3 3.9 3.4 8.8 3.4 14.5 0 5.8-1.2 10.8-3.5 15.2-2.3 4.4-5.3 7.8-9 10.2-7.2 4.7-14.8 7-23 7-4.2 0-8.1-.5-11.8-1.5-3.7-1-6.7-2.3-9-3.8-4.7-2.8-8-5.6-9.8-8.2l-.9-1.6z"/></g><path fill="#ED4944" d="M438 1259.2H143.9c-9.5 0-17.3-7.7-17.3-17.3v-95.7c0-9.5 7.7-17.3 17.3-17.3H438c9.5 0 17.3 7.7 17.3 17.3v95.7c0 9.6-7.7 17.3-17.3 17.3z"/><g fill="#E9F0F7"><path d="M200.7 1162.1c.5-.9 1.3-1.6 2.5-2 1.2-.4 2.7-.6 4.5-.6 1.8 0 3.3.2 4.3.5 1.1.3 1.9.7 2.4 1.1.6.4 1 1.1 1.3 1.9.3 1.1.5 2.7.5 4.9v52.3c0 1.4 0 2.5-.1 3.2-.1.7-.4 1.6-.9 2.5-.9 1.7-3.3 2.5-7.3 2.5-4.4 0-7-1.2-7.7-3.5-.4-1.1-.6-2.7-.6-4.9v-19h-25v19.2c0 1.4 0 2.5-.1 3.2-.1.7-.4 1.6-.9 2.5-.9 1.7-3.3 2.5-7.3 2.5-4.4 0-7-1.2-7.7-3.5-.4-1.1-.6-2.7-.6-4.9v-52.3c0-1.4 0-2.5.1-3.2.1-.7.4-1.6.9-2.5.9-1.7 3.3-2.5 7.3-2.5 4.4 0 7 1.2 7.8 3.5.3 1.1.5 2.7.5 4.9v19.2h25v-19.3c0-1.4 0-2.5.1-3.2.2-.7.5-1.5 1-2.5zM228.4 1159.5h52.4c2 0 3.5.2 4.4.7.9.5 1.6 1.2 1.9 2.2.3 1 .5 2.3.5 4 0 1.6-.2 2.9-.5 3.9s-.8 1.6-1.6 2c-1.1.6-2.7.8-4.8.8h-18v47.4c0 1.4 0 2.5-.1 3.2-.1.7-.4 1.5-.8 2.4-.5.9-1.3 1.6-2.5 1.9-1.2.4-2.8.6-4.7.6-1.9 0-3.5-.2-4.7-.6-1.2-.4-2-1-2.4-1.9-.5-.9-.8-1.7-.8-2.4-.1-.7-.1-1.8-.1-3.2v-47.3h-18.1c-2 0-3.5-.2-4.4-.7-.9-.5-1.6-1.2-1.9-2.2-.3-1-.5-2.3-.5-4 0-1.6.2-2.9.5-3.9s.8-1.6 1.6-2c.9-.6 2.5-.9 4.6-.9zM366.1 1162.2c.5.9.8 1.8.9 2.5.1.8.1 1.9.1 3.3v52.3c0 4.3-1.2 6.9-3.6 7.6-1.2.4-2.7.6-4.5.6-1.8 0-3.3-.2-4.3-.5-1.1-.3-1.9-.7-2.4-1.1-.6-.4-1-1.1-1.3-1.9-.3-1.1-.5-2.7-.5-4.9v-31.5c-1.6 1.9-3.9 5-6.9 9.3-3 4.2-4.9 6.9-5.7 8-.8 1.1-1.4 1.8-1.7 2.2-.3.4-1.1 1-2.3 1.7-1.2.7-2.5 1.1-4 1.1-1.4 0-2.7-.3-3.9-1-1.2-.7-2-1.3-2.5-1.9l-.8-1c-1.3-1.6-3.7-4.9-7.4-10s-5.7-7.9-6-8.2v31.7c0 1.4 0 2.5-.1 3.2-.1.7-.4 1.5-.9 2.4-.9 1.7-3.4 2.5-7.3 2.5-3.8 0-6.2-.8-7.2-2.5-.5-.9-.8-1.7-.9-2.4-.1-.8-.1-1.9-.1-3.4V1168c0-1.4 0-2.5.1-3.2.1-.7.4-1.6.9-2.5.9-1.6 3.4-2.4 7.3-2.4 1.7 0 3.2.2 4.4.6 1.2.4 2 .8 2.4 1.3l.6.6 21.4 28.1c10.7-14.1 17.8-23.4 21.4-28 1.1-1.7 3.6-2.5 7.6-2.5 3.9-.3 6.3.5 7.2 2.2zM391.3 1214.7H417c2.1 0 3.6.2 4.5.7.9.5 1.6 1.2 1.9 2.2.3 1 .5 2.3.5 4 0 1.7-.2 3-.5 4s-.8 1.7-1.6 2.1c-1.2.6-2.8.9-4.9.9H383c-4.4 0-7-1.2-7.7-3.6-.4-1-.6-2.6-.6-4.8v-52.4c0-1.4 0-2.5.1-3.2.1-.7.4-1.6.9-2.5.9-1.7 3.3-2.5 7.3-2.5 4.4 0 7 1.2 7.8 3.5.3 1.1.5 2.7.5 4.9v46.7z"/></g><path opacity=".75" fill="#AEC7E6" d="M2126.7 1246.9h-226c-10.2 0-18.4-8.2-18.4-18.4v-102.1c0-10.2 8.2-18.4 18.4-18.4h226c10.2 0 18.4 8.2 18.4 18.4v102.1c0 10.1-8.3 18.4-18.4 18.4z"/><g fill="#E9F0F7"><path d="M1972.7 1155.5c1.7 3.5 2.6 7.5 2.6 11.9s-.9 8.3-2.6 11.8c-1.7 3.5-4 6.3-6.7 8.4-5.6 4.3-11.3 6.4-17.3 6.4h-12.6v11.3c0 1.5-.1 2.7-.2 3.5-.1.8-.4 1.7-1 2.7-.9 1.8-3.5 2.7-7.8 2.7-4.7 0-7.4-1.2-8.2-3.7-.4-1.1-.6-2.9-.6-5.2v-55.7c0-1.5.1-2.7.2-3.5.1-.8.4-1.7 1-2.7.9-1.8 3.5-2.7 7.8-2.7h21.5c5.9 0 11.6 2.1 17.2 6.4 2.7 2.1 5 4.9 6.7 8.4zm-18 18.5c1.9-1.5 2.9-3.7 2.9-6.6 0-2.9-1-5.2-2.9-6.7s-4-2.3-6-2.3h-12.6v17.8h12.7c2 0 4-.7 5.9-2.2zM2027.3 1143.4c.5-1 1.4-1.7 2.7-2.1 1.3-.4 2.9-.6 4.8-.6s3.5.2 4.6.5c1.1.3 2 .7 2.6 1.2.6.5 1.1 1.1 1.4 2 .3 1.1.5 2.9.5 5.2v55.7c0 1.5-.1 2.7-.2 3.5-.1.8-.4 1.7-1 2.7-.9 1.8-3.5 2.7-7.8 2.7-4.7 0-7.4-1.2-8.2-3.7-.4-1.1-.6-2.9-.6-5.2v-20.4h-26.6v20.5c0 1.5-.1 2.7-.2 3.5-.1.8-.4 1.7-1 2.7-.9 1.8-3.5 2.7-7.8 2.7-4.7 0-7.4-1.2-8.2-3.7-.4-1.1-.6-2.9-.6-5.2v-55.7c0-1.5.1-2.7.2-3.5.1-.8.4-1.7 1-2.7.9-1.8 3.5-2.7 7.8-2.7 4.7 0 7.5 1.2 8.3 3.7.3 1.1.5 2.9.5 5.2v20.5h26.6v-20.6c0-1.5.1-2.7.2-3.5.2-.8.5-1.7 1-2.7zM2106.4 1155.5c1.7 3.5 2.6 7.5 2.6 11.9s-.9 8.3-2.6 11.8c-1.7 3.5-4 6.3-6.7 8.4-5.6 4.3-11.3 6.4-17.3 6.4h-12.6v11.3c0 1.5-.1 2.7-.2 3.5-.1.8-.4 1.7-1 2.7-.9 1.8-3.5 2.7-7.8 2.7-4.7 0-7.4-1.2-8.2-3.7-.4-1.1-.6-2.9-.6-5.2v-55.7c0-1.5.1-2.7.2-3.5.1-.8.4-1.7 1-2.7.9-1.8 3.5-2.7 7.8-2.7h21.5c5.9 0 11.6 2.1 17.2 6.4 2.7 2.1 4.9 4.9 6.7 8.4zm-18 18.5c1.9-1.5 2.9-3.7 2.9-6.6 0-2.9-1-5.2-2.9-6.7s-4-2.3-6-2.3h-12.6v17.8h12.7c2 0 4-.7 5.9-2.2z"/></g><path fill="#FF8666" d="M2227.2 276.7h-239.7c-14.3 0-25.8-11.6-25.8-25.8V107.7c0-14.3 11.6-25.8 25.8-25.8h239.7c14.3 0 25.8 11.6 25.8 25.8v143.2c0 14.2-11.5 25.8-25.8 25.8z"/><g fill="#E5ECF3"><path d="M1993.8 191.7c-3.5-1.8-5.3-5-5.3-9.7 0-4.7 1.8-8 5.4-9.9 31.1-19.1 48.9-30.1 53.5-33 4.6-2.9 7.4-4.5 8.3-4.8 1-.5 2.2-.7 3.5-.7 2.4 0 5 2.3 7.6 6.9 1.7 2.9 2.6 5.1 2.6 6.6s-.3 2.7-1 3.7c-.8 1.5-2.7 3.2-5.6 5.2-27 16.5-41 25.2-42.1 25.9l42.1 25.9c1.7 1 2.9 1.9 3.7 2.5 2 1.7 3 3.5 3 5.5 0 1.9-.8 4.2-2.4 6.8-1.6 2.7-3 4.6-4.3 5.7-1.3 1.1-2.6 1.7-3.9 1.7-1.8 0-4.2-.9-7.1-2.7l-58-35.6zM2095.6 231.6c-.7 1.6-1.3 2.8-1.7 3.5-.4.8-1.1 1.5-2 2.2-1 .7-2.2 1.1-3.7 1.1s-3.8-.7-6.8-2.1-5-2.7-6-3.7c-1-1.1-1.6-2.3-1.6-3.6 0-1.3.5-3.7 1.6-7l43.8-94.8c1.7-3.6 3.3-5.6 4.6-6.2.7-.4 1.8-.6 3.2-.6 1.4 0 3.7.8 6.9 2.3 4.9 2.4 7.3 5.1 7.3 8 0 1.2-.6 3.6-1.9 7l-43.7 93.9zM2220.8 172.1c3.6 1.9 5.4 5.2 5.4 9.9s-1.8 7.9-5.3 9.7l-58 35.8c-4.6 3.1-8.3 3.4-11.1 1-1.3-1.1-2.6-2.8-3.9-5.1-1.8-3.1-2.7-5.4-2.7-6.8s.3-2.6.8-3.7c1-1.6 2.9-3.3 5.8-5.1L2194 182l-42.1-25.9c-1.6-1-2.9-1.9-3.7-2.5-2-1.8-3-3.7-3-5.8 0-1.9.8-4.1 2.3-6.8 2.8-4.9 5.4-7.3 7.9-7.3 2.2 0 4.6.9 7.3 2.7l58.1 35.7z"/></g><path fill="#AEC7E6" d="M435.3 310.1H183.4c-11.3 0-20.5-9.2-20.5-20.5V175.8c0-11.3 9.2-20.5 20.5-20.5h251.9c11.3 0 20.5 9.2 20.5 20.5v113.8c0 11.3-9.2 20.5-20.5 20.5z"/><g fill="#E9F0F7"><path d="m261.8 252.4 2-1.5c2.5-1.5 4.3-2.2 5.4-2.2 2.3 0 4.8 2.1 7.5 6.3 1.6 2.6 2.5 4.7 2.5 6.3 0 1.6-.5 2.9-1.5 3.9s-2.2 2-3.5 2.8l-3.9 2.4c-1.2.7-3.7 1.7-7.6 2.9-3.8 1.2-7.5 1.8-11 1.8s-7.1-.5-10.7-1.4c-3.6-.9-7.4-2.5-11.2-4.7-3.8-2.2-7.3-4.9-10.4-8.1-3.1-3.2-5.6-7.2-7.6-12.2-2-5-3-10.4-3-16.2s1-11.1 2.9-15.8c1.9-4.7 4.4-8.7 7.4-11.8 3-3.1 6.5-5.7 10.4-7.8 7.3-4 14.7-6 22.1-6 3.5 0 7.1.5 10.7 1.6 3.6 1.1 6.4 2.2 8.2 3.3l2.7 1.6c1.3.8 2.4 1.5 3.1 2 1.9 1.6 2.9 3.3 2.9 5.3s-.8 4-2.4 6.2c-2.9 4-5.5 6-7.8 6-1.3 0-3.2-.8-5.7-2.5-3.1-2.5-7.3-3.8-12.5-3.8-4.9 0-9.6 1.7-14.3 5-2.2 1.6-4.1 4-5.6 6.9-1.5 3-2.2 6.4-2.2 10.1 0 3.8.7 7.1 2.2 10.1 1.5 3 3.4 5.3 5.7 7.1 4.6 3.3 9.3 4.9 14.2 4.9 2.3 0 4.5-.3 6.5-.9 2.2-.4 3.6-1 4.5-1.6zM287.8 262.3c-1.9-2.4-2.9-4.5-2.9-6.4 0-1.9 1.6-4.4 4.8-7.6 1.9-1.8 3.8-2.7 5.9-2.7 2.1 0 5 1.9 8.7 5.6 1 1.3 2.5 2.5 4.5 3.6 1.9 1.2 3.7 1.7 5.4 1.7 6.9 0 10.4-2.8 10.4-8.5 0-1.7-1-3.2-2.9-4.3-1.9-1.2-4.3-2-7.1-2.5s-5.9-1.4-9.2-2.5c-3.3-1.2-6.3-2.5-9.2-4.1-2.8-1.6-5.2-4-7.1-7.4-1.9-3.4-2.9-7.5-2.9-12.3 0-6.6 2.4-12.3 7.3-17.2 4.9-4.9 11.5-7.3 20-7.3 4.5 0 8.6.6 12.3 1.7 3.7 1.2 6.2 2.3 7.7 3.5l2.8 2.1c2.3 2.2 3.5 4 3.5 5.5s-.9 3.5-2.7 6.2c-2.5 3.7-5.1 5.6-7.8 5.6-1.6 0-3.5-.7-5.8-2.2-.2-.1-.7-.5-1.3-1.1-.6-.6-1.2-1.1-1.7-1.5-1.6-1-3.6-1.5-6-1.5s-4.4.6-6 1.7c-1.6 1.2-2.4 2.8-2.4 4.8 0 2.1 1 3.7 2.9 5 1.9 1.3 4.3 2.1 7.1 2.6 2.8.4 5.9 1.1 9.3 2.1 3.4.9 6.5 2.1 9.3 3.4 2.8 1.3 5.2 3.7 7.1 7 1.9 3.3 2.9 7.4 2.9 12.3s-1 9.1-2.9 12.8c-1.9 3.7-4.5 6.5-7.6 8.6-6 4-12.5 5.9-19.4 5.9-3.5 0-6.8-.4-10-1.3-3.1-.9-5.7-1.9-7.6-3.2-4-2.4-6.7-4.7-8.3-6.9l-1.1-1.2zM353.1 262.3c-1.9-2.4-2.9-4.5-2.9-6.4 0-1.9 1.6-4.4 4.8-7.6 1.9-1.8 3.8-2.7 5.9-2.7 2.1 0 5 1.9 8.7 5.6 1 1.3 2.5 2.5 4.5 3.6 1.9 1.2 3.7 1.7 5.4 1.7 6.9 0 10.4-2.8 10.4-8.5 0-1.7-1-3.2-2.9-4.3-1.9-1.2-4.3-2-7.1-2.5s-5.9-1.4-9.2-2.5c-3.3-1.2-6.3-2.5-9.2-4.1-2.8-1.6-5.2-4-7.1-7.4-1.9-3.4-2.9-7.5-2.9-12.3 0-6.6 2.4-12.3 7.3-17.2 4.9-4.9 11.5-7.3 20-7.3 4.5 0 8.6.6 12.3 1.7 3.7 1.2 6.2 2.3 7.7 3.5l2.8 2.1c2.3 2.2 3.5 4 3.5 5.5s-.9 3.5-2.7 6.2c-2.5 3.7-5.1 5.6-7.8 5.6-1.6 0-3.5-.7-5.8-2.2-.2-.1-.7-.5-1.3-1.1-.6-.6-1.2-1.1-1.7-1.5-1.6-1-3.6-1.5-6-1.5s-4.4.6-6 1.7c-1.6 1.2-2.4 2.8-2.4 4.8 0 2.1 1 3.7 2.9 5 1.9 1.3 4.3 2.1 7.1 2.6 2.8.4 5.9 1.1 9.3 2.1 3.4.9 6.5 2.1 9.3 3.4 2.8 1.3 5.2 3.7 7.1 7 1.9 3.3 2.9 7.4 2.9 12.3s-1 9.1-2.9 12.8c-1.9 3.7-4.5 6.5-7.6 8.6-6 4-12.5 5.9-19.4 5.9-3.5 0-6.8-.4-10-1.3-3.1-.9-5.7-1.9-7.6-3.2-4-2.4-6.7-4.7-8.3-6.9l-1.1-1.2z"/></g><path fill="#092749" d="M1394.9 1583.7h-289.6c-12.4 0-22.5-10.1-22.5-22.5v-74.1h334.7v74.1c-.1 12.4-10.2 22.5-22.6 22.5z"/><path fill="#DCE9F5" d="M1716.6 1015c-5.2 16.1-19.2 87.7-45.3 144.5-14.5 31.3-32.6 58.1-55.1 68.5-30.4 14-124-28.9-182.1-71.2-36.7-26.7-52.9-102.4-45.2-150.4 4.5-28 17-46.5 38.3-40.5 22.9 6.5 50.3 12.4 77.1 46.8 26.9 34.4 77.5 90.7 77.5 90.7s39.3-81 46.3-105.9c9.8-35.5 98.5-13.9 88.5 17.5z"/><path fill="#AEC7E6" d="M1574.6 1095.4c4.4 5 7.1 7.9 7.1 7.9l-21.3 41.5c.6-1.4 10.3-25.4 14.2-49.4z"/><path fill="#AEC7E6" d="M1671.2 1159.5c-14.5 31.3-32.6 58.1-55.1 68.5-30.4 14-124-28.9-182.1-71.2-36.7-26.7-52.9-102.4-45.2-150.4 28.3.3 65.7 13.4 73.2 78.7 0 0-6 50.4 5.6 71.8 15.4 27.7 107.1 59.6 124.9 60.8 17.7 1 51.6-14.2 78.7-58.2zM1716.6 1015c-1.9 5.9-4.9 19.1-9.3 36.3-1.6 6.2-24.1 10.6-39.5-18.8-3.4-6.5-10.8-10-17.9-11.5-1.6-.3-3.9-.6-6.4-.8-11.1-1-18.5-11.9-15.5-22.6v-.2c9.9-35.4 98.6-13.8 88.6 17.6z"/><path fill="#FFC5B3" d="M1799 1016.5c-1.2 5.7-5 10.1-9.3 12.4-9.8 5.2-29.7 10-53.3-22.7-23.6-32.7-24.3-58.3-24.3-58.3-.8-7.7 2.2-13.2 6.9-16.8 9.8-7.4 26.7-5.7 29.8 5.1 2.2 7.6 11.8 33.7 23 50 7.4 10.7 15.1 15.1 20.9 16.9 2.9.9 4.8 2.8 5.8 5.4.9 2.2 1.1 5.1.5 8z"/><path fill="#F2A29B" d="M1799 1016.5c-1.2 5.7-5 10.1-9.3 12.4-9.8 5.2-29.7 10-53.3-22.7-23.6-32.7-24.3-58.3-24.3-58.3-.8-7.7 2.2-13.2 6.9-16.8 3.7 1.7 7.8 5.3 11.5 12.6 0 0 25.5 48.4 25.2 52.8-.1 1.3-.2 3.5-.2 6 0 5.8 5.7 9.9 11.2 8 10.4-3.7 25.2-7.4 31.8-2 .9 2.2 1.1 5.1.5 8z"/><path fill="#FFC5B3" d="M1635.7 926.5c-29.8 15-32.2 53-32.2 53s-4.3 20.8-20.1 33.2c-8.7 6.8 18.2 25.6 34.4 12.9 13.2-10.5 18.8-25.6 18.8-25.6s37.7 19.2 48.6-16.3c10.1-32.6-19.7-72.2-49.5-57.2z"/><path fill="#F2A29B" d="M1685.2 983.7c-11 35.4-48.7 16.3-48.7 16.3s-5.6 15.2-18.8 25.6c-11.3 8.9-27.9 2.4-33.8-4.7 4.8 2.4 13.6 5.6 23.1 2.4 13.9-4.8 23.4-24.9 23.4-24.9l-2.2-13.6s7.9 5.9 8.7 1.8c.9-4.2-7.8-21.9-6.9-31.9.7-6.8 28.4-12.3 47.3-14.8 8.7 11.9 12.6 28.6 7.9 43.8z"/><path fill="#FFC5B3" d="M1748.5 999.3c-2.7 13.3-15 43.4-19.4 57.1-1.4 4.3-5.7 7-10.2 6.2-7.6-1.3-17.1-6.3-15.3-23.8 1.2-12.1 11.1-38.3 11.1-38.3-12.5-17.2-20.5-34.1-25.4-46.2-4.4-10.9-6.1-17.9-6.1-17.9-2.6-23.7 30.3-26.7 38.2-12.3 4.7 8.8 26.7 60 27.4 70.6.2 1.1 0 2.7-.3 4.6z"/><path fill="#EB9494" d="M1748.5 999.3c-2.7 13.3-15 43.3-19.4 57.1-1.4 4.3-5.7 7-10.2 6.2-7.6-1.3-17.1-6.3-15.3-23.8 1.2-12.1 11.1-38.3 11.1-38.3-12.5-17.2-20.5-34.1-25.4-46.2.3-11.8 5.8-23.2 9.5-15.6 0 0 15.4 27.6 17.8 33.4 3.8 9 8.1 19.1 9 23.1 2.5 9.5 15.9 11.1 22.9 4.1z"/><path fill="#FFC5B3" d="M1654.8 938.1s7.8 31.4 31.5 64.1c0 0-9.9 26.2-11.1 38.3-1.8 17.5 7.7 22.5 15.3 23.8 4.5.7 8.8-1.9 10.2-6.2 4.9-15.7 20.4-52.7 19.9-61.7-.7-10.6-22.7-61.9-27.4-70.6-8.1-14.5-41-11.4-38.4 12.3z"/><path fill="#EB9494" d="M1720.3 998.6c-1.4 11.6-15.1 44.9-19.8 59.5-1.4 4.3-5.7 7-10.1 6.2-7.6-1.3-17.1-6.3-15.3-23.8 1.2-12.1 11.1-38.3 11.1-38.3-14-19.4-22.4-38.2-27-50.4 4.2-5 8.9-10.6 8.9-10.6s25.4 45.2 32.7 49.6c6 3.5 13.3 8.9 19.5 7.8z"/><path fill="#FFC5B3" d="M1628.4 943.6s.7 25.6 24.3 58.3c23.6 32.7 43.5 27.9 53.3 22.7 4.3-2.3 7.3-7.4 9.3-12.4 2.2-5.5-.7-11.8-6.4-13.5-5.9-1.7-13.6-6.2-20.9-16.9-11.2-16.3-20.8-42.4-23-50-4.5-15.8-39.2-12-36.6 11.8z"/><path fill="#F2A29B" d="M1715.3 1012.3c-2 5-5 10.1-9.3 12.4-9.8 5.2-29.7 10-53.3-22.7-12.2-16.8-18.2-31.8-21.3-42.3s17.8 38.9 40.7 45.9c23 6.9 24.2-7.8 40.8-4.4 3 2.6 4 7.1 2.4 11.1z"/><path fill="#DCE9F5" d="M783.4 1015c5.2 16.1 19.2 87.7 45.3 144.5 14.5 31.3 32.6 58.1 55.1 68.5 30.4 14 124-28.9 182.1-71.2 36.7-26.7 52.9-102.4 45.2-150.4-4.5-28-17-46.5-38.3-40.5-22.9 6.5-50.3 12.4-77.1 46.8-26.9 34.4-77.5 90.7-77.5 90.7s-39.3-81-46.3-105.9c-9.8-35.5-98.5-13.9-88.5 17.5z"/><path fill="#AEC7E6" d="M925.4 1095.4c-4.4 5-7.1 7.9-7.1 7.9l21.3 41.5c-.6-1.4-10.3-25.4-14.2-49.4z"/><path fill="#AEC7E6" d="M828.8 1159.5c14.5 31.3 32.6 58.1 55.1 68.5 30.4 14 124-28.9 182.1-71.2 36.7-26.7 52.9-102.4 45.2-150.4-28.3.3-65.7 13.4-73.2 78.7 0 0 6 50.4-5.6 71.8-15.4 27.7-107.1 59.6-124.9 60.8-17.7 1-51.6-14.2-78.7-58.2zM783.4 1015c1.9 5.9 4.9 19.1 9.3 36.3 1.6 6.2 24.1 10.6 39.5-18.8 3.4-6.5 10.8-10 17.9-11.5 1.6-.3 3.9-.6 6.4-.8 11.1-1 18.5-11.9 15.5-22.6v-.2c-9.9-35.4-98.6-13.8-88.6 17.6z"/><path fill="#FFC5B3" d="M701 1016.5c1.2 5.7 5 10.1 9.3 12.4 9.8 5.2 29.7 10 53.3-22.7 23.6-32.7 24.3-58.3 24.3-58.3.8-7.7-2.2-13.2-6.9-16.8-9.8-7.4-26.7-5.7-29.8 5.1-2.2 7.6-11.8 33.7-23 50-7.4 10.7-15.1 15.1-20.9 16.9-2.9.9-4.8 2.8-5.8 5.4-.9 2.2-1.1 5.1-.5 8z"/><path fill="#F2A29B" d="M701 1016.5c1.2 5.7 5 10.1 9.3 12.4 9.8 5.2 29.7 10 53.3-22.7 23.6-32.7 24.3-58.3 24.3-58.3.8-7.7-2.2-13.2-6.9-16.8-3.7 1.7-7.8 5.3-11.5 12.6 0 0-25.5 48.4-25.2 52.8.1 1.3.2 3.5.2 6 0 5.8-5.7 9.9-11.2 8-10.4-3.7-25.2-7.4-31.8-2-.9 2.2-1.1 5.1-.5 8z"/><path fill="#FFC5B3" d="M864.3 926.5c29.8 15 32.2 53 32.2 53s4.3 20.8 20.1 33.2c8.7 6.8-18.2 25.6-34.4 12.9-13.2-10.5-18.8-25.6-18.8-25.6s-37.7 19.2-48.6-16.3c-10.1-32.6 19.7-72.2 49.5-57.2z"/><path fill="#F2A29B" d="M814.8 983.7c11 35.4 48.7 16.3 48.7 16.3s5.6 15.2 18.8 25.6c11.3 8.9 27.9 2.4 33.8-4.7-4.8 2.4-13.6 5.6-23.1 2.4-13.9-4.8-23.4-24.9-23.4-24.9l2.2-13.6s-7.9 5.9-8.7 1.8c-.9-4.2 7.8-21.9 6.9-31.9-.7-6.8-28.4-12.3-47.3-14.8-8.7 11.9-12.6 28.6-7.9 43.8z"/><path fill="#FFC5B3" d="M751.5 999.3c2.7 13.3 15 43.4 19.4 57.1 1.4 4.3 5.7 7 10.2 6.2 7.6-1.3 17.1-6.3 15.3-23.8-1.2-12.1-11.2-38.3-11.2-38.3 12.5-17.2 20.5-34.1 25.4-46.2 4.4-10.9 6.1-17.9 6.1-17.9 2.6-23.7-30.3-26.7-38.2-12.3-4.7 8.8-26.7 60-27.4 70.6-.1 1.1.1 2.7.4 4.6z"/><path fill="#EB9494" d="M751.5 999.3c2.7 13.3 15 43.3 19.4 57.1 1.4 4.3 5.7 7 10.2 6.2 7.6-1.3 17.1-6.3 15.3-23.8-1.2-12.1-11.2-38.3-11.2-38.3 12.5-17.2 20.5-34.1 25.4-46.2-.3-11.8-5.8-23.2-9.5-15.6 0 0-15.4 27.6-17.8 33.4-3.8 9-8.1 19.1-9 23.1-2.4 9.5-15.8 11.1-22.8 4.1z"/><path fill="#FFC5B3" d="M845.2 938.1s-7.8 31.4-31.5 64.1c0 0 9.9 26.2 11.1 38.3 1.8 17.5-7.7 22.5-15.3 23.8-4.5.7-8.8-1.9-10.2-6.2-4.9-15.7-20.4-52.7-19.9-61.7.7-10.6 22.7-61.9 27.4-70.6 8.1-14.5 41-11.4 38.4 12.3z"/><path fill="#EB9494" d="M779.7 998.6c1.4 11.6 15.1 44.9 19.8 59.5 1.4 4.3 5.7 7 10.1 6.2 7.6-1.3 17.1-6.3 15.3-23.8-1.2-12.1-11.1-38.3-11.1-38.3 14-19.4 22.4-38.2 27-50.4-4.2-5-8.9-10.6-8.9-10.6s-25.4 45.2-32.7 49.6c-6 3.5-13.3 8.9-19.5 7.8z"/><path fill="#FFC5B3" d="M871.6 943.6s-.7 25.6-24.3 58.3c-23.6 32.7-43.5 27.9-53.3 22.7-4.3-2.3-7.3-7.4-9.3-12.4-2.2-5.5.7-11.8 6.4-13.5 5.9-1.7 13.6-6.2 20.9-16.9 11.2-16.3 20.8-42.4 23-50 4.5-15.8 39.2-12 36.6 11.8z"/><path fill="#F2A29B" d="M784.7 1012.3c2 5 5 10.1 9.3 12.4 9.8 5.2 29.7 10 53.3-22.7 12.2-16.8 18.2-31.8 21.3-42.3s-17.8 38.9-40.7 45.9c-23 6.9-24.2-7.8-40.8-4.4-3 2.6-4 7.1-2.4 11.1z"/><path fill="#AEC7E6" d="M1583.6 1099.4c-1 2.6-1.9 4-1.9 4s.7-1.5 1.9-4z"/><path fill="#DCE9F5" d="M1470.2 1051.4c-17.6 71-42.5 178.2-42.5 216.9v211c0 4.3-3.5 7.8-7.8 7.8h-339.5c-4.3 0-7.8-3.5-7.8-7.8v-211c0-38.7-24.9-145.9-42.5-216.9-9.7-39.1 13.9-78.8 53-88.8 25.4-6.5 56.4-13.1 90.7-17.3 24.1-3 49.9-4.9 76.4-4.9 26.6 0 52.3 1.9 76.4 4.9 34.3 4.3 65.2 10.8 90.7 17.3 39 10 62.6 49.6 52.9 88.8z"/><path fill="#C2D6F0" d="M1436.3 1202.1c-5.2 27.9-8.7 51.8-8.7 66.2v211c0 4.3-3.5 7.8-7.8 7.8h-339.5c-4.3 0-7.8-3.5-7.8-7.8v-211c0-14.4-3.4-38.2-8.7-66.2 34.5 16.6 94.9 55.2 186.2 55.2 91.5 0 151.8-38.6 186.3-55.2z"/><path fill="#F2A29B" d="m1326.5 945.2-12.9 29.9c-8.2 19-27 31.3-47.7 31.3h-31.7c-20.7 0-39.4-12.3-47.7-31.3l-12.9-29.9c24.1-3 49.9-4.9 76.4-4.9 26.7 0 52.4 1.9 76.5 4.9z"/><path fill="#AEC7E6" d="M1250 1006.4s19.1 10.7 29.8 45.5c52.4-54.9 57.6-73.3 60.3-83.3 2.7-9.8 2.9-22.6-5.3-31.2l-9.2-9.5c-.1 0-14.1 59.5-75.6 78.5zM1250 1006.4s-19.1 10.7-29.8 45.5c-52.4-54.9-57.6-73.3-60.3-83.3-2.7-9.8-2.9-22.6 5.3-31.2l9.2-9.5c.1 0 14.1 59.5 75.6 78.5z"/><path fill="#FF8666" d="M1287 1374.1c0 11.6-37 40.9-37 40.9s-37-29.4-37-40.9c0-40.6 2.4-87.7 5.6-133.2 7-98.9 18.2-190.1 18.2-190.1l-17.1-44.5h60.7l-17.1 44.5s11.2 91.2 18.2 190.2c3.1 45.5 5.5 92.5 5.5 133.1z"/><path fill="#ED4944" d="m1280.3 1006.4-12.1 31.4c-1.5-2.8-3.7-6.7-6.3-10.5-5.6-8.4-18-8.4-23.7 0-2.6 3.9-4.9 7.8-6.4 10.7l-12.2-31.6h60.7zM1287 1374.1c0 11.6-37 40.9-37 40.9s-37-29.4-37-40.9c0-40.6 2.4-87.7 5.6-133.2 7.1 2.6 18 5.3 31.5 5.3 13.4 0 24.2-2.7 31.3-5.3 3.2 45.6 5.6 92.6 5.6 133.2z"/><path fill="#DCE9F5" d="M1250 1006.4s19.1 6.2 29.8 40.9c52.4-54.9 57.6-73.3 60.3-83.3 2.7-9.8 2.9-22.6-5.3-31.2l-9.2-9.5c-.1.1-14.1 64.1-75.6 83.1zM1250 1006.4s-19.1 6.2-29.8 40.9c-52.4-54.9-57.6-73.3-60.3-83.3-2.7-9.8-2.9-22.6 5.3-31.2l9.2-9.5c.1.1 14.1 64.1 75.6 83.1z"/><path fill="#FFC5B3" d="M1247.2 668c-49.2 0-141.2 22.6-118.6 135.8 0 0 22.5 90.7 30.8 127.5s63.3 61.7 90.7 61.7c27.4 0 82.4-24.9 90.7-61.7 8.3-36.8 30.8-127.5 30.8-127.5 22.5-113.1-75.2-135.8-124.4-135.8z"/><path fill="#EB9494" d="M1371.6 803.8s-11.4 45.8-21 85.6c.5-8.4 2.2-38.3-.6-41.7-.4-.5-.9-1.4-1.4-2.5-4.4-9.7-14.9-14.9-25.3-12.7-13.3 2.9-35.8 3.3-73.3-5.9-34.8-8.5-58.7-11-73.4-11.5-10.3-.4-19.4 6.9-21.3 17-1.1 5.9-2.9 11.5-2.9 11.5s-2.4 47.4-2.4 48.1c-9.7-40.3-21.5-88-21.5-88C1106 690.6 1198 668 1247.2 668s146.9 22.6 124.4 135.8z"/><path fill="#FFC5B3" d="M1364.1 834.4s22.5-20.3 17.8 9.2c-5.3 32.8-31.8 48.3-31.8 48.3l14-57.5z"/><path fill="#0C325D" d="M1347.7 769.7s-.4 61.6 1.8 66.1l6.3 7.3-5.7 48.4s27-77.1 27-121.9h-29.4z"/><path fill="#FFC5B3" d="M1136.1 834.4s-22.5-20.3-17.8 9.2c5.3 32.8 31.8 48.3 31.8 48.3l-14-57.5z"/><path fill="#0C325D" d="M1152.5 769.7s.4 61.6-1.8 66.1l-6.3 7.3 5.7 48.4s-27-77.1-27-121.9h29.4z"/><path fill="#0F3F75" d="M1114.8 771.2c23 48.4 72.5 23.8 152 45.1 89 23.9 120.8-26.5 129.2-54.9 1.9-6.3-2.6-12.7-9.2-13.3h-.3c-4.8-.5-8.7-4.4-9.2-9.2-2.6-24.6-19.6-105.8-127.4-105.8-100.9 0-111.5 53.8-111.5 53.8s-51.1 26.4-23.6 84.3z"/><path fill="#0F3F75" d="M1396 761.4c-8.4 28.3-40.2 78.8-129.2 54.9-79.5-21.4-129 3.3-152-45.1-4.6-9.6-6.9-18.3-7.8-26.2-4.2-39.7 31.5-58.2 31.5-58.2S1149.1 633 1250 633c107.8 0 124.7 81.2 127.4 105.8.5 4.9 4.4 8.7 9.2 9.2h.3c1.6.1 3 .6 4.3 1.3 4 2.4 6.2 7.3 4.8 12.1z"/><path fill="#0C325D" d="M1396 761.4c-8.4 28.3-40.2 78.8-129.2 54.9-79.5-21.4-129 3.3-152-45.1-4.6-9.6-6.9-18.3-7.8-26.2 6.1 5.7 13 10.3 20.6 13.7 33.5 14.7 72.9 3.3 108.5 11.9 26.1 6.3 49.4 23.1 76.1 26 11.8 1.3 23.9-.7 34.9-5.1 9.8-4 18.8-9.9 26.4-17.3 7.5-7.4 22.9-12.1 17.6-24.6 4.1 2.1 6.3 7 4.9 11.8z"/><path fill="#0C3461" d="m1214.4 869.3-34.8-13.3c-2.1-.8-4.4.3-5.2 2.3-.8 2.1.3 4.4 2.3 5.2l7 2.7c.1 3.6.3 8.8.5 13.4.3 8 4.7 18.2 14 21.2s14.7-7.5 14.7-14.7v-8.9c1.6 0 3.1-1 3.7-2.6.9-2.2-.1-4.6-2.2-5.3zM1325.6 858.3c-.8-2.1-3.1-3.1-5.2-2.3l-34.8 13.3c-2.1.8-3.1 3.1-2.3 5.2.6 1.6 2.1 2.6 3.7 2.6v8.9c0 7.2 5.4 17.7 14.7 14.7s13.7-13.1 14-21.2c.2-4.6.4-9.8.5-13.4l7-2.7c2.1-.7 3.2-3 2.4-5.1zM1263.7 949.2c-.4 0-.8-.1-1.2-.2-.1 0-5.6-1.9-12.4-1.9-6.7 0-12.3 1.8-12.4 1.9-1.9.6-4-.4-4.6-2.3-.6-1.9.4-4 2.3-4.6.3-.1 6.7-2.3 14.7-2.3 8 0 14.5 2.2 14.7 2.3 1.9.7 2.9 2.7 2.3 4.7-.5 1.4-1.9 2.4-3.4 2.4z"/><path fill="#092749" d="M1214 1631.8c-58 14-74.7 25.7-150.3 25.7-75.5 0-105.1-19.8-105.1-60.7 0-40.9 26.9-76.7 100-76.7s74.3 5.8 128.8 5.8c74.7 0 66.4 96.3 26.6 105.9z"/><path fill="#0C3461" d="M1662.9 1537.5c-115.9 35.3-425.8 100.5-458.5 106-32.7 5.4-46.3-119.9-24.9-125 10.2-2.4 49-14 92.5-28.2 32.2-10.5 66.9-22.4 94.4-33 64.6-24.9 136.2-84.1 256.1-118.3 60.7-17.3 113 40.8 116.1 99.9 2 40.4-18.8 81.2-75.7 98.6z"/><path fill="#082757" d="M1662.9 1537.5c-115.9 35.3-425.8 100.5-458.5 106-32.7 5.4-46.3-119.9-24.9-125 7.9-1.9 33-9.2 64.2-19.1 18.9-6 45-.5 64.8 1.2 55.4 4.6 105.9 6.1 161.2 10.7 59.3 4.9 118.9 5.1 175.9-11.9 35.7-10.6 69.9-31.7 92.9-60.5 2.1 40.4-18.7 81.2-75.6 98.6z"/><path fill="#092749" d="M1286 1631.8c58 14 74.7 25.7 150.3 25.7s105.1-19.8 105.1-60.7c0-40.9-26.9-76.7-100-76.7-73.2 0-74.3 5.8-128.8 5.8-74.7 0-66.4 96.3-26.6 105.9z"/><path fill="#0C3461" d="M1317.8 1623.9c-5.8 12.8-13.2 21-22.1 19.5-32.7-5.5-342.7-70.6-458.5-106-72.7-22.2-86.6-82.5-68.9-131.5 16.4-45.5 60.1-81.1 109.4-67 119.9 34.3 191.5 93.4 256.1 118.3 64.6 24.9 169.1 56.9 186.8 61.1 15.6 3.9 12.6 71.3-2.8 105.6z"/><path fill="#082757" d="M1317.8 1623.9c-5.8 12.8-13.2 21-22.1 19.5-32.7-5.5-342.7-70.6-458.5-106-72.7-22.2-86.6-82.5-68.9-131.5 17.4 35.9 48.8 65.1 83.8 85.2 44.1 25.2 93.9 38 143.1 50.5 107.5 27.6 215.1 54.9 322.6 82.3z"/><path fill="#98ADD4" d="M1501.7 1494.7h-500c-5.2 0-9.7-3.8-10.4-9L951.5 1217c-1.2-7.9 4.9-14.9 12.9-14.9h574.7c8 0 14 7.1 12.9 14.9l-39.8 268.7c-.8 5.2-5.3 9-10.5 9z"/><path fill="#E9F0F7" d="M1503.1 1489h-502.7c-4.9 0-9.1-3.6-9.9-8.5l-38.1-257c-1.1-7.4 5.1-14.1 12.7-14.1h573.3c7.5 0 13.8 6.7 12.7 14.1l-38.1 257c-.8 4.8-5 8.5-9.9 8.5z"/><path fill="#AEC7E6" d="M1292.7 1359.7c-.5 20.7-18.8 37.1-41 37.1s-40.6-16.4-41-37.1c-.5-21.1 17.9-38.6 41-38.6s41.5 17.5 41 38.6z"/></svg>