<svg xmlns="http://www.w3.org/2000/svg" enable-background="new 0 0 3000 2657.7" viewBox="0 0 3000 2657.7"><rect width="2903.7" height="2561.9" x="48.1" y="47.9" fill="none"/><g opacity=".16"><ellipse cx="2195.6" cy="2149.9" fill="#061837" opacity="0" rx="345.4" ry="178.5"/><ellipse cx="2195.6" cy="2149.9" fill="#061837" opacity=".063" rx="334.9" ry="173"/><ellipse cx="2195.6" cy="2149.9" fill="#061837" opacity=".125" rx="324.4" ry="167.6"/><ellipse cx="2195.6" cy="2149.9" fill="#061837" opacity=".188" rx="313.8" ry="162.2"/><ellipse cx="2195.6" cy="2149.9" fill="#061837" opacity=".25" rx="303.3" ry="156.7"/><ellipse cx="2195.6" cy="2149.9" fill="#061837" opacity=".313" rx="292.8" ry="151.3"/><ellipse cx="2195.6" cy="2149.9" fill="#061837" opacity=".375" rx="282.3" ry="145.9"/><ellipse cx="2195.6" cy="2149.9" fill="#061837" opacity=".438" rx="271.8" ry="140.5"/><ellipse cx="2195.6" cy="2149.9" fill="#061837" opacity=".5" rx="261.3" ry="135"/><ellipse cx="2195.6" cy="2149.9" fill="#061837" opacity=".563" rx="250.8" ry="129.6"/><ellipse cx="2195.6" cy="2149.9" fill="#061837" opacity=".625" rx="240.3" ry="124.2"/><ellipse cx="2195.6" cy="2149.9" fill="#061837" opacity=".688" rx="229.8" ry="118.7"/><ellipse cx="2195.6" cy="2149.9" fill="#061837" opacity=".75" rx="219.3" ry="113.3"/><ellipse cx="2195.6" cy="2149.9" fill="#061837" opacity=".813" rx="208.8" ry="107.9"/><ellipse cx="2195.6" cy="2149.9" fill="#061837" opacity=".875" rx="198.3" ry="102.5"/><ellipse cx="2195.6" cy="2149.9" fill="#061837" opacity=".938" rx="187.8" ry="97"/><ellipse cx="2195.6" cy="2149.9" fill="#061837" rx="177.3" ry="91.6"/></g><g opacity=".16"><ellipse cx="804.4" cy="2259.4" fill="#061837" opacity="0" rx="345.4" ry="178.5"/><ellipse cx="804.4" cy="2259.4" fill="#061837" opacity=".063" rx="334.9" ry="173"/><ellipse cx="804.4" cy="2259.4" fill="#061837" opacity=".125" rx="324.4" ry="167.6"/><ellipse cx="804.4" cy="2259.4" fill="#061837" opacity=".188" rx="313.8" ry="162.2"/><ellipse cx="804.4" cy="2259.4" fill="#061837" opacity=".25" rx="303.3" ry="156.7"/><ellipse cx="804.4" cy="2259.4" fill="#061837" opacity=".313" rx="292.8" ry="151.3"/><ellipse cx="804.4" cy="2259.4" fill="#061837" opacity=".375" rx="282.3" ry="145.9"/><ellipse cx="804.4" cy="2259.4" fill="#061837" opacity=".438" rx="271.8" ry="140.5"/><ellipse cx="804.4" cy="2259.4" fill="#061837" opacity=".5" rx="261.3" ry="135"/><ellipse cx="804.4" cy="2259.4" fill="#061837" opacity=".563" rx="250.8" ry="129.6"/><ellipse cx="804.4" cy="2259.4" fill="#061837" opacity=".625" rx="240.3" ry="124.2"/><ellipse cx="804.4" cy="2259.4" fill="#061837" opacity=".688" rx="229.8" ry="118.7"/><ellipse cx="804.4" cy="2259.4" fill="#061837" opacity=".75" rx="219.3" ry="113.3"/><ellipse cx="804.4" cy="2259.4" fill="#061837" opacity=".813" rx="208.8" ry="107.9"/><ellipse cx="804.4" cy="2259.4" fill="#061837" opacity=".875" rx="198.3" ry="102.5"/><ellipse cx="804.4" cy="2259.4" fill="#061837" opacity=".938" rx="187.8" ry="97"/><ellipse cx="804.4" cy="2259.4" fill="#061837" rx="177.3" ry="91.6"/></g><g opacity=".16"><ellipse cx="1640.3" cy="1904.3" fill="#061837" opacity="0" rx="345.4" ry="178.5"/><ellipse cx="1640.3" cy="1904.3" fill="#061837" opacity=".063" rx="334.9" ry="173"/><ellipse cx="1640.3" cy="1904.3" fill="#061837" opacity=".125" rx="324.4" ry="167.6"/><ellipse cx="1640.3" cy="1904.3" fill="#061837" opacity=".188" rx="313.8" ry="162.2"/><ellipse cx="1640.3" cy="1904.3" fill="#061837" opacity=".25" rx="303.3" ry="156.7"/><ellipse cx="1640.3" cy="1904.3" fill="#061837" opacity=".313" rx="292.8" ry="151.3"/><ellipse cx="1640.3" cy="1904.3" fill="#061837" opacity=".375" rx="282.3" ry="145.9"/><ellipse cx="1640.3" cy="1904.3" fill="#061837" opacity=".438" rx="271.8" ry="140.5"/><ellipse cx="1640.3" cy="1904.3" fill="#061837" opacity=".5" rx="261.3" ry="135"/><ellipse cx="1640.3" cy="1904.3" fill="#061837" opacity=".563" rx="250.8" ry="129.6"/><ellipse cx="1640.3" cy="1904.3" fill="#061837" opacity=".625" rx="240.3" ry="124.2"/><ellipse cx="1640.3" cy="1904.3" fill="#061837" opacity=".688" rx="229.8" ry="118.7"/><ellipse cx="1640.3" cy="1904.3" fill="#061837" opacity=".75" rx="219.3" ry="113.3"/><ellipse cx="1640.3" cy="1904.3" fill="#061837" opacity=".813" rx="208.8" ry="107.9"/><ellipse cx="1640.3" cy="1904.3" fill="#061837" opacity=".875" rx="198.3" ry="102.5"/><ellipse cx="1640.3" cy="1904.3" fill="#061837" opacity=".938" rx="187.8" ry="97"/><ellipse cx="1640.3" cy="1904.3" fill="#061837" rx="177.3" ry="91.6"/></g><g opacity=".16"><ellipse cx="1149.8" cy="915.5" fill="#061837" opacity="0" rx="345.4" ry="178.5"/><ellipse cx="1149.8" cy="915.5" fill="#061837" opacity=".063" rx="334.9" ry="173"/><ellipse cx="1149.8" cy="915.5" fill="#061837" opacity=".125" rx="324.4" ry="167.6"/><ellipse cx="1149.8" cy="915.5" fill="#061837" opacity=".188" rx="313.8" ry="162.2"/><ellipse cx="1149.8" cy="915.5" fill="#061837" opacity=".25" rx="303.3" ry="156.7"/><ellipse cx="1149.8" cy="915.5" fill="#061837" opacity=".313" rx="292.8" ry="151.3"/><ellipse cx="1149.8" cy="915.5" fill="#061837" opacity=".375" rx="282.3" ry="145.9"/><ellipse cx="1149.8" cy="915.5" fill="#061837" opacity=".438" rx="271.8" ry="140.5"/><ellipse cx="1149.8" cy="915.5" fill="#061837" opacity=".5" rx="261.3" ry="135"/><ellipse cx="1149.8" cy="915.5" fill="#061837" opacity=".563" rx="250.8" ry="129.6"/><ellipse cx="1149.8" cy="915.5" fill="#061837" opacity=".625" rx="240.3" ry="124.2"/><ellipse cx="1149.8" cy="915.5" fill="#061837" opacity=".688" rx="229.8" ry="118.7"/><ellipse cx="1149.8" cy="915.5" fill="#061837" opacity=".75" rx="219.3" ry="113.3"/><ellipse cx="1149.8" cy="915.5" fill="#061837" opacity=".813" rx="208.8" ry="107.9"/><ellipse cx="1149.8" cy="915.5" fill="#061837" opacity=".875" rx="198.3" ry="102.5"/><ellipse cx="1149.8" cy="915.5" fill="#061837" opacity=".938" rx="187.8" ry="97"/><ellipse cx="1149.8" cy="915.5" fill="#061837" rx="177.3" ry="91.6"/></g><linearGradient id="a" x1="1651.098" x2="2303.68" y1="1944.988" y2="1582.862" gradientUnits="userSpaceOnUse"><stop offset="0" stop-color="#606475"/><stop offset="1" stop-color="#a0a3ad"/></linearGradient><path fill="url(#a)" d="M1674.1,1927.3v36.9c13.3,1.2,26.9-1.7,38.8-8.9l498.2-300.5c15.1-9.2,21.8-59.2,10.5-71     c-1.6,1.7-8.4,32.8-10.5,34.1l-498.2,300.6C1701,1925.6,1687.4,1928.6,1674.1,1927.3z"/><linearGradient id="b" x1="1541.44" x2="887.087" y1="1241.775" y2="1695.23" gradientTransform="matrix(-1 0 0 1 2628.93 0)" gradientUnits="userSpaceOnUse"><stop offset="0" stop-color="#606475"/><stop offset="1" stop-color="#a0a3ad"/></linearGradient><path fill="url(#b)" d="M880,1509.5l767.8,446.3c8.2,4.8,17.2,7.5,26.3,8.3v-36.9c13.3,1.3,26.9-1.7,38.8-8.9l498.2-300.6     c2.2-1.3,4-2.8,5.6-4.5c-1.7-1.8-3.8-3.4-6-4.7l-431.2-250.7l-344-200c-17.4-10.1-39-10-56.3,0.5l-499.5,301.3     c-2.9,1.8-5.4,4-7.3,6.4C861.3,1479.3,864,1500.2,880,1509.5z"/><linearGradient id="c" x1="323.636" x2="1200.164" y1="969.065" y2="969.065" gradientTransform="matrix(-1 0 0 1 2628.93 0)" gradientUnits="userSpaceOnUse"><stop offset="0" stop-color="#606475"/><stop offset="1" stop-color="#9ba3a1"/></linearGradient><path fill="url(#c)" d="M1428.8,367.9v677.6c0,18,9.6,34.6,25.1,43.6l810.1,469.5c2.7,1.5-2.6,18.7,0.2,19.2      c16.3,3.5,41.1-24.9,41.1-42.9V863.6c0-11.2-2.5-22-7.2-31.7l-34,20.9c-6.3-12-15.9-22.2-28.1-29.3l-792.7-459.4      c-4.3-2.5-8.9-3.9-13.4-4.2C1429.1,362.5,1428.8,365.2,1428.8,367.9z"/><path fill="#535576" d="M1396.1,391.3V1069c0,18,9.6,34.6,25.1,43.6l810.1,469.4c17.2,10,38.6-1.2,41-20.3      c0.1-1.1,0.2-2.3,0.2-3.5V947.8c0-12.1-3-84.6-8.5-94.9c-6.3-12-15.9-22.2-28.1-29.3l-792.7-459.4c-4.3-2.5-8.9-3.9-13.4-4.2      c-4.9-0.4-9.7,0.4-14.2,2.2l-0.2,0.1c-4.8,2-9.1,5.1-12.4,9.2l-0.1,0.1C1398.7,376.8,1396.1,383.6,1396.1,391.3z"/><path fill="#fffff9" d="M1425.6,391.3V1069c0,7.4,4,14.3,10.4,18.1l807,467.6l0-544.1v-62.8c0-7.1-1.7-74.9-5-81.1      c-3.8-7.4-9.6-13.4-16.8-17.6l-792.7-459.5h-0.3l-0.7-0.3l-1.1,0.4l-0.5,0.6C1425.6,390.5,1425.6,390.8,1425.6,391.3z"/><path fill="#82859a" d="M1415.6,362.2c4.4-1.8,9.2-2.6,14.2-2.2c4.5,0.3,9.1,1.7,13.4,4.2l792.7,459.4      c12.2,7.1,21.9,17.3,28.1,29.3l34-20.9c-6.3-13.1-16.4-24.3-29.4-31.8L2220,772l-744.1-431.2c-12.4-7.2-26.8-4.8-36.3,3.5      l-0.2,0.1L1415.6,362.2z"/><path fill="#53bdec" d="M1425.6,391.3v113L2243,978v-30.2c0-7.1-1.7-74.9-5-81.1c-3.8-7.4-9.6-13.4-16.8-17.6l-792.7-459.5h-0.3      l-0.7-0.3l-1.1,0.4l-0.5,0.6C1425.6,390.5,1425.6,390.8,1425.6,391.3z"/><linearGradient id="d" x1="1034.835" x2="1130.399" y1="1195.13" y2="1827.479" gradientTransform="matrix(-1 0 0 1 2628.93 0)" gradientUnits="userSpaceOnUse"><stop offset="0" stop-color="#b5b8c0"/><stop offset="1" stop-color="#d1d3d7"/></linearGradient><path fill="url(#d)" d="M872.3,1466.1c2,2.5,4.7,4.7,7.7,6.5l767.8,446.3c8.2,4.7,17.2,7.6,26.3,8.4c13.3,1.3,26.9-1.7,38.8-8.9     l498.2-300.6c2.2-1.3,4-2.8,5.6-4.5c11.5-12,9.4-32.6-6-41.6l-367.8-213.8l-407.5-236.8c-17.4-10.1-39-10-56.3,0.4l-499.5,301.4     C863.8,1432.4,861.4,1453.1,872.3,1466.1z"/><linearGradient id="e" x1="551.03" x2="1491.919" y1="1455.275" y2="1455.275" gradientTransform="matrix(-1 0 0 1 2628.93 0)" gradientUnits="userSpaceOnUse"><stop offset="0" stop-color="#606475"/><stop offset="1" stop-color="#061837"/></linearGradient><path fill="url(#e)" d="M1144.6,1363l631.4,368.3c10.6,6.1,23.6,6,34.1-0.3l261.1-157.5c9.2-5.5,9-18.8-0.2-24.2l-635.3-370.5     c-9.1-5.3-20.5-5.2-29.5,0.2l-261.8,157.9C1134.5,1342.8,1134.6,1357.2,1144.6,1363z"/><g><path fill="#3d415b" d="M1918.4,1519.8l21.3-12.9c0.7-0.4,1.7-0.5,2.4,0l23,13.3c0.8,0.4,0.8,1.5,0,2l-21.3,12.9      c-0.9,0.5-1.9,0.5-2.8,0l-22.7-13.1C1917.6,1521.4,1917.6,1520.3,1918.4,1519.8z"/><path fill="#3d415b" d="M1906.9,1513.3c-0.9,0.5-1.9,0.5-2.8,0l-22.7-13.1c-0.8-0.5-0.8-1.6,0-2.1l21.3-12.9      c0.7-0.4,1.7-0.5,2.4,0l23,13.3c0.8,0.4,0.8,1.5,0,2L1906.9,1513.3z"/><path fill="#3d415b" d="M1870,1491.7c-0.9,0.5-1.9,0.5-2.8,0l-22.7-13.1c-0.8-0.5-0.8-1.6,0-2.1l21.3-12.9c0.7-0.4,1.7-0.5,2.4,0      l23,13.3c0.8,0.4,0.8,1.5,0,2L1870,1491.7z"/><path fill="#3d415b" d="M1833,1470.1c-0.9,0.5-1.9,0.5-2.8,0l-22.7-13.1c-0.8-0.5-0.8-1.6,0-2.1l21.3-12.9c0.7-0.4,1.7-0.5,2.4,0      l23,13.3c0.8,0.4,0.8,1.5,0,2L1833,1470.1z"/><path fill="#3d415b" d="M1796,1448.5c-0.9,0.5-1.9,0.5-2.8,0l-22.7-13.1c-0.8-0.5-0.8-1.6,0-2.1l21.3-12.9c0.7-0.4,1.7-0.5,2.4,0      l23,13.3c0.8,0.4,0.8,1.5,0,2L1796,1448.5z"/><path fill="#3d415b" d="M1759,1426.8c-0.9,0.5-1.9,0.5-2.8,0l-22.7-13.1c-0.8-0.5-0.8-1.6,0-2.1l21.3-12.9c0.7-0.4,1.7-0.5,2.4,0      l23,13.3c0.8,0.4,0.8,1.5,0,2L1759,1426.8z"/><path fill="#3d415b" d="M1722,1405.2c-0.9,0.5-1.9,0.5-2.8,0l-22.7-13.1c-0.8-0.5-0.8-1.6,0-2.1l21.3-12.9c0.7-0.4,1.7-0.5,2.4,0      l23,13.3c0.8,0.4,0.8,1.5,0,2L1722,1405.2z"/><path fill="#3d415b" d="M1685,1383.6c-0.9,0.5-1.9,0.5-2.8,0l-22.7-13.1c-0.8-0.5-0.8-1.6,0-2.1l21.3-12.9c0.7-0.4,1.7-0.5,2.4,0      l23,13.3c0.8,0.4,0.8,1.5,0,2L1685,1383.6z"/><path fill="#3d415b" d="M1648.1,1361.9c-0.9,0.5-1.9,0.5-2.8,0l-22.7-13.1c-0.8-0.5-0.8-1.6,0-2.1l21.3-12.9      c0.7-0.4,1.7-0.5,2.4,0l23,13.3c0.8,0.4,0.8,1.5,0,2L1648.1,1361.9z"/><path fill="#3d415b" d="M1611.1,1340.3c-0.9,0.5-1.9,0.5-2.8,0l-22.7-13.1c-0.8-0.5-0.8-1.6,0-2.1l21.3-12.9      c0.7-0.4,1.7-0.5,2.4,0l23,13.3c0.8,0.4,0.8,1.5,0,2L1611.1,1340.3z"/><path fill="#3d415b" d="M1574.1,1318.7c-0.9,0.5-1.9,0.5-2.8,0l-22.7-13.1c-0.8-0.5-0.8-1.6,0-2.1l21.3-12.9      c0.7-0.4,1.7-0.5,2.4,0l23,13.3c0.8,0.4,0.8,1.5,0,2L1574.1,1318.7z"/><path fill="#3d415b" d="M1537.1,1297.1c-0.9,0.5-1.9,0.5-2.8,0l-22.7-13.1c-0.8-0.5-0.8-1.6,0-2.1l21.3-12.9      c0.7-0.4,1.7-0.5,2.4,0l23,13.3c0.8,0.4,0.8,1.5,0,2L1537.1,1297.1z"/><path fill="#3d415b" d="M1500.1,1275.4c-0.9,0.5-1.9,0.5-2.8,0l-22.7-13.1c-0.8-0.5-0.8-1.6,0-2.1l21.3-12.9      c0.7-0.4,1.7-0.5,2.4,0l23,13.3c0.8,0.4,0.8,1.5,0,2L1500.1,1275.4z"/><path fill="#3d415b" d="M1463.1,1253.8c-0.9,0.5-1.9,0.5-2.8,0l-22.7-13.1c-0.8-0.5-0.8-1.6,0-2.1l21.3-12.9      c0.7-0.4,1.7-0.5,2.4,0l23,13.3c0.8,0.4,0.8,1.5,0,2L1463.1,1253.8z"/><path fill="#3d415b" d="M1876,1545.3l21.3-12.9c0.7-0.4,1.7-0.5,2.4,0l23,13.3c0.8,0.4,0.8,1.5,0,2l-21.3,12.9      c-0.9,0.5-1.9,0.5-2.8,0l-22.7-13.1C1875.2,1547,1875.2,1545.8,1876,1545.3z"/><path fill="#3d415b" d="M1862.7,1510.8l23,13.3c0.8,0.4,0.8,1.5,0,2l-21.3,12.9c-0.9,0.5-1.9,0.5-2.8,0l-22.7-13.1      c-0.8-0.5-0.8-1.6,0-2.1l21.3-12.9C1861.1,1510.4,1862,1510.3,1862.7,1510.8z"/><path fill="#3d415b" d="M1824.7,1517.3l-22.7-13.1c-0.8-0.5-0.8-1.6,0-2.1l21.3-12.9c0.7-0.4,1.7-0.5,2.4,0l23,13.3      c0.8,0.4,0.8,1.5,0,2l-21.3,12.9C1826.7,1517.8,1825.6,1517.8,1824.7,1517.3z"/><path fill="#3d415b" d="M1788.8,1467.5l23,13.3c0.8,0.4,0.8,1.5,0,2l-21.3,12.9c-0.9,0.5-1.9,0.5-2.8,0l-22.7-13.1      c-0.8-0.5-0.8-1.6,0-2.1l21.3-12.9C1787.1,1467.1,1788,1467.1,1788.8,1467.5z"/><path fill="#3d415b" d="M1751.8,1445.9l23,13.3c0.8,0.4,0.8,1.5,0,2l-21.3,12.9c-0.9,0.5-1.9,0.5-2.8,0l-22.7-13.1      c-0.8-0.5-0.8-1.6,0-2.1l21.3-12.9C1750.1,1445.5,1751,1445.5,1751.8,1445.9z"/><path fill="#3d415b" d="M1714.8,1424.3l23,13.3c0.8,0.4,0.8,1.5,0,2l-21.3,12.9c-0.9,0.5-1.9,0.5-2.8,0l-22.7-13.1      c-0.8-0.5-0.8-1.6,0-2.1l21.3-12.9C1713.1,1423.8,1714.1,1423.8,1714.8,1424.3z"/><path fill="#3d415b" d="M1677.8,1402.6l23,13.3c0.8,0.4,0.8,1.5,0,2l-21.3,12.9c-0.9,0.5-1.9,0.5-2.8,0l-22.7-13.1      c-0.8-0.5-0.8-1.6,0-2.1l21.3-12.9C1676.2,1402.2,1677.1,1402.2,1677.8,1402.6z"/><path fill="#3d415b" d="M1640.8,1381l23,13.3c0.8,0.4,0.8,1.5,0,2l-21.3,12.9c-0.9,0.5-1.9,0.5-2.8,0l-22.7-13.1      c-0.8-0.5-0.8-1.6,0-2.1l21.3-12.9C1639.2,1380.6,1640.1,1380.6,1640.8,1381z"/><path fill="#3d415b" d="M1603.9,1359.4l23,13.3c0.8,0.4,0.8,1.5,0,2l-21.3,12.9c-0.9,0.5-1.9,0.5-2.8,0l-22.7-13.1      c-0.8-0.5-0.8-1.6,0-2.1l21.3-12.9C1602.2,1358.9,1603.1,1358.9,1603.9,1359.4z"/><path fill="#3d415b" d="M1566.9,1337.7l23,13.3c0.8,0.4,0.8,1.5,0,2l-21.3,12.9c-0.9,0.5-1.9,0.5-2.8,0l-22.7-13.1      c-0.8-0.5-0.8-1.6,0-2.1l21.3-12.9C1565.2,1337.3,1566.1,1337.3,1566.9,1337.7z"/><path fill="#3d415b" d="M1529.9,1316.1l23,13.3c0.8,0.4,0.8,1.5,0,2l-21.3,12.9c-0.9,0.5-1.9,0.5-2.8,0l-22.7-13.1      c-0.8-0.5-0.8-1.6,0-2.1l21.3-12.9C1528.2,1315.7,1529.2,1315.7,1529.9,1316.1z"/><path fill="#3d415b" d="M1492.9,1294.5l23,13.3c0.8,0.4,0.8,1.5,0,2l-21.3,12.9c-0.9,0.5-1.9,0.5-2.8,0l-22.7-13.1      c-0.8-0.5-0.8-1.6,0-2.1l21.3-12.9C1491.2,1294.1,1492.2,1294,1492.9,1294.5z"/><path fill="#3d415b" d="M1432.2,1285.8l21.3-12.9c0.7-0.4,1.7-0.5,2.4,0l23,13.3c0.8,0.4,0.8,1.5,0,2l-21.3,12.9      c-0.9,0.5-1.9,0.5-2.8,0l-22.7-13.1C1431.4,1287.4,1431.4,1286.3,1432.2,1285.8z"/><path fill="#3d415b" d="M1442,1266.5l-21.3,12.9c-0.9,0.5-1.9,0.5-2.8,0l-22.7-13.1c-0.8-0.5-0.8-1.6,0-2.1l21.3-12.9      c0.7-0.4,1.7-0.5,2.4,0l23,13.3C1442.7,1265,1442.7,1266,1442,1266.5z"/><path fill="#3d415b" d="M1796.6,1551.4c-0.8-0.5-0.8-1.6,0-2.1l21.3-12.9c0.7-0.4,1.7-0.5,2.4,0l8.7,5c0,0,0.1,0,0.2,0l9,5.3      l5.2,3c0,0,0,0,0,0l37,21.6c0.8,0.4,0.8,1.5,0,2l-21.3,12.9c-0.9,0.5-1.9,0.5-2.8,0l-41.7-24.4L1796.6,1551.4z"/><path fill="#3d415b" d="M1785.1,1542.9c-0.9,0.5-1.9,0.5-2.8,0l-22.7-13.1c-0.8-0.5-0.8-1.6,0-2.1l21.3-12.9      c0.7-0.4,1.7-0.5,2.4,0l23,13.3c0.8,0.4,0.8,1.5,0,2L1785.1,1542.9z"/><path fill="#3d415b" d="M1746.3,1493.1l23,13.3c0.8,0.4,0.8,1.5,0,2l-21.3,12.9c-0.9,0.5-1.9,0.5-2.8,0l-22.7-13.1      c-0.8-0.5-0.8-1.6,0-2.1l21.3-12.9C1744.7,1492.7,1745.6,1492.7,1746.3,1493.1z"/><path fill="#3d415b" d="M1709.3,1471.4l23,13.3c0.8,0.4,0.8,1.5,0,2l-21.3,12.9c-0.9,0.5-1.9,0.5-2.8,0l-22.7-13.1      c-0.8-0.5-0.8-1.6,0-2.1l21.3-12.9C1707.7,1471,1708.6,1471,1709.3,1471.4z"/><path fill="#3d415b" d="M1672.4,1449.8l23,13.3c0.8,0.4,0.8,1.5,0,2l-21.3,12.9c-0.9,0.5-1.9,0.5-2.8,0l-22.7-13.1      c-0.8-0.5-0.8-1.6,0-2.1l21.3-12.9C1670.7,1449.4,1671.6,1449.4,1672.4,1449.8z"/><path fill="#3d415b" d="M1635.4,1428.2l23,13.3c0.8,0.4,0.8,1.5,0,2l-21.3,12.9c-0.9,0.5-1.9,0.5-2.8,0l-22.7-13.1      c-0.8-0.5-0.8-1.6,0-2.1l21.3-12.9C1633.7,1427.8,1634.6,1427.8,1635.4,1428.2z"/><path fill="#3d415b" d="M1598.4,1406.6l23,13.3c0.8,0.4,0.8,1.5,0,2l-21.3,12.9c-0.9,0.5-1.9,0.5-2.8,0l-22.7-13.1      c-0.8-0.5-0.8-1.6,0-2.1l21.3-12.9C1596.7,1406.1,1597.7,1406.1,1598.4,1406.6z"/><path fill="#3d415b" d="M1561.4,1384.9l23,13.3c0.8,0.4,0.8,1.5,0,2l-21.3,12.9c-0.9,0.5-1.9,0.5-2.8,0l-22.7-13.1      c-0.8-0.5-0.8-1.6,0-2.1l21.3-12.9C1559.7,1384.5,1560.7,1384.5,1561.4,1384.9z"/><path fill="#3d415b" d="M1524.4,1363.3l23,13.3c0.8,0.4,0.8,1.5,0,2l-21.3,12.9c-0.9,0.5-1.9,0.5-2.8,0l-22.7-13.1      c-0.8-0.5-0.8-1.6,0-2.1l21.3-12.9C1522.8,1362.9,1523.7,1362.9,1524.4,1363.3z"/><path fill="#3d415b" d="M1486.4,1369.9l-22.7-13.1c-0.8-0.5-0.8-1.6,0-2.1l21.3-12.9c0.7-0.4,1.7-0.5,2.4,0l23,13.3      c0.8,0.4,0.8,1.5,0,2l-21.3,12.9C1488.4,1370.3,1487.3,1370.3,1486.4,1369.9z"/><path fill="#3d415b" d="M1448.1,1320.1c0.7-0.4,1.7-0.5,2.4,0l23,13.3c0.8,0.4,0.8,1.5,0,2l-21.3,12.9c-0.9,0.5-1.9,0.5-2.8,0      l-22.7-13.1c-0.8-0.5-0.8-1.6,0-2.1L1448.1,1320.1z"/><path fill="#3d415b" d="M1413.5,1298.4l23,13.3c0.8,0.4,0.8,1.5,0,2l-21.3,12.9c-0.9,0.5-1.9,0.5-2.8,0l-7.9-4.6      c-0.1,0-0.2,0-0.4-0.1l-51.4-30.1c-0.8-0.5-0.8-1.6,0-2.1l21.3-12.9c0.7-0.4,1.7-0.5,2.4,0L1413.5,1298.4L1413.5,1298.4z"/><path fill="#3d415b" d="M1791.1,1596.5l21.3-12.9c0.7-0.4,1.7-0.5,2.4,0l23,13.3c0.8,0.4,0.8,1.5,0,2l-21.3,12.9      c-0.9,0.5-1.9,0.5-2.8,0l-22.7-13.1C1790.3,1598.1,1790.3,1597,1791.1,1596.5z"/><path fill="#3d415b" d="M1800.9,1577.2l-21.3,12.9c-0.9,0.5-1.9,0.5-2.8,0l-22.7-13.1c-0.8-0.5-0.8-1.6,0-2.1l21.3-12.9      c0.7-0.4,1.7-0.5,2.4,0l23,13.3C1801.6,1575.7,1801.6,1576.7,1800.9,1577.2z"/><path fill="#3d415b" d="M1763.9,1555.6l-21.3,12.9c-0.9,0.5-1.9,0.5-2.8,0l-22.7-13.1c-0.8-0.5-0.8-1.6,0-2.1l21.3-12.9      c0.7-0.4,1.7-0.5,2.4,0l23,13.3C1764.6,1554,1764.6,1555.1,1763.9,1555.6z"/><path fill="#3d415b" d="M1702.9,1546.8l-22.7-13.1c-0.8-0.5-0.8-1.6,0-2.1l21.3-12.9c0.7-0.4,1.7-0.5,2.4,0l23,13.3      c0.8,0.4,0.8,1.5,0,2l-21.3,12.9C1704.8,1547.3,1703.7,1547.3,1702.9,1546.8z"/><path fill="#3d415b" d="M1665.9,1525.2l-22.7-13.1c-0.8-0.5-0.8-1.6,0-2.1l21.3-12.9c0.7-0.4,1.7-0.5,2.4,0l23,13.3      c0.8,0.4,0.8,1.5,0,2l-21.3,12.9C1667.8,1525.7,1666.7,1525.7,1665.9,1525.2z"/><path fill="#3d415b" d="M1628.9,1503.6l-22.7-13.1c-0.8-0.5-0.8-1.6,0-2.1l21.3-12.9c0.7-0.4,1.7-0.5,2.4,0l23,13.3      c0.8,0.4,0.8,1.5,0,2l-21.3,12.9C1630.8,1504,1629.8,1504.1,1628.9,1503.6z"/><path fill="#3d415b" d="M1591.9,1481.9l-22.7-13.1c-0.8-0.5-0.8-1.6,0-2.1l21.3-12.9c0.7-0.4,1.7-0.5,2.4,0l23,13.3      c0.8,0.4,0.8,1.5,0,2l-21.3,12.9C1593.8,1482.4,1592.8,1482.4,1591.9,1481.9z"/><path fill="#3d415b" d="M1554.9,1460.3l-22.7-13.1c-0.8-0.5-0.8-1.6,0-2.1l21.3-12.9c0.7-0.4,1.7-0.5,2.4,0l23,13.3      c0.8,0.4,0.8,1.5,0,2l-21.3,12.9C1556.9,1460.8,1555.8,1460.8,1554.9,1460.3z"/><path fill="#3d415b" d="M1517.9,1438.7l-22.7-13.1c-0.8-0.5-0.8-1.6,0-2.1l21.3-12.9c0.7-0.4,1.7-0.5,2.4,0l23,13.3      c0.8,0.4,0.8,1.5,0,2l-21.3,12.9C1519.9,1439.2,1518.8,1439.2,1517.9,1438.7z"/><path fill="#3d415b" d="M1481,1417.1l-22.7-13.1c-0.8-0.5-0.8-1.6,0-2.1l21.3-12.9c0.7-0.4,1.7-0.5,2.4,0l23,13.3      c0.8,0.4,0.8,1.5,0,2l-21.3,12.9C1482.9,1417.5,1481.8,1417.5,1481,1417.1z"/><path fill="#3d415b" d="M1444,1395.4l-22.7-13.1c-0.8-0.5-0.8-1.6,0-2.1l21.3-12.9c0.7-0.4,1.7-0.5,2.4,0l23,13.3      c0.8,0.4,0.8,1.5,0,2l-21.3,12.9C1445.9,1395.9,1444.8,1395.9,1444,1395.4z"/><path fill="#3d415b" d="M1408,1345.6l23,13.3c0.8,0.4,0.8,1.5,0,2l-21.3,12.9c-0.9,0.5-1.9,0.5-2.8,0l-22.7-13.1      c-0.8-0.5-0.8-1.6,0-2.1l21.3-12.9C1406.4,1345.2,1407.3,1345.2,1408,1345.6z"/><path fill="#3d415b" d="M1370,1352.2l-22.7-13.1c-0.8-0.5-0.8-1.6,0-2.1l21.3-12.9c0.7-0.4,1.7-0.5,2.4,0l23,13.3      c0.8,0.4,0.8,1.5,0,2l-21.3,12.9C1371.9,1352.6,1370.9,1352.7,1370,1352.2z"/><path fill="#3d415b" d="M1357.1,1317.6l-21.3,12.9c-0.9,0.5-1.9,0.5-2.8,0l-22.7-13.1c-0.8-0.5-0.8-1.6,0-2.1l21.3-12.9      c0.7-0.4,1.7-0.5,2.4,0l23,13.3C1357.8,1316.1,1357.8,1317.2,1357.1,1317.6z"/><path fill="#3d415b" d="M1748.7,1622l21.3-12.9c0.7-0.4,1.7-0.5,2.4,0l23,13.3c0.8,0.4,0.8,1.5,0,2l-21.3,12.9      c-0.9,0.5-1.9,0.5-2.8,0l-22.7-13.1C1747.9,1623.7,1747.9,1622.5,1748.7,1622z"/><path fill="#3d415b" d="M1737.2,1615.6c-0.9,0.5-1.9,0.5-2.8,0l-22.7-13.1c-0.8-0.5-0.8-1.6,0-2.1l21.3-12.9      c0.7-0.4,1.7-0.5,2.4,0l23,13.3c0.8,0.4,0.8,1.5,0,2L1737.2,1615.6z"/><path fill="#3d415b" d="M1697.4,1594l-22.7-13.1c-0.8-0.5-0.8-1.6,0-2.1l21.3-12.9c0.7-0.4,1.7-0.5,2.4,0l23,13.3      c0.8,0.4,0.8,1.5,0,2l-21.3,12.9C1699.3,1594.5,1698.3,1594.5,1697.4,1594z"/><path fill="#3d415b" d="M1660.4,1572.4l-22.7-13.1c-0.8-0.5-0.8-1.6,0-2.1l21.3-12.9c0.7-0.4,1.7-0.5,2.4,0l23,13.3      c0.8,0.4,0.8,1.5,0,2l-21.3,12.9C1662.3,1572.9,1661.3,1572.9,1660.4,1572.4z"/><path fill="#3d415b" d="M1623.4,1550.8l-22.7-13.1c-0.8-0.5-0.8-1.6,0-2.1l21.3-12.9c0.7-0.4,1.7-0.5,2.4,0l23,13.3      c0.8,0.4,0.8,1.5,0,2l-21.3,12.9C1625.4,1551.2,1624.3,1551.3,1623.4,1550.8z"/><path fill="#3d415b" d="M1586.4,1529.1l-22.7-13.1c-0.8-0.5-0.8-1.6,0-2.1l21.3-12.9c0.7-0.4,1.7-0.5,2.4,0l23,13.3      c0.8,0.4,0.8,1.5,0,2l-21.3,12.9C1588.4,1529.6,1587.3,1529.6,1586.4,1529.1z"/><path fill="#3d415b" d="M1549.5,1507.5l-22.7-13.1c-0.8-0.5-0.8-1.6,0-2.1l21.3-12.9c0.7-0.4,1.7-0.5,2.4,0l23,13.3      c0.8,0.4,0.8,1.5,0,2l-21.3,12.9C1551.4,1508,1550.3,1508,1549.5,1507.5z"/><path fill="#3d415b" d="M1512.5,1485.9l-22.7-13.1c-0.8-0.5-0.8-1.6,0-2.1l21.3-12.9c0.7-0.4,1.7-0.5,2.4,0l23,13.3      c0.8,0.4,0.8,1.5,0,2l-21.3,12.9C1514.4,1486.4,1513.3,1486.4,1512.5,1485.9z"/><path fill="#3d415b" d="M1475.5,1464.2l-22.7-13.1c-0.8-0.5-0.8-1.6,0-2.1l21.3-12.9c0.7-0.4,1.7-0.5,2.4,0l23,13.3      c0.8,0.4,0.8,1.5,0,2l-21.3,12.9C1477.4,1464.7,1476.4,1464.7,1475.5,1464.2z"/><path fill="#3d415b" d="M1438.5,1442.6l-22.7-13.1c-0.8-0.5-0.8-1.6,0-2.1l21.3-12.9c0.7-0.4,1.7-0.5,2.4,0l23,13.3      c0.8,0.4,0.8,1.5,0,2l-21.3,12.9C1440.4,1443.1,1439.4,1443.1,1438.5,1442.6z"/><path fill="#3d415b" d="M1401.5,1421l-22.7-13.1c-0.8-0.5-0.8-1.6,0-2.1l21.3-12.9c0.7-0.4,1.7-0.5,2.4,0l23,13.3      c0.8,0.4,0.8,1.5,0,2l-21.3,12.9C1403.5,1421.5,1402.4,1421.5,1401.5,1421z"/><path fill="#3d415b" d="M1364.6,1399.4l-22.7-13.1c-0.8-0.5-0.8-1.6,0-2.1l21.3-12.9c0.7-0.4,1.7-0.5,2.4,0l23,13.3      c0.8,0.4,0.8,1.5,0,2l-21.3,12.9C1366.5,1399.8,1365.4,1399.9,1364.6,1399.4z"/><path fill="#3d415b" d="M1327.6,1377.7l-22.7-13.1c-0.8-0.5-0.8-1.6,0-2.1l21.3-12.9c0.7-0.4,1.7-0.5,2.4,0l23,13.3      c0.8,0.4,0.8,1.5,0,2l-21.3,12.9C1329.5,1378.2,1328.4,1378.2,1327.6,1377.7z"/><path fill="#3d415b" d="M1314.6,1343.2l-21.3,12.9c-0.9,0.5-1.9,0.5-2.8,0l-22.7-13.1c-0.8-0.5-0.8-1.6,0-2.1l21.3-12.9      c0.7-0.4,1.7-0.5,2.4,0l23,13.3C1315.4,1341.7,1315.4,1342.7,1314.6,1343.2z"/><path fill="#3d415b" d="M1727.5,1634.7c0.7-0.4,1.7-0.5,2.4,0l23,13.3c0.8,0.4,0.8,1.5,0,2l-21.3,12.9c-0.9,0.5-1.9,0.5-2.8,0      l-22.7-13.1c-0.8-0.5-0.8-1.6,0-2.1L1727.5,1634.7z"/><path fill="#3d415b" d="M1690.6,1613.1c0.7-0.4,1.7-0.5,2.4,0l23,13.3c0.8,0.4,0.8,1.5,0,2l-21.3,12.9c-0.9,0.5-1.9,0.5-2.8,0      l-22.7-13.1c-0.8-0.5-0.8-1.6,0-2.1L1690.6,1613.1z"/><path fill="#3d415b" d="M1653.6,1591.4c0.7-0.4,1.7-0.5,2.4,0l23,13.3c0.8,0.4,0.8,1.5,0,2l-21.3,12.9c-0.9,0.5-1.9,0.5-2.8,0      l-22.7-13.1c-0.8-0.5-0.8-1.6,0-2.1L1653.6,1591.4z"/><path fill="#3d415b" d="M1616.6,1569.8c0.7-0.4,1.7-0.5,2.4,0l23,13.3c0.8,0.4,0.8,1.5,0,2l-21.3,12.9c-0.9,0.5-1.9,0.5-2.8,0      l-22.7-13.1c-0.8-0.5-0.8-1.6,0-2.1L1616.6,1569.8z"/><path fill="#3d415b" d="M1431.7,1461.7c0.7-0.4,1.7-0.5,2.4,0l11.2,6.5c0.5-0.1,1,0,1.4,0.2l158.3,93.1c0.8,0.4,0.8,1.5,0,2      l-21.3,12.9c-0.9,0.5-1.9,0.5-2.8,0l-36.6-21.5c-0.1,0-0.3,0-0.4-0.1l-22.7-13.1c-0.2-0.1-0.2-0.3-0.3-0.5l-13.3-7.8      c-0.2-0.1-0.5-0.1-0.7-0.2l-22.7-13.1c-0.3-0.2-0.3-0.4-0.4-0.7l-12.8-7.5c-0.4,0-0.8-0.1-1.1-0.3l-22.7-13.1      c-0.3-0.2-0.5-0.5-0.5-0.9l-12.4-7.3c-0.5,0-1-0.1-1.4-0.4l-22.7-13.1c-0.8-0.5-0.8-1.6,0-2.1L1431.7,1461.7z"/><path fill="#3d415b" d="M1394.7,1440c0.7-0.4,1.7-0.5,2.4,0l23,13.3c0.8,0.4,0.8,1.5,0,2l-21.3,12.9c-0.9,0.5-1.9,0.5-2.8,0      l-22.7-13.1c-0.8-0.5-0.8-1.6,0-2.1L1394.7,1440z"/><path fill="#3d415b" d="M1357.7,1418.4c0.7-0.4,1.7-0.5,2.4,0l23,13.3c0.8,0.4,0.8,1.5,0,2l-21.3,12.9c-0.9,0.5-1.9,0.5-2.8,0      l-22.7-13.1c-0.8-0.5-0.8-1.6,0-2.1L1357.7,1418.4z"/><path fill="#3d415b" d="M1320.7,1396.8c0.7-0.4,1.7-0.5,2.4,0l23,13.3c0.8,0.4,0.8,1.5,0,2l-21.3,12.9c-0.9,0.5-1.9,0.5-2.8,0      l-22.7-13.1c-0.8-0.5-0.8-1.6,0-2.1L1320.7,1396.8z"/><path fill="#3d415b" d="M1283.7,1375.1c0.7-0.4,1.7-0.5,2.4,0l23,13.3c0.8,0.4,0.8,1.5,0,2l-21.3,12.9c-0.9,0.5-1.9,0.5-2.8,0      l-22.7-13.1c-0.8-0.5-0.8-1.6,0-2.1L1283.7,1375.1z"/><path fill="#3d415b" d="M1225.4,1366.4l21.3-12.9c0.7-0.4,1.7-0.5,2.4,0l23,13.3c0.8,0.4,0.8,1.5,0,2l-21.3,12.9      c-0.9,0.5-1.9,0.5-2.8,0l-22.7-13.1C1224.6,1368.1,1224.6,1366.9,1225.4,1366.4z"/></g><g><path fill="#82859a" d="M1918.5,1517.5l22.7,13.1c0.9,0.5,1.9,0.5,2.8,0l21.3-12.9c0.7-0.5,0.7-1.5,0-2l-23-13.3       c-0.7-0.4-1.7-0.4-2.4,0l-21.3,12.9C1917.6,1515.8,1917.6,1517,1918.5,1517.5z"/><path fill="#82859a" d="M1881.5,1495.8l22.7,13.1c0.9,0.5,1.9,0.5,2.8,0l21.3-12.9c0.7-0.5,0.7-1.5,0-2l-23-13.3       c-0.7-0.4-1.7-0.4-2.4,0l-21.3,12.9C1880.7,1494.2,1880.7,1495.4,1881.5,1495.8z"/><path fill="#82859a" d="M1844.5,1474.2l22.7,13.1c0.9,0.5,1.9,0.5,2.8,0l21.3-12.9c0.7-0.5,0.7-1.5,0-2l-23-13.3       c-0.7-0.4-1.7-0.4-2.4,0l-21.3,12.9C1843.7,1472.6,1843.7,1473.7,1844.5,1474.2z"/><path fill="#82859a" d="M1807.5,1452.6l22.7,13.1c0.9,0.5,1.9,0.5,2.8,0l21.3-12.9c0.7-0.5,0.7-1.5,0-2l-23-13.3       c-0.7-0.4-1.7-0.4-2.4,0l-21.3,12.9C1806.7,1450.9,1806.7,1452.1,1807.5,1452.6z"/><path fill="#82859a" d="M1770.5,1430.9l22.7,13.1c0.9,0.5,1.9,0.5,2.8,0l21.3-12.9c0.7-0.5,0.7-1.5,0-2l-23-13.3       c-0.7-0.4-1.7-0.4-2.4,0l-21.3,12.9C1769.7,1429.3,1769.7,1430.5,1770.5,1430.9z"/><path fill="#82859a" d="M1733.5,1409.3l22.7,13.1c0.9,0.5,1.9,0.5,2.8,0l21.3-12.9c0.7-0.5,0.7-1.5,0-2l-23-13.3       c-0.7-0.4-1.7-0.4-2.4,0l-21.3,12.9C1732.7,1407.7,1732.7,1408.8,1733.5,1409.3z"/><path fill="#82859a" d="M1696.6,1387.7l22.7,13.1c0.9,0.5,1.9,0.5,2.8,0l21.3-12.9c0.7-0.5,0.7-1.5,0-2l-23-13.3       c-0.7-0.4-1.7-0.4-2.4,0l-21.3,12.9C1695.7,1386,1695.7,1387.2,1696.6,1387.7z"/><path fill="#82859a" d="M1659.6,1366l22.7,13.1c0.9,0.5,1.9,0.5,2.8,0l21.3-12.9c0.7-0.5,0.7-1.5,0-2l-23-13.3       c-0.7-0.4-1.7-0.4-2.4,0l-21.3,12.9C1658.8,1364.4,1658.8,1365.6,1659.6,1366z"/><path fill="#82859a" d="M1622.6,1344.4l22.7,13.1c0.9,0.5,1.9,0.5,2.8,0l21.3-12.9c0.7-0.5,0.7-1.5,0-2l-23-13.3       c-0.7-0.4-1.7-0.4-2.4,0l-21.3,12.9C1621.8,1342.8,1621.8,1343.9,1622.6,1344.4z"/><path fill="#82859a" d="M1585.6,1322.8l22.7,13.1c0.9,0.5,1.9,0.5,2.8,0l21.3-12.9c0.7-0.5,0.7-1.5,0-2l-23-13.3       c-0.7-0.4-1.7-0.4-2.4,0l-21.3,12.9C1584.8,1321.2,1584.8,1322.3,1585.6,1322.8z"/><path fill="#82859a" d="M1548.6,1301.2l22.7,13.1c0.9,0.5,1.9,0.5,2.8,0l21.3-12.9c0.7-0.5,0.7-1.5,0-2l-23-13.3       c-0.7-0.4-1.7-0.4-2.4,0l-21.3,12.9C1547.8,1299.5,1547.8,1300.7,1548.6,1301.2z"/><path fill="#82859a" d="M1511.6,1279.5l22.7,13.1c0.9,0.5,1.9,0.5,2.8,0l21.3-12.9c0.7-0.5,0.7-1.5,0-2l-23-13.3       c-0.7-0.4-1.7-0.4-2.4,0l-21.3,12.9C1510.8,1277.9,1510.8,1279.1,1511.6,1279.5z"/><path fill="#82859a" d="M1474.7,1257.9l22.7,13.1c0.9,0.5,1.9,0.5,2.8,0l21.3-12.9c0.7-0.5,0.7-1.5,0-2l-23-13.3       c-0.7-0.4-1.7-0.4-2.4,0l-21.3,12.9C1473.8,1256.3,1473.8,1257.4,1474.7,1257.9z"/><path fill="#82859a" d="M1437.7,1236.3l22.7,13.1c0.9,0.5,1.9,0.5,2.8,0l21.3-12.9c0.7-0.5,0.7-1.5,0-2l-23-13.3       c-0.7-0.4-1.7-0.4-2.4,0l-21.3,12.9C1436.9,1234.6,1436.9,1235.8,1437.7,1236.3z"/><g><path fill="#82859a" d="M1876,1543l22.7,13.1c0.9,0.5,1.9,0.5,2.8,0l21.3-12.9c0.7-0.5,0.7-1.5,0-2l-23-13.3       c-0.7-0.4-1.7-0.4-2.4,0l-21.3,12.9C1875.2,1541.4,1875.2,1542.6,1876,1543z"/><path fill="#82859a" d="M1839,1521.4l22.7,13.1c0.9,0.5,1.9,0.5,2.8,0l21.3-12.9c0.7-0.5,0.7-1.5,0-2l-23-13.3       c-0.7-0.4-1.7-0.4-2.4,0l-21.3,12.9C1838.2,1519.8,1838.2,1520.9,1839,1521.4z"/><path fill="#82859a" d="M1802,1499.8l22.7,13.1c0.9,0.5,1.9,0.5,2.8,0l21.3-12.9c0.7-0.5,0.7-1.5,0-2l-23-13.3       c-0.7-0.4-1.7-0.4-2.4,0l-21.3,12.9C1801.2,1498.1,1801.2,1499.3,1802,1499.8z"/><path fill="#82859a" d="M1765.1,1478.1l22.7,13.1c0.9,0.5,1.9,0.5,2.8,0l21.3-12.9c0.7-0.5,0.7-1.5,0-2l-23-13.3       c-0.7-0.4-1.7-0.4-2.4,0L1765,1476C1764.2,1476.5,1764.2,1477.7,1765.1,1478.1z"/><path fill="#82859a" d="M1728.1,1456.5l22.7,13.1c0.9,0.5,1.9,0.5,2.8,0l21.3-12.9c0.7-0.5,0.7-1.5,0-2l-23-13.3       c-0.7-0.4-1.7-0.4-2.4,0l-21.3,12.9C1727.3,1454.9,1727.3,1456,1728.1,1456.5z"/><path fill="#82859a" d="M1691.1,1434.9l22.7,13.1c0.9,0.5,1.9,0.5,2.8,0l21.3-12.9c0.7-0.5,0.7-1.5,0-2l-23-13.3       c-0.7-0.4-1.7-0.4-2.4,0l-21.3,12.9C1690.3,1433.2,1690.3,1434.4,1691.1,1434.9z"/><path fill="#82859a" d="M1654.1,1413.2l22.7,13.1c0.9,0.5,1.9,0.5,2.8,0l21.3-12.9c0.7-0.5,0.7-1.5,0-2l-23-13.3       c-0.7-0.4-1.7-0.4-2.4,0l-21.3,12.9C1653.3,1411.6,1653.3,1412.8,1654.1,1413.2z"/><path fill="#82859a" d="M1617.1,1391.6l22.7,13.1c0.9,0.5,1.9,0.5,2.8,0l21.3-12.9c0.7-0.5,0.7-1.5,0-2l-23-13.3       c-0.7-0.4-1.7-0.4-2.4,0l-21.3,12.9C1616.3,1390,1616.3,1391.1,1617.1,1391.6z"/><path fill="#82859a" d="M1580.1,1370l22.7,13.1c0.9,0.5,1.9,0.5,2.8,0l21.3-12.9c0.7-0.5,0.7-1.5,0-2l-23-13.3       c-0.7-0.4-1.7-0.4-2.4,0l-21.3,12.9C1579.3,1368.4,1579.3,1369.5,1580.1,1370z"/><path fill="#82859a" d="M1543.2,1348.3l22.7,13.1c0.9,0.5,1.9,0.5,2.8,0l21.3-12.9c0.7-0.5,0.7-1.5,0-2l-23-13.3       c-0.7-0.4-1.7-0.4-2.4,0l-21.3,12.9C1542.3,1346.7,1542.4,1347.9,1543.2,1348.3z"/><path fill="#82859a" d="M1506.2,1326.7l22.7,13.1c0.9,0.5,1.9,0.5,2.8,0l21.3-12.9c0.7-0.5,0.7-1.5,0-2l-23-13.3       c-0.7-0.4-1.7-0.4-2.4,0l-21.3,12.9C1505.4,1325.1,1505.4,1326.3,1506.2,1326.7z"/><path fill="#82859a" d="M1469.2,1305.1l22.7,13.1c0.9,0.5,1.9,0.5,2.8,0l21.3-12.9c0.7-0.5,0.7-1.5,0-2l-23-13.3       c-0.7-0.4-1.7-0.4-2.4,0l-21.3,12.9C1468.4,1303.5,1468.4,1304.6,1469.2,1305.1z"/><path fill="#82859a" d="M1432.2,1283.5l22.7,13.1c0.9,0.5,1.9,0.5,2.8,0l21.3-12.9c0.7-0.5,0.7-1.5,0-2l-23-13.3       c-0.7-0.4-1.7-0.4-2.4,0l-21.3,12.9C1431.4,1281.8,1431.4,1283,1432.2,1283.5z"/><path fill="#82859a" d="M1395.2,1261.8l22.7,13.1c0.9,0.5,1.9,0.5,2.8,0l21.3-12.9c0.7-0.5,0.7-1.5,0-2l-23-13.3       c-0.7-0.4-1.7-0.4-2.4,0l-21.3,12.9C1394.4,1260.2,1394.4,1261.4,1395.2,1261.8z"/></g><g><path fill="#82859a" d="M1805.4,1552l50.8,29.7c0.9,0.5,1.9,0.5,2.8,0l21.3-12.9c0.7-0.5,0.7-1.5,0-2l-51.1-29.9       c-0.7-0.4-1.7-0.4-2.4,0l-21.3,12.9C1804.6,1550.4,1804.6,1551.6,1805.4,1552z"/><path fill="#82859a" d="M1796.6,1547l22.7,13.1c0.9,0.5,1.9,0.5,2.8,0l21.3-12.9c0.7-0.5,0.7-1.5,0-2l-23-13.3       c-0.7-0.4-1.7-0.4-2.4,0l-21.3,12.9C1795.8,1545.3,1795.8,1546.5,1796.6,1547z"/><path fill="#82859a" d="M1759.6,1525.3l22.7,13.1c0.9,0.5,1.9,0.5,2.8,0l21.3-12.9c0.7-0.5,0.7-1.5,0-2l-23-13.3       c-0.7-0.4-1.7-0.4-2.4,0l-21.3,12.9C1758.8,1523.7,1758.8,1524.9,1759.6,1525.3z"/><path fill="#82859a" d="M1722.6,1503.7l22.7,13.1c0.9,0.5,1.9,0.5,2.8,0l21.3-12.9c0.7-0.5,0.7-1.5,0-2l-23-13.3       c-0.7-0.4-1.7-0.4-2.4,0l-21.3,12.9C1721.8,1502.1,1721.8,1503.2,1722.6,1503.7z"/><path fill="#82859a" d="M1685.6,1482.1l22.7,13.1c0.9,0.5,1.9,0.5,2.8,0l21.3-12.9c0.7-0.5,0.7-1.5,0-2l-23-13.3       c-0.7-0.4-1.7-0.4-2.4,0l-21.3,12.9C1684.8,1480.4,1684.8,1481.6,1685.6,1482.1z"/><path fill="#82859a" d="M1648.6,1460.4l22.7,13.1c0.9,0.5,1.9,0.5,2.8,0l21.3-12.9c0.7-0.5,0.7-1.5,0-2l-23-13.3       c-0.7-0.4-1.7-0.4-2.4,0l-21.3,12.9C1647.8,1458.8,1647.8,1460,1648.6,1460.4z"/><path fill="#82859a" d="M1611.7,1438.8l22.7,13.1c0.9,0.5,1.9,0.5,2.8,0l21.3-12.9c0.7-0.5,0.7-1.5,0-2l-23-13.3       c-0.7-0.4-1.7-0.4-2.4,0l-21.3,12.9C1610.8,1437.2,1610.9,1438.3,1611.7,1438.8z"/><path fill="#82859a" d="M1574.7,1417.2l22.7,13.1c0.9,0.5,1.9,0.5,2.8,0l21.3-12.9c0.7-0.5,0.7-1.5,0-2l-23-13.3       c-0.7-0.4-1.7-0.4-2.4,0l-21.3,12.9C1573.9,1415.6,1573.9,1416.7,1574.7,1417.2z"/><path fill="#82859a" d="M1537.7,1395.5l22.7,13.1c0.9,0.5,1.9,0.5,2.8,0l21.3-12.9c0.7-0.5,0.7-1.5,0-2l-23-13.3       c-0.7-0.4-1.7-0.4-2.4,0l-21.3,12.9C1536.9,1393.9,1536.9,1395.1,1537.7,1395.5z"/><path fill="#82859a" d="M1500.7,1373.9l22.7,13.1c0.9,0.5,1.9,0.5,2.8,0l21.3-12.9c0.7-0.5,0.7-1.5,0-2l-23-13.3       c-0.7-0.4-1.7-0.4-2.4,0l-21.3,12.9C1499.9,1372.3,1499.9,1373.5,1500.7,1373.9z"/><path fill="#82859a" d="M1463.7,1352.3l22.7,13.1c0.9,0.5,1.9,0.5,2.8,0l21.3-12.9c0.7-0.5,0.7-1.5,0-2l-23-13.3       c-0.7-0.4-1.7-0.4-2.4,0l-21.3,12.9C1462.9,1350.7,1462.9,1351.8,1463.7,1352.3z"/><path fill="#82859a" d="M1426.8,1330.7l22.7,13.1c0.9,0.5,1.9,0.5,2.8,0l21.3-12.9c0.7-0.5,0.7-1.5,0-2l-23-13.3       c-0.7-0.4-1.7-0.4-2.4,0l-21.3,12.9C1425.9,1329,1425.9,1330.2,1426.8,1330.7z"/><path fill="#82859a" d="M1389.8,1309l22.7,13.1c0.9,0.5,1.9,0.5,2.8,0l21.3-12.9c0.7-0.5,0.7-1.5,0-2l-23-13.3       c-0.7-0.4-1.7-0.4-2.4,0l-21.3,12.9C1388.9,1307.4,1389,1308.6,1389.8,1309z"/><path fill="#82859a" d="M1352.8,1287.4l51.4,30.1c0.9,0.5,1.9,0.5,2.8,0l21.3-12.9c0.7-0.5,0.7-1.5,0-2l-51.7-30.3       c-0.7-0.4-1.7-0.4-2.4,0l-21.3,12.9C1352,1285.8,1352,1286.9,1352.8,1287.4z"/></g><g><path fill="#82859a" d="M1791.1,1594.2l22.7,13.1c0.9,0.5,1.9,0.5,2.8,0l21.3-12.9c0.7-0.5,0.7-1.5,0-2l-23-13.3       c-0.7-0.4-1.7-0.4-2.4,0l-21.3,12.9C1790.3,1592.5,1790.3,1593.7,1791.1,1594.2z"/><path fill="#82859a" d="M1754.1,1572.5l22.7,13.1c0.9,0.5,1.9,0.5,2.8,0l21.3-12.9c0.7-0.5,0.7-1.5,0-2l-23-13.3       c-0.7-0.4-1.7-0.4-2.4,0l-21.3,12.9C1753.3,1570.9,1753.3,1572.1,1754.1,1572.5z"/><path fill="#82859a" d="M1717.2,1550.9l22.7,13.1c0.9,0.5,1.9,0.5,2.8,0l21.3-12.9c0.7-0.5,0.7-1.5,0-2l-23-13.3       c-0.7-0.4-1.7-0.4-2.4,0l-21.3,12.9C1716.3,1549.3,1716.3,1550.4,1717.2,1550.9z"/><path fill="#82859a" d="M1680.2,1529.3l22.7,13.1c0.9,0.5,1.9,0.5,2.8,0l21.3-12.9c0.7-0.5,0.7-1.5,0-2l-23-13.3       c-0.7-0.4-1.7-0.4-2.4,0l-21.3,12.9C1679.3,1527.6,1679.4,1528.8,1680.2,1529.3z"/><path fill="#82859a" d="M1643.2,1507.6l22.7,13.1c0.9,0.5,1.9,0.5,2.8,0l21.3-12.9c0.7-0.5,0.7-1.5,0-2l-23-13.3       c-0.7-0.4-1.7-0.4-2.4,0l-21.3,12.9C1642.4,1506,1642.4,1507.2,1643.2,1507.6z"/><path fill="#82859a" d="M1606.2,1486l22.7,13.1c0.9,0.5,1.9,0.5,2.8,0l21.3-12.9c0.7-0.5,0.7-1.5,0-2l-23-13.3       c-0.7-0.4-1.7-0.4-2.4,0l-21.3,12.9C1605.4,1484.4,1605.4,1485.5,1606.2,1486z"/><path fill="#82859a" d="M1569.2,1464.4l22.7,13.1c0.9,0.5,1.9,0.5,2.8,0l21.3-12.9c0.7-0.5,0.7-1.5,0-2l-23-13.3       c-0.7-0.4-1.7-0.4-2.4,0l-21.3,12.9C1568.4,1462.7,1568.4,1463.9,1569.2,1464.4z"/><path fill="#82859a" d="M1532.2,1442.7l22.7,13.1c0.9,0.5,1.9,0.5,2.8,0l21.3-12.9c0.7-0.5,0.7-1.5,0-2l-23-13.3       c-0.7-0.4-1.7-0.4-2.4,0l-21.3,12.9C1531.4,1441.1,1531.4,1442.3,1532.2,1442.7z"/><path fill="#82859a" d="M1495.3,1421.1l22.7,13.1c0.9,0.5,1.9,0.5,2.8,0l21.3-12.9c0.7-0.5,0.7-1.5,0-2l-23-13.3       c-0.7-0.4-1.7-0.4-2.4,0l-21.3,12.9C1494.4,1419.5,1494.4,1420.7,1495.3,1421.1z"/><path fill="#82859a" d="M1458.3,1399.5l22.7,13.1c0.9,0.5,1.9,0.5,2.8,0l21.3-12.9c0.7-0.5,0.7-1.5,0-2l-23-13.3       c-0.7-0.4-1.7-0.4-2.4,0l-21.3,12.9C1457.4,1397.9,1457.5,1399,1458.3,1399.5z"/><path fill="#82859a" d="M1421.3,1377.9l22.7,13.1c0.9,0.5,1.9,0.5,2.8,0l21.3-12.9c0.7-0.5,0.7-1.5,0-2l-23-13.3       c-0.7-0.4-1.7-0.4-2.4,0l-21.3,12.9C1420.5,1376.2,1420.5,1377.4,1421.3,1377.9z"/><path fill="#82859a" d="M1384.3,1356.2l22.7,13.1c0.9,0.5,1.9,0.5,2.8,0l21.3-12.9c0.7-0.5,0.7-1.5,0-2l-23-13.3       c-0.7-0.4-1.7-0.4-2.4,0l-21.3,12.9C1383.5,1354.6,1383.5,1355.8,1384.3,1356.2z"/><path fill="#82859a" d="M1347.3,1334.6l22.7,13.1c0.9,0.5,1.9,0.5,2.8,0l21.3-12.9c0.7-0.5,0.7-1.5,0-2l-23-13.3       c-0.7-0.4-1.7-0.4-2.4,0l-21.3,12.9C1346.5,1333,1346.5,1334.1,1347.3,1334.6z"/><path fill="#82859a" d="M1310.3,1313l22.7,13.1c0.9,0.5,1.9,0.5,2.8,0l21.3-12.9c0.7-0.5,0.7-1.5,0-2l-23-13.3       c-0.7-0.4-1.7-0.4-2.4,0l-21.3,12.9C1309.5,1311.3,1309.5,1312.5,1310.3,1313z"/></g><g><path fill="#82859a" d="M1748.7,1619.7l22.7,13.1c0.9,0.5,1.9,0.5,2.8,0l21.3-12.9c0.7-0.5,0.7-1.5,0-2l-23-13.3       c-0.7-0.4-1.7-0.4-2.4,0l-21.3,12.9C1747.9,1618.1,1747.9,1619.3,1748.7,1619.7z"/><path fill="#82859a" d="M1711.7,1598.1l22.7,13.1c0.9,0.5,1.9,0.5,2.8,0l21.3-12.9c0.7-0.5,0.7-1.5,0-2l-23-13.3       c-0.7-0.4-1.7-0.4-2.4,0l-21.3,12.9C1710.9,1596.5,1710.9,1597.6,1711.7,1598.1z"/><path fill="#82859a" d="M1674.7,1576.5l22.7,13.1c0.9,0.5,1.9,0.5,2.8,0l21.3-12.9c0.7-0.5,0.7-1.5,0-2l-23-13.3       c-0.7-0.4-1.7-0.4-2.4,0l-21.3,12.9C1673.9,1574.8,1673.9,1576,1674.7,1576.5z"/><path fill="#82859a" d="M1637.7,1554.8l22.7,13.1c0.9,0.5,1.9,0.5,2.8,0l21.3-12.9c0.7-0.5,0.7-1.5,0-2l-23-13.3       c-0.7-0.4-1.7-0.4-2.4,0l-21.3,12.9C1636.9,1553.2,1636.9,1554.4,1637.7,1554.8z"/><path fill="#82859a" d="M1600.7,1533.2l22.7,13.1c0.9,0.5,1.9,0.5,2.8,0l21.3-12.9c0.7-0.5,0.7-1.5,0-2l-23-13.3       c-0.7-0.4-1.7-0.4-2.4,0l-21.3,12.9C1599.9,1531.6,1599.9,1532.7,1600.7,1533.2z"/><path fill="#82859a" d="M1563.8,1511.6l22.7,13.1c0.9,0.5,1.9,0.5,2.8,0l21.3-12.9c0.7-0.5,0.7-1.5,0-2l-23-13.3       c-0.7-0.4-1.7-0.4-2.4,0l-21.3,12.9C1562.9,1509.9,1562.9,1511.1,1563.8,1511.6z"/><path fill="#82859a" d="M1526.8,1489.9l22.7,13.1c0.9,0.5,1.9,0.5,2.8,0l21.3-12.9c0.7-0.5,0.7-1.5,0-2l-23-13.3       c-0.7-0.4-1.7-0.4-2.4,0l-21.3,12.9C1526,1488.3,1526,1489.5,1526.8,1489.9z"/><path fill="#82859a" d="M1489.8,1468.3l22.7,13.1c0.9,0.5,1.9,0.5,2.8,0l21.3-12.9c0.7-0.5,0.7-1.5,0-2l-23-13.3       c-0.7-0.4-1.7-0.4-2.4,0l-21.3,12.9C1489,1466.7,1489,1467.8,1489.8,1468.3z"/><path fill="#82859a" d="M1452.8,1446.7l22.7,13.1c0.9,0.5,1.9,0.5,2.8,0l21.3-12.9c0.7-0.5,0.7-1.5,0-2l-23-13.3       c-0.7-0.4-1.7-0.4-2.4,0l-21.3,12.9C1452,1445.1,1452,1446.2,1452.8,1446.7z"/><path fill="#82859a" d="M1415.8,1425.1l22.7,13.1c0.9,0.5,1.9,0.5,2.8,0l21.3-12.9c0.7-0.5,0.7-1.5,0-2l-23-13.3       c-0.7-0.4-1.7-0.4-2.4,0l-21.3,12.9C1415,1423.4,1415,1424.6,1415.8,1425.1z"/><path fill="#82859a" d="M1378.8,1403.4l22.7,13.1c0.9,0.5,1.9,0.5,2.8,0l21.3-12.9c0.7-0.5,0.7-1.5,0-2l-23-13.3       c-0.7-0.4-1.7-0.4-2.4,0l-21.3,12.9C1378,1401.8,1378,1403,1378.8,1403.4z"/><path fill="#82859a" d="M1341.9,1381.8l22.7,13.1c0.9,0.5,1.9,0.5,2.8,0l21.3-12.9c0.7-0.5,0.7-1.5,0-2l-23-13.3       c-0.7-0.4-1.7-0.4-2.4,0l-21.3,12.9C1341,1380.2,1341,1381.3,1341.9,1381.8z"/><path fill="#82859a" d="M1304.9,1360.2l22.7,13.1c0.9,0.5,1.9,0.5,2.8,0l21.3-12.9c0.7-0.5,0.7-1.5,0-2l-23-13.3       c-0.7-0.4-1.7-0.4-2.4,0l-21.3,12.9C1304.1,1358.5,1304.1,1359.7,1304.9,1360.2z"/><path fill="#82859a" d="M1267.9,1338.5l22.7,13.1c0.9,0.5,1.9,0.5,2.8,0l21.3-12.9c0.7-0.5,0.7-1.5,0-2l-23-13.3       c-0.7-0.4-1.7-0.4-2.4,0l-21.3,12.9C1267.1,1336.9,1267.1,1338.1,1267.9,1338.5z"/></g><g><path fill="#82859a" d="M1706.2,1645.3l22.7,13.1c0.9,0.5,1.9,0.5,2.8,0l21.3-12.9c0.7-0.5,0.7-1.5,0-2l-23-13.3       c-0.7-0.4-1.7-0.4-2.4,0l-21.3,12.9C1705.4,1643.7,1705.4,1644.8,1706.2,1645.3z"/><path fill="#82859a" d="M1669.2,1623.7l22.7,13.1c0.9,0.5,1.9,0.5,2.8,0l21.3-12.9c0.7-0.5,0.7-1.5,0-2l-23-13.3       c-0.7-0.4-1.7-0.4-2.4,0l-21.3,12.9C1668.4,1622,1668.4,1623.2,1669.2,1623.7z"/><path fill="#82859a" d="M1632.3,1602l22.7,13.1c0.9,0.5,1.9,0.5,2.8,0l21.3-12.9c0.7-0.5,0.7-1.5,0-2l-23-13.3       c-0.7-0.4-1.7-0.4-2.4,0l-21.3,12.9C1631.4,1600.4,1631.4,1601.6,1632.3,1602z"/><path fill="#82859a" d="M1595.3,1580.4l22.7,13.1c0.9,0.5,1.9,0.5,2.8,0l21.3-12.9c0.7-0.5,0.7-1.5,0-2l-23-13.3       c-0.7-0.4-1.7-0.4-2.4,0l-21.3,12.9C1594.5,1578.8,1594.5,1579.9,1595.3,1580.4z"/><path fill="#82859a" d="M1423,1479l158,92.9c0.9,0.5,1.9,0.5,2.8,0l21.3-12.9c0.7-0.5,0.7-1.5,0-2l-158.3-93.1       c-0.7-0.4-1.7-0.4-2.4,0l-21.3,12.9C1422.2,1477.4,1422.2,1478.5,1423,1479z"/><path fill="#82859a" d="M1521.3,1537.1l22.7,13.1c0.9,0.5,1.9,0.5,2.8,0l21.3-12.9c0.7-0.5,0.7-1.5,0-2l-23-13.3       c-0.7-0.4-1.7-0.4-2.4,0l-21.3,12.9C1520.5,1535.5,1520.5,1536.7,1521.3,1537.1z"/><path fill="#82859a" d="M1484.3,1515.5l22.7,13.1c0.9,0.5,1.9,0.5,2.8,0l21.3-12.9c0.7-0.5,0.7-1.5,0-2l-23-13.3       c-0.7-0.4-1.7-0.4-2.4,0l-21.3,12.9C1483.5,1513.9,1483.5,1515,1484.3,1515.5z"/><path fill="#82859a" d="M1447.3,1493.9l22.7,13.1c0.9,0.5,1.9,0.5,2.8,0l21.3-12.9c0.7-0.5,0.7-1.5,0-2l-23-13.3       c-0.7-0.4-1.7-0.4-2.4,0l-21.3,12.9C1446.5,1492.3,1446.5,1493.4,1447.3,1493.9z"/><path fill="#82859a" d="M1410.4,1472.3l22.7,13.1c0.9,0.5,1.9,0.5,2.8,0l21.3-12.9c0.7-0.5,0.7-1.5,0-2l-23-13.3       c-0.7-0.4-1.7-0.4-2.4,0l-21.3,12.9C1409.5,1470.6,1409.6,1471.8,1410.4,1472.3z"/><path fill="#82859a" d="M1373.4,1450.6l22.7,13.1c0.9,0.5,1.9,0.5,2.8,0l21.3-12.9c0.7-0.5,0.7-1.5,0-2l-23-13.3       c-0.7-0.4-1.7-0.4-2.4,0l-21.3,12.9C1372.6,1449,1372.6,1450.2,1373.4,1450.6z"/><path fill="#82859a" d="M1336.4,1429l22.7,13.1c0.9,0.5,1.9,0.5,2.8,0l21.3-12.9c0.7-0.5,0.7-1.5,0-2l-23-13.3       c-0.7-0.4-1.7-0.4-2.4,0l-21.3,12.9C1335.6,1427.4,1335.6,1428.5,1336.4,1429z"/><path fill="#82859a" d="M1299.4,1407.4l22.7,13.1c0.9,0.5,1.9,0.5,2.8,0l21.3-12.9c0.7-0.5,0.7-1.5,0-2l-23-13.3       c-0.7-0.4-1.7-0.4-2.4,0l-21.3,12.9C1298.6,1405.7,1298.6,1406.9,1299.4,1407.4z"/><path fill="#82859a" d="M1262.4,1385.7l22.7,13.1c0.9,0.5,1.9,0.5,2.8,0l21.3-12.9c0.7-0.5,0.7-1.5,0-2l-23-13.3       c-0.7-0.4-1.7-0.4-2.4,0l-21.3,12.9C1261.6,1384.1,1261.6,1385.3,1262.4,1385.7z"/><path fill="#82859a" d="M1225.4,1364.1l22.7,13.1c0.9,0.5,1.9,0.5,2.8,0l21.3-12.9c0.7-0.5,0.7-1.5,0-2l-23-13.3       c-0.7-0.4-1.7-0.4-2.4,0l-21.3,12.9C1224.6,1362.5,1224.6,1363.6,1225.4,1364.1z"/></g></g><path fill="#535576" d="M1229.5,1624.2l132,76.4c5,2.9,11.2,2.8,16.1-0.2l123.7-74.9c4.3-2.6,4.3-8.9-0.1-11.4l-133.8-77.4     c-4.3-2.5-9.7-2.4-14,0.2l-124,75C1224.7,1614.8,1224.8,1621.5,1229.5,1624.2z"/><linearGradient id="f" x1="1516.772" x2="1542.27" y1="1920.346" y2="1557.364" gradientUnits="userSpaceOnUse"><stop offset="0" stop-color="#fff"/><stop offset="1" stop-color="#d1d3d7"/></linearGradient><path fill="url(#f)" d="M2217.1,1611c-1.6,1.7-3.5,3.2-5.6,4.5l-498.2,300.6c-11.9,7.2-25.5,10.1-38.8,8.9     c-9.1-0.8-18.1-3.7-26.3-8.4l-767.8-446.3c-3.1-1.8-5.7-4-7.7-6.5c-5.2-6.2-7.4-14.2-6.5-21.9c-1.6,8.4,0.4,17.4,6.1,24.2     c2,2.5,4.7,4.7,7.7,6.5l767.8,446.3c8.2,4.7,17.2,7.6,26.3,8.4c13.3,1.3,26.9-1.7,38.8-8.9l498.2-300.6c2.2-1.3,4-2.8,5.6-4.5     c4.1-4.3,6.5-9.8,7.1-15.4C2222.9,1602.7,2220.6,1607.2,2217.1,1611z"/><g><linearGradient id="g" x1="1012.825" x2="1012.825" y1="608.418" y2="632.667" gradientTransform="matrix(-1 -.5858 0 1 2628.93 664.883)" gradientUnits="userSpaceOnUse"><stop offset="0" stop-color="#fffff9"/><stop offset="1" stop-color="#acaeb7"/></linearGradient><path fill="url(#g)" d="M1474.4,620.7l283.4,166c6.6,3.9,12.1,1.6,12.1-5l0,0c0-6.6-5.4-15.3-12.1-19.2l-283.4-166     c-6.6-3.9-12.1-1.6-12.1,5l0,0C1462.3,608.2,1467.7,616.8,1474.4,620.7z"/><linearGradient id="h" x1="1012.825" x2="1012.825" y1="663.79" y2="688.039" gradientTransform="matrix(-1 -.5858 0 1 2628.93 664.883)" gradientUnits="userSpaceOnUse"><stop offset="0" stop-color="#fffff9"/><stop offset="1" stop-color="#acaeb7"/></linearGradient><path fill="url(#h)" d="M1474.4,676.1l283.4,166c6.6,3.9,12.1,1.6,12.1-5v0c0-6.6-5.4-15.3-12.1-19.2l-283.4-166     c-6.6-3.9-12.1-1.6-12.1,5l0,0C1462.3,663.6,1467.7,672.2,1474.4,676.1z"/><linearGradient id="i" x1="1012.825" x2="1012.825" y1="719.163" y2="743.412" gradientTransform="matrix(-1 -.5858 0 1 2628.93 664.883)" gradientUnits="userSpaceOnUse"><stop offset="0" stop-color="#fffff9"/><stop offset="1" stop-color="#acaeb7"/></linearGradient><path fill="url(#i)" d="M1474.4,731.5l283.4,166c6.6,3.9,12.1,1.6,12.1-5l0,0c0-6.6-5.4-15.3-12.1-19.2l-283.4-166     c-6.6-3.9-12.1-1.6-12.1,5l0,0C1462.3,719,1467.7,727.6,1474.4,731.5z"/></g><g><linearGradient id="j" x1="1570.671" x2="1600.546" y1="548.652" y2="548.652" gradientUnits="userSpaceOnUse"><stop offset="0" stop-color="#e4e4e8"/><stop offset="1" stop-color="#f9f9fa"/></linearGradient><path fill="url(#j)" d="M1570.7,539.6c0,8.3,6.7,19,14.9,24c8.2,5,14.9,2.4,14.9-5.8c0-8.2-6.7-19-14.9-24     C1577.4,528.7,1570.7,531.3,1570.7,539.6z"/><path fill="#fdbd2e" d="M1522.6,510.3c0,8.3,6.7,19,14.9,24c8.2,5,14.9,2.4,14.9-5.8s-6.7-19-14.9-24     C1529.3,499.4,1522.6,502,1522.6,510.3z"/><linearGradient id="k" x1="1139.201" x2="1139.201" y1="476.735" y2="506.72" gradientTransform="matrix(-1 -.6091 0 1 2628.627 692.776)" gradientUnits="userSpaceOnUse"><stop offset="0" stop-color="#fffff9"/><stop offset="1" stop-color="#acaeb7"/></linearGradient><path fill="url(#k)" d="M1474.5,481c0,8.2,6.7,19,14.9,24c8.2,5,14.9,2.4,14.9-5.8c0-8.3-6.7-19-14.9-24     C1481.2,470.1,1474.5,472.7,1474.5,481z"/></g><linearGradient id="l" x1="1588.938" x2="1582.689" y1="1191.756" y2="843.051" gradientUnits="userSpaceOnUse"><stop offset="0" stop-color="#fffff9"/><stop offset="1" stop-color="#acaeb7"/></linearGradient><path fill="url(#l)" d="M1695.5,1040.8c0,56.9-43.1,76.9-98.4,48.5c-4-2-8-4.3-12.1-6.8c-61.1-37.9-110.5-118.2-110.5-179.2    c0-61.1,49.4-79.7,110.5-41.7c4,2.5,7.9,5.2,11.8,8c32.8,23.9,61.4,59.6,79.1,96.5C1688.3,991.6,1695.5,1017.6,1695.5,1040.8z"/><path fill="#fdbd2e" d="M1695.5,1040.8c0,56.9-43.1,76.9-98.4,48.5L1585,972l91-6C1688.3,991.6,1695.5,1017.6,1695.5,1040.8z"/><path fill="#53bdec" d="M1676,966.1l-91,6l11.8-102.5C1629.7,893.5,1658.2,929.2,1676,966.1z"/><g><path fill="#fdbd2e" d="M1850.2,1011.1L1850.2,1011.1c-6-3.8-10.9-11.7-10.9-17.7V783.5c0-6,4.9-7.8,10.9-4.1l0,0    c6,3.8,10.9,11.7,10.9,17.7v209.9C1861.1,1013.1,1856.2,1014.9,1850.2,1011.1z"/><path fill="#535576" d="M1850.2,1282.9L1850.2,1282.9c-6-3.8-10.9-11.7-10.9-17.7v-209.9c0-6,4.9-7.8,10.9-4.1l0,0    c6,3.8,10.9,11.7,10.9,17.7v209.9C1861.1,1284.8,1856.2,1286.6,1850.2,1282.9z"/><line x1="1861.1" x2="2158.5" y1="1020.7" y2="1195.8" fill="none" stroke="#aeaeaf" stroke-miterlimit="10" stroke-width="3"/><line x1="1861.1" x2="2158.5" y1="982.2" y2="1157.2" fill="none" stroke="#aeaeaf" stroke-miterlimit="10" stroke-width="3"/><line x1="1861.1" x2="2158.5" y1="943.7" y2="1118.7" fill="none" stroke="#aeaeaf" stroke-miterlimit="10" stroke-width="3"/><line x1="1861.1" x2="2158.5" y1="905.1" y2="1080.1" fill="none" stroke="#aeaeaf" stroke-miterlimit="10" stroke-width="3"/><line x1="1861.1" x2="2158.5" y1="866.6" y2="1041.6" fill="none" stroke="#aeaeaf" stroke-miterlimit="10" stroke-width="3"/><line x1="1861.1" x2="2158.5" y1="828" y2="1003.1" fill="none" stroke="#aeaeaf" stroke-miterlimit="10" stroke-width="3"/><line x1="1861.1" x2="2158.5" y1="789.5" y2="964.5" fill="none" stroke="#aeaeaf" stroke-miterlimit="10" stroke-width="3"/><line x1="1884.9" x2="1884.9" y1="803.5" y2="1034.8" fill="none" stroke="#aeaeaf" stroke-miterlimit="10" stroke-width="3"/><line x1="1914.5" x2="1914.5" y1="821" y2="1052.2" fill="none" stroke="#aeaeaf" stroke-miterlimit="10" stroke-width="3"/><line x1="1944.1" x2="1944.1" y1="838.4" y2="1069.6" fill="none" stroke="#aeaeaf" stroke-miterlimit="10" stroke-width="3"/><line x1="1973.7" x2="1973.7" y1="855.8" y2="1087" fill="none" stroke="#aeaeaf" stroke-miterlimit="10" stroke-width="3"/><line x1="2003.3" x2="2003.3" y1="873.2" y2="1104.5" fill="none" stroke="#aeaeaf" stroke-miterlimit="10" stroke-width="3"/><line x1="2032.9" x2="2032.9" y1="890.7" y2="1121.9" fill="none" stroke="#aeaeaf" stroke-miterlimit="10" stroke-width="3"/><line x1="2062.5" x2="2062.5" y1="908.1" y2="1139.3" fill="none" stroke="#aeaeaf" stroke-miterlimit="10" stroke-width="3"/><line x1="2092.1" x2="2092.1" y1="925.5" y2="1156.7" fill="none" stroke="#aeaeaf" stroke-miterlimit="10" stroke-width="3"/><line x1="2121.7" x2="2121.7" y1="942.9" y2="1174.2" fill="none" stroke="#aeaeaf" stroke-miterlimit="10" stroke-width="3"/><g><line x1="1861.1" x2="2158.5" y1="1292.5" y2="1467.5" fill="none" stroke="#aeaeaf" stroke-miterlimit="10" stroke-width="3"/><line x1="1861.1" x2="2158.5" y1="1253.9" y2="1428.9" fill="none" stroke="#aeaeaf" stroke-miterlimit="10" stroke-width="3"/><line x1="1861.1" x2="2158.5" y1="1215.4" y2="1390.4" fill="none" stroke="#aeaeaf" stroke-miterlimit="10" stroke-width="3"/><line x1="1861.1" x2="2158.5" y1="1176.8" y2="1351.8" fill="none" stroke="#aeaeaf" stroke-miterlimit="10" stroke-width="3"/><line x1="1861.1" x2="2158.5" y1="1138.3" y2="1313.3" fill="none" stroke="#aeaeaf" stroke-miterlimit="10" stroke-width="3"/><line x1="1861.1" x2="2158.5" y1="1099.7" y2="1274.8" fill="none" stroke="#aeaeaf" stroke-miterlimit="10" stroke-width="3"/><line x1="1861.1" x2="2158.5" y1="1061.2" y2="1236.2" fill="none" stroke="#aeaeaf" stroke-miterlimit="10" stroke-width="3"/><line x1="1884.9" x2="1884.9" y1="1075.2" y2="1306.5" fill="none" stroke="#aeaeaf" stroke-miterlimit="10" stroke-width="3"/><line x1="1914.5" x2="1914.5" y1="1092.7" y2="1323.9" fill="none" stroke="#aeaeaf" stroke-miterlimit="10" stroke-width="3"/><line x1="1944.1" x2="1944.1" y1="1110.1" y2="1341.3" fill="none" stroke="#aeaeaf" stroke-miterlimit="10" stroke-width="3"/><line x1="1973.7" x2="1973.7" y1="1127.5" y2="1358.8" fill="none" stroke="#aeaeaf" stroke-miterlimit="10" stroke-width="3"/><line x1="2003.3" x2="2003.3" y1="1144.9" y2="1376.2" fill="none" stroke="#aeaeaf" stroke-miterlimit="10" stroke-width="3"/><line x1="2032.9" x2="2032.9" y1="1162.4" y2="1393.6" fill="none" stroke="#aeaeaf" stroke-miterlimit="10" stroke-width="3"/><line x1="2062.5" x2="2062.5" y1="1179.8" y2="1411" fill="none" stroke="#aeaeaf" stroke-miterlimit="10" stroke-width="3"/><line x1="2092.1" x2="2092.1" y1="1197.2" y2="1428.5" fill="none" stroke="#aeaeaf" stroke-miterlimit="10" stroke-width="3"/><line x1="2121.7" x2="2121.7" y1="1214.6" y2="1445.9" fill="none" stroke="#aeaeaf" stroke-miterlimit="10" stroke-width="3"/></g><path fill="none" stroke="#fdbd2e" stroke-miterlimit="10" stroke-width="5" d="M1856.9,954.1c0,0,43.5,34.1,46.4,34.8c2.9,0.6,47.8,0,47.8,0s8.8,16.7,12.7,24.2    c3.9,7.6,39.7,10.2,39.7,14.2s26.6-0.2,37.3,0c10.7,0.2,37.3-14.2,37.3-14.2l4.6,48.1l39.2-26.4l19.1,34.9l22.6-8.5"/><path fill="none" stroke="#53bdec" stroke-miterlimit="10" stroke-width="5" d="M1823.7,1193.7l43.2-6.2l27.1,20.4h11.6l15.5-14.2c0,0,12.9,10.3,17.4,11.6c4.5,1.3,59.5-12.3,59.5-12.3    l48.8,83.9l44.5-72.2h47.9"/></g><g><linearGradient id="m" x1="1181.283" x2="1181.283" y1="183.869" y2="928.284" gradientUnits="userSpaceOnUse"><stop offset="0" stop-color="#e4e4e8"/><stop offset="1" stop-color="#f9f9fa"/></linearGradient><path fill="url(#m)" d="M998.8,229.4v525.4c0,7,3.7,13.4,9.7,16.8l336.7,196.1c8.2,4.8,18.6-1.1,18.6-10.7V438.2    c0-8-4.2-15.3-11.1-19.3l-339.5-197.8C1006.8,217.4,998.8,222,998.8,229.4z"/><path fill="#53bdec" d="M1040.4,557.5L1040.4,557.5c-6-3.8-10.9-11.7-10.9-17.7V329.9c0-6,4.9-7.8,10.9-4.1h0     c6,3.8,10.9,11.7,10.9,17.7v209.9C1051.3,559.5,1046.4,561.3,1040.4,557.5z"/><line x1="1051.3" x2="1348.7" y1="567.1" y2="742.2" fill="none" stroke="#aeaeaf" stroke-miterlimit="10" stroke-width="3"/><line x1="1051.3" x2="1348.7" y1="528.6" y2="703.6" fill="none" stroke="#aeaeaf" stroke-miterlimit="10" stroke-width="3"/><line x1="1051.3" x2="1348.7" y1="490.1" y2="665.1" fill="none" stroke="#aeaeaf" stroke-miterlimit="10" stroke-width="3"/><line x1="1051.3" x2="1348.7" y1="451.5" y2="626.5" fill="none" stroke="#aeaeaf" stroke-miterlimit="10" stroke-width="3"/><line x1="1051.3" x2="1348.7" y1="413" y2="588" fill="none" stroke="#aeaeaf" stroke-miterlimit="10" stroke-width="3"/><line x1="1051.3" x2="1348.7" y1="374.4" y2="549.5" fill="none" stroke="#aeaeaf" stroke-miterlimit="10" stroke-width="3"/><line x1="1051.3" x2="1348.7" y1="335.9" y2="510.9" fill="none" stroke="#aeaeaf" stroke-miterlimit="10" stroke-width="3"/><line x1="1075.1" x2="1075.1" y1="349.9" y2="581.2" fill="none" stroke="#aeaeaf" stroke-miterlimit="10" stroke-width="3"/><line x1="1104.7" x2="1104.7" y1="367.3" y2="598.6" fill="none" stroke="#aeaeaf" stroke-miterlimit="10" stroke-width="3"/><line x1="1134.3" x2="1134.3" y1="384.8" y2="616" fill="none" stroke="#aeaeaf" stroke-miterlimit="10" stroke-width="3"/><line x1="1163.9" x2="1163.9" y1="402.2" y2="633.4" fill="none" stroke="#aeaeaf" stroke-miterlimit="10" stroke-width="3"/><line x1="1193.5" x2="1193.5" y1="419.6" y2="650.9" fill="none" stroke="#aeaeaf" stroke-miterlimit="10" stroke-width="3"/><line x1="1223.1" x2="1223.1" y1="437.1" y2="668.3" fill="none" stroke="#aeaeaf" stroke-miterlimit="10" stroke-width="3"/><line x1="1252.7" x2="1252.7" y1="454.5" y2="685.7" fill="none" stroke="#aeaeaf" stroke-miterlimit="10" stroke-width="3"/><line x1="1282.3" x2="1282.3" y1="471.9" y2="703.1" fill="none" stroke="#aeaeaf" stroke-miterlimit="10" stroke-width="3"/><line x1="1311.9" x2="1311.9" y1="489.3" y2="720.6" fill="none" stroke="#aeaeaf" stroke-miterlimit="10" stroke-width="3"/><path fill="none" stroke="#fdbd2e" stroke-miterlimit="10" stroke-width="5" d="M1013.9,486.2l43.2-6.2l27.1,20.4h11.6l15.5-14.2c0,0,12.9,10.3,17.4,11.6c4.5,1.3,59.5-12.3,59.5-12.3     l48.8,83.9l44.5-72.2h47.9"/><g><linearGradient id="n" x1="1447.649" x2="1447.649" y1="882.276" y2="900.94" gradientTransform="matrix(-1 -.5858 0 1 2628.93 664.883)" gradientUnits="userSpaceOnUse"><stop offset="0" stop-color="#fffff9"/><stop offset="1" stop-color="#acaeb7"/></linearGradient><path fill="url(#n)" d="M1072.2,653.5l218.2,127.8c5.1,3,9.3,1.3,9.3-3.9v0c0-5.1-4.2-11.7-9.3-14.7l-218.2-127.8     c-5.1-3-9.3-1.3-9.3,3.9l0,0C1062.9,643.9,1067.1,650.5,1072.2,653.5z"/><linearGradient id="o" x1="1447.649" x2="1447.649" y1="924.896" y2="943.56" gradientTransform="matrix(-1 -.5858 0 1 2628.93 664.883)" gradientUnits="userSpaceOnUse"><stop offset="0" stop-color="#fffff9"/><stop offset="1" stop-color="#acaeb7"/></linearGradient><path fill="url(#o)" d="M1072.2,696.1l218.2,127.8c5.1,3,9.3,1.3,9.3-3.9v0c0-5.1-4.2-11.7-9.3-14.7l-218.2-127.8     c-5.1-3-9.3-1.3-9.3,3.9l0,0C1062.9,686.5,1067.1,693.1,1072.2,696.1z"/><linearGradient id="p" x1="1447.649" x2="1447.649" y1="967.516" y2="986.18" gradientTransform="matrix(-1 -.5858 0 1 2628.93 664.883)" gradientUnits="userSpaceOnUse"><stop offset="0" stop-color="#fffff9"/><stop offset="1" stop-color="#acaeb7"/></linearGradient><path fill="url(#p)" d="M1072.2,738.8l218.2,127.8c5.1,3,9.3,1.3,9.3-3.9l0,0c0-5.1-4.2-11.7-9.3-14.7l-218.2-127.8     c-5.1-3-9.3-1.3-9.3,3.9l0,0C1062.9,729.1,1067.1,735.8,1072.2,738.8z"/></g></g><g><path fill="#535576" d="M1274.6,1037.1l-50.8-84.3l-145.4,100.5c-1.8,0.7-3.6,1.6-5.4,2.6c-18.7,11.7-22,40.2-7.4,63.5    c13,20.7,35.6,30.4,53.6,24.2l0,0l0.1-0.1c2.3-0.8,4.5-1.8,6.6-3.1c2.9-1.8,5.3-4,7.4-6.5L1274.6,1037.1z"/><ellipse cx="1254.8" cy="991.6" fill="#c1c3c4" rx="40" ry="49.9" transform="rotate(-32.092 1254.72 991.55)"/><path fill="#535576" d="M1316.7,905.5l-65.5,46.2c0,0-27.3,14.4-13.9,42.9c11.9,25.5,32.9,19.8,32.9,19.8l82.3-56L1316.7,905.5z"/><path fill="#535576" d="M1241.1,698.8c-0.4,127.5,89.3,282.8,200.3,346.9c65.2,37.7,123.3,35.4,160.1,1.2      c3.6-2.5,7.1-5.3,10.3-8.4c3.6-2.5,7.1-5.3,10.3-8.4c32-22.5,51.6-65.3,51.7-124.4c0.4-127.5-89.3-282.8-200.2-346.8      c-65.3-37.7-123.3-35.4-160.2-1.2c-3.6,2.5-7.1,5.3-10.3,8.4c-3.6,2.5-7.1,5.3-10.3,8.4C1260.8,596.8,1241.2,639.6,1241.1,698.8      z M1592.3,1008.6c-31.6,15.1-73.7,11.2-119.8-15.5c-97.8-56.4-176.7-193.3-176.4-305.6c0.1-39.2,9.9-70.2,26.7-91.6      c31.6-15.1,73.7-11.1,119.9,15.5c97.7,56.4,176.7,193.2,176.4,305.6C1618.8,956.2,1609.1,987.2,1592.3,1008.6z"/><path fill="#c1c3c4" d="M1241.1,698.8c-0.4,127.5,89.3,282.8,200.3,346.9c110.9,64,201.2,12.6,201.5-114.9       c0.1-57.8-18.2-121.3-48.6-179.5c-0.2-0.5-0.5-1-0.8-1.5c-14-26.6-30.6-52-49.1-75.3c-29.8-37.5-64.6-69.1-101.7-90.6       C1331.7,519.9,1241.4,571.3,1241.1,698.8z M1265,712.6c0.1-54.2,18.7-92.8,49-111.9c32.3-20.5,78-18.5,128.6,10.7       c97.7,56.4,176.7,193.2,176.4,305.6c-0.1,44.2-12.5,78-33.5,99.4c-32.3,32.9-84.8,36.1-144.1,1.9       C1343.6,961.8,1264.7,824.9,1265,712.6z"/><path fill="#fff" d="M1280.5,700.1c-0.3,112.3,78.7,249.1,176.4,305.6c50.5,29.2,96.2,31.2,128.6,10.7     c21-21.3,33.3-55.2,33.5-99.4c0.3-112.3-78.7-249.1-176.4-305.6c-50.6-29.2-96.3-31.2-128.6-10.7     C1293,622,1280.6,655.9,1280.5,700.1z" opacity=".3"/></g><g><linearGradient id="q" x1="726.928" x2="932.182" y1="934.275" y2="934.275" gradientUnits="userSpaceOnUse"><stop offset="0" stop-color="#d87979"/><stop offset="1" stop-color="#f8bcbd"/></linearGradient><path fill="url(#q)" d="M927.2,829.6c0,0,8.1,51.1,3.5,60.4c-4.6,9.3-4.6,9.3-4.6,9.3s6.9,15.8,6.1,25c-0.8,9.2-7.8,70.8-21.7,75.4    c-13.9,4.6-44.1,6.4-51.1,11c-7,4.6-16.3,38.9-16.3,38.9l-116.1-64.4l37.2-147.5C764.1,837.7,894.7,801.7,927.2,829.6z"/><linearGradient id="r" x1="719.914" x2="946.859" y1="856.984" y2="856.984" gradientUnits="userSpaceOnUse"><stop offset="0" stop-color="#606475"/><stop offset="1" stop-color="#061837"/></linearGradient><path fill="url(#r)" d="M946.8,808.1c1,28.5-13.2,36-33.5,42.4c-20.3,6.4-11.6,76-20.9,79c-9.3,2.9-4.6-38.9-20.9-39.5    c-16.3-0.6-16.8,25.3-12.2,39.6c4.6,14.4-7.5,26.6-35.4,32.4c-27.9,5.8-88.8-4.6-91.1-31.3c-2.3-26.7-20.9-70.8-8.7-102.8    c12.2-31.9,34.8-33.1,34.8-33.1s-1.7-40.6,60.4-43.5S944.9,752.3,946.8,808.1z"/><linearGradient id="s" x1="595.55" x2="761.252" y1="2197.917" y2="2197.917" gradientUnits="userSpaceOnUse"><stop offset="0" stop-color="#606475"/><stop offset="1" stop-color="#061837"/></linearGradient><path fill="url(#s)" d="M608.3,2185.5c0,0-19.5,66.9-10.1,73.6c9.4,6.7,74.9,26.2,92.5,0s80.1-98.1,69.4-118.2    c-10.7-20.2-39-24.9-59.1-4C680.7,2157.7,608.3,2185.5,608.3,2185.5z"/><linearGradient id="t" x1="773.126" x2="1018.293" y1="2303.567" y2="2303.567" gradientUnits="userSpaceOnUse"><stop offset="0" stop-color="#606475"/><stop offset="1" stop-color="#061837"/></linearGradient><path fill="url(#t)" d="M783.8,2276.7c0,0-15.7,59.8-9,70.5s45,30.9,75.2,20.2c30.2-10.7,75.9-37.6,110.9-51.1    c34.9-13.4,60.5-28.2,57.1-49c-3.4-20.8-27.5-34.3-57.1-29.6C931.3,2242.4,783.8,2276.7,783.8,2276.7z"/><linearGradient id="u" x1="608.253" x2="804.421" y1="1838.409" y2="1838.409" gradientUnits="userSpaceOnUse"><stop offset="0" stop-color="#606475"/><stop offset="1" stop-color="#061837"/></linearGradient><path fill="url(#u)" d="M620.7,1479.1c0,0-19.6,54.9-9.2,96.5c10.4,41.6,28.2,66.8,28.2,66.8v192.9c0,0-34.3,81.6-31.2,179.6    c3,98-0.2,170.7-0.2,170.7s28.5,17.8,67,10.4c38.6-7.4,49-41.6,49-41.6s-37.1-120.2,10.4-227.1c47.5-106.9,69.8-436.3,69.8-436.3    L620.7,1479.1z"/><path fill="#fdbd2e" d="M725.4,970.7c0,0,122.6,56.8,132.9,70.4c10.3,13.7,6.9,43.3,6.9,43.3s77.9,31.6,77.9,57.7    c0,26.1,0,360.6,0,360.6s-84.8,68.7-207.4,53.3c-122.6-15.5-115.7-87.6-115.7-87.6s20.5-150.2-0.1-260.7    c-20.6-110.5-26.3-223.9,9.2-223.9c35.5,0,58.4,20.2,74.5,11.3C719.6,986.1,725.4,970.7,725.4,970.7z"/><path fill="#1ba1cd" d="M943,1121.7c-30.3-13-97.4,8.5-85.9,91.1c11.5,82.6,85.9,172.5,85.9,172.5v72.1c0,0,55,19.5,84.8-10    c29.8-29.4,36.7-71.9,0-163.5C991.1,1192.3,943,1121.7,943,1121.7z"/><linearGradient id="v" x1="690.639" x2="944.879" y1="1898.579" y2="1898.579" gradientUnits="userSpaceOnUse"><stop offset="0" stop-color="#606475"/><stop offset="1" stop-color="#061837"/></linearGradient><path fill="url(#v)" d="M691.4,1546.5c0,0-9.1,53.4,34.4,118.6c43.4,65.1,67.4,66.3,67.4,66.3v193.1c0,0-19.4,33.1-20.6,160    c-1.1,126.8,1.1,181.7,1.1,181.7s18.3,29.7,64,22.9c45.7-6.9,49.1-26.3,49.1-26.3s6.9-206.8,40-314.3    c33.1-107.4,10.3-441.4,10.3-441.4S830.8,1579.9,691.4,1546.5z"/></g><g><linearGradient id="w" x1="2257.029" x2="2480.615" y1="1617.837" y2="2110.158" gradientUnits="userSpaceOnUse"><stop offset="0" stop-color="#606475"/><stop offset="1" stop-color="#061837"/></linearGradient><polygon fill="url(#w)" points="2400.2 1650.1 2297.3 1587.5 2297.3 1989.4 2400.2 2052"/><polygon fill="#53bdec" points="2400.2 1650.8 2491.9 1596.7 2491.9 1998.6 2400.2 2052.8"/><polygon fill="#afe3ef" points="2400.2 1650.8 2297.3 1587.5 2388.9 1533.5 2491.9 1596.9"/><g><linearGradient id="x" x1="2075.01" x2="2298.598" y1="1700.501" y2="2192.823" gradientUnits="userSpaceOnUse"><stop offset="0" stop-color="#606475"/><stop offset="1" stop-color="#061837"/></linearGradient><polygon fill="url(#x)" points="2246.1 1848.8 2143.2 1786.2 2143.2 2079.1 2246.1 2141.7"/><polygon fill="#53bdec" points="2246.1 1849.5 2337.8 1795.4 2337.8 2088.2 2246.1 2142.4"/><polygon fill="#afe3ef" points="2246.1 1849.5 2143.2 1786.2 2234.9 1732.2 2337.8 1795.5"/></g><g><linearGradient id="y" x1="1896.587" x2="2120.174" y1="1781.532" y2="2273.854" gradientUnits="userSpaceOnUse"><stop offset="0" stop-color="#606475"/><stop offset="1" stop-color="#061837"/></linearGradient><polygon fill="url(#y)" points="2092 2028.4 1989.1 1965.8 1989.1 2168.7 2092 2231.3"/><polygon fill="#53bdec" points="2092 2029.1 2183.7 1975 2183.7 2177.9 2092 2232"/><polygon fill="#afe3ef" points="2092 2029.1 1989.1 1965.8 2080.8 1911.8 2183.7 1975.1"/></g><g><linearGradient id="z" x1="1720.677" x2="1944.264" y1="1861.42" y2="2353.742" gradientUnits="userSpaceOnUse"><stop offset="0" stop-color="#606475"/><stop offset="1" stop-color="#061837"/></linearGradient><polygon fill="url(#z)" points="1937.9 2194.6 1835 2132 1835 2258.3 1937.9 2320.9"/><polygon fill="#53bdec" points="1937.9 2195.3 2029.6 2141.2 2029.6 2267.5 1937.9 2321.7"/><polygon fill="#afe3ef" points="1937.9 2195.3 1835 2132 1926.7 2078 2029.6 2141.4"/></g></g></svg>