<svg xmlns="http://www.w3.org/2000/svg" data-name="Ñëîé 1" viewBox="0 0 875.86 776.19"><path fill="#ffb3b3" d="M759.8,737.37l-3.42-80.16s52.75-76,55.49-88.38S866.68,438.66,873.53,388s-15.07-138.4-16.44-149.36-77.42-145.24-108.93-85c0,0-13-58.6-44.53-55.5-48.65,4.8-23.3,131.55-23.3,131.55l-38.36-13s-5.49-58.92-42.48-56.18-12.33,90.43-12.33,90.43l-23.3,239.79S465.21,562,477.54,645.57s12.33,93.17,12.33,93.17Z"/><path fill="#333" d="M489.87,739.76a1,1,0,0,1-.71-.3,1,1,0,0,1-.3-.72h0c0-.4-.21-10.89-12.33-93-2.83-19.24,0-39.43,8.35-60,6.69-16.4,16.92-33.08,30.41-49.57a291.43,291.43,0,0,1,47.61-46L586.13,251c-1.22-4.37-16.65-61.46-1.37-83.25a18.82,18.82,0,0,1,14.65-8.28c.86-.07,1.72-.1,2.55-.1,14.67,0,26.42,9.95,34,28.77a116.27,116.27,0,0,1,7,27.76L679,228.18A411,411,0,0,1,673.26,181c-2.11-35.19,1.78-59.73,11.56-72.93,4.82-6.52,11.12-10.2,18.71-10.95.83-.08,1.67-.12,2.5-.12,12.57,0,24,9.81,33.13,28.37a144.35,144.35,0,0,1,9.36,25.51c5.4-9.14,12.3-13.77,20.55-13.77,19.48,0,42.21,25.72,57.84,47.29,17.35,23.93,30.6,49.38,31.19,54.06.25,2,1.2,6.64,2.53,13.09,5.84,28.43,19.52,95,13.91,136.52-4.9,36.27-32.76,106.51-49.4,148.48-6.68,16.84-11.51,29-12.28,32.47-2.69,12.13-51.41,82.63-55.45,88.46l3.41,79.82a1,1,0,0,1-.28.74,1,1,0,0,1-.73.32l-269.93,1.37ZM602,161.43c-.78,0-1.59,0-2.4.09a16.87,16.87,0,0,0-13.14,7.42c-15,21.41,1.55,81.13,1.71,81.73a.94.94,0,0,1,0,.37l-23.3,239.79a1,1,0,0,1-.41.72,287.7,287.7,0,0,0-47.63,45.93c-21,25.62-44.6,65.14-38.29,107.94,10.4,70.49,12,88.32,12.3,92.3l267.9-1.36-3.38-79.1a1.18,1.18,0,0,1,.18-.63c.53-.75,52.68-76,55.34-88,.81-3.62,5.66-15.85,12.37-32.78,16.61-41.88,44.41-112,49.28-148,5.56-41.18-8.07-107.52-13.89-135.84-1.34-6.5-2.3-11.19-2.56-13.25-.55-4.39-13.94-29.83-30.81-53.12-21.71-30-41.67-46.45-56.2-46.45-8.09,0-14.83,5-20,15a1,1,0,0,1-1,.53,1,1,0,0,1-.85-.78c-.13-.55-12.56-54.82-41.14-54.82a22.15,22.15,0,0,0-2.3.12c-7,.68-12.81,4.09-17.28,10.13-22.7,30.64-5.3,119.3-5.12,120.2a1,1,0,0,1-1.32,1.16l-38.37-13a1,1,0,0,1-.69-.87A112.66,112.66,0,0,0,634,188.89C626.71,170.67,615.91,161.43,602,161.43Z"/><path fill="#333" d="M796.76,257.91a77.41,77.41,0,0,1-23.09-3.31c-7.26-2.36-12.09-5.74-14-9.81-6.07-13.13-17.65-63.79-12.55-91.32a1,1,0,0,1,2,.37c-5,27.15,6.4,77.14,12.39,90.1,1.63,3.54,6,6.55,12.75,8.72,15.48,5,37.69,4.1,48.51-2a1,1,0,1,1,1,1.77C817.43,256,807.27,257.91,796.76,257.91Z"/><path fill="#333" d="M557,578.07a1,1,0,0,1-.88-1.52C562.77,565,576.43,554,596.72,544a217.7,217.7,0,0,1,28.5-11.71,1,1,0,0,1,.61,1.94c-.53.16-52.56,16.64-67.94,43.38A1,1,0,0,1,557,578.07Z"/><path fill="#ffb3b3" d="M116.06,737.37l3.42-80.16s-52.75-76-55.49-88.38S9.18,438.66,2.33,388,17.4,249.57,18.77,238.61s77.42-145.24,108.94-85c0,0,13-58.6,44.53-55.5,48.64,4.8,23.29,131.55,23.29,131.55l38.37-13s5.48-58.92,42.47-56.18,12.34,90.43,12.34,90.43L312,490.73S410.66,562,398.32,645.57,386,738.74,386,738.74Z"/><path fill="#333" d="M386,739.76h0l-269.94-1.37a1.07,1.07,0,0,1-.73-.32,1,1,0,0,1-.28-.74l3.41-79.82c-4-5.83-52.76-76.33-55.45-88.46-.77-3.46-5.6-15.63-12.28-32.47-16.64-42-44.5-112.21-49.4-148.48C-4.29,346.58,9.39,280,15.23,251.58c1.33-6.45,2.29-11.11,2.54-13.09.58-4.68,13.84-30.13,31.18-54.06,15.64-21.57,38.36-47.29,57.84-47.29,8.25,0,15.16,4.63,20.55,13.77a144.35,144.35,0,0,1,9.36-25.51C145.8,106.84,157.26,97,169.84,97c.82,0,1.66,0,2.5.12,7.58.75,13.88,4.43,18.7,10.95,9.78,13.2,13.67,37.74,11.56,72.93a408.65,408.65,0,0,1-5.75,47.15L233,215.93a116.06,116.06,0,0,1,7-27.76c7.57-18.82,19.32-28.77,34-28.77.84,0,1.69,0,2.55.1a18.82,18.82,0,0,1,14.66,8.28c15.27,21.79-.16,78.88-1.38,83.25L313,490.18a291.56,291.56,0,0,1,47.6,46c13.49,16.49,23.72,33.17,30.41,49.57,8.38,20.55,11.19,40.74,8.35,60-12.12,82.14-12.32,92.63-12.32,93A1,1,0,0,1,386,739.76Zm-268.87-3.4L385,737.72c.26-4,1.9-21.81,12.3-92.3,6.31-42.81-17.35-82.35-38.32-108a287.4,287.4,0,0,0-47.59-45.9,1,1,0,0,1-.42-.72L287.69,251a.94.94,0,0,1,0-.37c.17-.6,16.72-60.32,1.71-81.73a16.87,16.87,0,0,0-13.14-7.42c-15.13-1.12-26.75,8.14-34.5,27.41a113.05,113.05,0,0,0-6.89,27.85,1,1,0,0,1-.69.87l-38.36,13a1,1,0,0,1-1-.2,1,1,0,0,1-.32-1c.17-.9,17.57-89.56-5.13-120.2-4.47-6-10.28-9.45-17.27-10.13a22.44,22.44,0,0,0-2.3-.12c-28.59,0-41,54.27-41.14,54.82a1,1,0,0,1-.86.78,1,1,0,0,1-1-.53c-5.19-9.92-11.92-15-20-15-14.53,0-34.49,16.5-56.19,46.45-16.88,23.29-30.27,48.73-30.82,53.12-.26,2.06-1.22,6.75-2.56,13.25C11.4,280.31-2.23,346.65,3.34,387.83,8.2,423.85,36,494,52.61,535.83,59.33,552.76,64.18,565,65,568.61c2.67,12,54.81,87.27,55.34,88a1.1,1.1,0,0,1,.18.63Z"/><path fill="#333" d="M79.11,257.91c-10.51,0-20.67-1.87-27.06-5.46a1,1,0,0,1,1-1.77c10.82,6.08,33,7,48.52,2,6.7-2.17,11.11-5.18,12.74-8.72,6-13,17.42-62.95,12.4-90.1a1,1,0,0,1,2-.37c5.1,27.53-6.48,78.19-12.54,91.32-1.88,4.07-6.71,7.45-14,9.81A77.39,77.39,0,0,1,79.11,257.91Z"/><path fill="#333" d="M318.85,578.07a1,1,0,0,1-.88-.51c-15.38-26.75-67.41-43.22-67.93-43.38a1,1,0,0,1,.6-1.94A217.7,217.7,0,0,1,279.14,544c20.3,10.09,33.95,21.06,40.59,32.6a1,1,0,0,1-.37,1.39A1,1,0,0,1,318.85,578.07Z"/><path fill="#fff" d="M758.83,542.05H105.12A24.14,24.14,0,0,1,81,517.91V219.72a24.13,24.13,0,0,1,24.14-24.14H758.83A24.14,24.14,0,0,1,783,219.72V517.91A24.14,24.14,0,0,1,758.83,542.05Z"/><path fill="#333" d="M758.83,545.09H105.12a27.22,27.22,0,0,1-27.19-27.18V219.72a27.22,27.22,0,0,1,27.19-27.19H758.83A27.22,27.22,0,0,1,786,219.72V517.91A27.22,27.22,0,0,1,758.83,545.09ZM105.12,198.63A21.11,21.11,0,0,0,84,219.72V517.91A21.11,21.11,0,0,0,105.12,539H758.83a21.11,21.11,0,0,0,21.09-21.09V219.72a21.11,21.11,0,0,0-21.09-21.09Z"/><rect width="96.94" height="11.03" x="713.71" y="363.21" fill="#333" rx="5.41" transform="rotate(90 762.185 368.725)"/><rect width="224.48" height="115.31" x="320.79" y="659.87" fill="#cc3b3b" rx="19.27"/><path fill="#333" d="M528,776.19H338.06a18.3,18.3,0,0,1-18.28-18.28V677.14a18.3,18.3,0,0,1,18.28-18.29H528a18.3,18.3,0,0,1,18.28,18.29v80.77A18.3,18.3,0,0,1,528,776.19ZM338.06,660.88a16.27,16.27,0,0,0-16.25,16.26v80.77a16.27,16.27,0,0,0,16.25,16.25H528a16.27,16.27,0,0,0,16.25-16.25V677.14A16.27,16.27,0,0,0,528,660.88Z"/><circle cx="359.41" cy="716.7" r="24.96" fill="#fff"/><path fill="#333" d="M359.41,742.68a26,26,0,1,1,26-26A26,26,0,0,1,359.41,742.68Zm0-49.93a24,24,0,1,0,23.95,24A24,24,0,0,0,359.41,692.75Z"/><path fill="#fff" d="M429.23,735.93H402V692.67h10.51v34.15h16.74Z"/><path fill="#333" d="M429.23,736.94H402a1,1,0,0,1-1-1V692.67a1,1,0,0,1,1-1h10.51a1,1,0,0,1,1,1v33.14h15.73a1,1,0,0,1,1,1v9.11A1,1,0,0,1,429.23,736.94Zm-26.24-2h25.22v-7.07H412.49a1,1,0,0,1-1-1V693.68H403Z"/><path fill="#fff" d="M444.62,735.93H434.11V692.67h10.51Z"/><path fill="#333" d="M444.62,736.94H434.11a1,1,0,0,1-1-1V692.67a1,1,0,0,1,1-1h10.51a1,1,0,0,1,1,1v43.26A1,1,0,0,1,444.62,736.94Zm-9.49-2h8.48V693.68h-8.48Z"/><path fill="#fff" d="M491.67,692.67,475,735.93H464.54l-16.37-43.26H459.9l10,30.67h.24l10-30.67Z"/><path fill="#333" d="M475,736.94H464.54a1,1,0,0,1-1-.65L447.22,693a1,1,0,0,1,.11-.94,1,1,0,0,1,.84-.44H459.9a1,1,0,0,1,1,.7L470,720.43l9.11-28.07a1,1,0,0,1,1-.71h11.55a1,1,0,0,1,.94,1.38l-16.68,43.26A1,1,0,0,1,475,736.94Zm-9.75-2h9.05l15.9-41.23h-9.33l-9.73,30a1,1,0,0,1-1,.71h-.24a1,1,0,0,1-1-.71l-9.79-30h-9.52Z"/><path fill="#fff" d="M525.39,735.93H495.21V692.67h29.08v8.86h-19v8.12h18V718h-18v9h20.1Z"/><path fill="#333" d="M525.39,736.94H495.21a1,1,0,0,1-1-1V692.67a1,1,0,0,1,1-1h29.08a1,1,0,0,1,1,1v8.86a1,1,0,0,1-1,1h-18v6.1h16.94a1,1,0,0,1,1,1V718a1,1,0,0,1-1,1H506.31v7h19.08a1,1,0,0,1,1,1v8.92A1,1,0,0,1,525.39,736.94Zm-29.16-2h28.15V728H505.29a1,1,0,0,1-1-1v-9a1,1,0,0,1,1-1h16.95v-6.34H505.29a1,1,0,0,1-1-1v-8.12a1,1,0,0,1,1-1h18v-6.83h-27Z"/><polygon fill="#333" points="353.57 733.2 353.57 699.3 374.36 717.66 353.57 733.2"/><path fill="#333" d="M353.57,734.22a1.07,1.07,0,0,1-.46-.11,1,1,0,0,1-.56-.91V699.3a1,1,0,0,1,1.69-.77L375,716.9a1,1,0,0,1,.34.8,1,1,0,0,1-.41.77L354.17,734A1,1,0,0,1,353.57,734.22Zm1-32.67v29.63l18.18-13.59Z"/><path fill="#ffb3b3" d="M347.68,410.32c.47-9-.4-18.76-1.7-21.63-2.12-5-12.78-25.88-13.61-32s-.49-13.53,7.79-29.56S349.85,313,349.85,313c10.06.27,5.31,16.28,5.31,16.28,5.48-3.59,9.54.21,9.54.21a11,11,0,0,1,11.92-1.22c8.09-2.29,21.07,10.26,21.49,16.26s-5.28,7.62-5.28,7.62c8.82,6.59,2.64,29.52,2.64,29.52s-.75,23.43-.28,25.12C381.81,413.56,365.83,411.92,347.68,410.32Z"/><path fill="#333" d="M370.28,412.75c-6.7,0-13.76-.63-21.24-1.29l-1.45-.13a1,1,0,0,1-.92-1.06c.49-9.3-.46-18.62-1.61-21.16-.56-1.31-1.66-3.64-3.07-6.59-4-8.36-10-21-10.63-25.65-1-7.05,0-14.88,7.9-30.17,7.72-14.82,9.68-14.82,10.42-14.82a1.42,1.42,0,0,1,.42.07,6.77,6.77,0,0,1,5.42,2.74c2.53,3.48,1.8,9.41,1.15,12.62a8.84,8.84,0,0,1,3.24-.63,8.63,8.63,0,0,1,4.79,1.49,11.26,11.26,0,0,1,6.72-2.2,12.82,12.82,0,0,1,5.32,1.18,9,9,0,0,1,2-.21c8.82,0,20,11.55,20.42,17.48a8.1,8.1,0,0,1-4.43,8c7.23,7.76,2.28,27.45,1.78,29.34-.29,8.9-.62,23.37-.31,24.7a1,1,0,0,1-.52,1.17C388.83,411.13,380.76,412.75,370.28,412.75Zm-21.54-3.36.48.05c7.43.65,14.45,1.28,21.06,1.28,9.83,0,17.43-1.46,23.83-4.57-.29-4.26.23-21,.34-24.55a1.57,1.57,0,0,1,0-.23c.06-.22,5.9-22.34-2.27-28.44a1,1,0,0,1,.34-1.8,6.28,6.28,0,0,0,4.54-6.56c-.36-5-10.79-15.6-18.39-15.6a6.6,6.6,0,0,0-1.81.24,1.06,1.06,0,0,1-.78-.09,10.58,10.58,0,0,0-4.7-1.12,9.4,9.4,0,0,0-6.08,2.23,1,1,0,0,1-1.34,0,6.52,6.52,0,0,0-4.09-1.48,7.71,7.71,0,0,0-4.2,1.38,1,1,0,0,1-1.53-1.14c0-.09,2.63-9-.31-13.07a4.81,4.81,0,0,0-4.05-1.91h-.12c-.54.36-2.76,2.39-8.64,13.68-8.5,16.46-8.43,23.58-7.69,28.95.6,4.34,6.77,17.31,10.46,25.06,1.41,3,2.53,5.31,3.09,6.64C348.29,391.31,349.1,400.82,348.74,409.39Z"/><path fill="#333" d="M392.3,386.37a1,1,0,0,1-.79-.37,1,1,0,0,1,.14-1.43,12,12,0,0,0,3.1-5.06,1,1,0,1,1,1.92.65,13.76,13.76,0,0,1-3.73,6A1,1,0,0,1,392.3,386.37Z"/><path fill="#333" d="M368.61,345a1,1,0,0,1-1-.85,17.17,17.17,0,0,1,8.57-16.86,1,1,0,0,1,1,1.76,15,15,0,0,0-7.57,14.77,1,1,0,0,1-.84,1.17Z"/><path fill="#333" d="M358,343.84h0a1,1,0,0,1-1-1.06c0-.3.44-7.5,7-14.1a1,1,0,0,1,1.44,0,1,1,0,0,1,0,1.44A21.73,21.73,0,0,0,359,342.87,1,1,0,0,1,358,343.84Z"/><path fill="#333" d="M347.5,345.42h-.12a1,1,0,0,1-.89-1.13,26,26,0,0,1,8.05-15.77,1,1,0,0,1,1.44.12,1,1,0,0,1-.12,1.43h0a24.35,24.35,0,0,0-7.35,14.46A1,1,0,0,1,347.5,345.42Z"/><path fill="#333" d="M350.24,322.82a9.5,9.5,0,0,1-6.47-2.73,1,1,0,1,1,1.48-1.4,7.61,7.61,0,0,0,4.76,2.09l1.5-4.32-2-1.11a1,1,0,0,1,1-1.78l2.75,1.53a1,1,0,0,1,.46,1.23l-2,5.79a1,1,0,0,1-.89.68Z"/><path fill="#333" d="M392.88,353.07a1,1,0,0,1-.77-.35A27.8,27.8,0,0,0,380.59,345a1,1,0,0,1,.59-2,29.42,29.42,0,0,1,12.47,8.3,1,1,0,0,1-.77,1.68Z"/><path fill="#333" d="M383.38,346.06a1,1,0,0,1-1-.69l-.67-2a1,1,0,1,1,1.92-.65l.68,2a1,1,0,0,1-.64,1.29A1,1,0,0,1,383.38,346.06Z"/><path fill="#333" d="M342.13,371.87l-.17,0a1,1,0,0,1-.83-1.16l1.55-9.26a1,1,0,1,1,2,.34L343.13,371A1,1,0,0,1,342.13,371.87Z"/><path fill="#333" d="M345.71,370a1,1,0,0,1-.67-.25l-6.14-5.43a1,1,0,0,1-.09-1.43,1,1,0,0,1,1.44-.09l6.13,5.42a1,1,0,0,1-.67,1.78Z"/><path fill="#333" d="M356.08,369.33h-.17a1,1,0,0,1-.83-1.17l1.54-9.25a1,1,0,1,1,2,.33l-1.55,9.25A1,1,0,0,1,356.08,369.33Z"/><path fill="#333" d="M359.66,367.48a1,1,0,0,1-.68-.26l-6.08-5.47a1,1,0,0,1-.08-1.43,1,1,0,0,1,1.44-.08l6.08,5.47a1,1,0,0,1-.68,1.77Z"/><path fill="#333" d="M368.06,366.72h-.17a1,1,0,0,1-.84-1.17l1.55-9.25a1,1,0,0,1,2,.33l-1.55,9.26A1,1,0,0,1,368.06,366.72Z"/><path fill="#333" d="M371.63,364.88a1,1,0,0,1-.67-.26l-6.13-5.42a1,1,0,1,1,1.34-1.52l6.14,5.42a1,1,0,0,1-.68,1.78Z"/><path fill="#bbb8ff" d="M398.08,394.48c-3.77-1.88-39.53,9.41-52.7,2.51,0,0-4.39,1.89-3.14,11.92,1,8.21-11,29-17.41,39.41h-.07s.46-28.17-7.84-49-28-56.74-28-56.74-29.27-34.92-69.33,13.86c-48.11,58.6-43.13,183.74-43.13,183.74s88.41,1.58,143.84.82c0,.16,0,.24,0,.24,8.72.66,16.29.55,23.24-.78,13.05-2.51,23.85-9.36,35.73-23.68C385.7,509,390,497,392.88,484.29c5.22-23.16,5.6-48.6,5.2-54.67C397.45,420.21,401.84,396.37,398.08,394.48Z"/><path fill="#333" d="M329.89,542.88h0c-3,0-6.14-.22-9.68-.49a1.16,1.16,0,0,1-.57-.27c-9.83.13-21.35.17-34.27.17-50.78,0-108.38-1-109-1a1,1,0,0,1-1-1A486.78,486.78,0,0,1,179,470.2c2.78-22.47,7-42.86,12.62-60.59,7-22.21,16.16-40.31,27.22-53.77,14.35-17.48,29-26.34,43.44-26.34,16.8,0,27,11.95,27.45,12.46a1,1,0,0,1,.11.17c.2.36,19.83,36.27,28.07,56.86,6.57,16.44,7.7,37.67,7.89,45.88,5.49-9.08,16.43-28.32,15.48-35.83-1.33-10.67,3.54-12.89,3.75-13a1,1,0,0,1,.87,0c2.71,1.43,6.78,2.15,12.09,2.15,8.6,0,18.75-1.83,26.91-3.29,5.27-.95,9.43-1.7,11.77-1.7a4.31,4.31,0,0,1,1.91.33c2.82,1.41,2.32,9,1.28,21.31-.47,5.51-.95,11.19-.72,14.66.42,6.28,0,32-5.22,55-3.33,14.8-8,25.88-13.83,32.94-11.78,14.22-22.65,21.5-36.32,24.13A72.61,72.61,0,0,1,329.89,542.88Zm-8.9-2.47c3.24.23,6.16.44,8.9.44h0a70.35,70.35,0,0,0,13.45-1.25c13.17-2.54,23.68-9.56,35.13-23.38,5.65-6.82,10.16-17.64,13.42-32.12,5.12-22.74,5.59-48.2,5.17-54.4-.24-3.62.23-9.14.73-15,.39-4.65.8-9.47.81-13.18,0-5.5-.88-6.1-1-6.16a3,3,0,0,0-1-.1A87.76,87.76,0,0,0,385.21,397c-8.24,1.48-18.49,3.32-27.27,3.32-5.39,0-9.49-.69-12.5-2.11-.87.72-3.11,3.31-2.19,10.63,1.11,8.87-11.91,31-17.56,40.07a1,1,0,0,1-.95.48.89.89,0,0,1-.72-.25.94.94,0,0,1-.27-.79c0-.28.36-28.21-7.78-48.56-8-20-26.78-54.47-27.91-56.54-.86-1-10.65-11.67-25.83-11.67-13.84,0-27.93,8.61-41.87,25.59-24.7,30.09-35.05,78.24-39.39,113.33a488.22,488.22,0,0,0-3.55,68.77c7.77.14,60.81,1,108,1,13.2,0,24.94,0,34.89-.15A1.15,1.15,0,0,1,321,540.41Z"/><path fill="#333" d="M247.05,222.58c13.48-10,82,2.7,89.74,14.63s-7.32,27-7.32,27Z"/><path fill="#333" d="M324.76,449.34a1,1,0,0,1-.84-.46c-2.55-3.81-4.63-11.6-7.26-21.46-7.09-26.58-17.81-66.75-49.68-69.8a1,1,0,0,1-.75-.45,1,1,0,0,1-.12-.87L270.73,342a1,1,0,0,1,1.93.63l-4.23,13.07c32.3,4.07,43.05,44.37,50.19,71.16,2.48,9.29,4.62,17.32,7,20.86a1,1,0,0,1-.85,1.58Z"/><path fill="#333" d="M338.9,543.34h0c-35.83-1-45-7-58.89-22.93-16.64-19.13-43.77-79.06-44.91-81.59a1.14,1.14,0,0,1,.5-1.45,1,1,0,0,1,1.35.45c.28.62,28.15,62,44.59,80.87,13.42,15.43,22.37,21.72,57.37,21.8.56,0,1,.87,1,1.43S339.46,543.34,338.9,543.34Z"/><path fill="#333" d="M250.51,403.84a1,1,0,0,1-.67-.26,1,1,0,0,1-.08-1.43c21.62-24.33,47.12-24.21,47.37-24.22a1,1,0,0,1,1,1,1,1,0,0,1-1,1c-.22,0-24.84-.06-45.83,23.54A1,1,0,0,1,250.51,403.84Z"/><path fill="#333" d="M262.3,328.28c-6.78,16.77-32.2,38.73-42.21,44.5s-32.35,10.79-46.6-7.7-16.56-52.38,14.63-63.16c25.2-8.71,29.66-25.42,29.66-25.42s2.31-50.71,34.66-55.72,60.17,10.65,60.17,10.65l-24.35,65.48Z"/><path fill="#ffb3b3" d="M336.05,286.17c-1,2.41-2.5,5.31-4.34,6.66,0,0-.48,18.54-10.39,29.21a22.86,22.86,0,0,1-1.72,1.69l-.33.28c-11.55,9.87-27.42,3.52-27.42,3.52a81.71,81.71,0,0,0-3.36,13.69c-.09.72,6.46,13.91,6.46,13.91s-39.17-19.93-32.65-26.85S273.59,298,273.59,298s-8.23,2.21-17.11-4.23-6-19.45,5.14-22.75,16.06,4.62,16.06,4.62c4.19,2.68,15.71-5.53,23.89-17s11-27.26,11-27.26,13.77,4,17.15,16-.49,24,.79,27.52a13.33,13.33,0,0,0,4,5.31A5.15,5.15,0,0,1,336.05,286.17Z"/><path fill="#333" d="M295,356.15a1.07,1.07,0,0,1-.46-.11c-3.31-1.69-32.39-16.7-33.87-25.22a3.62,3.62,0,0,1,.94-3.23c5.33-5.66,9.56-23.13,10.72-28.3a19.58,19.58,0,0,1-2.26.13,24,24,0,0,1-14.14-4.8,13,13,0,0,1-5.46-12.9c.93-5.46,5.11-9.92,10.91-11.64a19.22,19.22,0,0,1,5.51-.86,14.06,14.06,0,0,1,11.56,5.69,2.73,2.73,0,0,0,1.25.25c4.28,0,13.57-6.52,21.09-17.06,7.94-11.12,10.85-26.7,10.87-26.85a1.07,1.07,0,0,1,.47-.68,1,1,0,0,1,.82-.11c.58.17,14.35,4.31,17.84,16.69,2.16,7.69,1.43,15.28.9,20.82-.29,3-.53,5.53-.13,6.64a12.45,12.45,0,0,0,3.73,4.87,6.16,6.16,0,0,1,1.74,7.08c-1.32,3.2-2.76,5.48-4.27,6.78-.15,3.06-1.36,19.39-10.64,29.4-.55.59-1.16,1.18-1.8,1.75l0,.05-.33.27a24.73,24.73,0,0,1-16.56,5.74,35.86,35.86,0,0,1-10.84-1.72,79.18,79.18,0,0,0-3,12.37c.35,1.16,3.48,7.72,6.34,13.48a1,1,0,0,1-.2,1.17A1,1,0,0,1,295,356.15ZM273.59,297a1,1,0,0,1,.7.28,1,1,0,0,1,.3.94c-.2,1-4.91,23.69-11.55,30.74a1.59,1.59,0,0,0-.42,1.5c1,5.77,20,17,30,22.31-5.29-10.78-5.22-11.37-5.18-11.69a82.09,82.09,0,0,1,3.41-13.9,1,1,0,0,1,.54-.59,1,1,0,0,1,.8,0,33.52,33.52,0,0,0,11.1,1.93,22.82,22.82,0,0,0,15.28-5.28c.12-.1.2-.16.27-.23l.05,0c.58-.52,1.14-1.07,1.65-1.62,9.52-10.26,10.11-28.36,10.12-28.54a1,1,0,0,1,.41-.79c1.33-1,2.72-3.15,4-6.24a4.11,4.11,0,0,0-1.18-4.74,14,14,0,0,1-4.33-5.74c-.56-1.54-.32-4.05,0-7.53.51-5.38,1.22-12.75-.84-20.07-2.65-9.4-12.2-13.72-15.4-14.93-.83,3.9-4,16.67-11,26.51-7.17,10.05-17.16,17.91-22.74,17.91a4.52,4.52,0,0,1-2.51-.67,1.05,1.05,0,0,1-.32-.31,11.91,11.91,0,0,0-10-5,17.33,17.33,0,0,0-4.93.77c-5.05,1.5-8.69,5.35-9.49,10A11,11,0,0,0,257.07,293a22,22,0,0,0,12.95,4.4,14,14,0,0,0,3.31-.33Z"/><path fill="#333" d="M321.32,322a22.86,22.86,0,0,1-1.72,1.69l-.33.28c-11.55,9.87-27.42,3.52-27.42,3.52a81.71,81.71,0,0,0-3.36,13.69c-10.14-13.37-5.3-31.93-5.3-31.93C290.43,320.79,307.62,332,321.32,322Z"/><path fill="#333" d="M273.38,289.41h-.08a1,1,0,0,1-.94-1.09,9.48,9.48,0,0,0-5-8.21c-2.75-1.36-5.72-.74-8.6,1.79a1,1,0,0,1-1.34-1.53c4.72-4.15,8.82-3.08,10.84-2.07,3.66,1.82,6.4,6.38,6.12,10.17A1,1,0,0,1,273.38,289.41Z"/><path fill="#333" d="M264.89,286.94a1,1,0,0,1-.79-1.65l4.23-5.21a1,1,0,1,1,1.58,1.28l-4.23,5.21A1,1,0,0,1,264.89,286.94Z"/><path fill="#333" d="M319.25,254.73a4.89,4.89,0,0,0-3.14.4,2.49,2.49,0,0,0-1.29,2.7,3.66,3.66,0,0,0,1.86,1.92,32.4,32.4,0,0,0,4.66,2.28,4.59,4.59,0,0,0,1.25.36,2.72,2.72,0,0,0,3-3.32,4.28,4.28,0,0,0-1.56-2.2A9.86,9.86,0,0,0,319.25,254.73Z"/><path fill="#fff" d="M308.6,274.35a39.55,39.55,0,0,0,8.24,2c2.2.31,5.8,1.14,7.53-.78,3-3.3-2-6.64-4.65-7.58-3.59-1.29-9.19-2.71-12.9-1.21a3.86,3.86,0,0,0-2.6,3.66c.17,2,2.17,3,3.82,3.67Z"/><path fill="#333" d="M320.83,277.84h0a21.69,21.69,0,0,1-3.35-.34l-.78-.11a41,41,0,0,1-8.45-2.09l-.57-.21c-1-.4-4.22-1.61-4.48-4.53a4.87,4.87,0,0,1,3.24-4.69,11.15,11.15,0,0,1,4.2-.72,29.6,29.6,0,0,1,9.42,1.91c2.1.76,5.46,2.83,6.12,5.47a3.94,3.94,0,0,1-1.06,3.75A5.43,5.43,0,0,1,320.83,277.84Zm-10.19-10.66a9.21,9.21,0,0,0-3.44.57,2.92,2.92,0,0,0-2,2.63c.1,1.13,1.11,2,3.18,2.81l.54.2a38.89,38.89,0,0,0,8,2l.82.12a21.29,21.29,0,0,0,3,.31h0a3.61,3.61,0,0,0,2.79-.89,1.91,1.91,0,0,0,.59-1.89c-.43-1.74-3.14-3.45-4.84-4.06A28.11,28.11,0,0,0,310.64,267.18Z"/><circle cx="319.46" cy="271.14" r="3.41" fill="#333"/><path fill="#333" d="M302.22,281.52a1,1,0,0,1-.66-.24,1,1,0,0,1-.12-1.43l3.12-3.69a1,1,0,1,1,1.55,1.31L303,281.16A1,1,0,0,1,302.22,281.52Z"/><path fill="#333" d="M309,283.22a1,1,0,0,1-.33-.06,1,1,0,0,1-.63-1.29l1.14-3.26a1,1,0,1,1,1.91.66L310,282.54A1,1,0,0,1,309,283.22Z"/><path fill="#fff" d="M306.05,296.06c-1.57,3.45,3.62,8.6,6.17,10.14a9.16,9.16,0,0,0,12.36-2.13c2.43-3.13,2.58-7.26-2-8.05a109.74,109.74,0,0,0-12.35-1.7C308.6,294.23,306.71,294.61,306.05,296.06Z"/><path fill="#333" d="M317.39,308.71h0a11.1,11.1,0,0,1-5.69-1.64c-2.72-1.64-8.47-7.26-6.58-11.43.68-1.49,2.37-2.35,4.64-2.35h.49a97.46,97.46,0,0,1,11.12,1.49l1.34.23c2.72.47,3.81,1.91,4.25,3,.74,1.93.16,4.41-1.58,6.63A10,10,0,0,1,317.39,308.71Zm-7.63-13.39c-.53,0-2.3.08-2.79,1.16-1.17,2.57,3.14,7.26,5.77,8.85a9.11,9.11,0,0,0,4.65,1.35,8,8,0,0,0,6.39-3.23c1.25-1.61,1.75-3.44,1.28-4.66a3.19,3.19,0,0,0-2.7-1.77l-1.33-.23a95.53,95.53,0,0,0-10.89-1.46Z"/><ellipse cx="268.56" cy="282.03" fill="#8ef4ef" rx="20.25" ry="20.91" transform="rotate(-2.29 269.148 282.424)"/><path fill="#333" d="M268.6,304c-11.47,0-20.82-9.26-21.29-21.08a22.11,22.11,0,0,1,5.59-15.73,20.81,20.81,0,0,1,14.78-7l.84,0c11.46,0,20.82,9.26,21.29,21.08.48,12.08-8.66,22.29-20.37,22.76Zm-.08-41.83-.76,0a18.78,18.78,0,0,0-13.35,6.35,20.13,20.13,0,0,0-5.07,14.3c.44,11,9.3,19.54,20,19.11s18.87-9.69,18.43-20.65C287.35,270.53,278.89,262.13,268.52,262.13Z"/><path fill="#8ef4ef" d="M255,282.43a13.21,13.21,0,1,1,13.72,12.67A13.21,13.21,0,0,1,255,282.43Z"/><path fill="#333" d="M268.18,296.12a14.19,14.19,0,1,1,.58,0Zm0-26.42h-.49a12.19,12.19,0,1,0,.49,0Z"/><rect width="2.2" height="13.36" x="270.74" y="247.39" fill="#fff" transform="rotate(177.7 271.836 254.072)"/><rect width="2.2" height="13.36" x="264.44" y="247.64" fill="#fff" transform="rotate(177.7 265.529 254.326)"/><path fill="#8ef4ef" d="M273.81,250.29l-11,1-1.26-32.17s9.72-1.65,12.14-1Z"/><path fill="#333" d="M261.88,252.44l-1.34-34.13.88-.15A84,84,0,0,1,272,217a7.82,7.82,0,0,1,2,.19l.75.2.09,33.84Zm.76-32.42,1.19,30.19,9-.84L272.71,219l-.71,0A74.49,74.49,0,0,0,262.64,220Z"/><path fill="#333" d="M262.49,280.36a1.76,1.76,0,0,1,0-3.52l11.1-.45a1.76,1.76,0,1,1,.15,3.52l-11.11.45Z"/><path fill="#fff" d="M265.67,284.13a2.42,2.42,0,1,1,2.51,2.32A2.42,2.42,0,0,1,265.67,284.13Z"/><path fill="#333" d="M251.77,223.12a1,1,0,0,1-.64-.23,17.52,17.52,0,0,1-6.07-13.28c0-.56.46-1.27,1-1.27h0c.56,0,1,.72,1,1.28a15.33,15.33,0,0,0,3.51,9.76,10.18,10.18,0,0,1,6.9-8.73,1,1,0,0,1,.6,2,8.22,8.22,0,0,0-5.33,9.24,1,1,0,0,1-.47,1.1A1,1,0,0,1,251.77,223.12Z"/><path fill="#333" d="M322.8,480.34h-.05a1,1,0,0,1-1-1c.05-1.16.11-2.48.16-3.91.53-13.21,1.19-25.33,3.36-28.58a1,1,0,0,1,1.4-.28A1,1,0,0,1,327,448c-2,3.05-2.65,18.39-3,27.55-.05,1.43-.11,2.73-.16,3.9A1,1,0,0,1,322.8,480.34Z"/><path fill="#333" d="M313.39,468.27h-.15a1,1,0,0,1-.86-1.15c.1-.67,2.48-16.45,11.4-21.24a1,1,0,0,1,1.37.41,1,1,0,0,1-.41,1.38c-8,4.3-10.33,19.59-10.35,19.74A1,1,0,0,1,313.39,468.27Z"/><path fill="#ffb3b3" d="M481.24,422.23c-1.5-3.26-3-6.06-3.93-7-2.81-2.8-32.77-22.16-34.26-24.31s-8.7-11.59-9.46-16.28c-.81-5,2.11-5.5,2.11-5.5-6.62-12.62,1.86-15,1.86-15,.89-2.89,5-6.91,10.28-3.45S456,361.34,459.3,364.9s9.16,6.33,9.16,6.33l-6.81-10.07s-11.3-16.25-3.82-19.28c5.14-2.08,9,9,16,17.35,2.27,2.71,6.1,5.38,11.11,8.54s6.35,2.08,9.11-2.3,1.78-25,11.64-21.85c5,1.6,2.08,15.42,2.62,20.35s5.55,14.87,7.11,22.47c1.12,5.46-1,11-2.26,13.7a4.15,4.15,0,0,0,0,3.53l2.77,7.05.44,1c-11.35,5.09-22.71,10.07-34.21,14.54C481.83,424.91,481.53,423.55,481.24,422.23Z"/><path fill="#333" d="M482.14,427.31a1.12,1.12,0,0,1-.47-.11,1.05,1.05,0,0,1-.52-.68c-.3-1.35-.59-2.68-.88-4-2.2-4.78-3.25-6.21-3.67-6.64-1.26-1.24-8.74-6.33-16-11.25-11.9-8.09-17.59-12-18.4-13.2-.2-.29-.51-.72-.89-1.24-2.61-3.63-8.05-11.17-8.74-15.45-.6-3.71.69-5.38,1.74-6.12-2.26-4.65-2.76-8.5-1.49-11.46a7.51,7.51,0,0,1,3.92-3.92,7.9,7.9,0,0,1,7-5,8.34,8.34,0,0,1,4.6,1.5c3.53,2.3,6,6.13,8.14,9.51a36,36,0,0,0,3.52,4.93,25.94,25.94,0,0,0,5.19,4.06l-4.43-6.55c-.32-.46-8.05-11.65-6.29-17.59a4.79,4.79,0,0,1,2.93-3.19,4.33,4.33,0,0,1,1.64-.33c3.45,0,6.12,4.15,9.5,9.41a83.15,83.15,0,0,0,6,8.56c2.16,2.58,5.91,5.2,10.87,8.34,1.8,1.13,3,1.66,3.94,1.66,1.13,0,2-.85,3.77-3.65.73-1.16,1.23-4,1.75-7,1.21-7,2.71-15.63,8.81-15.63a7.54,7.54,0,0,1,2.26.38c4.28,1.39,3.83,8.83,3.43,15.39a41.22,41.22,0,0,0-.12,5.82c.26,2.35,1.65,6.08,3.13,10a90.09,90.09,0,0,1,4,12.35c1.17,5.7-1,11.43-2.34,14.34a3.12,3.12,0,0,0,0,2.67s0,0,0,.05l3.2,8.07a1,1,0,0,1-.52,1.32c-10.85,4.86-22.51,10-34.26,14.56A1.15,1.15,0,0,1,482.14,427.31Zm-38.35-77a5.92,5.92,0,0,0-5.26,4.07,1,1,0,0,1-.69.67,5.41,5.41,0,0,0-3.15,3c-1.06,2.52-.4,6.19,1.91,10.6a1,1,0,0,1-.72,1.47c-.06,0-1.91.49-1.29,4.34S440.65,385.81,443,389l.91,1.27c.81,1.08,10.27,7.51,17.87,12.68,8,5.42,14.88,10.11,16.27,11.49,1,.95,2.3,3.35,4.13,7.33a1.72,1.72,0,0,1,.07.21l.65,2.9c11-4.31,21.93-9.1,32.16-13.68l-.06-.13-2.77-7a5.19,5.19,0,0,1,0-4.36c1.27-2.68,3.24-7.94,2.19-13.07a86.87,86.87,0,0,0-3.88-12c-1.53-4.08-3-7.93-3.25-10.53a40.18,40.18,0,0,1,.12-6.16c.29-4.95.75-12.44-2-13.33a5.3,5.3,0,0,0-1.63-.29c-4.39,0-5.73,7.74-6.81,13.95-.58,3.36-1.08,6.26-2,7.77-1.64,2.6-3.09,4.59-5.49,4.59-1.33,0-2.83-.59-5-2-5.13-3.24-9-6-11.35-8.75a86.42,86.42,0,0,1-6.17-8.76c-2.93-4.55-5.45-8.48-7.79-8.48a2.35,2.35,0,0,0-.88.18,2.77,2.77,0,0,0-1.74,1.89c-1.23,4.15,3.92,12.86,6,15.87l6.81,10.08a1,1,0,0,1-1.27,1.49c-.25-.12-6-2.9-9.47-6.55a37.45,37.45,0,0,1-3.74-5.23c-2.05-3.2-4.37-6.84-7.54-8.9A6.38,6.38,0,0,0,443.79,350.3Z"/><path fill="#333" d="M459.59,378.08a.91.91,0,0,1-.39-.08c-6.79-2.83-12.43-9.93-14.49-15.48-1.44-3.86-3.34-6.64-5.08-7.43a2.13,2.13,0,0,0-1.71-.07,1,1,0,0,1-.73-1.9,4.14,4.14,0,0,1,3.27.12c3.1,1.4,5.18,6,6.15,8.57,1.55,4.16,6.38,11.4,13.37,14.32a1,1,0,0,1-.39,1.95Z"/><path fill="#333" d="M457,386.94a1,1,0,0,1-.41-.09c-8.7-3.89-9.8-5.74-12.45-10.23l-.21-.35c-2.54-4.29-4.86-6-8.28-6.14a1,1,0,0,1,.08-2c4.16.16,7,2.23,9.95,7.13l.21.35c2.56,4.33,3.42,5.79,11.52,9.42a1,1,0,0,1-.41,1.94Z"/><path fill="#333" d="M455.68,393.65a1.09,1.09,0,0,1-.39-.08,1,1,0,0,1-.55-1.32c5.8-14.08,20-24.18,20.63-24.61a1,1,0,0,1,1.42.25,1,1,0,0,1-.25,1.41c-.14.11-14.35,10.2-19.92,23.72A1,1,0,0,1,455.68,393.65Z"/><path fill="#333" d="M491,402.2a1,1,0,0,1-.91-.56c-7-13.8-.7-22.91-.44-23.29a1,1,0,0,1,1.42-.24,1,1,0,0,1,.24,1.41h0c-.24.35-5.79,8.55.59,21.21a1,1,0,0,1-.45,1.36A1,1,0,0,1,491,402.2Z"/><path fill="#333" d="M612.93,220.73c-17.33,2.7-33.12,3.85-42,8.09s-22,23.88-21.18,29.27,9.63-1.16,9.63-1.16-2.7,13.87,5.77,13.87S612.93,220.73,612.93,220.73Z"/><path fill="#f8bb24" d="M569.67,501.25l-5.39,38.09H497.13a3.68,3.68,0,0,1-.9-.06c-1.52-7.25-2.57-15.09-1.85-20.55,1.84-14.13-7.25-28.36-11.79-40.66s-1.92-34.2-1.92-34.2c-7.74-8.82-12.27-31.34-12.27-31.34s7.15-4.53,24-7,21.87-9.86,29-9.27S531.68,427,531.68,427s2.8,2.81,10.83,13.17S557.49,477.25,569.67,501.25Z"/><path fill="#333" d="M564.28,541.34H497.13c-.46,0-.81-.4-1.05-.52-.05,0-.09-.16-.14-.18a1,1,0,0,1-.7-.81c-1.3-6.19-2.68-14.89-1.87-21.07,1.34-10.28-3.24-20.6-7.66-30.56-1.5-3.38-2.92-6.57-4.08-9.7-4.26-11.55-2.38-31-2-34.27-7.64-9.12-12-30.56-12.21-31.48a1,1,0,0,1,.45-1.06c.3-.19,7.53-4.68,24.4-7.2a58.31,58.31,0,0,0,18.91-6.22c3.51-1.73,6.28-3.1,9.46-3.1.3,0,.6,0,.89,0,3.52.29,6.37,5.65,8.72,16.41,1.46,6.68,2.25,13.38,2.42,14.94.83.91,3.87,4.38,10.66,13.13,4.43,5.72,8.5,16.26,13.22,28.47,4,10.28,8.47,21.94,14,32.92a1,1,0,0,1,.1.6l-5.38,38.58C565.22,540.76,564.79,541.34,564.28,541.34Zm-67.09-3H563.4l5.22-36.9c-5.56-11-10-22.45-14-32.69C550,456.7,546,446.35,541.7,440.87c-7.87-10.17-10.73-13.17-10.76-13.2a.92.92,0,0,1-.27-.58c-1.16-11.35-4.72-29.49-9.32-29.86-3-.25-5.73,1.1-9.3,2.86a60.13,60.13,0,0,1-19.5,6.41c-13.72,2-21,5.48-23,6.57.85,3.89,5.19,22.52,11.89,30.16a1,1,0,0,1,.25.79c0,.22-2.54,21.86,1.86,33.77,1.13,3.07,2.54,6.23,4,9.57,4.33,9.75,9.24,20.79,7.83,31.64-.6,4.51,0,11.28,1.74,19.59C497.15,538.6,497.17,538.34,497.19,538.34Z"/><path fill="#f8bb24" d="M608.83,315.69c19.36-6.91,46.08-10.59,47.46-3.22s-1.84,9.21.46,12.44,14.75,17,6.46,24c0,0,15.09,19.38,26.75,62.12,10.4,38.13,6.93,129.1,6.93,129.1l-172.22-.61s22.73-68.81,27.64-100.76,19-67.05,20.57-86.27C574.42,334,608.83,315.69,608.83,315.69Z"/><path fill="#333" d="M696.89,541.11h0l-172.23-.62a1,1,0,0,1-.82-.42,1,1,0,0,1-.14-.91c.23-.69,22.76-69.1,27.61-100.59,2.51-16.35,7.45-33.66,11.81-48.93,4.27-15,8-28,8.75-37.27,1.56-18.83,35.06-36.82,36.49-37.57a.38.38,0,0,1,.13-.06c12.28-4.39,27-7.33,36.75-7.33,7.39,0,11.45,1.64,12,4.87a19.67,19.67,0,0,1-.1,8.1c-.35,1.77-.52,2.66.39,3.94.24.33.62.82,1.06,1.38,3.54,4.55,12.76,16.4,5.92,23.3,2.85,4,16.06,23.87,26.38,61.72s7,128.5,7,129.41A1,1,0,0,1,696.89,541.11Zm-170.83-2.64,169.85.6c.33-9.94,2.73-92.38-6.93-127.81-11.46-42-26.43-61.57-26.58-61.77a1,1,0,0,1,.16-1.4c6.63-5.53-1.89-16.47-5.53-21.14-.47-.6-.84-1.08-1.1-1.45-1.42-2-1.1-3.62-.74-5.5a17.56,17.56,0,0,0,.11-7.35c-.39-2-4-3.21-10.06-3.21-9.48,0-23.93,2.89-36,7.18-1.66.9-33.91,18.56-35.36,35.91-.79,9.52-4.51,22.56-8.82,37.67s-9.26,32.45-11.75,48.68C548.82,468.09,529.24,528.72,526.06,538.47Z"/><path fill="#333" d="M620.76,340.25c16.44-8.21,31-19.65,29.15-23.1s-10-4-17.81-1.23-23,10.14-23,10.14l5.3,12.21Z"/><path fill="#fff" d="M574.59,412.32a2,2,0,0,1-1.88-1.27,46.93,46.93,0,0,1-3.2-15.66c0-5.07,3.7-8.55,7.28-11.91,2.48-2.34,4.83-4.55,5.71-7.05a17.09,17.09,0,0,0,0-11.09,2,2,0,1,1,3.75-1.54,21,21,0,0,1,0,14c-1.2,3.44-4,6.1-6.76,8.67-3.08,2.9-6,5.64-6,8.95a43.59,43.59,0,0,0,2.89,14.12,2,2,0,0,1-1.11,2.66A2.07,2.07,0,0,1,574.59,412.32Z"/><path fill="#333" d="M574.59,413.33a3,3,0,0,1-2.82-1.89,48.56,48.56,0,0,1-3.27-16.05c0-5.5,3.86-9.14,7.59-12.65,2.4-2.25,4.65-4.38,5.45-6.65a16,16,0,0,0,.05-10.37,3.06,3.06,0,0,1,1.66-4,3.17,3.17,0,0,1,1.17-.23,3,3,0,0,1,2.81,1.9,22,22,0,0,1,.06,14.69c-1.28,3.66-4.2,6.41-7,9.06s-5.69,5.35-5.69,8.22a42.88,42.88,0,0,0,2.82,13.74,3,3,0,0,1-2.82,4.2Zm9.83-49.78a1.09,1.09,0,0,0-.39.08,1,1,0,0,0-.55.55,1,1,0,0,0,0,.78,18,18,0,0,1,0,11.81c-1,2.73-3.4,5-6,7.45-3.43,3.22-7,6.54-7,11.17a46,46,0,0,0,3.12,15.28,1,1,0,0,0,1.33.55,1,1,0,0,0,.55-1.32,44.15,44.15,0,0,1-3-14.51c0-3.75,3.07-6.63,6.32-9.69,2.64-2.49,5.37-5.06,6.49-8.26a20.1,20.1,0,0,0,0-13.25A1,1,0,0,0,584.42,363.55Z"/><path fill="#333" d="M565.57,492.45a32.43,32.43,0,0,0,2.62-8.2c2.77-13,4.13-26.39,9.54-38.48,1.89-4.21,4.29-8.37,4.54-13a2.68,2.68,0,0,0-.51-2.06,2.63,2.63,0,0,0-1.48-.65c-4.17-.79-8.43.36-12.66.68a33,33,0,0,1-13.78-1.91c-.53,3.37-1,6.69-1.53,9.86-.12.8-.26,1.64-.41,2.49l.29.13a43.5,43.5,0,0,0,10.48,1.88,6.92,6.92,0,0,1,2.66.63c2.16,1.18,2.44,4.42,1.1,6.48s-3.78,3.14-6.16,3.76a26.54,26.54,0,0,1-11.08.46c-1.2,5.22-2.58,10.8-4.09,16.52a8.33,8.33,0,0,0,4.17.32,22.41,22.41,0,0,0,3.88-1.51,17,17,0,0,1,9.27-1.06q0,6.36,0,12.72c-3.21,1.93-6.48,3.88-10.13,4.7a17.69,17.69,0,0,1-11-1.18c-1.47,5.2-3,10.35-4.43,15.3a97.18,97.18,0,0,1,23,3.17C560.3,499.36,563.62,496.17,565.57,492.45Z"/><path fill="#3c251d" d="M527.43,536.25l-.12,0a.45.45,0,0,1-.32-.56c.2-.73,20.3-72.64,23-86.9a.48.48,0,0,1,.54-.37.47.47,0,0,1,.36.54c-2.73,14.3-22.84,86.25-23,87A.45.45,0,0,1,527.43,536.25Z"/><path fill="#333" d="M579,539.87a1,1,0,0,1-.37-.07,1,1,0,0,1-.57-1.31c0-.15,5.78-14.69,8-22.63,2.43-8.51,3.4-14.76,3.05-19.68-.19-2.62,1-5.65,2.31-9.15,1.62-4.24,3.46-9,3.46-14.42,0-9.42,4.2-65.37,6.18-75.68a1,1,0,0,1,2,.39c-2,10.24-6.15,65.91-6.15,75.29,0,5.76-2,11-3.59,15.15-1.26,3.27-2.34,6.1-2.19,8.27.37,5.17-.62,11.65-3.12,20.38-2.29,8.05-8.06,22.67-8.12,22.82A1,1,0,0,1,579,539.87Z"/><path fill="#333" d="M658.77,539.1h-.17a1,1,0,0,1-.84-1.17c11.79-71.46,8.88-112.58,8.85-113a1,1,0,0,1,.94-1.09,1,1,0,0,1,1.08.94c0,.41,3,41.78-8.86,113.47A1,1,0,0,1,658.77,539.1Z"/><path fill="#333" d="M595.6,366.17a1,1,0,0,1-1-.79,1,1,0,0,1,.77-1.21c10.86-2.39,18.23-6.16,25.37-9.8,3.1-1.59,6-3.09,9.12-4.4,5.89-2.49,11.7-2.15,17.85-1.8a69.89,69.89,0,0,0,15.33-.3,1,1,0,1,1,.31,2,72.35,72.35,0,0,1-15.76.33c-6.16-.36-11.48-.66-16.94,1.64-3,1.28-5.92,2.76-9,4.33-6.91,3.54-14.74,7.54-25.85,10A.82.82,0,0,1,595.6,366.17Z"/><path fill="#333" d="M584.82,355.79c-4.37.77-5.27-4-4.24-9s12.84-12.45,12.84-12.45l6.42,9.76Z"/><path fill="#333" d="M635.53,381.45a1,1,0,0,1-1-.92c0-.23-2.08-22.5-5.18-29.19a1,1,0,0,1,1.85-.86c3.24,7,5.26,28.94,5.35,29.87a1,1,0,0,1-.92,1.1Z"/><path fill="#333" d="M600.61,412.26a1,1,0,0,1-.77-1.67c.52-.61,13.22-14.74,54-1.85a1,1,0,0,1,.66,1.27,1,1,0,0,1-1.28.67c-39.47-12.5-51.69,1.09-51.81,1.23A1,1,0,0,1,600.61,412.26Z"/><path fill="#333" d="M501,439.84a1,1,0,0,1-1-.8,1,1,0,0,1,.78-1.21c14.5-3.17,30.27-11.64,30.43-11.72a1,1,0,1,1,1,1.79c-.16.08-16.19,8.68-31,11.92Z"/><path fill="#333" d="M659.92,271.83c0-28.19-9.24-54.69-52-50.71-26.27,2.44-39.67,16.87-39.67,45.06s13.29,57,39.67,57S659.92,300,659.92,271.83Z"/><path fill="#ffb3b3" d="M556.68,283.88c.6,2.43,1.6,5.38,3.14,6.93,0,0-2.23,17.61,5.6,29.15a22.78,22.78,0,0,0,1.38,1.85l.27.31c9.5,11,25.44,7.31,25.44,7.31a78.06,78.06,0,0,1,1.2,13.44c0,.69-8.13,12.23-8.13,12.23s48.31-17.16,43.14-24.66-8.85-25.08-8.85-25.08,1.67,2.08,11-2.73,8.48-17.54-1.57-22.28-15.87,2-15.87,2c-10.28,1.33-9.79-15.39-11.76-31.37-1.64-13.36-14.89-15.56-14.89-15.56s-13.61,1.8-18.54,12.65-3,22.77-4.74,25.94a12.86,12.86,0,0,1-4.59,4.44A4.92,4.92,0,0,0,556.68,283.88Z"/><path fill="#333" d="M585.58,356.12a1,1,0,0,1-.83-1.6c3.53-5,7.44-10.76,8-11.83a75.26,75.26,0,0,0-1-12.07,34.83,34.83,0,0,1-5.45.42h0c-5.84,0-14-1.43-19.93-8.26l-.22-.25-.05-.06c-.53-.64-1-1.29-1.46-1.94-7.32-10.8-6.12-26.4-5.81-29.37a17.43,17.43,0,0,1-3.06-7,5.92,5.92,0,0,1,2.69-6.49,11.88,11.88,0,0,0,4.23-4.06c.53-1,.67-3.44.83-6.28.3-5.33.71-12.62,3.87-19.59,5.11-11.24,18.76-13.16,19.34-13.24a1,1,0,0,1,.3,0c.14,0,14,2.48,15.73,16.44.33,2.7.6,5.43.85,8.06,1.16,12.07,2.17,22.49,8.78,22.49l.64,0a13.42,13.42,0,0,1,9.42-3.78,17.14,17.14,0,0,1,7.36,1.79,14.42,14.42,0,0,1,8.67,12.64,12.51,12.51,0,0,1-7.07,11.46c-4.24,2.18-7.53,3.29-9.79,3.29h-.31c1.06,4.53,4.25,17.13,8.32,23a3.19,3.19,0,0,1,.38,2.9c-2.72,8.41-39.8,21.8-44,23.3A1,1,0,0,1,585.58,356.12Zm6.93-27.71a1,1,0,0,1,.56.17,1,1,0,0,1,.44.66,78.34,78.34,0,0,1,1.21,13.66c0,.32,0,.89-6.46,10.15,12.73-4.73,37.87-15.11,39.75-20.91a1.2,1.2,0,0,0-.12-1.13c-5.22-7.57-8.86-24.71-9-25.44a1,1,0,0,1,.56-1.13,1,1,0,0,1,1.14.2,2.23,2.23,0,0,0,1,.15c1.33,0,3.94-.53,8.86-3.06a10.5,10.5,0,0,0,6-9.62,12.44,12.44,0,0,0-7.5-10.84,15.35,15.35,0,0,0-6.5-1.59,11.34,11.34,0,0,0-8.17,3.38,1,1,0,0,1-.64.35,10.9,10.9,0,0,1-1.25.08c-8.46,0-9.54-11.27-10.8-24.32-.25-2.63-.52-5.34-.85-8-1.44-11.73-12.49-14.37-13.9-14.66-1.48.24-13.24,2.44-17.6,12-3,6.63-3.4,13.7-3.69,18.86-.19,3.34-.33,5.76-1.08,7.14a13.41,13.41,0,0,1-4.95,4.82,3.9,3.9,0,0,0-1.78,4.27c.76,3.11,1.75,5.34,2.87,6.47a1,1,0,0,1,.28.84c0,.17-2.08,17.37,5.44,28.45a21.52,21.52,0,0,0,1.33,1.77l0,.06.18.2c5.42,6.28,13,7.59,18.42,7.59a30.82,30.82,0,0,0,6.06-.57A.83.83,0,0,1,592.51,328.41Z"/><path fill="#333" d="M565.42,320a22.78,22.78,0,0,0,1.38,1.85l.27.31c9.5,11,25.44,7.31,25.44,7.31a78.06,78.06,0,0,1,1.2,13.44c11.53-11.19,9.64-29.45,9.64-29.45C594.84,323.25,576.94,331.38,565.42,320Z"/><path fill="#333" d="M615.67,296.08h-.08a1,1,0,0,1-.93-1.09c.28-3.64,3.55-7.58,7.29-8.78,2.07-.67,6.12-1.09,10,3.55a1,1,0,1,1-1.56,1.3c-2.35-2.8-5-3.81-7.83-2.92a9,9,0,0,0-5.89,7A1,1,0,0,1,615.67,296.08Z"/><path fill="#333" d="M624.06,295a1,1,0,0,1-.88-.51l-3.24-5.54a1,1,0,1,1,1.75-1l3.24,5.54a1,1,0,0,1-.36,1.39A1.06,1.06,0,0,1,624.06,295Z"/><path fill="#333" d="M577.14,256.56a4.64,4.64,0,0,1,2.91.83,2.39,2.39,0,0,1,.83,2.74,3.54,3.54,0,0,1-2,1.55,31,31,0,0,1-4.74,1.49,5.21,5.21,0,0,1-1.24.16,2.61,2.61,0,0,1-2.31-3.58,4.05,4.05,0,0,1,1.79-1.85A9.32,9.32,0,0,1,577.14,256.56Z"/><path fill="#fff" d="M584.37,276.67a38.55,38.55,0,0,1-8.09.73c-2.13,0-5.66.23-7-1.83-2.33-3.55,2.89-6,5.51-6.51,3.58-.69,9.08-1.22,12.37.73a3.7,3.7,0,0,1,1.94,3.84c-.45,1.86-2.49,2.56-4.15,2.92Z"/><path fill="#333" d="M576.88,278.42c-.21,0-.41,0-.61,0s-.4,0-.61,0h-.3c-2.17,0-5.44,0-6.94-2.25a3.8,3.8,0,0,1-.47-3.72c1-2.42,4.52-3.9,6.62-4.31a33.41,33.41,0,0,1,6.24-.65,13.51,13.51,0,0,1,6.85,1.5,4.71,4.71,0,0,1,2.41,5c-.68,2.76-3.88,3.45-4.93,3.67l-.57.12A39.47,39.47,0,0,1,576.88,278.42Zm-1.22-2.08c.22,0,.44,0,.64,0a37.61,37.61,0,0,0,7.87-.71l.54-.1c2.06-.45,3.13-1.14,3.39-2.17a2.79,2.79,0,0,0-1.47-2.73,11.63,11.63,0,0,0-5.82-1.21,31.77,31.77,0,0,0-5.85.61c-1.68.33-4.48,1.55-5.13,3.11a1.76,1.76,0,0,0,.28,1.82c.9,1.37,3.51,1.35,5.24,1.35h.31Z"/><path fill="#333" d="M577.78,272.55a3.26,3.26,0,1,0-3.71,2.73A3.26,3.26,0,0,0,577.78,272.55Z"/><path fill="#fff" d="M582,296.75c1.32,2.93-3.07,7.28-5.23,8.59a7.77,7.77,0,0,1-10.47-1.8c-2.06-2.65-2.19-6.15,1.73-6.82a92.27,92.27,0,0,1,10.46-1.44C579.81,295.2,581.41,295.52,582,296.75Z"/><path fill="#333" d="M572.36,307.62a8.63,8.63,0,0,1-6.89-3.46c-1.5-1.93-2-4.09-1.36-5.77a4.43,4.43,0,0,1,3.72-2.67l1.12-.2a84.5,84.5,0,0,1,9.45-1.26h.42c2,0,3.47.76,4.07,2.08,1.74,3.84-3.59,8.65-5.63,9.88A9.56,9.56,0,0,1,572.36,307.62Zm6.46-11.34h-.31a79.86,79.86,0,0,0-9.21,1.24l-1.13.19a2.54,2.54,0,0,0-2.16,1.4,4.25,4.25,0,0,0,1.06,3.79,6.64,6.64,0,0,0,5.29,2.68,7.58,7.58,0,0,0,3.86-1.12c2.19-1.33,5.78-5.2,4.82-7.3C580.67,296.34,579.25,296.28,578.82,296.28Z"/><path fill="#333" d="M586,236.39c2.83,4.11-2.05,26.45,2.57,28.5S596,252.57,596,252.57s-2.31,13.87,7.19,16.43,19.51-11.81,19.51-11.81,16.18,13.61,24.39,13.1,9.5-12.07,9.5-12.07,2.06,11,9.5,10-3.59-27-8.73-36.2-23.36-13.1-36.71-11S586,236.39,586,236.39Z"/><ellipse cx="621.55" cy="286" fill="#8ef4ef" rx="21.2" ry="21.89"/><path fill="#333" d="M621.55,308.9c-12.24,0-22.21-10.27-22.21-22.9s10-22.9,22.21-22.9,22.22,10.27,22.22,22.9S633.8,308.9,621.55,308.9Zm0-43.77c-11.12,0-20.18,9.36-20.18,20.87s9.06,20.87,20.18,20.87,20.19-9.36,20.19-20.87S632.68,265.13,621.55,265.13Z"/><circle cx="621.94" cy="285.85" r="13.82" fill="#8ef4ef" transform="rotate(-45 621.94 285.844)"/><path fill="#333" d="M621.94,300.69a14.84,14.84,0,1,1,14.84-14.84A14.86,14.86,0,0,1,621.94,300.69Zm0-27.65a12.81,12.81,0,1,0,12.81,12.81A12.83,12.83,0,0,0,621.94,273Z"/><rect width="2.3" height="13.98" x="615.8" y="249.91" fill="#fff"/><rect width="2.3" height="13.98" x="622.4" y="249.91" fill="#fff"/><path fill="#8ef4ef" d="M614.73,253l11.5.63,0-33.69s-10.23-1.32-12.74-.54Z"/><path fill="#333" d="M627.25,254.73l-13.5-.73-1.32-35.3.74-.24a11,11,0,0,1,3-.29,100.71,100.71,0,0,1,10.14.79l.89.12Zm-11.54-2.66,9.51.51,0-31.71a89,89,0,0,0-9-.67,16.42,16.42,0,0,0-1.68.07Z"/><path fill="#333" d="M627.78,283.7H616.14a1.85,1.85,0,0,1,0-3.69h11.64a1.85,1.85,0,0,1,0,3.69Z"/><path fill="#fff" d="M624.67,288.08a2.54,2.54,0,1,0-2.54,2.53A2.54,2.54,0,0,0,624.67,288.08Z"/><g opacity=".28"><ellipse cx="443.64" cy="266.08" fill="#333" rx="50.31" ry="60.05"/></g><path fill="#333" d="M443.64,203.9c28.91,0,52.44,27.9,52.44,62.18s-23.53,62.19-52.44,62.19-52.45-27.9-52.45-62.19S414.72,203.9,443.64,203.9Zm0,120.1c26.56,0,48.17-26,48.17-57.92s-21.61-57.91-48.17-57.91-48.18,26-48.18,57.91S417.07,324,443.64,324Z"/><path fill="#333" d="M429.31,315.32h21.75a2.79,2.79,0,0,0,2.79-2.67l1.35-33H424.91l1.61,33A2.79,2.79,0,0,0,429.31,315.32Z"/><rect width="30.25" height="41.28" x="424.94" y="234.95" fill="#8ef4ef" transform="rotate(180 440.06 255.585)"/><path fill="#333" d="M456.2,277.24H423.92V233.93H456.2Zm-30.25-2h28.22V236H426Z"/><rect width="30.26" height="8.14" x="424.93" y="271.69" fill="#333" transform="rotate(180 440.06 275.76)"/><rect width="35.41" height="10.67" x="422.36" y="274.27" fill="#e1eae9" transform="rotate(180 440.06 279.605)"/><path fill="#333" d="M457.76,286h-35.4a1,1,0,0,1-1-1V274.27a1,1,0,0,1,1-1h35.4a1,1,0,0,1,1,1v10.67A1,1,0,0,1,457.76,286Zm-34.39-2h33.38v-8.65H423.37Z"/><polygon fill="#8ef4ef" points="424.93 234.99 455.19 234.99 445.98 219.65 434.5 219.65 424.93 234.99"/><path fill="#333" d="M457,236H423.1l10.84-17.38h12.62Zm-30.22-2h26.63l-8-13.32H435.07Z"/><rect width="12.14" height="12.81" x="433.99" y="207.11" fill="#333" transform="rotate(180 440.06 213.51)"/><path fill="#333" d="M416.28,253.54H463a1.07,1.07,0,0,1,0,2.14h-46.7a1.07,1.07,0,0,1,0-2.14Z"/><path fill="#333" d="M426.2,266.47,438.81,289a1.07,1.07,0,0,0,.92.54h0a1.07,1.07,0,0,0,.92-.52l13.28-22.49a1,1,0,0,0,.15-.54v-11c-.3-.05-.59-.1-.88-.17a11.06,11.06,0,0,1-1.26.52v10.41L439.77,286.3,428.2,265.67V254.85a11,11,0,0,1-2.13-.28V266A1.06,1.06,0,0,0,426.2,266.47Z"/><path fill="#333" d="M426.2,244.06l12.61-22.48a1.1,1.1,0,0,1,.92-.55h0a1.06,1.06,0,0,1,.92.53L453.94,244a1,1,0,0,1,.15.54v11.06a8.55,8.55,0,0,0-.88.17,8.32,8.32,0,0,0-1.26-.52V244.88l-12.18-20.64L428.2,244.86v10.83a11,11,0,0,0-2.13.28V244.58A1.06,1.06,0,0,1,426.2,244.06Z"/><path fill="#333" d="M416.15,253.81a1,1,0,0,1,.34.06,1.06,1.06,0,0,1,.67,1.35l-8.8,25.69,17.74-16.15a1.07,1.07,0,0,1,1.44,1.58l-20.81,19a1.08,1.08,0,0,1-1.31.1,1.06,1.06,0,0,1-.42-1.24l10.14-29.62A1.06,1.06,0,0,1,416.15,253.81Z"/><path fill="#333" d="M416.15,255.41a1,1,0,0,0,.34-.06,1.07,1.07,0,0,0,.67-1.36l-8.8-25.68,17.74,16.15a1.07,1.07,0,0,0,1.51-.08,1.05,1.05,0,0,0-.07-1.5l-20.81-18.95a1.07,1.07,0,0,0-1.31-.1,1,1,0,0,0-.42,1.23l10.14,29.63A1.06,1.06,0,0,0,416.15,255.41Z"/><path fill="#333" d="M463.65,253.81a1,1,0,0,0-.34.06,1.06,1.06,0,0,0-.67,1.35l8.8,25.69L453.7,264.76a1.07,1.07,0,1,0-1.44,1.58l20.81,19a1.08,1.08,0,0,0,1.31.1,1.06,1.06,0,0,0,.42-1.24l-10.14-29.62A1.06,1.06,0,0,0,463.65,253.81Z"/><path fill="#333" d="M463.65,255.41a1,1,0,0,1-.34-.06,1.07,1.07,0,0,1-.67-1.36l8.8-25.68L453.7,244.46a1.07,1.07,0,0,1-1.51-.08,1.05,1.05,0,0,1,.07-1.5l20.81-18.95a1.07,1.07,0,0,1,1.31-.1,1,1,0,0,1,.42,1.23l-10.14,29.63A1.06,1.06,0,0,1,463.65,255.41Z"/><rect width="570.78" height="49.3" x="160.48" y="492.74" fill="#333"/><path fill="#cc3b3b" d="M184,509.69a7.32,7.32,0,1,0,0,14.63h274c0-4.87-.08-9.75-.25-14.63Z"/><path fill="#333" d="M457.92,525.34H184a8.34,8.34,0,0,1,0-16.67h273.7a1,1,0,0,1,1,1c.15,4.46.23,9.26.25,14.67a1,1,0,0,1-1,1ZM184,510.7a6.31,6.31,0,0,0,0,12.61H456.9c0-4.59-.09-8.73-.21-12.61Z"/><path fill="#fff" d="M702.37,509.69H457.67c.17,4.88.24,9.76.25,14.63H702.37a7.32,7.32,0,1,0,0-14.63Z"/><path fill="#333" d="M702.37,525.34H457.92a1,1,0,0,1-1-1c0-5.39-.1-10.17-.25-14.61a1,1,0,0,1,.28-.74,1,1,0,0,1,.73-.31h244.7a8.34,8.34,0,0,1,0,16.67Zm-243.44-2H702.37a6.31,6.31,0,0,0,0-12.61H458.72C458.84,514.58,458.91,518.73,458.93,523.31Z"/><circle cx="456.78" cy="515.34" r="14.64" fill="#cc3b3b" transform="rotate(-45 456.78 515.336)"/><path fill="#333" d="M456.78,531a15.66,15.66,0,1,1,15.65-15.65A15.67,15.67,0,0,1,456.78,531Zm0-29.27a13.62,13.62,0,1,0,13.62,13.62A13.64,13.64,0,0,0,456.78,501.72Z"/><path fill="#ffb3b3" d="M655.81,547.51s32.89-76,63.71-87.34c0,0,18.58-113.34,105.85-123.32,36-4.11,32.88,37,23.63,54.47s-21.58,36-32.88,73S792.48,564,792.48,564Z"/><path fill="#333" d="M792.49,565a.65.65,0,0,1-.2,0,1,1,0,0,1-.8-1.19c.12-.63,12.47-63.16,23.66-99.78,9.28-30.37,19.46-48.7,27.64-63.42,1.87-3.37,3.64-6.55,5.32-9.72,5.73-10.83,9.3-32.27,1.07-44.32-4.77-7-12.75-9.91-23.7-8.66C780.84,343,754.7,376,740.62,402.72a213.89,213.89,0,0,0-20.09,57.61,1,1,0,0,1-.66.79c-30.06,11-62.8,86-63.13,86.8a1,1,0,1,1-1.86-.81,400.37,400.37,0,0,1,20.35-39.55c15.92-26.93,30.52-43.12,43.39-48.14a218.31,218.31,0,0,1,20.2-57.64c9.09-17.29,20-31.5,32.53-42.22a98.66,98.66,0,0,1,53.9-23.72c11.76-1.34,20.38,1.87,25.61,9.53,9.07,13.3,4.79,35.56-1,46.42-1.69,3.19-3.46,6.38-5.34,9.76-8.55,15.4-18.25,32.86-27.47,63-11.16,36.53-23.49,99-23.61,99.58A1,1,0,0,1,792.49,565Z"/><path fill="#333" d="M830.79,411.58c-6.15,0-15.86-1.54-26.31-9.15a23.58,23.58,0,0,1-5.94-31.77l8.06-12.53a25.44,25.44,0,0,1,30.07-10.39,27,27,0,0,1,8.05,4.5,1,1,0,0,1-1.29,1.57,24.88,24.88,0,0,0-7.45-4.16,23.42,23.42,0,0,0-27.67,9.57l-8.06,12.54a21.54,21.54,0,0,0,5.42,29c16.42,12,31.14,8.17,31.29,8.13a1,1,0,0,1,1.24.71,1,1,0,0,1-.71,1.25A27.46,27.46,0,0,1,830.79,411.58Z"/><path fill="#ffb3b3" d="M220.05,547.51s-32.88-76-63.71-87.34c0,0-18.58-113.34-105.84-123.32-36-4.11-32.89,37-23.64,54.47s21.58,36,32.88,73S83.38,564,83.38,564Z"/><path fill="#333" d="M83.38,565a1,1,0,0,1-1-.82c-.12-.62-12.45-63.06-23.61-99.58-9.21-30.16-18.91-47.62-27.47-63-1.88-3.38-3.65-6.57-5.34-9.76-5.75-10.86-10-33.12-1-46.42,5.24-7.66,13.85-10.87,25.61-9.53a98.63,98.63,0,0,1,53.9,23.72C117,370.28,128,384.49,137,401.78a218.31,218.31,0,0,1,20.2,57.64c12.88,5,27.47,21.21,43.39,48.14A400.37,400.37,0,0,1,221,547.11a1,1,0,1,1-1.86.81c-.33-.76-33.06-75.77-63.13-86.8a1,1,0,0,1-.65-.79,214.63,214.63,0,0,0-20.12-57.65C121.14,375.92,95,343,50.38,337.86c-11-1.25-18.92,1.66-23.7,8.66C18.46,358.57,22,380,27.76,390.84c1.67,3.17,3.44,6.35,5.31,9.72,8.18,14.72,18.36,33.05,27.65,63.42,11.18,36.62,23.53,99.15,23.65,99.78a1,1,0,0,1-.8,1.19A.62.62,0,0,1,83.38,565Z"/><path fill="#333" d="M45.07,411.58a27.33,27.33,0,0,1-6.69-.71,1,1,0,1,1,.52-2h0c.15,0,14.92,3.79,31.29-8.13a21.52,21.52,0,0,0,5.42-29l-8.06-12.54a23.42,23.42,0,0,0-27.67-9.57,24.82,24.82,0,0,0-7.44,4.16,1,1,0,0,1-1.3-1.57,26.91,26.91,0,0,1,8.06-4.5,25.43,25.43,0,0,1,30.06,10.39l8.06,12.53a23.57,23.57,0,0,1-5.94,31.77C60.93,410,51.22,411.58,45.07,411.58Z"/><path fill="#bbb8ff" d="M610.64,1H286.4A23.58,23.58,0,0,0,262.82,24.6V93.65a23.59,23.59,0,0,0,23.58,23.59h118l44,42.92,40-42.92H610.64a23.59,23.59,0,0,0,23.58-23.59V24.6A23.58,23.58,0,0,0,610.64,1Z"/><path fill="#333" d="M448.33,161.18a1.05,1.05,0,0,1-.71-.29l-43.68-42.64H286.4a24.63,24.63,0,0,1-24.6-24.6V24.6A24.63,24.63,0,0,1,286.4,0H610.64a24.63,24.63,0,0,1,24.59,24.6V93.65a24.62,24.62,0,0,1-24.59,24.6H488.77l-39.7,42.6a1,1,0,0,1-.71.33ZM286.4,2A22.6,22.6,0,0,0,263.83,24.6V93.65a22.6,22.6,0,0,0,22.57,22.57h118a1,1,0,0,1,.71.29l43.23,42.2,39.29-42.17a1,1,0,0,1,.74-.32H610.64A22.59,22.59,0,0,0,633.2,93.65V24.6A22.59,22.59,0,0,0,610.64,2Z"/><circle cx="315.99" cy="60.32" r="32.39" fill="#daff88"/><path fill="#333" d="M316,93.73A33.41,33.41,0,1,1,349.4,60.32,33.45,33.45,0,0,1,316,93.73ZM316,29a31.38,31.38,0,1,0,31.37,31.37A31.41,31.41,0,0,0,316,29Z"/><polygon fill="#333" points="304.83 81.67 304.83 38.97 335.78 59.36 304.83 81.67"/><rect width="7.45" height="89.43" x="398.24" y="13.22" fill="#fff" rx="3.2"/><rect width="7.45" height="56.82" x="413.61" y="29.52" fill="#fff" rx="3.2"/><rect width="7.45" height="56.82" x="383.34" y="29.52" fill="#fff" rx="3.2"/><rect width="7.45" height="32.84" x="427.82" y="41.51" fill="#fff" rx="3.2"/><rect width="7.45" height="32.84" x="369.13" y="41.51" fill="#fff" rx="3.2"/><rect width="7.45" height="14.67" x="356.09" y="51.41" fill="#fff" rx="3.2"/><rect width="7.45" height="89.43" x="482.55" y="13.22" fill="#fff" rx="3.2"/><rect width="7.45" height="56.82" x="497.92" y="29.52" fill="#fff" rx="3.2"/><rect width="7.45" height="56.82" x="467.65" y="29.52" fill="#fff" rx="3.2"/><rect width="7.45" height="32.84" x="512.13" y="41.51" fill="#fff" rx="3.2"/><rect width="7.45" height="32.84" x="453.44" y="41.51" fill="#fff" rx="3.2"/><rect width="7.45" height="14.67" x="440.4" y="51.41" fill="#fff" rx="3.2"/><rect width="7.45" height="89.43" x="568.26" y="13.22" fill="#fff" rx="3.2"/><rect width="7.45" height="56.82" x="583.63" y="29.52" fill="#fff" rx="3.2"/><rect width="7.45" height="56.82" x="553.35" y="29.52" fill="#fff" rx="3.2"/><rect width="7.45" height="32.84" x="597.83" y="41.51" fill="#fff" rx="3.2"/><rect width="7.45" height="32.84" x="539.15" y="41.51" fill="#fff" rx="3.2"/><rect width="7.45" height="14.67" x="526.1" y="51.41" fill="#fff" rx="3.2"/></svg>