<svg xmlns="http://www.w3.org/2000/svg" data-name="6" viewBox="0 0 4680 3120"><rect width="4680" height="3120" fill="#fff" data-name="6" opacity="0"/><g><ellipse cx="2987.4" cy="2581.21" fill="#a8bdef" rx="1289.57" ry="178.79"/><ellipse cx="1217.73" cy="2561.71" fill="#a8bdef" rx="814.7" ry="178.79"/><g><g><path fill="#e6edfa" d="m2187.42,452.55c-578.29,33.14-1305.17,148.08-1305.17,148.08l-170.07,323.13s253.17,992.03,970.66,1676.89c596.84-657.73,1368.56-631.23,1368.56-631.23,0,0-725.69-688.73-863.98-1516.87Z"/><polygon fill="#aabfef" points="882.25 600.63 712.18 923.76 942.38 848.02 882.25 600.63"/><g><path fill="#fff" d="m2418.58,1566.56c-18.06,29.67-58.93,42.7-89.37,56.35l-117.93,52.85c-78.62,35.24-157.25,70.47-235.87,105.71-78.61,35.23-157.41,70-236.19,104.85-37.74,16.7-75.49,33.39-113.23,50.09-38.18,16.89-78.06,37.09-119.17,45.27-16.18,3.22-21.69-19.62-10.31-28.16,32.03-24.04,73.14-39.74,109.49-56.12,39.28-17.71,78.58-35.35,117.87-53.03,76.94-34.61,153.84-69.31,230.94-103.55,77.09-34.23,154.17-68.46,231.26-102.69,39.36-17.48,78.73-34.96,118.09-52.44,31.56-14.01,71.87-39.09,107.5-32.27,5.38,1.03,10.21,7.76,6.93,13.15Z"/><path fill="#fff" d="m2299.64,1436.98c-25.85,26.37-55.32,40.16-88.72,54.79-34.73,15.22-69.47,30.43-104.2,45.65-71.11,31.15-142.41,61.83-213.69,92.59-142.58,61.53-283.9,125.23-431.08,175.04-9.16,3.1-17.38-10.65-8.15-15.7,134.29-73.53,274.5-133.88,414.19-196.31,69.27-30.96,138.47-62.07,207.91-92.65,36.36-16.01,72.72-32.03,109.09-48.04,35.29-15.54,67.13-30.16,106.29-31.41,7.82-.25,14.76,9.53,8.37,16.04Z"/><path fill="#fff" d="m2173.43,1306.41c-129.09,52.82-263.53,95.41-394.9,142.31-64.2,22.92-129.08,44.04-193.73,65.66-66.31,22.17-130.23,44.1-199.51,54.09-5.6.81-8.67-7.43-3.81-10.42,58.12-35.65,119.37-59.27,182.86-83.95,65.2-25.35,130.24-51.26,195.94-75.29,131.01-47.91,261.62-101.09,394.65-142.99,33.07-10.42,50.71,37.41,18.51,50.58Z"/><path fill="#fff" d="m2494.29,1738.81c-89.93,38-183.5,68.84-274.98,102.69-44.71,16.54-89.87,31.82-134.87,47.45-46.16,16.03-90.67,31.87-138.81,39.34-3.89.6-5.97-5.18-2.58-7.31,40.56-25.47,83.22-42.49,127.44-60.27,45.41-18.26,90.72-36.91,136.47-54.25,91.23-34.56,182.21-72.83,274.81-103.17,23.02-7.54,34.96,26.04,12.54,35.52Z"/><path fill="#fff" d="m2142.77,1140.28c31.92,43.66-84.13,57.85-105.29,63.07-126.11,31.12-252.04,63.12-378.46,92.96-68.79,16.24-137.54,32.41-206.63,47.35-73.67,15.94-146.72,34.07-222.1,39.11-8.88.59-11.21-11.3-3.35-14.79,59.49-26.41,121.55-43.01,184.12-60.46,62.45-17.42,124.97-34.34,187.73-50.58,125.7-32.53,251.84-63.33,377.87-94.57,31.52-7.81,63.01-15.72,94.55-23.43,19.95-4.88,55.89-20.11,71.57,1.33Z"/></g></g><g><g><path fill="#8ba8e9" d="m1258.24,1176.77c-60.86,14.83-123.85,5.07-177.37-27.48-53.52-32.55-91.16-83.99-105.99-144.85-29.31-120.31,40.33-243.1,158.56-279.56,4.52-1.39,9.16-2.67,13.77-3.8,125.63-30.61,252.74,46.7,283.35,172.33,29.31,120.3-40.34,243.1-158.56,279.56-4.52,1.39-9.16,2.67-13.77,3.8Zm-268.85-175.86c13.88,56.98,49.13,105.15,99.24,135.63,50.11,30.48,109.09,39.61,166.08,25.73,4.32-1.05,8.67-2.25,12.91-3.56,110.69-34.13,175.9-149.11,148.46-261.76-28.66-117.64-147.68-190.02-265.32-161.36-4.32,1.05-8.67,2.25-12.91,3.56-110.69,34.13-175.9,149.11-148.45,261.76Z"/><circle cx="1202.73" cy="948.93" r="200.72" fill="#fff" transform="rotate(-45 1202.722 948.936)"/><g><path fill="#8ba8e9" d="m1200.53,941.15c-19.03,4.64-38.88-.35-53.55-11.78-10.79-8.23-18.89-20.22-22.46-34.87-8.21-33.68,12.35-68.18,46.04-76.38,34.17-8.33,68.3,12.84,76.5,46.53,3.57,14.65,1.91,29.02-3.9,41.29-7.78,16.9-23.09,30.45-42.62,35.21Z"/><path fill="#8ba8e9" d="m1119.15,1077.1c9.46,38.82,226.24-14,216.78-52.82l-11.09-45.22c-23.63-59.76-214.79-15.93-216.75,52.81l11.06,45.23Z"/></g></g><g><path fill="#fff" d="m2105.59,725.9c8.75-2,13.14,2.39,9.76,9.74l-6.99,14.29c-3.38,7.36-13.28,14.88-22,16.71l-592.2,137.2c-8.72,1.83-14.72-2.54-13.34-9.7l2.97-15.35c1.39-7.17,9.68-14.66,18.42-16.66l603.38-136.22Z"/><path fill="#fff" d="m2129.58,822.58c8.75-2,13.14,2.39,9.76,9.74l-6.99,14.29c-3.38,7.36-13.28,14.88-22,16.71l-592.2,137.2c-8.72,1.83-14.72-2.54-13.34-9.7l2.97-15.35c1.39-7.17,9.68-14.66,18.42-16.66l603.38-136.22Z"/><path fill="#fff" d="m1991.81,959.41c8.75-2,13.14,2.39,9.76,9.74l-6.99,14.29c-3.38,7.36-13.28,14.88-22,16.71l-430.44,97.06c-8.72,1.83-14.72-2.54-13.34-9.7l2.97-15.35c1.39-7.17,9.68-14.66,18.42-16.66l441.62-96.08Z"/></g></g></g><g><g><g><g><g><path fill="#d7e1f7" d="m3323.6,1028.42s-112.87,232.23-221.56,210.28c-89.28-18.04-150.34-319.61-150.34-319.61l55.9-15.78,93.61,166.35,142.63-254.42s83.22,153.08,79.76,213.19Z"/><path fill="#7093e4" d="m3117.26,1003.49s23.44,42.34,52.04,86.17c20.03,30.7,42.59,62.12,61.41,80.25v-7.92s42.41-153.32,31.61-277.62c-2.55-29.37-8.07-57.11-17.82-80.84l-127.24,199.96Z"/><path fill="#c1d0f3" d="m3101.93,1071.58c-.05,19.96,1.23,39.86,3.84,59.64.3,2.3-3.32,2.28-3.62,0-2.61-19.79-3.89-39.68-3.84-59.64,0-2.33,3.63-2.33,3.62,0h0Z"/><path fill="#c1d0f3" d="m3102.02,1091.32c4.97,7.29,9.95,14.57,14.92,21.86,1.32,1.93-1.82,3.74-3.13,1.83-4.97-7.29-9.95-14.57-14.92-21.85-1.32-1.93,1.82-3.75,3.13-1.83h0Z"/><path fill="#678de2" d="m3169.3,1089.66c20.03,30.7,42.59,62.12,61.41,80.25v-7.92s42.41-153.32,31.61-277.62c-9.08-18.67-15.21-30.61-15.21-30.61,0,0-40.66,40.66-44.6,110.19-2.97,52.51-7.44,87.08-33.21,125.72Z"/></g><g><polygon fill="#d7e1f7" points="3620.42 2389.13 3620.42 2559.82 3554.12 2565.1 3521.67 2404.87 3620.42 2389.13"/><path fill="#3b6bda" d="m3670.89,1418.37s-17.35,364.13-7.69,488.17c9.66,124.03,46.08,437.43-22.46,523.51-46.15,57.96-119.07,49.91-141.24,13.7-30.24-49.39-74.86-380.84-78.74-508.1-3.88-127.26-40.25-450.87,3.29-517.28,43.54-66.41,246.85,0,246.85,0Z"/><path fill="#89a6e9" d="m3524.47,2465.52c36.56,4,73.15-4.26,104.49-23.49,2.29-1.4.19-5.01-2.11-3.6-30.78,18.89-66.49,26.85-102.39,22.92-2.67-.29-2.65,3.88,0,4.17h0Z"/><path fill="#537edf" d="m3644.66,1451.34c-7.51,133.61-11.23,267.44-11.07,401.26.08,66.51,1.1,133.02,3.08,199.5,1.92,64.59,5.57,129.07,8.29,193.61,2.57,60.89,1.36,126.84-35.23,178.55-1.35,1.91,1.79,3.72,3.13,1.83,31.37-44.33,37.1-99.79,36.51-152.64-.33-29.77-2.44-59.51-3.89-89.24-1.64-33.62-3.03-67.24-4.18-100.88-4.6-134.55-5.32-269.23-2.14-403.81,1.8-76.11,4.85-152.18,9.13-228.19.13-2.33-3.49-2.32-3.62,0h0Z"/><path fill="#537edf" d="m3521.67,2435.66s0,44.53,4.6,47.55c4.6,3.02,90.31,8.3,102.51-6.79,12.2-15.09.65-48.65.65-48.65l-107.76,7.9Z"/></g><g><polygon fill="#d7e1f7" points="3324.99 2389.13 3324.99 2553.26 3258.69 2558.55 3226.23 2404.87 3324.99 2389.13"/><path fill="#3b6bda" d="m3511.25,1428.11s-94.7,347.27-169.24,497.43c-19.46,39.21,74.73,415.47,17.12,490.64-71.3,93.02-147.68,55.38-176.57-43.71-15.79-54.17-62.73-372.62-55.48-465.93,7.24-93.32,91.98-497.19,123.36-528.3,31.38-31.11,260.81,49.87,260.81,49.87Z"/><path fill="#89a6e9" d="m3226.91,2452.41c35.64,8.39,72.63,5.99,106.84-7.08,2.48-.95,1.41-4.99-1.11-4.03-33.55,12.82-69.64,15.32-104.62,7.08-2.61-.62-3.73,3.41-1.11,4.02h0Z"/><path fill="#537edf" d="m3398.77,1447.65c-2.54,92.42-.05,184.94,7.44,277.09.19,2.31,3.81,2.33,3.62,0-7.49-92.15-9.97-184.67-7.44-277.09.06-2.33-3.56-2.33-3.62,0h0Z"/><path fill="#537edf" d="m3426.52,1447.64c.76,18.32.57,36.66-.7,54.96-.99,14.18.03,46.88-21.17,46.18-2.33-.08-2.33,3.55,0,3.62,18.96.63,22.15-21.21,23.58-35.51,2.3-23.01,2.88-46.15,1.92-69.25-.1-2.32-3.72-2.33-3.62,0h0Z"/><path fill="#537edf" d="m3271.65,1431.06c-7.85,32.35-29.11,60.17-58.27,76.23-2.04,1.12-.22,4.25,1.83,3.13,29.94-16.49,51.87-45.18,59.93-78.39.55-2.26-2.94-3.23-3.49-.96h0Z"/><path fill="#537edf" d="m3396.87,1671.91c-50.5,79.24-103.16,162.86-111.02,258.94-3.93,48.04,6.89,94.02,21.54,139.44,14.84,45.99,29.97,91.38,38.55,139.07,9.95,55.35,13.09,111.79,9.57,167.91-.15,2.33,3.48,2.32,3.62,0,3.01-48.08,1.12-96.37-5.69-144.06-6.83-47.75-19.37-93.84-34.54-139.55-15.06-45.37-30.31-91.33-30.37-139.66-.06-48.19,12.86-95.68,31.94-139.64,21.49-49.53,50.6-95.21,79.54-140.63,1.26-1.97-1.88-3.79-3.13-1.83h0Z"/><path fill="#537edf" d="m3226.23,2437.95s-4.6,41.51,0,44.53c4.6,3.02,94.9,11.32,107.11-3.77,12.2-15.09.65-48.65.65-48.65l-107.76,7.9Z"/></g><g><path fill="#6389e2" d="m3389.63,696.81s.02-.08.02-.1c-.01-.01-.04.02-.07.1h.05Z"/><path fill="#7093e4" d="m3682.27,1447.64c-8.25,4.43-22.08,4.75-42.82,3.91-1.2-.05-2.45-.1-3.69-.16-23.75-1.07-56.01-3.36-98.56-2.96-1.23.01-2.45.02-3.68.04-22.35.3-47.49,1.35-75.65,3.7-13.02,1.1-26.49,1.65-40.11,1.76-1.25.01-2.51.02-3.76.02-27.26.03-55.14-1.73-81.76-4.81-4.48-.52-8.91-1.06-13.3-1.66-1.2-.16-2.41-.32-3.62-.49-26.78-3.73-51.75-8.7-72.84-14.38-1.19-.32-2.36-.65-3.53-.97-38.69-10.76-63.36-23.87-60.35-35.61,21.23-82.91,34.56-172.44,44.22-249.42l-.39-.23s.49-2.51,1.3-6.99c.01-.1.02-.18.04-.28,4.37-35.39,8-67.92,11.27-95.69h.01c1.25-24.41.94-49.42-2.63-70.33-11.26-66.16-9.99-150.22,12.09-169.56,15.34-13.43,80.33-48.78,118.59-69.09,3.38-1.79,6.56-3.47,9.46-5,1.06-.55,2.1-1.11,3.08-1.62.83-.43,1.63-.84,2.38-1.25,8.39-4.41,13.55-7.08,13.55-7.08l92.32-23.21h.01c8.67,3.17,17.95,6.78,27.55,10.75.92.36,1.81.76,2.71,1.13,1.62.68,3.25,1.36,4.88,2.04,56.1,23.82,120.58,58.28,143.08,84.36,9.97,11.57,15.22,58.01,17.83,113.55,2.77,58.7,2.57,127.53,1.87,176.09l.54.05s37.52,343.28-.11,363.39Z"/><path fill="#678de2" d="m3332.24,1449.14c26.61,3.08,54.5,4.84,81.76,4.81,1.25,0,2.51-.01,3.76-.02,13.62-.1,27.1-.66,40.12-1.75,28.16-2.35,53.29-3.41,75.65-3.7,1.24-.02,2.45-.03,3.68-.04,42.55-.41,74.81,1.88,98.57,2.96,1.25.07,2.49.11,3.69.16,20.73.84,34.56.51,42.82-3.91,37.62-20.12.1-363.39.1-363.39l-.54-.05c.69-48.55.89-117.39-1.87-176.09-32.25-30.57-75.67-69.59-75.67-69.59,0,0-49.91,86.89-35.12,143.28,4.65,17.73,17.53,52.84,32.11,95.04,8.47,24.47,17.5,51.32,25.82,78.55,22.97,75.06,40.6,152.94,26.19,191.54-22.71,60.83-222.59,95.5-321.06,102.2Z"/><path fill="#6c90e3" d="m3511.45,707.03c-9.49,17.18-16.31,46.69-67.89,61.37-31.33,8.91-56.33-2.53-73.43-14.56-3.96-2.79-6.98-11.46-7.04-19.41,3.38-1.79,6.56-3.47,9.46-5,1.06-.55,2.1-1.11,3.08-1.62.15.92,1.62-.85,2.38-1.25,8.39-4.41,13.55-7.08,13.55-7.08l92.33-23.2c8.67,3.16,17.95,6.77,27.55,10.74Z"/></g><g><g><path fill="#d7e1f7" d="m3491.81,1280.79l21.79,79.63s416.7-167.54,393.64-241.03c-6.56-20.9-22.41-69.28-71.6-138.69-25.67-36.24-56.94-72.3-93.6-101.12l-100.14,137.56s34.67,25.64,60.91,51.93c13.02,13.04,23.97,26.25,27.58,36.56,8.53,24.4-238.58,175.17-238.58,175.17Z"/><path fill="#b8c9f2" d="m3641.89,1017.14s34.67,25.64,60.91,51.93c45.56-26.13,114.44-76.03,132.83-88.37-25.67-36.24-56.94-72.3-93.6-101.12l-100.14,137.56Z"/></g><path fill="#89a6e9" d="m3560.86,1463.65c18.36,33.9,44.18,63.12,75.5,85.58,1.9,1.36,3.71-1.78,1.83-3.13-30.81-22.1-56.15-50.95-74.2-84.28-1.11-2.05-4.24-.22-3.13,1.83h0Z"/><path fill="#7093e4" d="m3610.05,755.54c89.25,29.26,165.06,113.2,204.43,171.09l-150.86,143.02s-59.57-35.67-79.5-125.83c-21.93-99.21,25.93-188.29,25.93-188.29Z"/></g></g><g><g><path fill="#fff" fill-rule="evenodd" d="m3332.06,2554.71l1.22-18.55s1.84-25.63.29-30.49c-1.55-4.86-8.41-4.94-8.41-4.94,0,0-26.29,6.13-48.05,7.07-21.75.94-30.81-2.77-30.81-2.77,0,0-8.48.36-9.87,3.25-1.39,2.89,3.61,29.75,3.61,29.75l22.63,46.89,69.39-30.22Z"/><path fill="#4674dc" fill-rule="evenodd" d="m3126.06,2638.52l.05.59c0,.1.02.2.03.3l.03.38.02.16.02.24c.01.07.02.13.02.19v.05s.02.07.02.07v.08s.02.15.02.15v.04c0,.08.02.17.03.25l.02.14.02.14v.12s.03.13.03.13l.02.12v.12s.03.11.03.11c0,.05.01.09.02.14,0,.05,0,.09.02.14l.02.25v.08s.03.18.03.18v.08s.02.07.02.07c.07.91.61,2.15,1.73,3.59l.02.02h0c.66.77,10.59,11.68,44.31,12.77.53.01,1.09.03,1.66.03.05,0,.12,0,.18,0,.08,0,.16,0,.25,0h.73c.21,0,.42,0,.64,0,.29,0,.59,0,.89,0h.06c.16,0,.32,0,.49-.01,1.03-.02,2.12-.05,3.26-.09l.42-.02c.28-.01.57-.02.85-.03h.08c1.64-.09,3.37-.18,5.18-.3h.15s.48-.04.48-.04l.48-.03,1.46-.11.49-.03,1.42-.11c.36-.03.72-.06,1.09-.09.34-.03.68-.05,1.02-.09h.09c.31-.03.63-.06.95-.09h.17c46.46-3.94,130.94-17.72,145.96-20.2.01,0,.03-.01.05-.01.21-.03.4-.06.58-.09.12-.02.24-.04.35-.06.88-.14,1.34-.22,1.34-.22.04-.03.07-.06.11-.1.06-.06.13-.15.22-.28,1.07-1.7,1.89-7.38,2.13-15.21.07-2.06.08-4.27.06-6.6-.08-7.54-.66-16.31-1.92-25.12-2.96-20.54-10.67-54.16-10.67-54.16-55.25,24.45-93.24,1.87-93.24,1.87,0,0-26.68,42.78-68.05,57.46-.57.21-1.15.41-1.74.6-.58.21-1.17.39-1.76.57-1.18.37-2.37.71-3.57,1.03-.62.16-1.23.33-1.82.5-.54.15-1.07.3-1.59.46-.03,0-.07.01-.1.02-.54.17-1.08.33-1.61.5-1.21.39-2.37.78-3.5,1.2-.39.15-.78.28-1.16.44-1.48.56-2.88,1.15-4.22,1.75-.32.14-.64.29-.95.44-.21.09-.41.19-.61.29-.39.19-.79.38-1.18.58-.36.18-.71.37-1.05.55-.32.16-.62.33-.93.5-1.64.91-3.16,1.85-4.55,2.81-.26.18-.52.36-.77.55-.58.42-1.13.83-1.66,1.25-.23.18-.47.37-.68.55-.45.37-.89.74-1.3,1.11-.21.19-.41.37-.61.56-.23.21-.45.42-.66.63-.17.17-.34.33-.5.5-.19.18-.37.38-.55.57-1.26,1.33-2.35,2.68-3.28,4.04-.14.19-.27.38-.4.58-.26.38-.5.77-.74,1.15,0,.02-.01.03-.03.04-.22.37-.43.74-.63,1.11-1.21,2.19-2.05,4.36-2.64,6.43-.09.29-.16.58-.23.87-.05.18-.09.36-.13.54-.26,1.07-.44,2.11-.57,3.11l-.03.26-.03.26v.11s-.03.15-.03.15l-.03.25-.02.26-.03.25-.02.25-.02.24v.25s-.03.24-.03.24h0s-.03.47-.03.47v.24c-.02.16-.02.3-.02.45h0s0,.24,0,.24v.17s0,.05,0,.06h0s0,.22,0,.22v.22s0,.22,0,.22v.22s.01.53.01.53v.1s0,.21,0,.21l.02.41v.19s.03.39.03.39v.19s.02.14.02.14Z"/><g><path fill="#fff" d="m3249.7,2585.25c-.86,0-1.69-.44-2.16-1.23-11.58-19.6-29.35-17.03-30.11-16.91-1.35.22-2.64-.71-2.86-2.07-.22-1.36.7-2.64,2.06-2.87.89-.15,21.84-3.33,35.22,19.3.7,1.19.31,2.72-.88,3.43-.4.24-.84.35-1.27.35Z"/><path fill="#fff" d="m3224.07,2592.64c-.9,0-1.76-.48-2.21-1.33-6.86-12.98-22.14-10.13-22.78-10.01-1.37.26-2.67-.61-2.94-1.96-.27-1.35.6-2.67,1.95-2.94.19-.04,19.57-3.75,28.19,12.57.65,1.22.18,2.73-1.04,3.38-.37.2-.77.29-1.17.29Z"/></g><path fill="#fff" fill-rule="evenodd" d="m3126.06,2638.52l.06.77.02.12.03.38.02.16.02.24v.08s.03.15.03.15v.07s.02.08.02.08l.02.15.02.21v.08s.03.14.03.14l.02.14v.12s.03.13.03.13l.02.12v.12s.03.11.03.11v.11s.02.02.02.02v.08s.02.05.02.05l.02.25v.08s.03.18.03.18v.08s.02.07.02.07c.07.91.61,2.15,1.73,3.59l.02.02h0c.66.77,10.59,11.68,44.31,12.77.53.01,1.09.03,1.66.03h.04s.09,0,.14,0c.08,0,.16,0,.25,0h.73s1.59-.02,1.59-.02c.16,0,.32,0,.49,0,.14,0,.28,0,.42,0h.02s.11,0,.11,0h.28s.79-.03.79-.03h.41s.41-.02.41-.02l.41-.02.42-.02.42-.02h.42s.43-.03.43-.03h.08s.12,0,.12,0h.23s.11-.02.11-.02l.77-.04.44-.03.45-.02h.25s.2-.03.2-.03l.45-.03.46-.03.46-.03.46-.03.47-.03.47-.04.48-.03.48-.03,1.46-.11.49-.03,1.42-.11h.08s1.01-.09,1.01-.09l.51-.05.61-.05.39-.04.73-.06.87-.08.54-.05,1.07-.1.54-.05.54-.06.54-.05.54-.05h.06s.48-.06.48-.06l.55-.05.55-.06c43.91-4.41,124.98-17.25,139.68-19.58.01,0,.03-.01.05-.01.21-.03.4-.06.58-.09.12-.02.24-.04.35-.06.88-.14,1.34-.22,1.34-.22.04-.03.07-.06.11-.1.06-.06.13-.15.22-.28,1.07-1.7,1.89-7.38,2.13-15.21.07-2.06.08-4.27.06-6.6-34.06,13.85-109.97,22.48-145.28,26.14-.87-6.52-2.52-13.37-5.44-19.86-6.24-13.84-16.1-21.92-23.16-26.22-.58.21-1.16.41-1.74.6-.59.2-1.17.38-1.76.57-1.18.37-2.37.71-3.57,1.03-.62.16-1.23.33-1.82.5-.54.15-1.07.3-1.59.46-.03,0-.07.01-.1.02-.54.17-1.08.33-1.61.5-1.21.39-2.37.78-3.5,1.2-.39.15-.78.28-1.16.44-1.48.56-2.88,1.15-4.22,1.75-.32.14-.64.29-.95.44-.21.09-.41.19-.61.29-.39.19-.79.38-1.18.58-.36.18-.71.37-1.05.55-.32.16-.62.33-.93.5-1.64.91-3.16,1.85-4.55,2.81-.26.18-.52.36-.77.55-.58.42-1.13.83-1.66,1.25-.23.18-.47.37-.68.55-.45.37-.89.74-1.3,1.11-.21.19-.41.37-.61.56-.23.21-.45.42-.66.63-.17.17-.34.33-.5.5-.19.18-.37.38-.55.57-1.26,1.33-2.35,2.68-3.28,4.04-.14.19-.27.38-.4.58-.26.38-.5.77-.74,1.15,0,.02-.01.03-.03.04-.22.37-.43.74-.63,1.11-1.21,2.19-2.05,4.36-2.64,6.43-.09.29-.16.58-.23.87-.05.18-.09.36-.13.54-.26,1.07-.44,2.11-.57,3.11l-.03.26-.03.26v.11s-.03.15-.03.15l-.03.25-.02.26-.03.25-.02.25-.02.24v.25s-.03.24-.03.24h0s-.03.47-.03.47v.24s-.01.23-.01.23v.22s-.01,0-.01,0v.23s0,.17,0,.17v.05s0,0,0,0h0s0,.22,0,.22v.22s0,.22,0,.22v.22s.01.53.01.53v.1s0,.21,0,.21l.02.41v.19s.03.39.03.39v.19s.02.14.02.14Z"/></g><g><path fill="#fff" fill-rule="evenodd" d="m3610.87,2552.39l13.69-25.99s2.04-22.64-.15-26.29c-2.19-3.65-82.91-1.17-84.81-.29-1.9.88,2.49,28.92,2.49,28.92,0,0,5.1,24.1,9.04,27.6,3.94,3.5,59.73-3.94,59.73-3.94Z"/><path fill="#4674dc" fill-rule="evenodd" d="m3648.12,2628.19c.15,21.91-11.98,35.2-24.54,38.41-12.56,3.21-80.32,2.33-93.76-5.26-13.44-7.59-13.14-40.6-10.52-59.58,2.63-18.99,22.78-73.02,22.78-73.02,0,0,7.89,11.7,11.99,12.87,4.09,1.17,61.69-1.44,63.15-2.02,1.46-.58,7.34-13.18,7.34-13.18,8.92,23.01,23.42,80.42,23.56,101.79Z"/><path fill="#fff" fill-rule="evenodd" d="m3647.49,2636.88c-2.63,16.74-13.11,26.96-23.91,29.72-12.56,3.21-80.32,2.33-93.76-5.26-7.4-4.18-10.63-16.06-11.61-29.07,2.45,4.71,5.82,9.12,10.21,10.61.57.19,1.27.38,2.08.55-6.61-57.7,103.12-77.39,100.78,2.85,7.07-1.56,12.33-5.17,16.22-9.41Z"/><g><path fill="#fff" d="m3550.11,2587.87c-.93,0-1.82-.52-2.25-1.4-.61-1.24-.09-2.74,1.15-3.34,32.24-15.72,62.41-1.24,63.68-.61,1.24.61,1.75,2.11,1.14,3.35-.61,1.24-2.11,1.75-3.35,1.14h0c-.29-.14-29.3-14-59.28.62-.35.17-.73.25-1.09.25Z"/><path fill="#fff" d="m3552.88,2572.04c-.88,0-1.73-.46-2.19-1.29-.67-1.21-.24-2.73.97-3.4,30.32-16.83,54.87-1.35,55.9-.68,1.16.75,1.49,2.3.74,3.46-.75,1.16-2.3,1.49-3.46.74-.1-.06-5.88-3.71-14.98-5.41-12.16-2.27-24.2-.16-35.78,6.26-.38.21-.8.31-1.21.31Z"/></g></g></g><g><path fill="#d7e1f7" d="m2995.77,918.16c-1.77-1.68-5.24-2.73-7.58-2.02-2.34.71-4.23,2.4-5.95,4.14-12.18,12.37-19.27,29.62-19.3,46.98-.01,7.44,1.96,15.98,8.59,19.37l7.52-4.35c2.34-3.01,9.3-8.05,10.23-11.74,3.89-15.56-1.69-14.91,8.06-41.89.96-2.65,2.01-7.08-1.58-10.49Z"/><path fill="#d7e1f7" d="m2993.99,940.21c2.11-3.68,4.47-7.26,7.45-9.82,2.98-2.56,6.67-3.98,9.91-2.96,5.2,1.63,7.72,9.11,7.13,16.07-.59,6.95-3.56,13.5-6.46,19.77-6.17,13.38-12.34,26.75-18.51,40.12l-3.58-2.64c-2.55,2.5-6.28,1.21-7.99-1.76-1.71-2.98-1.88-7.05-1.76-10.92.53-16.71,5.66-33.62,13.82-47.86Z"/><path fill="#d7e1f7" d="m3003.08,980.23c4.26-9.41,11.37-17.27,18.53-24.83,2.49-2.63,5.14-5.34,8.6-6.53,3.46-1.19,7.96-.33,9.67,2.84,1.64,3.04.18,6.73-1.31,9.84-9.28,19.34-19.93,38.04-31.86,55.94l-11.06-11.15c-5.02-9.05,3.18-16.7,7.43-26.11Z"/><path fill="#d7e1f7" d="m3013.28,999.4c4.26-9.41,11.37-17.27,18.53-24.83,2.49-2.63,5.14-5.34,8.6-6.53,3.46-1.19,7.96-.33,9.67,2.84,1.64,3.04.18,6.73-1.31,9.84-9.28,19.34-19.93,38.04-31.86,55.94l-11.06-11.15c-5.02-9.05,3.18-16.7,7.43-26.11Z"/></g></g><g><g><path fill="#4875dd" d="m3289.56,464.95c-15.43,5.32-3.77,29.58-3.62,29.83,9.54,16.14,24.21,19.08,24.21,19.08,0,0-8.21,49.53,31.82,78.26l149.79,49.74s49.52-29.37,54.57-90.73c5.06-61.36-10.61-116.19-54.41-100.62,0,0-10.82-47.76-52.44-45.02-39.53,2.61-46.31,22.76-97.54,4.31-8.68-3.12-18.37-2.5-26.27,2.26-10.81,6.51-19.89,20.65-4.76,51.31,0,0-10.81-2.06-21.35,1.57Z"/><path fill="#567fdf" d="m3439.45,433.38s-58.9,15.1-96.78-5.03c0,0,6.31,18.94,37.09,25.65,0,0-20.91,10.65-38.67,4.34,0,0,18.4,21.1,77.59-1l-13.43-7.94s27.49-8.93,34.2-16.03Z"/><path fill="#d7e1f7" d="m3300.2,675.39c15.25,25.9,41.58,27.85,65.48,22.45l.63,2.78,6.54,39.45c.04.19,11.12,22.14,47.98,22.08,19.67-.04,43.87-4.3,60.17-28.22,12.99-19.06,17.15-33.64,17.15-33.64l-17.68-47.05c.82.08,1.65.14,2.49.14,15.04,0,27.23-13.45,27.23-30.04,0-16.59-12.19-30.04-27.23-30.04-8.68,0-16.4,4.48-21.36,11.46-2.72,3.81-4.63,8.36-5.41,13.34-.03.16-.06.34-.08.5-.03-.03-.07-.05-.1-.08-5.13-4.1-9.4-9.05-12.69-14.56-6.87-11.46-9.49-25.28-6.8-38.59.28-1.38.61-2.75,1-4.11.03-.11.06-.21.09-.33.37-1.24.78-2.49,1.24-3.72.16-.44.36-.87.54-1.31.18-.46.38-.93.57-1.39h0c.19-.48.4-.94.62-1.4.67-1.4,1.41-2.79,2.22-4.15.3-.5.59-.96.89-1.38l21.13-30.67c-76.65,4.51-119.58-30.6-119.58-30.6,0,0-2.38,4.05-6.12,11.03-9.91,18.47-30.72,57.44-41.23,96.31-8.31,30.68-9.7,61.3,2.31,81.7Z"/><path fill="#b8c9f2" d="m3331.35,592.75c.41,0,.83-.12,1.2-.36.99-.66,1.26-2,.6-3-4.72-7.09-8.38-15.05-7.68-16.69,1.02-1.15,8.49-.53,15.33,1.31.89.24,1.83-.11,2.35-.87,7.61-11.19,11.14-32.18,11.29-33.07.19-1.18-.6-2.29-1.78-2.49-1.18-.19-2.29.6-2.49,1.78-.03.2-3.26,19.35-9.78,30.07-5.83-1.44-16.43-3.31-18.78,1.31-2.37,4.66,4.76,16.27,7.94,21.05.42.63,1.1.96,1.8.96Z"/><path fill="#b8c9f2" d="m3365.68,697.84s30.36-7.27,47.64-24.55c0,0-13,42.92-42.89,45.55l-4.74-21Z"/><path fill="#b8c9f2" d="m3487.16,628.86h-26.97l28.74-17.07c.79-.47,1.8-.21,2.26.58.47.78.21,1.8-.58,2.26l-18.39,10.92h14.93c.91,0,1.65.74,1.65,1.65s-.74,1.65-1.65,1.65Z"/><path fill="#4875dd" d="m3338.56,544.06c-1.62,3.57-5.16,5.45-7.92,4.2-2.75-1.25-3.67-5.15-2.05-8.72,1.62-3.57,5.16-5.45,7.92-4.2,2.75,1.25,3.67,5.15,2.05,8.72Z"/><path fill="#4875dd" d="m3377.84,560.56c-1.62,3.57-5.16,5.45-7.92,4.2-2.75-1.25-3.67-5.15-2.05-8.72,1.62-3.57,5.16-5.45,7.92-4.2,2.75,1.25,3.67,5.15,2.05,8.72Z"/><path fill="#4875dd" d="m3393.4,547.64c-1.35,0-2.63-.83-3.13-2.17-5.48-14.53-20.18-11.01-20.81-10.86-1.8.45-3.61-.63-4.07-2.41-.46-1.79.61-3.6,2.39-4.07,7.27-1.89,22.64-1.2,28.74,14.97.65,1.73-.22,3.66-1.95,4.31-.39.15-.79.22-1.18.22Z"/><path fill="#4875dd" d="m3345.21,525.82c-1.37,0-2.65-.85-3.15-2.2-.13-.32-2.43-5.81-11.72-5.97-1.85-.03-3.32-1.56-3.29-3.4.03-1.85,1.51-3.34,3.4-3.29,14.21.24,17.77,10,17.92,10.42.61,1.75-.32,3.65-2.06,4.26-.36.13-.73.19-1.1.19Z"/></g><path fill="#b8c9f2" d="m3416.65,593.62c-.87,5.23-10.69,7.96-21.94,6.1-11.25-1.86-19.67-7.62-18.8-12.85.87-5.23,10.69-7.96,21.94-6.1,11.25,1.86,19.67,7.62,18.8,12.85Z"/><path fill="#4875dd" d="m3290.74,603.29c-27.31,50.85,18.09,110.27,74.41,97.61.39-.09.78-.18,1.17-.27,7.68-1.81,15.81-4.58,24.26-8.61,35.85-17.09,54.91-49.52,65.44-73.48-5.13-4.1-8.87-9.98-12.16-15.48-5.11,14.25-14.59,30.81-29.55,35.47-19.09,5.94-26.92-1.61-30.07-4.15-11.1-8.91-17.38-18.78-39.05-29.94-11.28-5.8-23.4-5-39.22-7.43-2.32-.36-5.37-.68-6.76-3.31-.37-.68-.61-1.52-.7-2.56,0,0-3.66,4.52-7.76,12.16Z"/><path fill="#fff" d="m3318.58,627.18l33.54,5.8s-4.08,19.4-19.49,15.38c-15.41-4.02-14.05-21.19-14.05-21.19Z"/></g></g><g><g><path fill="#7597e5" d="m2615.57,360l69.7,87.92c9.36-4.47,21.09-1.98,27.82,6.5,7.89,9.96,6.12,24.45-3.84,32.34-9.96,7.89-24.36,6.23-32.25-3.73-6.1-7.69-6.55-18.02-1.83-26.01l-71.32-89.95,41.7,229.7,47.64-37.77,48.62,61.33,86.78-68.8-48.62-61.33,50.92-40.37-215.32-89.84Z"/><rect width="143.19" height="39.71" x="2711.06" y="565.74" fill="#cedaf6" transform="rotate(-38.41 2782.466 585.62)"/></g><g><path fill="#afc3f0" d="m2878.91,543.13c.47.42.94.84,1.35,1.32,5.25,6.12,4.65,15.43-1.4,20.74l-15.6,13.75,1087.25,1349.69,10,12.39c24.12,30,21.06,73.53-7.03,99.83l-27.31,25.56c-31.72,29.56-82.12,25.44-108.53-9.01l-1068.6-1391.84-11.61,6.97c-5.28,3.23-11.99,2.54-16.42-1.4-.6-.54-1.21-1.2-1.7-1.87-4.93-6.07-3.87-15.1,2.35-19.78l64.06-49.56,74.27-57.53c5.72-4.4,13.63-3.97,18.92.74Z"/><path fill="#c1d0f3" d="m3950.51,1928.63l10,12.39c24.12,30,21.06,73.53-7.03,99.83l-27.31,25.56c-31.72,29.56-82.12,25.44-108.53-9.01l-1068.6-1391.84-11.61,6.97c-5.28,3.23-11.99,2.54-16.42-1.4-.6-.54-1.21-1.2-1.7-1.87-4.93-6.07-3.87-15.1,2.35-19.78l64.06-49.56,978.53,1265.3c45.02,58.09,119.02,81.06,186.27,63.42Z"/></g></g><g><path fill="#d7e1f7" d="m2842.83,819s3.85-47.6,26.13-54.39c22.28-6.79,85.26-.12,107.77,27.44,22.52,27.55-30.49,11.21-30.49,11.21,0,0,14.43,20.63-3.47,32.56,0,0,12.05,20.03-10.45,28.07,0,0,1.1,21.45-17.03,18.82-46.31-6.71-60.71,13.26-72.92-2.49-12.21-15.76.46-61.23.46-61.23Z"/><path fill="#b8c9f2" d="m2946.24,805.36c-.46,0-.92-.15-1.3-.45-.12-.09-12.06-9.44-30.79-14.77-18.79-5.35-63.62-.56-64.07-.51-1.15.12-2.19-.71-2.31-1.86-.13-1.15.71-2.19,1.86-2.31,1.87-.2,46.1-4.93,65.67.64,19.59,5.57,31.74,15.12,32.25,15.52.91.72,1.06,2.04.34,2.94-.41.52-1.03.79-1.64.79Z"/><path fill="#b8c9f2" d="m2942.77,837.93c-.44,0-.88-.14-1.26-.42-.22-.17-22.17-16.55-40.49-19.5-18.51-2.98-57.48,3.01-57.87,3.07-1.14.18-2.21-.6-2.39-1.75-.18-1.14.61-2.22,1.75-2.39,1.62-.25,40.01-6.16,59.19-3.07,19.35,3.12,41.41,19.59,42.34,20.29.92.7,1.11,2.01.41,2.93-.41.55-1.04.84-1.68.84Z"/><path fill="#b8c9f2" d="m2932.33,866c-.46,0-.92-.15-1.3-.45-37.46-29.75-92.54-12.05-93.09-11.87-1.09.36-2.28-.23-2.65-1.33-.36-1.1.23-2.28,1.33-2.65.57-.19,57.76-18.6,97.01,12.57.91.72,1.06,2.04.34,2.94-.41.52-1.03.79-1.64.79Z"/></g><g><path fill="#d7e1f7" d="m3537.49,1265.58l-10.86,3.39-75.07-14.74-40.89-7.73c-3.42-.65-6.96-.36-10.24.82l-30.07,10.86s2.42,14.38,18.83,14.23l19.45-.67,22.94,8.55.22,4.52s-82.48,64.79-84.25,74.85c-1.77,10.06,7.39,13.16,10.61,13.01,3.21-.15,7.25-3.25,7.25-3.25,0,0,1.6,13.12,19.69,14.5,0,0-2.63,18.79,18.44,15.2,0,0,10.65,7.21,22.43,4.71,11.79-2.5,69.2-26.52,74.84-29.69,5.64-3.17,64.83-36.31,64.83-36.31l13.09-10.45-41.24-61.82Z"/><path fill="#b8c9f2" d="m3363.41,1370.75c.34.77,12.42-3.97,25.75-12.7,13.24-8.77,23.12-16.88,22.66-17.56-.55-.81-11.35,6.16-24.44,14.83-13.11,8.59-24.38,14.57-23.97,15.43Z"/><path fill="#b8c9f2" d="m3385.09,1383.93c.23.4,2.75-.6,6.8-2.21,4.03-1.65,9.65-3.83,15.74-6.78,6.15-2.95,11.13-6.48,14.81-8.74,3.65-2.39,5.96-3.61,5.86-4.02-.12-.47-2.96.09-6.96,2-4.08,1.82-9.21,5-15.13,7.84-5.95,2.88-11.48,5.42-15.31,7.63-3.85,2.18-6.02,3.91-5.8,4.29Z"/><path fill="#b8c9f2" d="m3401.51,1399.75c.38.82,12.11-3.85,26.2-10.42,7.01-3.38,13.27-6.2,18.13-6.78,4.82-.74,7.84.38,8.02-.14.2-.29-2.76-2.33-8.21-2.15-5.43.03-12.36,2.77-19.31,6.12-14.09,6.57-25.2,12.56-24.82,13.37Z"/></g></g><g data-name="7"><g><polygon fill="#becef3" points="3085.83 2513.93 2522.54 2489.89 2085.55 2654.79 2810.99 2690.37 3085.83 2513.93"/><polygon fill="#aabfef" points="3076.43 2485.83 2513.14 2461.8 2076.14 2626.69 2801.59 2662.27 3076.43 2485.83"/><polygon fill="#fff" points="3078.57 2445.63 2515.29 2421.59 2078.29 2586.49 2803.73 2622.07 3078.57 2445.63"/><polygon fill="#becef3" points="3101.28 2410.42 2538 2386.38 2101 2551.28 2826.44 2586.86 3101.28 2410.42"/></g><g><polygon fill="#c5d3f4" points="3078.73 2390.6 2515.44 2366.57 2078.45 2531.45 2803.89 2567.04 3078.73 2390.6"/><polygon fill="#fff" points="3101.44 2353.21 2538.15 2329.18 2101.16 2494.07 2826.6 2529.66 3101.44 2353.21"/><polygon fill="#c5d3f4" points="3103.59 2313.01 2540.3 2288.97 2103.3 2453.87 2828.74 2489.45 3103.59 2313.01"/><polygon fill="#fff" points="3126.3 2277.8 2563.01 2253.76 2126.01 2418.66 2851.45 2454.25 3126.3 2277.8"/><g><polygon fill="#bccdf2" points="3128.46 2248.48 2565.17 2224.45 2128.18 2389.34 2853.61 2424.92 3128.46 2248.48"/><g><polygon fill="#d5dff7" points="2854.88 2372.42 2310.82 2346.7 2270.43 2362.56 2826.8 2389.2 2854.88 2372.42"/><polygon fill="#d5dff7" points="2906.45 2341.6 2385.08 2317.53 2348.16 2332.04 2880.82 2356.91 2906.45 2341.6"/><polygon fill="#d5dff7" points="2953.65 2313.39 2453.16 2290.8 2419.28 2304.11 2930.17 2327.42 2953.65 2313.39"/><polygon fill="#d5dff7" points="2997.02 2287.46 2515.81 2266.2 2484.61 2278.45 2975.43 2300.37 2997.02 2287.46"/><polygon fill="#d5dff7" points="3037.01 2263.56 2573.65 2243.49 2544.82 2254.81 3017.08 2275.47 3037.01 2263.56"/></g></g></g><g><polygon fill="#7b9ce6" points="2052.95 2368.39 2506.24 2390.62 2368.65 2249.26 2052.95 2368.39"/><path fill="#8ba8e9" d="m2579.08,2207.3c-43.48,40.72-109.9,46.48-167.21,25.65l-43.22,16.31,137.59,141.36,272.15,13.35,274.84-176.44-474.15-20.23Z"/><path fill="#eff3fc" d="m2579.08,2207.3l-89.14-3.81-78.07,29.46c57.31,20.83,123.73,15.06,167.21-25.65Z"/><g><polygon fill="#fff" points="2751.58 2368.25 2779.65 2351.46 2453.11 2336.03 2471.41 2354.83 2751.58 2368.25"/><g opacity=".39"><polygon fill="#fff" points="2453.11 2336.03 2235.6 2325.74 2195.21 2341.61 2471.41 2354.83 2453.11 2336.03"/></g><polygon fill="#fff" points="2831.22 2320.65 2419.65 2301.65 2436.25 2318.71 2805.59 2335.96 2831.22 2320.65"/><g opacity=".39"><polygon fill="#fff" points="2309.86 2296.58 2272.93 2311.09 2436.25 2318.71 2419.65 2301.65 2309.86 2296.58"/></g><g opacity=".39"><polygon fill="#fff" points="2377.94 2269.85 2344.05 2283.16 2404.32 2285.91 2389.19 2270.36 2377.94 2269.85"/></g><polygon fill="#fff" points="2878.42 2292.43 2389.19 2270.36 2404.32 2285.91 2854.95 2306.46 2878.42 2292.43"/><polygon fill="#d5dff7" points="2440.59 2245.25 2409.38 2257.5 2900.2 2279.42 2921.8 2266.51 2440.59 2245.25"/><polygon fill="#d5dff7" points="2498.43 2222.54 2469.6 2233.86 2941.86 2254.52 2961.79 2242.6 2498.43 2222.54"/></g></g></g><g><g><path fill="#a8bdef" d="m857.63,1013.08c9.59-1.12,19.59-.79,28.92.95,10.95,2.04,21.5,6.06,31.38,11.92,5.85,3.48,10.77,6.89,15.07,10.41,5.2,4.23,9.9,8.92,13.83,12.96,7.87,8.18,15.21,17.68,22.47,29.02,13.71,21.36,25.63,46.56,36.46,77.06,4.39,12.35,8.51,25.66,13.35,43.16,4.02,14.5,7.7,29.43,11.26,45.64,5.56,25.26,10.25,52.34,14.79,85.23,3.23,23.46,5.66,46.72,7.23,69.16.57,8.04,1.03,16.09,1.27,24.16.75,26.39.24,55.29-1.54,88.34-1.79,33.29-4.94,67.06-7.97,99.71-1.08,11.64-2.16,23.3-3.19,34.95-3.89,43.6-7.76,89.98-8.65,135.54-.6,35.95.66,68.3,3.87,98.92l.9,1.58.08.14s.03.02.03.04l.41.73-.03-.03.42.74-.06.04-.17-.24c.73,1.07,1.38,2.18,2.04,3.28.92,1.56,1.48,2.96,1.2,4.81-.27,1.65-1.15,3.12-2.49,4.14-.89.68-1.97,1.11-3.11,1.24-.57.07-1.15.06-1.7-.03-1.43-.2-3.33-1.08-4.15-2.49-1.47-2.51-2.91-5.03-4.35-7.54-3.29-5.82-6.66-11.61-10.04-17.4-4.14-7.11-8.28-14.21-12.3-21.37-6.61-11.81-13.36-24.3-21.25-39.33-12.34-23.59-25.04-49.72-38.83-79.89-15.76-34.46-30.6-69.99-44.96-104.35-8.53-20.41-17.06-40.83-25.81-61.15l-.72-1.67c-23.37-54.15-47.53-110.16-66.88-166.92-8.64-25.38-16.37-52.14-23.64-81.78l-2.24-9.13c-2.79-11.27-5.57-22.54-8.16-33.86-6.79-29.49-14.77-68.49-16.25-108.65-.78-20.76.31-38.67,3.29-54.73,1.55-8.47,3.88-16.95,6.92-25.22,2.7-7.31,6.39-14.52,11.28-22.04,4.06-6.26,9.3-12.19,16.04-18.12,6.44-5.61,14.05-9.8,20.69-13.28,12.52-6.62,25.63-11.23,38.96-13.71,2.07-.39,4.18-.7,6.34-.95h0Z"/><path fill="#89a6e9" d="m1182.97,1440.43c2.12-.25,4.29-.35,6.5-.36,2.74.03,5.99.11,9.34.6,3.11.44,6.1,1.22,9.64,2.27,4.81,1.41,9.68,3.55,14.48,6.36,5.77,3.38,10.67,6.96,14.99,10.96,9.24,8.45,17.22,18.96,24.42,32.16,6.35,11.53,11.02,25.15,14.3,41.64,3.08,15.29,3.91,31.85,2.49,49.23-.85,10.28-2.65,20.18-4.3,28.5-1.79,8.98-4.09,18.43-7.43,30.65-5.73,20.71-12.64,41.06-20.55,60.49-16.9,41.63-37.29,80.93-56.8,117.2-5.9,10.94-11.88,21.84-17.85,32.75-14.39,26.28-29.29,53.44-42.83,80.73-2.25,4.53-4.45,9.05-6.63,13.59-.11.33-.28.69-.49,1.03l-.5,1.06-.51,1.07c-.4.83-1.2,1.41-2.08,1.51-.44.05-.88-.01-1.28-.19-.34-.11-.61-.35-.84-.55-2.3-.04-4.46-1.52-5.44-3.75-31.44-70.59-43.88-156.19-36.99-254.43,1.45-20.6,3.92-41.91,7.54-65.17,3.3-20.97,7.53-42.11,12.6-62.82,2.47-10.09,5.16-20.19,8.01-30.02,3.47-11.96,6.82-21.55,10.54-30.17,3.47-8.07,7.8-16.21,12.88-24.22,4.02-6.31,8.56-12.08,13.49-17.15,10.21-10.47,21.15-17.45,32.54-20.75,3.81-1.1,7.34-1.82,10.78-2.23h0Z"/><path fill="#7395e5" d="m1291.39,1887.84c3.08-.36,6-.44,8.93-.25,5.61.34,11.15,2.1,16.02,5.1,4.45,2.69,8.3,6.5,11.44,11.33,6.24,9.67,8.9,22.01,8.17,37.74-.71,15.03-5.14,31.01-13.97,50.3-7.95,17.37-17.93,34.55-30.49,52.52-11.33,16.21-24.27,32.02-39.56,48.34-30.89,33-68.54,64.34-111.9,93.13-.53.33-1.1.55-1.66.61-.97,1.78-2.62,3.05-4.56,3.27-.47.05-.93.05-1.4-.02-1.39-.22-2.67-1.02-3.52-2.2-.83-1.16-1.16-2.54-.93-3.88,6.73-37.73,14.17-70.81,22.76-101.13,11.74-41.56,24.41-74.38,39.87-103.29,8.65-16.19,18.13-30.64,28.19-42.94,11.45-14.05,24.48-25.84,38.71-35.04,11.93-7.78,23.34-12.35,33.91-13.58h0Z"/><path fill="#89a6e9" d="m666.91,1647.91c2.42-.28,4.85-.44,7.29-.55,11.57-.41,23.86,1.16,37.56,4.82,12.58,3.35,25.47,8.18,39.41,14.78,12.32,5.82,25.07,12.9,39,21.64,11.89,7.47,24.11,15.94,36.32,25.18,20.82,15.72,39.55,32.1,55.67,48.69,13.15,13.54,26.22,28.64,39.94,46.14,13.14,16.79,25.71,34.76,37.39,53.42,22.71,36.38,41.81,75.48,56.77,116.2,22.64,61.59,35.47,126.53,38.13,193.03.03.54-.05,1.12-.25,1.6.31.48.5,1.1.58,1.77.17,1.46-.25,2.92-1.15,4.04-.9,1.13-2.23,1.89-3.65,2.05-1.23.14-3.02-.16-4.04-1.16l-1.52-1.51-1.52-1.52c-.67-.67-1.4-1.28-2.13-1.88l-1.1-.92c-2.12-1.87-4.22-3.77-6.32-5.7l-6.79-6.15-6.8-6.17c-8.71-7.84-17.48-15.61-26.44-23.22-16.47-13.95-31.43-25.75-45.75-36.07-17.64-12.72-36.23-24.72-54.21-36.33l-5.2-3.36-4.45-2.87c-49.04-31.64-99.76-64.36-146.65-100.86-27.05-21.06-49.95-41.31-70.03-61.92-22.05-22.57-38.83-44.37-51.33-66.64-13.27-23.62-20.59-47.19-21.76-70.06-.6-12.28.58-24.45,3.5-36.17,3.47-14.07,8.95-26.8,16.27-37.83,3.39-5.09,7.64-9.99,12.64-14.56,4.16-3.8,8.94-7.11,14.62-10.12,7.58-4.03,16.33-6.66,26-7.79h0Z"/><path fill="#7395e5" d="m611.52,1982.5c5.14-.6,10.76-.86,17.18-.8,11.21.12,23.48,1.47,37.53,4.12,11.48,2.16,23.46,5.1,36.61,9.01,10.31,3.08,20.23,6.54,29.51,10.29,14.14,5.71,27.53,13.24,37.62,19.16,16.84,9.9,33.78,21.85,50.38,35.52,43.47,35.83,81.25,82.45,109.27,134.85.17.29.23.61.2.95,2.08,1.55,2.86,4.38,1.88,6.85-.81,2.01-2.67,3.41-4.84,3.66-.98.11-1.97-.03-2.86-.4l-7.91-3.15c-3.84-1.51-7.67-3.01-11.47-4.6l-5.7-2.38c-4.95-2.08-9.91-4.15-14.91-6.15-5.14-2.04-10.65-3.95-16.82-5.86-12.38-3.86-25.17-7.25-37.22-10.41l-20.41-5.3c-20.34-5.27-41.36-10.7-61.95-16.48-23.65-6.64-54.7-15.82-85.13-28.07-14.12-5.65-26.29-11.29-37.17-17.22-12.17-6.59-22.22-13.18-30.72-20.12-9.15-7.48-16.06-15.03-21.12-23.07-2.72-4.37-4.84-8.78-6.28-13.11-1.54-4.55-2.51-9.49-2.87-14.68-.46-6.47-.05-12.53,1.23-18.01,1.27-5.35,3.33-10.09,6.28-14.46,6.27-9.34,16.21-14.18,23.44-16.61,4.91-1.67,10.23-2.83,16.26-3.53h0Z"/><path fill="#89a6e9" d="m868.94,1067.97c-.07-1.32-1.42-2.28-2.7-2.13-1.37.16-2.22,1.37-2.13,2.69,5.99,92.73,18.11,184.95,34.46,276.4,7.3,40.81,15.32,81.51,24.04,122.03,8.71,40.46,17.78,80.86,27.43,121.12,9.63,40.27,19.38,80.49,29.47,120.64,9.91,39.45,19.58,78.98,29.6,118.4-.02-.07-.04-.13-.06-.21,8.89,34.83,17.46,69.71,26.34,104.53-.05-.2-.1-.39-.15-.59,7.26,28.48,14.66,56.94,21.94,85.42-.26-1-.5-2-.78-3,8.2,32.36,14.63,65.2,18.56,98.37,3.67,30.73,5.29,61.63,4.93,92.55-.44,23.29-1.89,46.54-4.35,69.7-2.51,23.81-5.91,47.52-9.74,71.16-1,6.19,3.48,12.2,9.64,13.15,3.05.46,6.22-.33,8.67-2.2,2.47-1.83,3.89-4.44,4.48-7.44,10.18-52.89,15.66-106.74,14.97-160.62-.34-25.67-1.9-51.27-5.06-76.72-3.25-26.56-7.93-52.92-13.96-79-4.69-20.44-10.1-40.7-15.52-60.95-5.35-20.15-10.84-40.24-16.53-60.29-11.32-39.95-23.02-79.82-34.65-119.7-11.63-39.77-23.31-79.52-34.29-119.47-5.5-19.98-11.1-39.89-16.45-59.88-5.31-19.83-10.51-39.69-15.59-59.57.06.26.12.53.18.78-1.12-4.44-2.25-8.87-3.37-13.28.02.11.05.2.07.3-9.68-38.32-18.75-76.77-27.1-115.39-8.45-38.98-16.31-78.1-23.16-117.36-13.79-79.27-23.98-159.14-29.18-239.44h0Zm167.04,865.76c-.13-.53-.27-1.09-.42-1.65.14.55.28,1.11.42,1.65h0Zm-.42-1.65c-.06-.21-.11-.43-.16-.64.05.21.1.43.16.64h0Zm-84.06-379.74c-.04-.16-.08-.32-.13-.48.04.17.08.32.13.48h0Z"/><path fill="#7395e5" d="m1202.56,1519.15c.56-1.59-.92-2.82-2.18-2.67-.57.07-1.1.41-1.36,1.15-7.94,21.82-15.16,43.88-21.6,66.19-12.76,44.28-22.94,89.24-31.47,134.47-4.27,22.69-8.58,45.38-12.27,68.16-3.72,22.8-7.28,45.62-10.78,68.49-1.75,11.43-3.38,22.86-5.04,34.3-1.66,11.41-3.38,22.85-4.82,34.3-2.89,22.89-6.06,45.75-9.14,68.61-3.05,22.79-6.02,45.57-8.79,68.42-1.41,11.53-2.53,23.12-3.97,34.66-.78,6.28-1.62,12.55-2.43,18.81-.75,5.81-1.45,11.63-1.62,17.46-.04,1.75.1,3.19,1.18,4.64.97,1.28,2.4,2.13,3.97,2.38,2.68.42,5.5-1.07,6.56-3.61,1.3-3.09,2.29-6.28,3.25-9.48,3.49-11.83,5.47-24.07,7.78-36.19,2.16-11.26,3.98-22.57,5.66-33.89,3.29-22.79,5.89-45.65,8.26-68.54,1.2-11.48,2.25-22.97,3.33-34.49,1.04-11.49,2.36-22.98,3.4-34.5,2.09-23.08,3.96-46.15,6.23-69.18,2.24-23.03,4.7-46.02,7.36-69.01,2.68-22.93,5.97-45.77,9.69-68.55,7.41-45.37,17.36-90.4,30.13-134.58,0,.03,0,.06-.02.09,5.65-19.32,11.82-38.49,18.7-57.44h0Zm-18.82,57.89c.06-.16.1-.3.13-.44-.04.14-.08.29-.13.44h0Z"/><path fill="#89a6e9" d="m1291.9,1942.82c-.61-.49-1.33-.67-2.04-.59-.73.09-1.44.46-1.96,1.06-21.99,25.3-43.43,51.08-63.52,77.95-13.16,17.6-25.82,35.58-37.87,53.95-12.14,18.5-24.58,36.85-35.58,56.06-10.88,18.96-21.48,38.21-29.85,58.42-4.15,10.04-8.05,20.17-11.31,30.52-3.42,10.86-6.52,21.87-8.66,33.06-1.1,5.87,3.44,11.63,9.2,12.52,4.59.71,10.09-1.87,11.73-6.45,5.64-15.9,10.85-31.92,16.5-47.79,5.69-16.02,11.65-31.99,17.85-47.8,6.25-15.91,13.35-31.43,20.69-46.83,3.56-7.52,7.13-15.04,11.05-22.37,3.76-6.99,7.7-13.85,11.78-20.65-.01.03-.03.06-.05.09.08-.14.15-.27.23-.4.15-.24.3-.5.45-.74-.04.07-.08.14-.12.21,13.43-22.29,27.91-44.02,43.32-65.03,15.41-21,31.59-41.51,48.64-61.22,1.01-1.18.72-3.08-.47-3.99h0Zm-92,131.08c.17-.27.34-.55.51-.84-.1.18-.21.36-.32.53-.06.11-.12.2-.18.31h0Z"/><path fill="#7395e5" d="m674.32,1701.55c-.71-.61-1.62-.82-2.49-.71-.9.11-1.77.55-2.34,1.28-1.19,1.5-.85,3.61.56,4.8l10.16,8.61c26.42,22.47,52.63,45.2,78.32,68.51,13.9,12.61,27.65,25.47,41.28,38.44,13.7,13.09,27.33,26.3,40.63,39.83-.05-.05-.1-.09-.14-.14.12.13.24.24.36.37.23.24.47.48.7.72-.04-.03-.08-.08-.12-.11,1.88,1.92,3.73,3.83,5.59,5.76,27.41,28.4,53.94,57.74,78.41,88.68,12.17,15.39,23.73,31.28,34.83,47.45,5.5,8.01,10.75,16.16,15.97,24.38,4.85,7.64,9.6,15.37,14.11,23.21-.2-.34-.39-.7-.58-1.05l.96,1.71c.15.26.3.52.45.78-.09-.15-.17-.3-.26-.45,11.66,20.93,22.07,42.5,31.3,64.58,8.65,20.8,16.15,42.11,21.93,63.88,3.92,15.48,7,31.13,8.94,46.95,1,8.11,1.71,16.25,2.27,24.41.28,3.9.52,7.79.76,11.7.13,2.11.25,4.24.44,6.36.12,1.43.29,2.85.39,4.28-.03.44-.05.87-.07,1.31-.28,1.97-.06,3.91.68,5.79.49.82.95,1.64,1.41,2.49,1.71,2.25,4.32,3.82,7.11,4.25,2.92.44,5.92-.33,8.29-2.09,2.08-1.57,4.11-4.41,4.25-7.11.08-1.4.03-2.88.29-4.3.18-1.05.39-2.1.54-3.15.3-2.09.54-4.2.68-6.33.38-5.04.52-10.04.57-15.1.05-8.89-.41-17.78-1.29-26.66-1.88-18.65-5.47-37.01-10.3-55.13-4.65-17.54-10.59-34.74-17.77-51.41-3.63-8.52-7.51-16.93-11.73-25.15-4.61-8.95-9.54-17.72-14.6-26.41-9.54-16.46-19.9-32.45-30.73-48.05-22.35-32.19-47.67-62.35-73.92-91.39-26.56-29.43-54.59-57.4-83.38-84.64-13.94-13.22-28.15-26.16-42.49-38.96-13.84-12.35-27.95-24.41-42.03-36.52-25.77-22.15-51.97-43.76-77.93-65.67h0Zm369.88,481.51c.2.74.39,1.49.58,2.23-.2-.75-.39-1.49-.58-2.23h0Zm-53.67-129.78c-.13-.22-.26-.43-.38-.66.19.33.37.67.56,1-.06-.11-.13-.23-.19-.33h0Zm-149.87-190.75c-.08-.08-.15-.15-.22-.23.26.28.53.56.8.83-.19-.2-.39-.4-.58-.61h0Z"/><path fill="#89a6e9" d="m613.32,2017.91c-.35-.11-.71-.13-1.06-.09-1.42.17-2.7,1.43-2.98,2.8-.41,1.95.92,3.46,2.71,4.01,8.35,2.59,16.67,5.24,24.95,8.03-.05-.02-.1-.03-.15-.04,32.27,10.93,64.07,23.34,94.98,37.68,15.53,7.2,30.86,14.96,45.77,23.35,14.33,8.05,28.25,16.73,41.91,25.84,18.51,12.46,36.43,25.83,53.33,40.44,16.79,14.51,32.8,29.86,47.38,46.58,13.05,15.33,25.14,31.5,36.03,48.41,5.79,9,11.31,18.19,16.48,27.53,5.06,9.17,9.88,18.5,14.74,27.78,1.33,2.57,4.5,4.38,7.25,4.9,2.85.58,5.9,0,8.34-1.61,4.1-2.65,6.29-8.23,4.56-12.96-5.31-14.4-12.23-28.29-19.91-41.58-19.12-33.05-44.09-62.61-72.06-88.49-27.72-25.64-58.64-47.79-91.43-66.52-16.39-9.39-33.29-17.92-50.32-26.02-17.23-8.21-34.79-15.75-52.49-22.81-35.41-14.09-71.55-26.11-108.02-37.25h0Zm305.21,186.72c.51.59,1.02,1.19,1.53,1.79-.52-.6-1.03-1.18-1.53-1.79h0Zm-281.75-172.02c-.24-.09-.48-.17-.73-.25.24.1.48.18.73.25h0Z"/><path fill="#89a6e9" d="m914.74,1082.04c-.16-.02-.33-.02-.49,0-.84.1-1.53.77-1.68,1.62-.87,4.7-1.8,9.41-2.92,14.07-1.1,4.56-2.31,9.1-3.59,13.62.01-.03.02-.06.03-.09-.03.1-.07.21-.09.32-.03.09-.06.18-.08.27l.02-.07c-3.61,12.22-8.06,24.15-13.14,35.8-2.51,5.7-5.05,11.36-7.72,16.95-2.62,5.51-5.28,10.99-7.84,16.52-.77,1.66.07,3.71,1.73,4.46,1.37.59,3.11.21,4.02-1.02,5.48-7.23,9.82-15.33,13.38-23.69,3.45-8.08,6.22-16.44,8.59-24.92,4.76-16.97,8.27-34.28,11.41-51.64.19-1.02-.59-2.04-1.61-2.2h0Zm-8.68,29.31c-.05.14-.1.29-.13.43.02-.07.04-.14.06-.2l.07-.23Z"/><path fill="#89a6e9" d="m986.21,1199.84c-.17-.03-.35-.04-.52-.02-.84.1-1.5.78-1.68,1.63-2.4,11.08-5.29,22.03-8.43,32.91.06-.19.11-.37.17-.56-4.55,15.65-9.89,31.05-16.18,46.09-3.23,7.75-6.66,15.45-10.45,22.96-3.46,6.84-7.19,13.56-11.1,20.17-.05.08-.09.16-.14.23.04-.06.08-.13.12-.19l-.41.69c.06-.11.12-.22.19-.33-4.6,7.57-9.5,15-14.92,22-5.23,6.75-10.73,13.26-16.19,19.76-1.63,1.91-1.18,4.91.75,6.41.93.76,2.15,1.1,3.35.96,1.28-.15,2.17-.8,3.04-1.71,5.37-5.56,10.16-11.62,14.49-18.02,4.33-6.4,8.46-12.96,12.38-19.64,7.98-13.73,14.85-28.1,20.85-42.8,5.95-14.57,11.05-29.47,15.44-44.61,2.18-7.48,4.23-15.04,6.07-22.63,1.69-7.03,3.26-14.08,4.8-21.13.21-1.02-.63-2.04-1.62-2.19h0Zm-48.42,123.58c.03-.06.07-.12.1-.17-.03.06-.07.12-.1.17h0Z"/><path fill="#89a6e9" d="m1019,1395.87c-.3-.14-.66-.18-.99-.14-.67.08-1.3.48-1.55,1.13-9.21,23.96-20.61,46.98-33.76,69.01l.18-.27c-6.13,10.17-12.66,20.07-19.67,29.66-3.41,4.66-6.94,9.22-10.45,13.77-3.58,4.62-7.15,9.21-10.3,14.11-.62.92-1,1.81-.86,2.97.12,1.05.69,2.04,1.52,2.69.83.66,1.89.96,2.97.84,1.13-.13,1.95-.68,2.7-1.5,4.3-4.58,8-9.67,11.51-14.86,3.48-5.15,6.86-10.38,10.18-15.67,6.45-10.27,12.66-20.77,18.52-31.43,11.97-21.81,22.13-44.55,30.99-67.8.37-.98,0-2.09-.99-2.52h0Zm-36.5,70.35c.07-.12.14-.23.21-.35-.07.11-.14.23-.21.35h0Z"/><path fill="#89a6e9" d="m1024.35,1578.2c1.02.45,1.36,1.57.99,2.55-2.48,7.03-5.3,13.95-8.38,20.75-3.17,7-6.76,13.79-10.57,20.47-3.54,6.22-7.18,12.35-11.07,18.34-4.29,6.58-9.05,12.87-14.06,18.93-1.41,1.68-3.9,2.03-5.63.66-1.8-1.42-1.97-3.88-.66-5.67,5.33-7.39,10.95-14.64,16.55-21.85,2.86-3.72,5.69-7.47,8.38-11.32,2.65-3.82,5.14-7.75,7.56-11.73,2.77-4.66,5.34-9.41,7.73-14.28,2.54-5.17,4.7-10.46,6.64-15.86.23-.64.87-1.04,1.53-1.12.34-.04.68,0,.98.13h0Z"/><path fill="#89a6e9" d="m799.4,1151.49c6.71,10.1,13.87,19.91,21.59,29.25,7.73,9.35,15.75,18.42,24.13,27.17,6.73,6.89,13.68,13.53,20.69,20.09,3.6,3.36,7.25,6.65,10.89,9.91,3.71,3.34,7.49,6.66,11.01,10.2.27.27.55.57.83.85.44.64.73,1.33.82,2.11.13,1.13-.18,2.32-.92,3.25-1.5,1.9-4.28,2.16-6.2.72-4.34-3.24-8.37-6.92-12.34-10.66-4.2-3.92-8.28-8.01-12.3-12.13-7.66-7.91-14.92-16.16-21.98-24.59-14.27-17.08-27.1-35.3-39.31-53.89-.58-.9-.48-2.06.38-2.71.28-.19.6-.3.93-.34.68-.08,1.39.16,1.78.75h0Z"/><path fill="#89a6e9" d="m846.95,1377.72c6.21,6.08,12.46,12.15,18.64,18.23,6.52,6.41,13.1,12.74,19.65,19.11,6.21,6.02,12.46,12.01,18.86,17.84,3.19,2.96,6.37,5.91,9.58,8.83,3.62,3.27,7.2,6.51,10.76,9.84.88.8,1.5,1.67,1.64,2.89.13,1.14-.18,2.29-.9,3.19-1.42,1.83-4.29,2.28-6.11.74-6.29-5.37-12.14-11.22-17.9-17.11-5.64-5.78-11.04-11.74-16.51-17.66-11.08-12.01-21.88-24.3-33.26-36.06.13.13.24.24.38.38-2.37-2.42-4.77-4.83-7.19-7.21-.74-.73-1.03-1.82-.32-2.71.31-.38.83-.65,1.36-.72.48-.06.97.06,1.33.4h0Z"/><path fill="#89a6e9" d="m901.89,1558.42c4.69,4.47,9.31,9.04,13.98,13.58,4.64,4.51,9.27,9.04,13.94,13.55,9.65,9.33,19.73,18.22,30.12,26.78,1.44,1.19,1.75,3.33.56,4.83-1.12,1.46-3.38,1.78-4.82.59-4.35-3.55-8.5-7.27-12.52-11.12-3.85-3.73-7.57-7.61-11.29-11.51-7.68-8.02-15.11-16.29-22.82-24.27.11.13.25.27.35.41-3.23-3.34-6.55-6.61-9.88-9.82-.77-.72-1.02-1.82-.34-2.71.31-.39.83-.66,1.36-.72.49-.06.99.06,1.35.41h0Z"/><path fill="#7395e5" d="m714.35,1687.19c7.31,11.6,14.12,23.57,19.78,36.09,2.93,6.43,5.45,13.03,7.59,19.76,1.05,3.32,1.94,6.72,2.67,10.14.81,3.6,1.3,7.26,1.58,10.95.14,1.43-.86,2.79-2.35,2.97-1.48.2-2.77-.89-2.99-2.34-.96-6.2-2.17-12.36-3.69-18.46-2.02-7.74-4.61-15.25-7.67-22.63-3.07-7.37-6.66-14.58-10.5-21.57.07.15.15.28.23.46-2.45-4.43-5.04-8.78-7.76-13.1-.55-.87-.48-2.03.41-2.68.27-.2.6-.32.93-.36.67-.08,1.38.18,1.75.78h0Z"/><path fill="#7395e5" d="m692.07,1794.35c8.98,4.88,18.3,9.08,27.79,12.81,9.6,3.78,19.43,6.87,29.36,9.61-.19-.07-.38-.11-.59-.17,5.65,1.52,11.28,2.91,16.99,4.18,6.12,1.38,12.3,2.53,18.48,3.62,12.28,2.13,24.65,3.53,36.99,5.3,1.81.24,3.1,1.96,2.86,3.78-.26,1.84-1.97,3.04-3.78,2.86-11.06-1.25-22-3.24-32.9-5.47-11.21-2.29-22.37-4.91-33.39-7.92-10.78-2.98-21.41-6.51-31.85-10.49-10.79-4.15-21.31-9-31.45-14.53-.93-.5-1.47-1.48-1.05-2.53.27-.61.93-1.11,1.63-1.19.31-.04.63.01.92.16h0Z"/><path fill="#7395e5" d="m758.61,1903.35c-.3-.16-.64-.2-.98-.16-.74.09-1.45.61-1.73,1.27-.48,1.12.1,2.19,1.1,2.71,13.18,6.99,26.81,13.14,40.88,18.12,14,4.93,28.26,9.19,42.67,12.77,14.67,3.67,29.44,6.87,44.27,9.83,7.36,1.47,14.73,2.9,22.14,4.25,7.29,1.32,14.61,2.58,21.98,3.57,2.18.29,4.27-1.26,4.55-3.46.15-1.05-.12-2.11-.74-2.97-.68-.92-1.6-1.35-2.73-1.62-9.39-2.05-18.91-3.53-28.4-5.06-9.62-1.57-19.23-3.07-28.82-4.71-18.67-3.22-37.23-7.09-55.5-12.04.11.03.22.06.32.09-.2-.05-.4-.11-.59-.17l-.1-.02s.03.01.05,0c-9.97-2.78-19.85-6-29.54-9.63-4.9-1.87-9.81-3.78-14.66-5.9-4.8-2.1-9.52-4.42-14.16-6.88h0Zm58.67,22.5c-.1-.03-.2-.05-.31-.09,0,0,.03.01.04.01.09.03.18.06.27.08h0Z"/><path fill="#7395e5" d="m921.38,2033.41c11.91,4.32,23.87,8.4,36.05,11.78l-.66-.19c7.65,2.1,15.3,3.93,23.07,5.41,8.29,1.6,16.69,2.59,25.12,3.06.97.03,1.96.74,2.5,1.49.57.78.84,1.78.71,2.73-.31,2.09-2.2,3.43-4.25,3.22-7.01-.75-13.94-1.88-20.83-3.31-7.09-1.5-14.09-3.41-21.01-5.5-7.14-2.12-14.17-4.6-21.2-7.08-7.06-2.5-14.06-5.16-21.1-7.72-1.07-.39-1.56-1.73-1.13-2.75.32-.73.98-1.18,1.7-1.26.34-.04.7,0,1.04.13h0Z"/><path fill="#7395e5" d="m864.93,1785.25c4.33,15.31,8.06,30.75,10.59,46.44,1.3,8.01,2.21,16.1,2.77,24.23.55,8.31.74,16.69.23,25.01-.07.92-.75,1.87-1.44,2.4-.8.61-1.83.88-2.82.72-2.1-.33-3.35-2.24-3.13-4.26.6-5.89,1.02-11.78,1.2-17.7.32-22.85-3.32-45.66-8.91-67.75l.16.53c-.71-2.73-1.46-5.46-2.19-8.18-.27-1,0-2.06,1.06-2.48.15-.06.31-.1.47-.12.83-.1,1.8.33,2.02,1.16h0Z"/><path fill="#7395e5" d="m963.46,1919.52c-.15-1.04-1.06-1.81-2.13-1.69-1.02.12-1.84,1.09-1.69,2.13,1.74,12.8,3.06,25.71,2.92,38.64-.1,4.56-.32,9.11-.78,13.65-.46,4.32-1.02,8.62-1.64,12.92-.25,1.72.94,3.34,2.64,3.62,1.72.26,3.33-.96,3.61-2.66.88-5.48,1.25-11.06,1.29-16.63.06-5.72-.12-11.41-.48-17.11-.71-11.02-2.18-21.97-3.75-32.88h0Zm-.89,38.5c0,.06,0,.13,0,.19,0-.06,0-.13,0-.19h0Z"/><path fill="#7395e5" d="m1228.48,1537.14c.92.4,1.49,1.58.99,2.55-6.34,12.5-13.95,24.27-22.51,35.4-4.22,5.52-8.65,10.81-13.22,15.99-2.3,2.6-4.64,5.11-7.07,7.54-2.68,2.67-5.44,5.2-8.51,7.41-1.28.93-3.06.96-4.36-.04-.74-.61-1.22-1.46-1.33-2.38-.1-.86.13-2.01.74-2.66,2.98-2.95,6.14-5.67,9.3-8.43,3.56-3.11,7.1-6.24,10.49-9.57-.19.2-.38.38-.55.54,5.26-5.2,10.22-10.65,14.83-16.45,4.86-6.07,9.24-12.51,13.27-19.17-.07.15-.18.29-.25.45,1.97-3.34,3.87-6.74,5.65-10.18.31-.63.91-1.06,1.56-1.14.31-.04.64.01.95.15h0Z"/><path fill="#7395e5" d="m1228.43,1655.06c-.53-.42-1.29-.61-2.01-.52-.64.07-1.25.37-1.6.95-8.33,13.3-18.3,25.5-29.5,36.55-7.44,7.18-15.36,13.95-23.8,19.95-4.16,2.94-8.39,5.82-12.67,8.58-4.27,2.77-8.55,5.47-12.79,8.27-1.68,1.13-1.88,3.64-.73,5.16.93,1.22,2.86,1.93,4.31,1.19,8.26-4.14,16.03-9.28,23.26-14.99,7.37-5.78,14.45-11.93,21.18-18.46,6.58-6.4,12.83-13.14,18.59-20.28,5.89-7.25,11.27-14.86,16.18-22.78.38-.62.62-1.16.54-1.9-.08-.66-.43-1.28-.96-1.71h0Zm-32.54,36.42c-.09.09-.19.18-.29.27.1-.1.19-.19.29-.27h0Z"/><path fill="#7395e5" d="m1183.95,1794.16c-.43-.32-.9-.44-1.36-.38-.5.06-.98.31-1.36.7-4.07,4.2-8.15,8.37-12.33,12.45.01-.02.03-.03.05-.05-5.24,5.11-10.59,10.11-16.26,14.71-3.1,2.47-6.26,4.9-9.54,7.16-3,2.05-6.03,4-9.04,5.99-1.54,1.02-1.72,3.34-.68,4.76.54.69,1.34,1.17,2.21,1.31.95.14,1.76-.14,2.55-.66,4.57-2.85,8.77-6.25,12.83-9.81,3.82-3.32,7.48-6.83,11.06-10.39,3.73-3.76,7.4-7.51,11.04-11.35,3.68-3.94,7.4-7.82,11.15-11.67.72-.78.45-2.14-.32-2.75h0Zm-15,12.71c.11-.11.22-.21.33-.32-.12.12-.24.21-.33.32h0Z"/><path fill="#7395e5" d="m1139.44,1555.73c1.08,13.63,2.31,27.25,3.92,40.81,1.61,13.57,3.85,27.1,7.16,40.37-.07-.29-.13-.56-.19-.85,1.42,5.64,3.04,11.26,4.72,16.83,1.71,5.61,3.66,11.15,5.23,16.84.21.85.33,1.59-.05,2.42-.34.77-.93,1.39-1.71,1.69-.79.3-1.66.29-2.46-.05-.79-.36-1.26-.94-1.65-1.71-2.21-4.37-3.83-8.96-5.32-13.65-1.4-4.47-2.5-9.05-3.56-13.64-1.07-4.74-1.89-9.52-2.69-14.32-.84-4.8-1.52-9.62-2.14-14.44-1.28-9.68-2.17-19.43-2.98-29.17-.84-10.21-1.42-20.45-2.19-30.67-.09-1.05.61-2.04,1.71-2.17,1.05-.12,2.1.66,2.2,1.71h0Z"/><path fill="#7395e5" d="m1107.38,1710.99c-.15-1.03-1.06-1.81-2.13-1.69-1.02.12-1.84,1.1-1.69,2.13,2.34,16.66,5.13,33.33,9.01,49.71,1.92,8.18,4.07,16.27,6.61,24.26,2.52,7.84,5.3,15.59,8.78,23.08.69,1.49,2.38,2.32,4,1.68,1.53-.64,2.35-2.45,1.68-4-3.56-8.45-7.21-16.91-10.16-25.6-2.92-8.54-5.54-17.14-7.77-25.9.03.14.06.26.08.38-3.66-14.51-6.28-29.23-8.41-44.04h0Zm8.33,43.66c-.02-.07-.03-.14-.06-.21.02.07.04.13.06.21h0Z"/><path fill="#89a6e9" d="m1304.1,1974.32c-.42-.58-1.07-.81-1.71-.74-.33.04-.66.16-.96.35-2.42,1.52-4.88,2.99-7.37,4.43.06-.05.14-.08.2-.12-7.84,4.4-15.97,8.25-24.28,11.67-3.99,1.64-8,3.23-12.03,4.73-4.03,1.5-8.03,2.99-12.02,4.61-1.15.47-1.74,1.84-1.28,3.02.25.54.67,1.01,1.24,1.25.6.26,1.18.2,1.79.03,5.06-1.41,9.99-3.19,14.88-5.18,4.88-1.99,9.71-4.1,14.43-6.44,9.18-4.48,18.12-9.46,26.73-14.94.9-.56.99-1.9.38-2.68h0Zm-9.84,3.92c.08-.05.17-.09.25-.14-.08.04-.16.09-.25.14h0Z"/><path fill="#89a6e9" d="m1263.87,2044.42c.57.78.49,2.15-.38,2.71-10.49,6.51-21.09,12.8-31.96,18.64-5.55,2.97-11.14,5.86-16.79,8.7-5.66,2.8-11.36,5.56-17.21,7.99-1.38.59-3-.13-3.56-1.52-.29-.69-.3-1.47.02-2.15.31-.7.81-1.09,1.5-1.44,4.77-2.41,9.65-4.63,14.5-6.89,4.85-2.23,9.66-4.49,14.47-6.8,4.79-2.28,9.56-4.65,14.29-7.06,4.74-2.43,9.39-5,14.05-7.59-.01,0-.04.02-.05.04,2.84-1.61,5.64-3.3,8.42-5.01.31-.19.65-.31.98-.35.64-.08,1.28.15,1.73.73h0Z"/><path fill="#89a6e9" d="m1205.08,2113.22c.48.18.83.57,1.03,1.03.18.5.18,1.04-.03,1.49-.21.5-.58.76-1.03,1.03-10.95,6.15-22.69,10.69-34.69,14.42-.67.22-1.33.27-1.97-.01-.6-.26-1.12-.78-1.34-1.39-.25-.64-.25-1.33,0-1.97.24-.57.77-1.14,1.38-1.34,6.02-1.82,12.04-3.61,17.97-5.67,5.95-2.06,11.71-4.57,17.19-7.63.13-.08.28-.12.44-.14.36-.04.76.03,1.04.17h0Z"/><path fill="#89a6e9" d="m1230.9,1959.52c.95.13,1.89,1.17,1.62,2.17-1.87,6.56-3.58,13.14-5.26,19.75-.83,3.28-1.59,6.54-2.36,9.83-.73,3.29-1.38,6.57-2.05,9.85-1.34,6.6-2.48,13.23-3.55,19.86-1.19,7.21-2.25,14.41-3.53,21.57-.31,1.55-1.69,2.64-3.29,2.41-1.6-.24-2.53-1.73-2.38-3.26,1.32-13.52,4.5-26.74,7.68-39.9,1.6-6.54,3.34-13.06,5.06-19.58,1.87-7.08,3.86-14.09,5.85-21.12.16-.51.32-.91.77-1.24.26-.21.58-.33.9-.37.18-.02.36-.01.54.02h0Z"/><path fill="#89a6e9" d="m1180.43,2050.56c1.02.15,1.83,1.18,1.62,2.2-1.42,7.29-2.65,14.64-3.69,21.99-1.11,7.87-1.94,15.77-2.59,23.67-.08,1.13-1.32,1.91-2.39,1.77-.53-.09-1.04-.4-1.37-.84-.36-.48-.45-1.01-.4-1.59,1.02-15.36,3.67-30.51,6.65-45.58.15-.86.85-1.52,1.69-1.62.15-.02.31-.02.48,0h0Z"/><path fill="#89a6e9" d="m637.06,1998.28c11.42,10.28,22.38,22.09,27.69,36.8.41,1.16-.16,2.46-1.32,2.9-1.16.44-2.47-.16-2.91-1.32-1.19-3.08-2.57-6.06-4.1-8.97-1.88-3.4-3.96-6.62-6.25-9.74-2.32-3.11-4.91-6.04-7.56-8.88.13.13.24.24.38.37-2.72-2.82-5.51-5.53-8.42-8.12-.78-.72-.98-1.91-.29-2.75.33-.4.83-.66,1.35-.72.5-.06,1.03.07,1.43.43h0Z"/><path fill="#89a6e9" d="m725.55,2017.79c-.17-.03-.33-.03-.49-.01-.33.04-.65.17-.93.36-.42.3-.7.75-.79,1.28-.07.43.03,1.05.34,1.38,4.57,4.91,8.96,9.93,12.92,15.3,3.91,5.33,7.58,10.79,10.75,16.57-.01-.01-.02-.03-.02-.04.03.05.05.1.08.15.08.14.16.27.23.41-.02-.03-.04-.07-.07-.11,1.57,3.02,3.05,6.1,4.34,9.25,1.32,3.27,2.5,6.61,3.61,9.98.43,1.28,1.98,1.94,3.23,1.46.64-.25,1.15-.74,1.41-1.34.32-.67.22-1.23.05-1.91-1.24-5.18-3.21-10.18-5.69-14.91-2.38-4.56-5.02-9.03-7.97-13.28-5.88-8.47-12.69-16.27-19.73-23.76-.38-.41-.72-.71-1.27-.79h0Zm21.86,34.98s-.04-.07-.06-.11c.06.15.14.29.22.42l-.16-.31h0Z"/><path fill="#89a6e9" d="m817.27,2070.3c-.33-.63-1.07-.87-1.76-.79-.34.04-.66.16-.93.35-.41.29-.69.75-.79,1.27-.05.53.11.92.35,1.38.23.42.46.85.66,1.26l-.23-.43c2.44,4.61,4.66,9.34,6.47,14.27,1.01,2.67,1.99,5.4,2.79,8.14.62,2.16,1.2,4.36,1.72,6.56-.03-.1-.05-.2-.06-.29.83,3.71,1.44,7.42,1.97,11.17.21,1.49,1.48,2.61,2.98,2.43,1.46-.14,2.63-1.52,2.46-3-2.06-15.06-8.36-29.11-15.64-42.32h0Zm8.38,32.37c-.02-.12-.06-.24-.08-.36.02.13.05.24.08.36h0Z"/><path fill="#89a6e9" d="m627.11,2062.13c10.88,1.54,21.79,2.53,32.77,2.83-.21,0-.39,0-.57-.02,8.7.19,17.43-.13,26.11-.9,9.39-.86,18.68-2.58,27.87-4.71-.23.06-.5.12-.74.18,2.39-.55,4.76-1.16,7.17-1.77.8-.19,1.51-.27,2.31.06.74.34,1.35.96,1.62,1.71.27.76.27,1.6-.06,2.31-.28.7-.95,1.44-1.71,1.66-15.32,3.99-31.12,5.95-46.93,6.23-16.2.29-32.4-1.45-48.42-3.75-1.02-.15-1.74-1.18-1.59-2.2.13-.88.85-1.52,1.68-1.62.16-.02.32-.02.49,0h0Z"/><path fill="#89a6e9" d="m714.12,2109.89c8.69,1.65,17.44,2.5,26.26,2.74-.22,0-.42.02-.63.01,11.99.23,23.96-.64,35.88-2.04,12.5-1.46,24.91-3.7,37.43-5.28,1.4-.16,2.71.92,2.84,2.3.08.69-.12,1.38-.57,1.91-.44.57-1.05.82-1.73.96-8.14,1.47-16.32,2.72-24.5,3.83-8.57,1.19-17.19,2.16-25.83,2.77-7.85.55-15.77.63-23.66.37-8.8-.27-17.57-1.3-26.22-2.92-1.24-.25-2.16-1.38-1.95-2.68.16-1.03,1.04-1.87,2.06-1.99.2-.02.41-.02.61.01h0Z"/><path fill="#89a6e9" d="m824.75,2151.39c2.32.46,4.66.82,7.05,1.08,2.35.27,4.73.39,7.1.47-.19,0-.37-.02-.52-.03,5.7.12,11.38-.14,17.09-.73,6.16-.56,12.25-1.51,18.37-2.38,1.22-.17,2.36.82,2.47,2.01.15,1.25-.79,2.27-2.01,2.47-8.47,1.26-16.97,2.25-25.53,2.65-8.25.36-16.5-.16-24.61-1.73-1.05-.21-1.79-1.12-1.62-2.19.13-.85.85-1.53,1.69-1.63.17-.02.34-.02.51.01h0Z"/></g><g><g><path fill="#94aeeb" d="m824.55,2162.45l8.97,76.45,1.49,12.68,4.26,36.34,1.49,12.69,4.37,37.31,1.48,12.66,19.4,165.53,12.82,109.31c123.03,15.58,237.86,14.61,345.96,0l20.34-173.49,11.88-101.36,1.48-12.66,4.37-37.31,1.48-12.69,4.27-36.34,1.48-12.68,8.97-76.45h-454.51Z"/><g><polygon fill="#658be2" points="833.51 2238.9 834.99 2251.58 1268.61 2251.58 1270.09 2238.9 833.51 2238.9"/><polygon fill="#658be2" points="839.26 2287.92 840.74 2300.61 1262.86 2300.61 1264.34 2287.92 839.26 2287.92"/><polygon fill="#658be2" points="845.12 2337.91 846.6 2350.58 1257 2350.58 1258.48 2337.91 845.12 2337.91"/></g></g><g opacity=".61"><path fill="#7e9ee7" d="m866,2516.12l12.82,109.31c123.03,15.58,237.86,14.61,345.96,0l20.34-173.49c-80.66,34.15-225.83,81.69-379.12,64.18Z"/></g></g></g><g><path fill="#6e92e4" d="m2887.25,1735.02c1.34-.4,2.77-.57,4.25-.44l38.53,3.55,5.4-58.64c-1.15.1-2.31.14-3.5.03l-39.23-3.62-1.89,20.51-3.56,38.61Z"/><rect width="58.54" height="42.88" x="2652.97" y="1664.46" fill="#6e92e4" transform="rotate(-84.73 2682.408 1685.867)"/><path fill="#4674dc" d="m2699.15,1736l12.81,1.18.72-7.78c.57-6.19-3.99-11.67-10.18-12.25l-1.6-.15-42.7-3.94-32.76-3.02c-6.19-.57-11.67,3.99-12.24,10.18l-.72,7.78,43.96,4.05,42.7,3.94Z"/><path fill="#4674dc" d="m2891.49,1734.58c-1.48-.14-2.91.04-4.25.44-4.27,1.28-7.56,5.03-7.99,9.74l-.72,7.78,7.03.65,42.7,3.94,49.74,4.58.72-7.78c.57-6.19-3.99-11.67-10.18-12.25l-14.05-1.3-24.47-2.26-38.53-3.55Z"/><path fill="#4674dc" d="m3040.21,2313.06c16.52,1.52,31.14-10.63,32.66-27.15l29.09-315.68c-.89.05-1.79.11-2.71.02l-276.64-25.5-.18,1.93c-.18,1.91-.74,3.69-1.55,5.31l254.09,23.42-26.67,289.39c-1.4,15.24-14.89,26.44-30.13,25.04l-569.24-52.46c-15.24-1.4-26.45-14.89-25.04-30.12l26.67-289.39,272.95,25.16c-.5-1.74-.73-3.59-.55-5.5l.18-1.93-295.5-27.23c-.92-.08-1.79-.31-2.66-.52l-29.09,315.68c-1.4,15.18,8.81,28.63,23.28,31.91,1.27.29,2.53.63,3.87.75l617.16,56.88Z"/><path fill="#537edf" d="m2806.23,1960.16l-69.79-6.43c-6.28-.58-11.26-4.99-12.92-10.7l-272.95-25.16-26.67,289.39c-1.4,15.24,9.81,28.72,25.04,30.12l569.24,52.46c15.24,1.4,28.72-9.8,30.13-25.04l26.67-289.39-254.09-23.42c-2.67,5.32-8.37,8.74-14.66,8.16Z"/><path fill="#537edf" d="m2479.31,1860.44c-.94,10.16,6.54,19.16,16.7,20.1l230.25,21.22.1-1.1c.76-8.2,8.01-14.23,16.21-13.47l69.79,6.43c8.2.76,14.23,8.01,13.47,16.21l-.1,1.1,295.04,27.19,13.03-141.38.19-2.1c.94-10.17-6.54-19.16-16.7-20.1l-27.22-2.51-112.07-10.33-49.74-4.58-42.7-3.94-7.03-.65-154.91-14.28-11.66-1.07-12.81-1.18-42.7-3.94-43.96-4.05-119.95-11.06-13.22,143.48Z"/><path fill="#4674dc" d="m2424.99,1907.84c.87.21,1.74.43,2.66.52l295.5,27.23,3.12-33.83-230.25-21.22c-10.16-.94-17.64-9.94-16.7-20.1l13.22-143.48-19.62-1.81-27.23-2.51c-10.16-.94-19.16,6.54-20.1,16.7l-14.65,158.92c-.85,9.24,5.29,17.45,14.05,19.58Z"/><path fill="#4674dc" d="m3099.26,1970.26c.92.08,1.81.03,2.71-.02,9-.49,16.54-7.44,17.39-16.68l1.42-15.43-295.04-27.19-3.12,33.83,276.64,25.5Z"/><path fill="#4674dc" d="m2706.27,1658.72l186.42,17.18,39.23,3.62c1.19.11,2.35.07,3.5-.03,9.36-.79,17.09-8.15,17.99-17.83l.97-10.57.08-.83c1-10.87-6.99-20.49-17.86-21.49l-270.59-24.94c-10.87-1-20.49,6.99-21.49,17.86l-1.05,11.4c-1,10.86,6.99,20.48,17.86,21.49l2.23.21,42.7,3.94Zm-42.52-37.37l.07-.72c.63-6.81,6.66-11.82,13.47-11.19l250.04,23.05c6.81.63,11.82,6.66,11.19,13.47l-.07.72c-.63,6.81-6.66,11.81-13.47,11.19l-250.04-23.05c-6.81-.63-11.82-6.65-11.19-13.46Z"/><path fill="#537edf" d="m2674.94,1634.81l250.04,23.05c6.81.63,12.84-4.38,13.47-11.19l.07-.72c.63-6.81-4.38-12.84-11.19-13.47l-250.04-23.05c-6.81-.63-12.84,4.38-13.47,11.19l-.07.72c-.63,6.81,4.38,12.83,11.19,13.46Z"/><path fill="#f4f7fd" d="m2723.52,1943.03c1.66,5.71,6.64,10.13,12.92,10.7l69.79,6.43c6.28.58,11.98-2.85,14.66-8.16.81-1.62,1.37-3.4,1.55-5.31l.18-1.93,3.12-33.83.1-1.1c.76-8.2-5.28-15.45-13.47-16.21l-69.79-6.43c-8.2-.76-15.45,5.28-16.21,13.47l-.1,1.1-3.12,33.83-.18,1.93c-.18,1.91.05,3.76.55,5.5Zm28.2-45.35l49.74,4.58c5.84.54,10.14,5.71,9.6,11.55l-2.42,26.27c-.54,5.84-5.71,10.14-11.55,9.6l-49.74-4.58c-5.84-.54-10.14-5.71-9.6-11.55l2.42-26.27c.54-5.84,5.71-10.14,11.55-9.6Z"/><path fill="#6e92e4" d="m2761.21,1888.09h26.38c5.86,0,10.62,4.76,10.62,10.62v49.95c0,5.86-4.76,10.62-10.62,10.62h-26.38c-5.86,0-10.62-4.76-10.62-10.62v-49.95c0-5.86,4.76-10.62,10.62-10.62Z" transform="rotate(-84.73 2774.589 1923.656)"/></g><g><path fill="#fff" d="m3088.17,2676.55l.72,15.43c.27,5.9-4.38,10.92-10.4,11.2l-15.33.72-1.21-26.12,26.22-1.25Z"/><path fill="#fff" d="m3076.22,2654c6.01-.28,11.11,4.27,11.38,10.17l.57,12.38-26.22,1.25-1.07-23.07,15.34-.72Z"/><polygon fill="#809fe7" points="2583.09 2726.66 2580.92 2726.76 2580.88 2726.03 2583.09 2726.66"/><polygon fill="#94aeeb" points="2580.82 2677.48 2578.68 2678.31 2578.65 2677.58 2580.82 2677.48"/><polygon fill="#537edf" points="3001.81 2680.64 3039.95 2678.84 3041.16 2704.95 3013.91 2706.25 2583.09 2726.66 2581.89 2700.54 3001.81 2680.64"/><polygon fill="#4674dc" points="3011.64 2657.06 3038.88 2655.77 3039.95 2678.84 3001.81 2680.64 2581.89 2700.54 2580.82 2677.48 3011.64 2657.06"/><polygon fill="#6e92e4" points="3056.22 2654.95 3060.88 2654.72 3061.95 2677.79 3057.29 2678.02 3039.95 2678.84 3038.88 2655.77 3056.22 2654.95"/><polygon fill="#6e92e4" points="3057.29 2678.02 3061.95 2677.79 3063.16 2703.91 3058.5 2704.13 3041.16 2704.95 3039.95 2678.84 3057.29 2678.02"/><polygon fill="#4875dd" points="2555.69 2701.79 2556.49 2719.07 2509.04 2705.52 2513.49 2703.78 2555.69 2701.79"/><polygon fill="#4875dd" points="2555.69 2701.79 2513.49 2703.78 2555.04 2687.55 2555.69 2701.79"/><polygon fill="#fff" points="2579.71 2700.65 2581.89 2700.54 2583.09 2726.66 2580.88 2726.03 2556.49 2719.07 2555.69 2701.79 2579.71 2700.65"/><polygon fill="#fff" points="2578.68 2678.31 2580.82 2677.48 2581.89 2700.54 2579.71 2700.65 2555.69 2701.79 2555.04 2687.55 2578.68 2678.31"/></g></g></svg>