<svg xmlns="http://www.w3.org/2000/svg" enable-background="new 0 0 500 500" viewBox="0 0 500 500"><g id="obj"><path fill="#bbbaf4" d="M154.71,368.87l3.33-0.44l-3.07,1.85c1.79,8.65,6.97,14.57,7.37,15.01c0.02,0.02,0.02,0.02,0.02,0.02
					c1.24,1.36,5.94-1.79,6.82-2.59c3.45-3.09,5.04-7.61,6.54-11.86c1.83-5.18,3.57-10.4,5.76-15.44c1.75-4.03,3.71-7.97,5.62-11.92
					l-1.65-4.9l4.15-0.42c0.4-0.88,0.78-1.75,1.16-2.63c1.69-3.95,3.31-7.91,4.8-11.94c-0.74,0.26-20.09,7.53-31.81,19.65l1.53,2.47
					l-4.46,0.88c-1.47,1.85-2.73,3.83-3.71,5.88C154.29,358.4,153.94,364.02,154.71,368.87z"/><path fill="#bbbaf4" d="M114.18,357.71c0.4,0.48,0.76,0.98,1.14,1.47c3.61,5.08,7.57,9.88,11.84,14.39l2.11-1.39
					c0,0-0.72,1.41-1.16,2.37c3.73,3.89,7.69,7.57,11.86,11.02c1.14,0.94,2.45,1.91,3.89,2.53l1.73-1.85c0,0-0.04,1.34-0.04,2.39
					c0.64,0.12,1.28,0.16,1.93,0.06c0.88-0.12,4.03-0.74,4.46-1.59l0.02-0.02c0,0,4.21-9.47-3.85-17.92
					c-0.84-0.88-1.77-1.63-2.77-2.31l-1.36,1.75l-2.27-3.83c-2.15-1.02-4.42-1.81-6.58-2.51c-4.84-1.59-9.86-2.73-14.89-3.61
					C118.25,358.31,116.21,358.01,114.18,357.71z"/><path fill="#bbbaf4" d="M172.97,393.56l0.02,0.02c5.48,2.35,11.9,0.26,17.7-3.21c-0.76-1.57-2.29-4.68-2.43-4.88
					c-0.14-0.2,2.83,2.17,4.54,3.55c8.31-5.52,14.91-13.21,14.91-13.21s-21.94-1.4-30.09,2.83c-0.8,0.42-1.49,0.9-2.09,1.41
					l0.72,1.67l-1.83-0.48C170.54,386.18,172.97,393.56,172.97,393.56z"/><path fill="none" stroke="#31374c" stroke-miterlimit="10" stroke-width=".996" d="M162.93,409.61c0,0-7.59-47.21,20.07-73.82"/><path fill="none" stroke="#31374c" stroke-miterlimit="10" stroke-width=".996" d="M161.87,416.33c0,0-2.68-37.05-33.73-49.59"/><path fill="none" stroke="#31374c" stroke-miterlimit="10" stroke-width=".996" d="M163.36,407.05c0,0,12.36-23.43,31.3-27.75"/><path fill="#31374c" d="M142.76,405.45l9.31,33.61h19.45l9.25-33.39c0.02-0.05,0.03-0.08,0.03-0.12l0.03-0.1H142.76z"/><path fill="#8391fc" d="M168.4,439.05h-16.33l-9.25-33.39C143.72,408.43,153.35,437.18,168.4,439.05z" opacity=".5"/><rect width="412.93" height="3.38" x="43.54" y="438.29" fill="#31374c"/><polygon fill="#e6edfc" points="264.59 305.79 262 362.93 201.56 360.2 204.98 284.76 247.13 286.67"/><polygon fill="#d2d2f9" points="246.3 304.96 264.59 305.79 247.13 286.67"/><rect width="40.02" height="3.73" x="213.28" y="322.99" fill="#fff" transform="rotate(2.563 233.249 325.145)"/><rect width="40.02" height="3.73" x="213.76" y="312.44" fill="#fff" transform="rotate(2.563 233.732 314.583)"/><rect width="40.02" height="3.73" x="212.8" y="333.55" fill="#fff" transform="rotate(2.563 232.766 335.707)"/><rect width="40.02" height="3.73" x="212.32" y="344.11" fill="#fff" transform="rotate(2.563 232.282 346.268)"/><g><polygon fill="#e6edfc" points="154.91 78.98 153.84 102.75 128.7 101.61 130.12 70.23 147.65 71.03"/><polygon fill="#d2d2f9" points="147.3 78.63 154.91 78.98 147.65 71.03"/><g><rect width="16.65" height="1.55" x="133.57" y="86.14" fill="#fff" transform="rotate(2.563 141.923 87.028)"/><rect width="16.65" height="1.55" x="133.77" y="81.75" fill="#fff" transform="rotate(2.563 142.125 82.634)"/><rect width="16.65" height="1.55" x="133.37" y="90.53" fill="#fff" transform="rotate(2.563 141.722 91.422)"/><rect width="16.65" height="1.55" x="133.17" y="94.92" fill="#fff" transform="rotate(2.563 141.52 95.816)"/></g></g><g><path fill="#fff" stroke="#e6edfc" stroke-miterlimit="10" stroke-width="1.083" d="M208.6,191.88l-28.6,121.3c-0.71,3.01-3.73,4.88-6.74,4.17L50.11,288.31
								c-3.01-0.71-4.88-3.73-4.17-6.74l36.89-156.42c0.71-3.01,3.73-4.88,6.74-4.17l88.04,20.76L208.6,191.88z"/><polygon fill="#e6edfc" points="168.03 182.31 208.6 191.87 177.6 141.74"/><g><rect width="91.11" height="6.82" x="80.75" y="235.84" fill="#e6edfc" transform="rotate(13.27 126.324 239.257)"/><rect width="91.11" height="6.82" x="76.35" y="254.51" fill="#e6edfc" transform="rotate(13.27 121.92 257.936)"/><rect width="91.11" height="6.82" x="71.95" y="273.19" fill="#e6edfc" transform="rotate(13.27 117.515 276.615)"/></g><g><path fill="#bbbaf4" d="M171.83,229.89L90.46,210.7c-2.01-0.48-3.26-2.49-2.79-4.51l6.17-26.18c0.48-2.01,2.49-3.26,4.51-2.79
							l81.38,19.19c2.01,0.48,3.26,2.49,2.79,4.51l-6.17,26.18C175.87,229.11,173.85,230.36,171.83,229.89z"/><text fill="#fff" font-family="Poppins-Bold" font-size="25.04" transform="rotate(13.27 -836.781 576.965)">PDF</text></g><g><path fill="#fff" stroke="#e6edfc" stroke-miterlimit="10" stroke-width="1.083" d="M368.32,165.17l20.47,121.5c0.51,3.02-1.53,5.88-4.54,6.39l-123.35,20.78
							c-3.02,0.51-5.88-1.53-6.39-4.54l-26.39-156.68c-0.51-3.02,1.53-5.88,4.54-6.39l88.19-14.86L368.32,165.17z"/><polygon fill="#e6edfc" points="327.68 172.01 368.32 165.17 320.84 131.38"/><rect width="90.07" height="6.74" x="257.58" y="183.78" fill="#bbbaf4" transform="rotate(-9.564 302.65 187.183)"/><rect width="90.07" height="6.74" x="261.77" y="208.66" fill="#e6edfc" transform="rotate(-9.564 306.843 212.075)"/><rect width="90.07" height="6.74" x="265.97" y="233.55" fill="#e6edfc" transform="rotate(-9.564 311.035 236.967)"/><g><path fill="#bbbaf4" d="M361.12,283.51l-81.51,13.73c-2.02,0.34-3.93-1.02-4.27-3.04l-4.42-26.23
							c-0.34-2.02,1.02-3.93,3.04-4.27l81.51-13.73c2.02-0.34,3.93,1.02,4.27,3.04l4.42,26.23
							C364.5,281.26,363.14,283.17,361.12,283.51z"/><text fill="#fff" font-family="Poppins-Bold" font-size="24.757" transform="rotate(-9.564 1865.214 -1601.89)">DOC</text></g></g><g><circle cx="219.71" cy="229.4" r="32.07" fill="#6359c9"/><rect width="31.3" height="6.46" x="200.58" y="217.2" fill="#fff"/><polygon fill="#fff" points="238.84 220.43 228.77 212.55 228.77 228.31"/><g><rect width="31.3" height="6.46" x="207.55" y="235.15" fill="#fff" transform="rotate(180 223.195 238.376)"/><polygon fill="#fff" points="200.58 238.38 210.65 230.5 210.65 246.25"/></g></g></g><g><path fill="#eebf9c" d="M409.95,337.24c16.02-8.77,8.24,66.06,2.74,84.8c-5.5,18.74-7.36-1.55-8.09-32.38
							C403.87,358.83,403.64,340.69,409.95,337.24z"/><polyline fill="#eebf9c" points="404.72 426.83 404.47 419.27 415.8 419.4 416.02 426.8"/><path fill="#eebf9c" d="M374.85,335.34c17.31-5.83,2.45,76.31-6.25,93.8c-8.7,17.49-6.97-2.82-2.29-33.3
							C370.99,365.36,368.03,337.63,374.85,335.34z"/><path fill="#eebf9c" d="M369.89,323.52l-8.07,100.54l10.94,0.31c0,0,12.79-52.15,12.95-79.6l8.25-29.58L369.89,323.52z"/><path fill="#bbbaf4" d="M374.22,265.55c0,0-12.48,107.98-13.55,151.85l16.42,1.09l19.36-114.59l6.36,117.28l14.8,0.06
						c0,0,12.33-139.68,6.05-155.38L374.22,265.55z"/><path fill="#31374c" d="M361.82,424.06c0,0-3.37,3.68-11.1,8.35c-7.73,4.67-9.66,3.51-9.91,5.36c-0.24,1.85,32.13,1.55,32.13,1.55
					l-0.08-15.26C372.86,424.06,361.84,423.67,361.82,424.06z"/><path fill="#31374c" d="M404.72,426.83c-0.09,2.43-2.76,11.55-2.78,13.65c17.62,0.04,17.26,2.59,14.08-13.69L404.72,426.83z"/><g><path fill="#e59e9c" d="M385.53,195.91c-9.66-2.83-42.67,39.22-36.36,42.4C356.02,247.53,400.12,203.58,385.53,195.91z"/><path fill="#e59e9c" d="M339.71,191.14l14.31,31.94l3.7-4.19l9.64,14.95c0,0-11.67,10.83-19,7.27s-15.8-48.01-15.8-48.01
						L339.71,191.14z"/><path fill="#6359c9" d="M373.43,198.89c0,0-3.97,4.14-17.67,20.77l11.32,14.95l15.09-9.78L373.43,198.89z"/><path fill="#e59e9c" d="M351.71,239.71c-1.58,0.27-3.2-0.44-4.24-1.66c-8.16-9.57-17.28-54.35-13.7-53.64
								C336.31,183.87,363.63,237.66,351.71,239.71z"/><path fill="#e59e9c" d="M325.7,179.92l0.11,1.72c0.49,2.31,0.45,4.2,1.81,6.14l0.57,0.62l4.42,4.82l7.14-1.95l0.5-2.41l0-0.02
							l0.69-4.22c0.16-1.08,0.08-2.18-0.28-3.21l-2.64-4.07c0,0-1.45-0.32-0.59,2.29c0.22,0.69-0.04,1.8-0.31,2.7l-0.53-1.09
							l-0.66-1.36l-2.83-5.45C332.26,172.96,325.31,176.72,325.7,179.92z"/><polygon fill="#e59e9c" points="402.96 198.12 394.68 204.26 388.83 198.99 388.88 191.08 400.68 181.93 400.88 183.34 401.47 187.55"/><path fill="#e59e9c" d="M401.04,184.79c-3.26,6.37-10.72,9.47-12.18,9.91l0.01-1.66l11.01-9.65c0,0,0.43-0.05,1-0.06
							L401.04,184.79z" opacity=".5"/><path fill="#e59e9c" d="M401.68,183.6c0,0-2.21,4.84-7.29,7.29c-2.38,1.15-5.09,2.7-7.83,2.15c-2.42-0.49-3.69-2.91-4.71-4.92
								c-1-1.96-1.45-4.15-1.44-6.34c0.01-2.36,0.15-4.65-0.35-6.98c-0.39-1.84-0.97-4.14,0.14-5.84
								c1.44-2.21,12.55-4.91,12.55-4.91l6.51,3.64l4.92,3.29L401.68,183.6z"/><path fill="#31374c" d="M382.49,178.27c0.01,0.68,0.37,1.23,0.8,1.23s0.79-0.56,0.78-1.24c0-0.34-0.09-0.65-0.24-0.87
										c-0.15-0.22-0.34-0.36-0.56-0.36C382.84,177.03,382.49,177.58,382.49,178.27z"/><path fill="#31374c" d="M390.21,178.73c0.01,0.68,0.41,1.23,0.89,1.23c0.49,0,0.88-0.56,0.87-1.24c0-0.34-0.1-0.65-0.27-0.87
										s-0.38-0.36-0.63-0.36C390.6,177.49,390.21,178.04,390.21,178.73z"/><line x1="389.28" x2="392.17" y1="175.02" y2="175.34" fill="none" stroke="#31374c" stroke-linecap="round" stroke-linejoin="round" stroke-miterlimit="10" stroke-width=".444"/><line x1="381.87" x2="384.18" y1="174.87" y2="174.91" fill="none" stroke="#31374c" stroke-linecap="round" stroke-linejoin="round" stroke-miterlimit="10" stroke-width=".444"/><path fill="none" stroke="#31374c" stroke-linecap="round" stroke-linejoin="round" stroke-miterlimit="10" stroke-width=".444" d="M386.88,178.94c0,0-0.9,1.61-1.23,2.04c-0.33,0.43-1.33,1.84,0.9,1.92"/><path fill="#31374c" d="M389.66,185.22c0,0-0.24,0.24-0.64,0.53c-0.59,0.43-1.55,0.96-2.66,1.01c-0.79,0.04-1.57-0.76-1.95-1.22
								c-0.16-0.2-0.25-0.33-0.25-0.33s0.51,0.04,1.24,0.07c0.79,0.04,1.84,0.07,2.75,0.05
								C388.74,185.32,389.28,185.28,389.66,185.22z"/><path fill="#fff" d="M389.66,185.22c0,0-0.24,0.24-0.64,0.53c-2.29,0.44-4.08-0.04-4.61-0.22c-0.16-0.2-0.25-0.33-0.25-0.33
								s0.51,0.04,1.24,0.07c0.79,0.04,1.84,0.07,2.75,0.05C388.74,185.32,389.28,185.28,389.66,185.22z"/><path fill="#31374c" d="M386.87,170.59c0,0,0.32,1.74,2.14,2.51c0,0-3.44,0.4-5.5-1.13c0,0,0.97,1.5,1.78,1.74
							c0,0-4.29,0.2-5.66-1.38l0.49,2.71c0,0-2.51-2.51-2.47-5.54c0.03-2.15,1-4.13,1.66-6.14c0.43-1.32,1.07-2.8,2.36-3.49
							c3.44-1.83,7.61-1.52,11.27-0.59c2.91,0.74,5.91,1.76,8.25,3.71c6.21,5.17,3.81,16.58-0.36,22.3c0,0-0.52-5.23-0.6-6.85
							c-0.08-1.62-1.54-2.02-1.5-1.25c0.04,0.77-0.08,4.55-0.89,4.51c-0.81-0.04-1.12-6.65-3.07-8.02
							C392.83,172.29,388.45,171.89,386.87,170.59z"/><path fill="#6359c9" d="M425.56,280.02l-53.43,0.7c0.8-11.16-2.16-47.72-2.53-57.69c0.01-0.01,0-0.02,0-0.02
						c-0.01-0.35-0.02-0.7-0.03-1.05c-0.27-8.05-0.22-14.62,0.47-17.06c0.95-3.4,2.53-5.89,5.64-7.74
						c3.37-2.01,8.12-2.85,11.94-3.08c1.55,8.74,13.62,0.25,13.62,0.25s2.88,0.3,4.96,0.45c4.87,0.33,13.24,1.96,14.88,9.2
						c0.79,3.5,1.7,12.62,2.66,22.93c0.54,5.82,1.1,12.04,1.65,17.84C425.73,248.21,425.24,277.02,425.56,280.02z"/><polyline fill="#fff" points="388.85 193.22 391.25 197.6 388.69 199.59 386.74 194.18"/><polygon fill="#fff" points="391.25 197.6 402.14 191.96 404.3 194.67 392.81 200.71"/><path fill="#c3d3ea" d="M411.97,214.5c0,0,7.4,21.11,8.24,23.66c0.83,2.55,0.35,4.62-3.43,6.2s5.91,4.55,6.1,3.99
						c0.19-0.56,12.78-11.42,12.03-12.08C434.15,235.61,411.97,214.5,411.97,214.5z"/><path fill="#e59e9c" d="M415.4,200.64c-6.75,7.47,17.56,56.33,23.17,52.03C449.84,250.5,428.64,190.83,415.4,200.64z"/><path fill="#e59e9c" d="M437.21,225.64c0,0,7.98,20.39,4.47,24.89s-36.93,6.89-36.93,6.89l-1.38-9.18c0,0,23.24-5.56,23.32-5.92
						c0.07-0.35-5.59-10.41-5.59-10.41L437.21,225.64z"/><g><path fill="#e59e9c" d="M442.38,248.24c-0.03,1.61-1.03,3.06-2.43,3.85c-10.94,6.21-59.19,6.73-57.81,3.34
								C382.08,252.84,442.62,236.14,442.38,248.24z"/></g><polygon fill="#e59e9c" points="388.01 249.89 425.55 242.02 421.38 232.33 437.57 225.9 440.83 248.03 417.62 256.71 386.73 257.19 386.73 249.87"/><g><path fill="#e59e9c" d="M371.75,257.76l1.6,0.63c2.3,0.54,3.99,1.39,6.33,0.98l0.81-0.25l6.25-1.94l0.36-6.74l0.92-0.55
							l-1.97-1.48l-0.02-0.01l-3.53-2.42c-0.91-0.6-1.94-1-3.02-1.11l-4.81,0.66c0,0-0.91,1.17,1.82,1.51
							c0.71,0.09,1.62,0.8,2.31,1.43l-1.21,0.01l-1.51,0.02l-6.13,0.24C368.24,248.87,368.68,256.75,371.75,257.76z"/></g><path fill="#6359c9" d="M420.74,233.18c0,0,0,0,0-0.01c-3.4-6.27-7.66-14.58-8.78-18.66c0,0-7.44-15.53-1.83-18.05
						c0.75-0.34,2.34-0.88,3.11-0.68c5.72,1.42,11.68,5.6,15.68,11.46c2.67,3.9,6.21,11.03,9.14,18.49c0,0,0.01,0.01,0.01,0.02
						L420.74,233.18z"/></g></g><path fill="#e6edfc" d="M272.19,88.47h-4.08c-0.72-3.17-1.94-6.16-3.56-8.88l3-3c1.06-1.06,1.06-2.78,0-3.84l-6.57-6.57
			c-1.06-1.06-2.78-1.06-3.84,0l-2.88,2.88c-2.68-1.68-5.65-2.97-8.8-3.77v-4.24c0-1.5-1.22-2.72-2.72-2.72h-9.29
			c-1.5,0-2.72,1.22-2.72,2.72v4.08c-3.17,0.72-6.16,1.94-8.89,3.55l0,0l-3-3c-1.06-1.06-2.78-1.06-3.84,0l-6.57,6.57
			c-1.06,1.06-1.06,2.78,0,3.84l2.89,2.89c-1.69,2.68-2.97,5.64-3.77,8.79h-4.24c-1.5,0-2.72,1.22-2.72,2.72v9.29
			c0,1.5,1.22,2.72,2.72,2.72h4.09c0.71,3.17,1.93,6.16,3.55,8.88l-3,3c-1.06,1.06-1.06,2.78,0,3.84l6.57,6.57
			c1.06,1.06,2.78,1.06,3.84,0l2.88-2.88c0,0,0,0,0,0c2.68,1.68,5.64,2.97,8.79,3.77c0,0,0,0,0,0v4.23c0,1.5,1.22,2.72,2.72,2.72
			h9.29c1.5,0,2.72-1.22,2.72-2.72v-4.08c0,0,0,0,0,0c3.17-0.72,6.16-1.93,8.88-3.55c0,0,0,0,0,0l3,3c1.06,1.06,2.78,1.06,3.84,0
			l6.57-6.57c1.06-1.06,1.06-2.78,0-3.84l-2.89-2.89c0,0,0,0,0,0c1.69-2.68,2.98-5.64,3.78-8.79h4.23c1.5,0,2.72-1.22,2.72-2.72
			v-9.29C274.9,89.69,273.69,88.47,272.19,88.47z M237.75,112.78c-9.54,0-17.29-7.74-17.29-17.29s7.75-17.29,17.29-17.29
			c9.55,0,17.3,7.74,17.3,17.29S247.3,112.78,237.75,112.78z"/><circle cx="317" cy="96.57" r="4.27" fill="#bbbaf4"/><circle cx="105.94" cy="325.61" r="4.27" fill="#bbbaf4"/><circle cx="320.33" cy="354.52" r="4.27" fill="#bbbaf4"/><g><line x1="359.84" x2="359.84" y1="128.74" y2="121.67" fill="none" stroke="#6359c9" stroke-miterlimit="10" stroke-width="2.89"/><line x1="359.84" x2="359.84" y1="115.29" y2="108.22" fill="none" stroke="#6359c9" stroke-miterlimit="10" stroke-width="2.89"/><line x1="356.64" x2="349.57" y1="118.49" y2="118.49" fill="none" stroke="#6359c9" stroke-miterlimit="10" stroke-width="2.89"/><line x1="370.11" x2="363.02" y1="118.49" y2="118.49" fill="none" stroke="#6359c9" stroke-miterlimit="10" stroke-width="2.89"/></g><g><line x1="255.97" x2="255.97" y1="399.07" y2="394.43" fill="none" stroke="#6359c9" stroke-miterlimit="10" stroke-width="1.894"/><line x1="255.97" x2="255.97" y1="390.25" y2="385.61" fill="none" stroke="#6359c9" stroke-miterlimit="10" stroke-width="1.894"/><line x1="253.87" x2="249.24" y1="392.34" y2="392.34" fill="none" stroke="#6359c9" stroke-miterlimit="10" stroke-width="1.894"/><line x1="262.7" x2="258.05" y1="392.34" y2="392.34" fill="none" stroke="#6359c9" stroke-miterlimit="10" stroke-width="1.894"/></g><g><line x1="97.95" x2="97.95" y1="98.56" y2="93.93" fill="none" stroke="#6359c9" stroke-miterlimit="10" stroke-width="1.894"/><line x1="97.95" x2="97.95" y1="89.75" y2="85.11" fill="none" stroke="#6359c9" stroke-miterlimit="10" stroke-width="1.894"/><line x1="95.85" x2="91.22" y1="91.84" y2="91.84" fill="none" stroke="#6359c9" stroke-miterlimit="10" stroke-width="1.894"/><line x1="104.68" x2="100.03" y1="91.84" y2="91.84" fill="none" stroke="#6359c9" stroke-miterlimit="10" stroke-width="1.894"/></g></g></svg>