<svg xmlns="http://www.w3.org/2000/svg" enable-background="new 0 0 3000 2657.7" viewBox="0 0 3000 2657.7"><rect width="2902.2" height="2573.3" x="78.3" y="42.2" fill="none"/><linearGradient id="a" x1="839.018" x2="2478.624" y1="1539.515" y2="1539.515" gradientUnits="userSpaceOnUse"><stop offset="0" stop-color="#2d07a8"/><stop offset="1" stop-color="#009bb3"/></linearGradient><path fill="url(#a)" d="M2478.6,1229.6c-0.5,36.4-9.6,73.7-28.1,111.1c-17.1,34.7-42.3,69.5-75.9,103.7c-2.7,2.7-5.2,5.4-7.8,8.2   c-1.3,1.4-2.5,2.8-3.7,4.2c-135.6,154.5-197.4,525.7-398.6,689.3h0c-33.6,27.3-71.2,48.9-113.6,62.6   c-162.1,52.5-395.7-8.6-756.1-293.9c-194.2-153.7-266.8-338.5-254.3-502.7c11.2-147.6,91.2-278.6,213.3-355.5   c0,0,68.6-52.8,196.7-104.5h0c140.6-56.8,352.8-112.5,624.6-95.9C2253,879.2,2481.1,1042.2,2478.6,1229.6z"/><defs><filter id="b" width="1610.1" height="1194" x="840.4" y="952.2" filterUnits="userSpaceOnUse"><feFlood flood-color="#fff" flood-opacity="1" result="back"/><feBlend in="SourceGraphic" in2="back"/></filter></defs><mask id="d" width="1610.1" height="1194" x="840.4" y="952.2" maskUnits="userSpaceOnUse"><g filter="url(#b)"><defs><filter id="c" width="1610.1" height="1194" x="840.4" y="952.2" filterUnits="userSpaceOnUse"><feFlood flood-color="#fff" flood-opacity="1" result="back"/><feBlend in="SourceGraphic" in2="back"/></filter></defs><linearGradient id="e" x1="1070.443" x2="1644.513" y1="942.76" y2="1375.774" gradientUnits="userSpaceOnUse"><stop offset="0"/><stop offset="1" stop-color="#fff"/></linearGradient><path fill="url(#e)" d="M2450.5,1340.7c-17.1,34.7-42.3,69.5-75.9,103.7c-2.7,2.7-5.2,5.4-7.8,8.2c-1.3,1.4-2.5,2.8-3.7,4.2     c-135.6,154.5-197.4,525.7-398.6,689.3h0L840.4,1412.2c11.2-147.6,91.2-278.6,213.3-355.5c0,0,68.6-52.8,196.7-104.5h0     L2450.5,1340.7z" mask="url(#d)"/></g></mask><linearGradient id="f" x1="1070.443" x2="1644.513" y1="942.76" y2="1375.774" gradientUnits="userSpaceOnUse"><stop offset="0" stop-color="#4a31bb"/><stop offset="1" stop-color="#38e5cd"/></linearGradient><path fill="url(#f)" d="M2450.5,1340.7c-17.1,34.7-42.3,69.5-75.9,103.7c-2.7,2.7-5.2,5.4-7.8,8.2c-1.3,1.4-2.5,2.8-3.7,4.2   c-135.6,154.5-197.4,525.7-398.6,689.3h0L840.4,1412.2c11.2-147.6,91.2-278.6,213.3-355.5c0,0,68.6-52.8,196.7-104.5h0   L2450.5,1340.7z" opacity=".4"/><linearGradient id="g" x1="999.774" x2="1399.112" y1="606.923" y2="929.464" gradientUnits="userSpaceOnUse"><stop offset="0" stop-color="#fbfbfb"/><stop offset="1" stop-color="#f1f1f1"/></linearGradient><path fill="url(#g)" d="M1148.2,926.7c2.4,15.6,6.5,30.7,12.1,45.2l-39.8,23l31.6,54.8l39.8-23c9.7,12.2,20.8,23.2,33.1,33l-23,39.9    l54.8,31.6l23-39.9c13.8,5.4,28.4,9.4,43.6,11.8c0.5,0.1,1,0.1,1.5,0.2v46.2h63.3v-46.2c15.6-2.4,30.6-6.5,45-12.2l23.1,40.1    l54.8-31.6l-23.1-40.1c12.1-9.7,23.2-20.8,32.9-33l40.1,23.2l31.6-54.8l-40.1-23.2c5.4-13.9,9.5-28.5,11.9-43.8    c0.1-0.4,0.1-0.8,0.2-1.2h46.3v-63.3h-46.2c-2.4-15.6-6.5-30.7-12.1-45l40-23.1l-31.6-54.8l-40,23.1c-9.7-12.2-20.8-23.2-33-33    l23.1-40l-54.8-31.6l-23.1,40c-13.9-5.4-28.5-9.5-43.8-11.9c-0.4-0.1-0.8-0.1-1.3-0.2v-46.2H1325v46.1    c-15.6,2.4-30.7,6.5-45.1,12.1l-23.1-40l-54.8,31.6l23.1,40c-12.2,9.7-23.2,20.8-33,33l-40-23.1l-31.6,54.8l39.9,23    c-5.4,13.9-9.5,28.6-11.9,43.9c-0.1,0.4-0.1,0.8-0.2,1.2h-46.1v63.3H1148.2z M1247.7,895.1c0-60.1,48.7-108.9,108.9-108.9    c60.1,0,108.9,48.7,108.9,108.9c0,60.1-48.7,108.9-108.9,108.9C1296.5,1004,1247.7,955.2,1247.7,895.1z"/><linearGradient id="h" x1="1150.958" x2="1550.296" y1="419.744" y2="742.286" gradientUnits="userSpaceOnUse"><stop offset="0" stop-color="#fbfbfb"/><stop offset="1" stop-color="#f1f1f1"/></linearGradient><path fill="url(#h)" d="M965.4,469.8c2.4,15.6,6.5,30.7,12.1,45.2l-39.8,23l31.6,54.8l39.8-23c9.7,12.2,20.8,23.2,33.1,33l-23,39.9    l54.8,31.6l23-39.9c13.8,5.4,28.4,9.4,43.6,11.8c0.5,0.1,1,0.1,1.5,0.2v46.2h63.3v-46.2c15.6-2.4,30.6-6.5,45-12.2l23.1,40.1    l54.8-31.6l-23.1-40.1c12.1-9.7,23.2-20.8,32.9-33l40.1,23.2l31.6-54.8l-40.1-23.1c5.4-13.9,9.5-28.5,11.9-43.8    c0.1-0.4,0.1-0.8,0.2-1.2h46.3v-63.3H1382c-2.3-15.6-6.5-30.7-12.1-45l40-23.1l-31.6-54.8l-40,23.1c-9.7-12.2-20.8-23.2-33-33    l23.1-40l-54.8-31.6l-23.1,40c-13.9-5.4-28.5-9.5-43.8-11.9c-0.4-0.1-0.8-0.1-1.3-0.2v-46.2h-63.3V230    c-15.6,2.4-30.7,6.5-45.1,12.1l-23.1-40l-54.8,31.6l23.1,40c-12.2,9.7-23.2,20.8-33,33l-40-23.1l-31.6,54.8l39.9,23    c-5.4,13.9-9.5,28.6-11.9,43.9c-0.1,0.4-0.1,0.8-0.2,1.2h-46.1v63.2H965.4z M1065,438.2c0-60.1,48.7-108.9,108.9-108.9    c60.1,0,108.9,48.7,108.9,108.9c0,60.1-48.7,108.9-108.9,108.9C1113.7,547.1,1065,498.3,1065,438.2z"/><linearGradient id="i" x1="1309.019" x2="1708.357" y1="224.049" y2="546.59" gradientUnits="userSpaceOnUse"><stop offset="0" stop-color="#fbfbfb"/><stop offset="1" stop-color="#f1f1f1"/></linearGradient><path fill="url(#i)" d="M1456.8,543.3c2.4,15.6,6.5,30.7,12.1,45.2l-39.8,23l31.6,54.8l39.8-23c9.7,12.2,20.8,23.2,33.1,33l-23,39.9    l54.8,31.6l23-39.9c13.8,5.4,28.4,9.4,43.6,11.8c0.5,0.1,1,0.1,1.5,0.2v46.2h63.2v-46.2c15.6-2.4,30.6-6.5,45-12.1l23.1,40.1    l54.8-31.6l-23.2-40.1c12.1-9.7,23.2-20.8,32.9-33l40.1,23.2l31.6-54.8l-40.1-23.1c5.4-13.9,9.5-28.5,11.9-43.8    c0.1-0.4,0.1-0.8,0.2-1.2h46.3v-63.3h-46.2c-2.4-15.6-6.5-30.7-12.1-45.1l40-23.1l-31.6-54.8l-40,23.1c-9.7-12.2-20.8-23.2-33-33    l23.1-40l-54.8-31.6l-23.1,40c-13.9-5.4-28.5-9.5-43.8-11.9c-0.4-0.1-0.8-0.1-1.3-0.2v-46.2h-63.2v46.2    c-15.6,2.4-30.7,6.5-45.1,12.1l-23.1-40l-54.8,31.6l23.1,40c-12.2,9.7-23.2,20.8-33,33l-40-23.1l-31.6,54.8l39.9,23    c-5.4,13.9-9.5,28.6-11.9,43.9c-0.1,0.4-0.1,0.8-0.2,1.2h-46.1v63.3H1456.8z M1556.3,511.7c0-60.1,48.7-108.9,108.9-108.9    c60.1,0,108.9,48.7,108.9,108.9c0,60.1-48.7,108.9-108.9,108.9C1605,620.6,1556.3,571.8,1556.3,511.7z"/><circle cx="1940.4" cy="895.1" r="514" fill="#c1bdbd"/><linearGradient id="j" x1="1378.75" x2="2406.692" y1="895.114" y2="895.114" gradientUnits="userSpaceOnUse"><stop offset="0" stop-color="#fff"/><stop offset="1" stop-color="#f1f1f1"/></linearGradient><path fill="url(#j)" d="M1378.8,895.1c0,283.9,230.1,514,514,514c283.9,0,514-230.1,514-514c0-283.9-230.1-514-514-514     C1608.9,381.1,1378.8,611.3,1378.8,895.1z"/><path fill="#af8e04" d="M1481.5,895.1c0,227.2,184,411.3,411.2,411.3c4.5,0,8.9-0.1,13.4-0.3c-220.9-7.1-397.8-188.4-397.8-411     c0-222.6,176.9-403.9,397.8-411c-4.5-0.2-8.9-0.3-13.4-0.3C1665.6,483.9,1481.5,668,1481.5,895.1z"/><path fill="#ffd000" d="M1508.3,895.1c0,222.7,176.9,404,397.8,411c220.9-7,397.8-188.4,397.8-411c0-222.6-176.9-404-397.8-411     C1685.2,491.2,1508.3,672.5,1508.3,895.1z" opacity=".9"/><path fill="#af8e04" d="M1874.2,550.4c0,10.2,8.3,18.4,18.4,18.4c10.2,0,18.4-8.3,18.4-18.4c0-10.2-8.3-18.4-18.4-18.4      C1882.5,532,1874.2,540.3,1874.2,550.4z"/><path fill="#af8e04" d="M1874.2,1241c0,10.2,8.3,18.4,18.4,18.4c10.2,0,18.4-8.3,18.4-18.4c0-10.2-8.3-18.4-18.4-18.4      C1882.5,1222.5,1874.2,1230.8,1874.2,1241z"/><path fill="#af8e04" d="M2217.5,876.7c0,10.2,8.3,18.4,18.4,18.4c10.2,0,18.4-8.3,18.4-18.4c0-10.2-8.3-18.4-18.4-18.4      C2225.8,858.3,2217.5,866.5,2217.5,876.7z"/><path fill="#af8e04" d="M1529.4,876.7c0,10.2,8.3,18.4,18.4,18.4c10.2,0,18.4-8.3,18.4-18.4c0-10.2-8.2-18.4-18.4-18.4      C1537.6,858.3,1529.4,866.5,1529.4,876.7z"/><path fill="#af8e04" d="M1652.4,637c0,10.2,8.3,18.4,18.4,18.4c10.2,0,18.4-8.3,18.4-18.4c0-10.2-8.3-18.4-18.4-18.4      C1660.7,618.6,1652.4,626.8,1652.4,637z"/><path fill="#af8e04" d="M2111.8,637c0,10.2,8.3,18.4,18.4,18.4c10.2,0,18.4-8.3,18.4-18.4c0-10.2-8.3-18.4-18.4-18.4      C2120,618.6,2111.8,626.8,2111.8,637z"/><path fill="#af8e04" d="M1652.4,1125.8c0,10.2,8.3,18.4,18.4,18.4c10.2,0,18.4-8.3,18.4-18.4c0-10.2-8.3-18.4-18.4-18.4      C1660.7,1107.4,1652.4,1115.7,1652.4,1125.8z"/><path fill="#af8e04" d="M2111.8,1125.8c0,10.2,8.3,18.4,18.4,18.4c10.2,0,18.4-8.3,18.4-18.4c0-10.2-8.3-18.4-18.4-18.4      C2120,1107.4,2111.8,1115.7,2111.8,1125.8z"/><path fill="#af8e04" d="M1854.3,895.1c0,21.2,17.2,38.4,38.4,38.4c21.2,0,38.4-17.2,38.4-38.4c0-21.2-17.2-38.4-38.4-38.4     C1871.5,856.7,1854.3,873.9,1854.3,895.1z"/><polygon fill="#af8e04" points="1882 858.2 1674.1 579.7 1854.3 881.7"/><polygon fill="#af8e04" points="1931.2 881.7 2155.6 886.7 1919.5 922.6"/><g><rect width="107.2" height="273.6" x="1154.5" y="1806.4" fill="#efeaea"/><rect width="107.2" height="547.2" x="1397.2" y="1532.8" fill="#efeaea"/><rect width="107.2" height="598.6" x="1640" y="1481.4" fill="#efeaea"/><rect width="107.2" height="708.4" x="1882.7" y="1371.7" fill="#efeaea"/><rect width="107.2" height="547.2" x="2125.5" y="1532.8" fill="#efeaea"/><polygon fill="#ff5454" points="1040.8 2201.9 1753.8 1505.9 1886.9 1765.3 2135.6 1452.4 2053.9 1361.8 2472.8 1175.6 2290.1 1619.8 2232.6 1545.1 1878.5 1943.3 1726 1643.2"/></g><linearGradient id="k" x1="1101.32" x2="996.252" y1="2179.655" y2="2354.768" gradientUnits="userSpaceOnUse"><stop offset="0" stop-color="#9346b9"/><stop offset="1" stop-color="#1067af"/></linearGradient><path fill="url(#k)" d="M866.6,2090.5c-114.8-28.4-48.2,243.9,156.7,342.9c184.8,89.4,295.5,17.3,264.7-89.8   C1257.2,2236.5,998.6,2123.2,866.6,2090.5z"/><g><path fill="#ffd4d4" d="M1574.2,2232.7l12.2,41.8c0,0-32.8,17.2-49.2,14.9c-16.4-2.2-23.9-12.7-23.9-12.7l-6.7-37.3L1574.2,2232.7z"/><polygon fill="#ffd4d4" points="453.3 1781.2 488.1 1809.4 453.3 1860.2 380.9 1839.5"/><linearGradient id="l" x1="1003.307" x2="766.925" y1="1900.871" y2="1722.043" gradientUnits="userSpaceOnUse"><stop offset="0" stop-color="#4a31bb"/><stop offset="1" stop-color="#1e183d"/></linearGradient><path fill="url(#l)" d="M964.7,1505.9c0,0-43,66.5-40.9,120.3c2.2,53.8-66.7,197.9-86.1,206.5c-19.4,8.6-347.6-45.2-347.6-45.2    s-34.4,10.5-43,46.1c-8.6,35.6-8.6,35.6-8.6,35.6s416.4,133.4,496,77.4c79.6-55.9,251.5-303.3,251.5-303.3l-161.5-115.8    L964.7,1505.9z"/><path fill="#ffd4d4" d="M1551.3,1285.8c0,0,31.9,5.6,50.7,5.6c18.8,0,32.8,6.9,32.8,6.9s7.3-10.3-5.5-15.9    c-12.8-5.5-26-10.7-26-10.7s14.9-5.6,31.1,0c16.2,5.5,53.1,8.5,52.6,1.3c-0.5-7.2-50.4-32-60.7-35.8c-10.2-3.8-78,14.1-78,14.1    S1540.7,1273,1551.3,1285.8z"/><path fill="#e5b1b1" d="M1064.8,928.7c0,0-10,33.7-17,47.6c-7,14-7,14-7,14s48.1,27.8,88.8,22c40.8-5.8,48.3-26.5,48.3-26.5    S1122.2,986.6,1064.8,928.7z"/><linearGradient id="m" x1="783.994" x2="1561.099" y1="1259.853" y2="1259.853" gradientUnits="userSpaceOnUse"><stop offset="0" stop-color="#63ffcd"/><stop offset="1" stop-color="#00c3cc"/></linearGradient><path fill="url(#m)" d="M1561.1,1303.3c0,0-173,32.5-199.8,18.1c-25.8-13.8-75.6-92.8-79-98.3c-0.1-0.3-0.2-0.3-0.2-0.3v285.3    c0,0-99.8,28.8-166.8,29.7c-32.3,0.4-68.4-7.1-97.1-15c-30.9-8.5-53.2-17.5-53.2-17.5s30.6-29.7,30.6-97.6    c0-68-32.4-252.9-32.4-252.9s-91.4,65-96.2,88.2c-4.7,23.4,11,194,11,194s-25.9,13.7-50.8,14.7c-24.9,0.9-33.5-7.7-33.5-7.7    s-13.4-232.7-8.6-258.5C789.8,1159.7,965,986,965,986s79.5-3,80-4.1c0.6-1.2,36.8,27.4,86.1,22.2c49.3-5.2,46.8-18.3,46.8-18.3    c1.6,0,89.2,0.1,104.2,18.9c15.1,19.1,114.6,234.4,134.8,241.2c20.1,6.7,135-5.7,135-5.7s-4.6,14.3,0,35.4    c1.9,8.1,3.6,14.1,5.2,18.4C1559.4,1300.8,1561.1,1303.3,1561.1,1303.3z"/><linearGradient id="n" x1="1478.334" x2="1746.267" y1="2304.593" y2="2304.593" gradientUnits="userSpaceOnUse"><stop offset="0" stop-color="#4a31bb"/><stop offset="1" stop-color="#1e183d"/></linearGradient><path fill="url(#n)" d="M1507,2269.5c0,0,41.1,19.4,70.3,0c29.2-19.4,44.7-22,52.5-15.5c7.8,6.5,12.9,29.7,54.3,37.5    c41.4,7.8,56.9,10.3,62.1,36.2c0,0-243.1,45.3-261.2,25.9C1467,2334.1,1489.1,2263.5,1507,2269.5z"/><linearGradient id="o" x1="7879.303" x2="8147.245" y1="3249.802" y2="3249.802" gradientTransform="matrix(-.7887 .6146 -.6147 -.7888 8679.462 -535.668)" gradientUnits="userSpaceOnUse"><stop offset="0" stop-color="#4a31bb"/><stop offset="1" stop-color="#1e183d"/></linearGradient><path fill="url(#o)" d="M466.3,1788.8c0,0-44.3,10-55.5,43.2c-11.1,33.3-21.8,44.8-31.9,44.5c-10.1-0.3-28.5-15.5-65.9,3.8    c-37.4,19.3-51.3,26.8-71.2,9.6c0,0,163.9-185.1,190.1-180.9C458.2,1713.2,484.1,1782.5,466.3,1788.8z"/><path fill="#ffd4d4" d="M997.9,1072.8c0.4-9.4,1-12.8,1-12.8S999.3,1063,997.9,1072.8z"/><path fill="#02895c" d="M1018.2,1522.8c-30.9-8.5-53.2-17.5-53.2-17.5s30.6-29.7,30.6-97.6c0-68-32.4-252.9-32.4-252.9    s22-24.6,29.4-55.8c2.7-11.6,4.3-20,5.2-25.9c-0.5,11.4-0.6,31.5,1.1,64.4c3.1,60.4,6.2,147.6,14.5,214.3    c8.4,66.7-1.6,130.5,6.5,142.9C1024.8,1502,1021.6,1514.1,1018.2,1522.8z" opacity=".3"/><path fill="#02895c" d="M1561.1,1303.3c0,0-173,32.5-199.8,18.1c-25.8-13.8-75.6-92.8-79-98.3c-0.1-0.3-0.2-0.3-0.2-0.3    s4.2-37.5,3.5-76.4c-0.8-39-3.5-49.4-3.5-49.4s20,65.1,28.2,109.3c8.2,44.1,52.5,101.9,71.1,105.2c15.7,2.8,136.5-12.5,175.7-17.5    C1559.4,1300.8,1561.1,1303.3,1561.1,1303.3z" opacity=".3"/><path fill="#aa8163" d="M751.8,1556.5l10.5-46.6c0,0,4.3-18.5,21.6-14.8l102.5,27.7c0,0,19.2,7.4,14.8,23.5l-12.9,55.2l-11.1-5.1    l12.9-51.3c0,0,5.1-8.7-16.6-13.6l-89.6-24.6c0,0-6.8-3.1-11.1,13.6l-12.4,40.8L751.8,1556.5z"/><path fill="#ffd4d4" d="M868,1437c0,0-5.9,19.9,12.6,35.5c18.6,15.6,13.4,53.6,13.4,53.6l-13.1-8.2c0,0-20.3,35.7-42.7,34.2    c-22.3-1.5-49.8-21.6-49.8-31.2c0-9.7,10.1-73.8,10.1-73.8S839,1455.8,868,1437z"/><polygon fill="#876345" points="653.2 1525.5 1010.2 1633.1 929.3 1892.4 576 1774"/><polygon fill="#aa8163" points="653.2 1525.5 669.6 1681.6 896.1 1753.1 1010.2 1633.1"/><path fill="#ccc0b8" d="M694,1666.2l-11.7,42.5l45.2,12.5l11.7-42.5L694,1666.2z M723.4,1715.2l-35.5-9.8l9.8-33.2l35.5,9.8     L723.4,1715.2z"/><polygon fill="#ccc0b8" points="693.7 1685.6 729.2 1695.4 726.7 1703.9 691.4 1693.7"/><path fill="#ccc0b8" d="M826.3,1709l-11.7,42.5l45.2,12.5l11.7-42.5L826.3,1709z M855.7,1757.9l-35.5-9.8l9.8-33.2l35.5,9.8     L855.7,1757.9z"/><polygon fill="#ccc0b8" points="826 1728.4 861.5 1738.2 859 1746.6 823.7 1736.5"/><path fill="#efeaea" d="M1046.5,966.4c0,0,23.9,17.8,44.2,24.5c20.2,6.7,30.7,13.8,30.7,13.8l-23.4,42l-59.5-64.9    C1038.6,981.9,1040.4,967.9,1046.5,966.4z"/><path fill="#efeaea" d="M1132.8,1000.7l20.6,30.1c0,0,25.8-20.2,33.1-30.1c7.4-9.8,5.7-14.6,5.7-14.6l-19.6-0.6L1132.8,1000.7z"/><path fill="#ffd4d4" d="M1220.9,739.7c0,0,12.6,61.5,6.9,73.5c-5.7,12-13.2,22.5-10.9,33c2.3,10.5,12,43.8,3.4,67.3    c-8.6,23.5-18.9,68.8-42.5,72.3c-23.5,3.4-91.7-27.3-111.8-56.1c-20.1-28.8-33.7-120.3-28.9-147.4c4.8-27.1,95.4-85,106.9-85.6    C1155.5,696.1,1220.9,739.7,1220.9,739.7z"/><linearGradient id="p" x1="992.593" x2="1235.557" y1="803.11" y2="803.11" gradientUnits="userSpaceOnUse"><stop offset="0" stop-color="#4a31bb"/><stop offset="1" stop-color="#1e183d"/></linearGradient><path fill="url(#p)" d="M1234.9,708.2c5.1,25.2-18.6,50.7-42.2,49.2c-23.6-1.5-62.3-1.9-63.8,24.9c-1.5,26.8-24.6,39.9-28.1,46.6    c-3.5,6.8,3.2,41.5-6.7,40.7c-9.9-0.8-9.4-41.4-26-37.9c-16.6,3.5-16.4,24.4-4,48.7c12.3,24.3,8.5,54.2,8.5,54.2    s-43.2-29.1-58.2-76.8c-15.1-47.7-36.7-92.9-7-131.6c29.6-38.7,53.7-54.2,117-54.7C1187.6,671.1,1230.3,686.1,1234.9,708.2z"/><linearGradient id="q" x1="1567.85" x2="1290.358" y1="1802.925" y2="1885.145" gradientUnits="userSpaceOnUse"><stop offset="0" stop-color="#4a31bb"/><stop offset="1" stop-color="#1e183d"/></linearGradient><path fill="url(#q)" d="M1018.2,1522.8c0,0-50.3,85.3,114.6,175.4c164.9,90.1,266.3,94,266.3,94s7.2,160.5,25.9,273.6    c18.7,113.1,74.8,177.7,74.8,177.7s9.4,27.5,41.9,8.4s45.4-26,45.4-26s-65.3-308.6-51-445c14.4-136.4-254-272.6-254-272.6    S1186.1,1552.2,1018.2,1522.8z"/></g><g><path fill="#ffd000" d="M2758.1,1791v313c0,51.3-41.6,92.9-92.9,92.9H2292c-51.3,0-92.9-41.6-92.9-92.9v-313     c0-51.3,41.6-92.9,92.9-92.9h373.2C2716.5,1698.2,2758.1,1739.7,2758.1,1791z" opacity=".9"/><path fill="#b79041" d="M2758.1,1791v81.3h-559V1791c0-51.3,41.6-92.9,92.9-92.9h373.2C2716.5,1698.2,2758.1,1739.7,2758.1,1791z"/><rect width="74" height="67.9" x="2275.2" y="1899.2" fill="#efeaea"/><rect width="74" height="67.9" x="2383.1" y="1899.2" fill="#efeaea" opacity=".8"/><rect width="74" height="67.9" x="2491" y="1899.2" fill="#efeaea"/><rect width="74" height="67.9" x="2599" y="1899.2" fill="#efeaea"/><g><rect width="74" height="67.9" x="2275.2" y="1989.7" fill="#efeaea"/><rect width="74" height="67.9" x="2383.1" y="1989.7" fill="#efeaea"/><rect width="74" height="67.9" x="2491" y="1989.7" fill="#efeaea"/><rect width="74" height="67.9" x="2599" y="1989.7" fill="#efeaea" opacity=".8"/></g><g><rect width="74" height="67.9" x="2275.2" y="2080.2" fill="#efeaea"/><rect width="74" height="67.9" x="2383.1" y="2080.2" fill="#efeaea" opacity=".8"/><rect width="74" height="67.9" x="2491" y="2080.2" fill="#efeaea" opacity=".8"/><rect width="74" height="67.9" x="2599" y="2080.2" fill="#efeaea"/></g><g><path fill="#9b7634" d="M2358.9,1775.8h-25.4c-6.6,0-12-5.4-12-12v-100.9c0-6.6,5.4-12,12-12h25.4c6.6,0,12,5.4,12,12v100.9     C2370.9,1770.4,2365.5,1775.8,2358.9,1775.8z"/><path fill="#9b7634" d="M2491.3,1775.8h-25.4c-6.6,0-12-5.4-12-12v-100.9c0-6.6,5.4-12,12-12h25.4c6.6,0,12,5.4,12,12v100.9     C2503.3,1770.4,2497.9,1775.8,2491.3,1775.8z"/><path fill="#9b7634" d="M2623.7,1775.8h-25.4c-6.6,0-12-5.4-12-12v-100.9c0-6.6,5.4-12,12-12h25.4c6.6,0,12,5.4,12,12v100.9     C2635.7,1770.4,2630.3,1775.8,2623.7,1775.8z"/></g></g></svg>