<svg xmlns="http://www.w3.org/2000/svg" enable-background="new 0 0 260 260" viewBox="0 0 260 260"><path fill="#c7d8ef" d="M178.897583,37.2883224l7.8464661,4.5598869
					c-3.116806-1.8113136-7.0020142-2.3032417-11.3498688-1.3071251l-7.8464966-4.5598679
					C171.8955688,34.9850922,175.7807617,35.4770241,178.897583,37.2883224z"/><path fill="#dde9fe" d="M194.5605927,59.0495567c0.0500488,17.1099815-12.0400391,38.0699425-26.9401855,46.6699181
				c-1.2900391,0.7399902-3.619873,2.0900879-6.7700195,3.9100342l0.0300293,14.2800293
				c0.0100098,4.5499344-3.1799316,10.0899734-7.1398926,12.3700027l-87.6999512,50.6400146
				c-2.1501465,1.2399902-4.0800781,1.25-5.4001465,0.2799072c0.1000977,0.0800781,0.2001953,0.1501465,0.3100586,0.2200928
				l-3.0300293-1.7700195c-1.2900391-0.75-2.079834-2.3299561-2.0900879-4.5899658l-0.0297852-10.7900391
				c-6.8200684,3.9399414-12.0200195,6.9499512-14.7202148,8.5c-8.9199219,5.1500244-16.9499512,5.4699707-22.6298828,1.8699951
				c0.1601563,0.0999756,0.3200684,0.210083,0.4799805,0.3099365l-7.8398428-4.5599365
				c-5.6000977-3.2600098-9.0600586-10.1700439-9.0900879-19.9799805
				c-0.0600587-19.710083,13.7900391-43.6900711,31.0300293-53.650032c1.3398438-0.7700195,2.6799316-1.4499512,3.9299316-1.9799805
				c-0.0800781-1.3000488-0.1699219-2.5-0.1699219-3.8400879c-0.0800781-26.2598877,18.4399414-58.2399864,41.369873-71.4799805
				c11.5800781-6.6799316,22.0500488-7.3199463,29.5700684-2.9399414l7.8601074,4.5600586
				c-0.0600586-0.0300293-0.130127-0.0600586-0.1901855-0.0900879c2.1501465,1.2199707,4.0700684,2.8400879,5.6999512,4.8400879
				c4.3901367-5.1000977,9.3701172-9.3500977,14.6601563-12.4100342c9.3000488-5.3699951,17.7199707-5.9000244,23.7900391-2.3800049
				l6.2199707,3.6199951c-0.1000977-0.0599365-0.1999512-0.1099854-0.3000488-0.1600342
				c4.8500977,2.6800537,8.2399902,7.9100342,9.4499512,15.2900391c1.4299316,0.3000488,2.7600098,0.7900391,3.9799805,1.5
				l7.8400879,4.5600586c-0.0800781-0.0500488-0.1699219-0.0900879-0.2600098-0.1401367
				C191.4404755,44.4494591,194.5405731,50.4394493,194.5605927,59.0495567z"/><path fill="#b3c9e2" d="M159.5473022,17.0401344l6.2205811,3.6150093
						c-6.0638885-3.5239525-14.4833679-2.9872017-23.7849884,2.3830929
						c-6.2773132,3.6242123-12.1266327,8.9233627-17.0537949,15.3387928l-6.2205811-3.6150055
						c4.9271622-6.415432,10.7764664-11.7145824,17.0537949-15.3387947
						C145.0639343,14.0529346,153.4834137,13.5161848,159.5473022,17.0401344z"/><path fill="#c7d8ef" d="M115.5881805,27.0841045c-7.5352173-4.3814278-17.9943695-3.7421169-29.5789795,2.9407902
						C63.0793114,43.2629318,44.5563393,75.245575,44.6329231,101.491478c0,1.3467789,0.0940666,2.5487137,0.1789742,3.8529358
						l-7.8526535-4.5617065c-0.0769997-1.3042221-0.1706467-2.5061569-0.1706467-3.8443985
						c-0.0765877-26.2544403,18.4463844-58.2370834,41.3762741-71.4751205
						c11.5758667-6.6829071,22.0433426-7.3222179,29.5702438-2.9407902L115.5881805,27.0841045z"/><path fill="#b3c9e2" d="M18.9331532,180.945282l-7.8464851-4.5598755
						c-5.5957189-3.2518768-9.0587101-10.1697845-9.0865078-19.9751434
						c-0.0558856-19.7126312,13.7932014-43.6927643,31.0340729-53.6467819
						c1.3336029-0.7699585,2.6735535-1.4523849,3.928215-1.9792328l7.8464661,4.5598755
						c-1.2546501,0.5268402-2.5946007,1.2092667-3.9282036,1.9792252
						c-17.2408714,9.9540253-31.0899582,33.9341583-31.0340729,53.6467896
						C9.8744354,170.7754822,13.3374262,177.6934052,18.9331532,180.945282z"/><path fill="#dde9fe" d="M86.0097961,30.0255527c17.8285294-10.2933083,33.0067749-6.2477741,38.9193039,8.3514767
						c4.9271622-6.4154301,10.7764816-11.7145805,17.0537949-15.3387928
						c17.9936218-10.3886223,32.686142-2.6894608,33.4112854,17.5028477
						c11.0603943-2.5339966,19.1268005,4.5615807,19.1663361,18.5098686
						c0.0485077,17.111042-12.0440063,38.0637856-26.9417725,46.6650047
						c-11.8022461,6.8140335-110.9709167,64.0690918-126.5354767,73.0552979
						c-17.2408733,9.9540253-31.1807442,1.9115143-31.2366295-17.8011169s13.7932024-43.6927643,31.0340729-53.6467896
						c1.3336029-0.7699585,2.6735535-1.4523849,3.928215-1.9792328c-0.0829697-1.3044205-0.1721039-2.5064697-0.1759109-3.8489761
						C44.5585938,75.2445526,63.0792656,43.2645035,86.0097961,30.0255527z"/><path fill="#b0c4ff" d="M160.8804169,123.9095383c0.0100098,4.5499344-3.1799316,10.0899734-7.1398926,12.3700027
					l-87.6999512,50.6400146c-2.1501465,1.2399902-4.0800781,1.25-5.4001465,0.2799072
					c0.1000977,0.0800781,0.2001953,0.1501465,0.3100586,0.2200928l-3.0300293-1.7700195
					c-1.2900391-0.75-2.079834-2.3299561-2.0900879-4.5899658l-0.1899414-78.4499588
					c-0.0100098-4.5500488,3.1899414-10.0800781,7.1401367-12.3601074l87.7099609-50.6398888
					c1.9899902-1.1401367,3.7900391-1.25,5.0898438-0.4901123l3.0102539,1.7401123
					c1.2897949,0.7399902,2.0998535,2.3398438,2.1098633,4.6098633L160.8804169,123.9095383z"/><path fill="#92b2f9" d="M158.6105347,40.8733749c-1.3049469-0.7554779-3.1092529-0.6493111-5.0946503,0.4994736
					l-87.704895,50.6388702c-3.9584427,2.2789001-7.1489487,7.8168945-7.1364479,12.3559418l0.1810837,78.4524689
					c0.0062523,2.2539063,0.805439,3.845993,2.0916405,4.5952148l-3.0309868-1.7646484
					c-1.2860489-0.7492371-2.0789871-2.3350677-2.0852356-4.5952148l-0.187336-78.4462204
					c-0.0125008-4.5453033,3.1842537-10.0770493,7.1362991-12.3621597l87.7111435-50.6326561
					c1.9853973-1.1487885,3.789856-1.2549553,5.0884094-0.4994736L158.6105347,40.8733749z"/><path fill="#b0c4ff" d="M153.5141907,41.3734016c3.954483-2.283123,7.1698151-0.4507179,7.1826935,4.0931702l0.1825409,78.4470215
					c0.0128784,4.5438919-3.1815643,10.0815659-7.1360474,12.3646774l-87.7054291,50.6367798
					c-3.9543762,2.2830505-7.1698303,0.4461365-7.1827126-4.0977631l-0.1825294-78.4470215
					c-0.0128784-4.5438843,3.1816788-10.0770416,7.136055-12.3600998L153.5141907,41.3734016z"/><path fill="#fff" d="M109.6990585,76.6541443c12.7119522-7.3392563,23.0541458-1.4553299,23.0955582,13.1518784
							c0.0414124,14.6071701-10.2336578,32.399292-22.9456177,39.7385483
							c-12.7079849,7.3369598-23.0500717,1.4481506-23.0914841-13.1590195
							C86.7161026,101.7783508,96.9910736,83.9911041,109.6990585,76.6541443z"/><path fill="#285294" d="M121.9217987,93.5860138c-0.0055771,2.2696991-0.4171219,4.6638947-1.3662567,7.1899643
								c-0.7000427,1.8602142-0.7434692,3.3551025-0.2858429,4.629364c0.7665405,2.1524963-0.7851639,5.4752579-3.0598297,6.7885361
								c-0.1576462,0.0910187-0.3185883,0.172348-0.4824829,0.2429123c-0.0738373,0.0325317-0.1457291,0.0690689-0.215683,0.1094589
								c-0.6895752,0.3981247-1.1871033,1.1699295-1.2605057,2.0478287
								c-0.0347137,0.4458542-0.2605743,0.8509445-0.5587463,1.1329803
								c-0.7748947,0.7358856-1.5617142,1.5061188-2.3609619,2.1049118
								c-0.8623962,0.6452332-1.7252808,1.2235107-2.5861282,1.7205276
								c-1.3057175,0.7538528-2.6067352,1.3206482-3.8954849,1.6507492
								c-0.3344116,0.0831909-0.6808701,0.1458282-0.9560471,0.084938c-0.1914444-0.0405884-0.3593521-0.245842-0.4080048-0.478714
								c-0.1522827-0.7513885-0.5929718-0.9813614-1.2864685-0.5809708
								c-0.0783234,0.0452271-0.1598892,0.0985107-0.2446976,0.1599808
								c-0.1660233,0.1192627-0.329155,0.2249985-0.4887619,0.3171463
								c-1.4325943,0.8271027-2.5787048,0.5579834-3.0987396-0.7734146
								c-0.2529297-0.6781693-0.2436371-1.5214233,0.028595-2.4890213c0.5208359-1.8117142,0.3378525-3.107193-0.2748871-4.1957397
								c-2.3067932-4.0666275-1.9754715-9.4777145,1.269516-16.0353546
								c2.3914566-4.8380966,5.4913559-8.352562,9.1031494-10.4378662c0.7507553-0.4334488,1.5234528-0.8051376,2.3164063-1.1140518
								c4.2868042-1.6782532,7.2904205-0.5964508,9.1052017,2.861351
								C121.636322,89.8908539,121.9162369,91.6248703,121.9217987,93.5860138z M115.108017,106.2974701
								c2.0765457-1.1988983,3.4198914-3.8837967,3.1622925-6.2213898
								c-0.2701721-2.5226135-1.6834869-3.4786453-3.8462601-3.1777802
								c-0.3650055,0.0491028-0.7219925,0.1779861-1.0586853,0.3723755
								c-1.1515961,0.6648712-2.0688095,2.0974884-2.276886,3.7375107c-0.3392563,2.6134949,0.227623,4.4565659,1.6650925,5.4535751
								C113.3764496,106.89888,114.1772079,106.8211365,115.108017,106.2974701 M104.4938965,112.4452286
								c0.9819107-0.5669098,1.9562378-1.6488342,2.6495132-3.0329056c0.9983063-2.0049515,1.4711685-3.9263153,1.4659653-5.7640152
								c-0.0005875-0.2057037,0.0108261-0.4183273-0.0017548-0.6171417
								c-0.1497803-1.8177185-1.0259628-2.3863068-2.3776398-1.6059113
								c-0.3253632,0.1878433-0.6784058,0.4539032-1.055542,0.7995834
								c-1.6454163,1.4857178-3.9420929,5.2155609-3.8378448,8.2460403
								c0.0646439,1.7484589,0.8323441,2.5964661,2.1226578,2.3734283
								C103.7969894,112.782341,104.1458664,112.6461639,104.4938965,112.4452286 M111.7909393,112.7044525
								c0.2709808-1.4202271-0.4623566-2.8375397-1.4663849-2.8622513c-0.1780548-0.0051346-0.347847,0.0413742-0.5126419,0.1365204
								c-0.2334137,0.1347275-0.4571609,0.3674469-0.6806564,0.6897812
								c-0.8332062,1.2090912-1.2003937,2.4375916-1.280632,3.6377716c-0.0461349,0.6585236,0.0275345,1.247879,0.5537033,1.314949
								c0.1615448,0.0164185,0.3151321-0.0273514,0.4627457-0.1125717c0.3328094-0.1921463,0.6355286-0.5952988,0.9327316-0.9953079
								l0.0834656-0.0756836l0.1914444,0.0405884c0.2854691,0.0414505,0.548645-0.0098267,0.7807693-0.1438446
								C111.3035736,114.0756989,111.6356506,113.5089188,111.7909393,112.7044525"/><g><path fill="#fff" d="M138.9872894,120.8832474c1.485672-0.8577423,2.6852722-0.1656799,2.690094,1.5331497
								l0.0245056,7.2307587c0.0048065,1.6988373-1.1869507,3.7715607-2.6726227,4.629303L80.564827,168.0309143
								c-1.4783859,0.8535461-2.685257,0.1656952-2.6900787-1.5331421l-0.0245056-7.2307587
								c-0.0048141-1.6988373,1.1942215-3.7757568,2.6726151-4.629303L138.9872894,120.8832474z"/><polygon fill="#5789dc" points="85.287 155.374 85.293 157.67 87.244 155.759 87.604 156.694 85.654 158.552 86.87 159.787 85.985 161.034 84.805 159.705 83.63 162.394 82.713 162.188 83.934 159.545 81.961 159.953 82.318 158.603 84.255 158.287 84.248 155.973"/><polygon fill="#5789dc" points="92.426 151.252 92.432 153.548 94.383 151.638 94.747 152.571 92.796 154.429 94.009 155.666 93.124 156.912 91.947 155.581 90.769 158.272 89.852 158.066 91.076 155.422 89.103 155.829 89.457 154.482 91.394 154.165 91.387 151.851"/><polygon fill="#5789dc" points="99.568 147.128 99.575 149.424 101.525 147.514 101.886 148.449 99.935 150.307 101.149 151.544 100.264 152.79 99.086 151.459 97.908 154.15 96.995 153.942 98.215 151.3 96.242 151.707 96.596 150.36 98.533 150.043 98.527 147.729"/><polygon fill="#5789dc" points="106.708 143.006 106.714 145.302 108.665 143.392 109.028 144.325 107.074 146.185 108.291 147.42 107.406 148.666 106.225 147.337 105.05 150.026 104.134 149.82 105.355 147.178 103.382 147.585 103.739 146.236 105.676 145.919 105.669 143.606"/><polygon fill="#5789dc" points="113.848 138.884 113.855 141.18 115.805 139.27 116.169 140.203 114.215 142.063 115.432 143.298 114.547 144.545 113.366 143.215 112.191 145.905 111.275 145.698 112.495 143.056 110.522 143.463 110.879 142.114 112.816 141.797 112.81 139.484"/><polygon fill="#5789dc" points="120.989 134.762 120.996 137.059 122.946 135.148 123.31 136.081 121.356 137.941 122.573 139.176 121.687 140.423 120.507 139.094 119.332 141.783 118.415 141.577 119.636 138.934 117.663 139.342 118.02 137.992 119.957 137.676 119.951 135.362"/><polygon fill="#5789dc" points="128.13 130.641 128.136 132.937 130.087 131.027 130.451 131.96 128.497 133.819 129.713 135.055 128.828 136.301 127.648 134.972 126.473 137.661 125.556 137.455 126.777 134.812 124.804 135.22 125.161 133.87 127.098 133.554 127.091 131.24"/><polygon fill="#5789dc" points="135.271 126.519 135.277 128.815 137.228 126.905 137.591 127.838 135.638 129.698 136.854 130.933 135.969 132.179 134.789 130.85 133.613 133.539 132.697 133.333 133.918 130.69 131.945 131.098 132.302 129.749 134.239 129.432 134.232 127.118"/></g><g><path fill="#b0c4ff" d="M210.1504364,49.8496056c0,2.789917-1.9599609,6.1899414-4.3898926,7.5998535l-30.130127,17.4001427
				c-1.2199707,0.6999512-2.329834,0.7698975-3.1298828,0.2999268l-0.1000977-0.0599365l-1.7600098-1.0200195
				c-0.7900391-0.4599609-1.2797852-1.4300537-1.2797852-2.8200684l-0.1201172-14.0600548
				c0-2.7999268,1.9599609-6.1899414,4.3898926-7.5998535l30.1401367-17.3901367
				c1.2199707-0.7099609,2.3200684-0.7799072,3.119873-0.3099365l1.7001953,0.9899902
				c0.0498047,0.0200195,0.0898438,0.0500488,0.1398926,0.0799561c0.8000488,0.4500732,1.3000488,1.4300537,1.3000488,2.8300781
				L210.1504364,49.8496056z"/><path fill="#92b2f9" d="M208.7535095,32.9681244c-0.8014221-0.4639702-1.9095306-0.3987694-3.1288605,0.3067513
				l-30.1355286,17.4016457c-2.4310608,1.3995743-4.3905029,4.8007088-4.3828125,7.5883446l0.1112061,14.0671196
				c0.0038452,1.3842239,0.4946594,2.3619995,1.2845764,2.8221359l-1.8614655-1.0837555
				c-0.7898254-0.4601364-1.2768097-1.4340744-1.2806396-2.8221359l-0.1150513-14.063282
				c-0.0076752-2.7914696,1.9555969-6.1887665,4.3827209-7.5921555l30.1393738-17.397831
				c1.2193146-0.7055225,2.3275299-0.7707253,3.1250153-0.3067513L208.7535095,32.9681244z"/><path fill="#b0c4ff" d="M205.6236115,33.2752151c2.4286346-1.4021683,4.4033051-0.2768059,4.4112244,2.5137978l0.1120911,14.0637817
				c0.0079193,2.7906075-1.9539337,6.1915398-4.3825531,7.593708l-30.1358795,17.4003601
				c-2.4285583,1.4021301-4.4033051,0.2739944-4.4112244-2.5166168l-0.1120911-14.0637779
				c-0.0079193-2.7906036,1.95401-6.1887665,4.3825684-7.5908966L205.6236115,33.2752151z"/><path fill="#fff" d="M173.6565094,73.3803711c-0.3624115,0-0.369812-1.0131073-0.369812-1.056221l-0.1125031-14.0744362
				c-0.0053864-2.0423889,1.5594177-4.7496338,3.3478546-5.7816086L206.6580811,35.0667
				c0.5092468-0.2936935,0.8258514-0.3253517,0.9383392-0.3253517c0.3617249,0,0.3691406,1.0104179,0.3691406,1.0535278
				l0.1118164,14.0737648c0.0060577,2.0444107-1.5587311,4.7530022-3.3478546,5.7863197l-30.1360168,17.4000626
				C174.0849304,73.3487167,173.7689972,73.3803711,173.6565094,73.3803711z"/><polygon fill="#285294" points="180.184 57.312 180.201 63.241 179.494 63.649 179.486 60.877 176.803 62.426 176.811 65.199 176.104 65.607 176.087 59.678 176.794 59.269 176.801 61.72 179.484 60.17 179.477 57.72"/><path fill="#285294" d="M183.5559845,55.3651581l1.8898468,4.8478661l-0.7665253,0.4425545l-0.5275574-1.4731178
						l-2.042099,1.1790009l-0.5540314,2.0975838l-0.7165527,0.4137001l1.9273071-7.0517044L183.5559845,55.3651581z
						 M182.3094788,59.5894165l1.6156464-0.9327965l-0.7911987-2.1655693L182.3094788,59.5894165"/><path fill="#285294" d="M188.2391205,52.4999466c0.653183-0.3771133,1.1609039-0.473484,1.5231628-0.2846451
						c0.3623199,0.1866264,0.563385,0.5193939,0.6051483,0.9994125l-0.6819916,0.3937531
						c-0.0779572-0.3375168-0.2324829-0.5512199-0.4655457-0.6399994c-0.2311707-0.0898361-0.5542297-0.0160828-0.9711304,0.224617
						c-0.5090942,0.2939224-0.9176941,0.7354431-1.2296295,1.3268166c-0.3119812,0.5913734-0.4658051,1.31036-0.4634094,2.1580124
						c0.0019684,0.6953773,0.1437988,1.1772995,0.4274292,1.4447136c0.2836304,0.2696304,0.7049408,0.2430573,1.2658844-0.0808029
						c0.5148773-0.2972603,0.9061127-0.7508888,1.1737823-1.3609085c0.1414795-0.3226852,0.2481537-0.6982346,0.3181305-1.1300011
						l0.680069-0.3926392c-0.057785,0.6591034-0.2579803,1.2986984-0.5987549,1.9177551
						c-0.409668,0.7472839-0.9603119,1.3194733-1.6557465,1.7209892c-0.6012878,0.3471489-1.1051788,0.4302406-1.5136719,0.2481804
						c-0.5375519-0.2424202-0.8089142-0.9392242-0.8121796-2.091526c-0.0024872-0.8741531,0.1972198-1.7080612,0.5990753-2.5016975
						C186.874115,53.5931549,187.4725952,52.9425011,188.2391205,52.4999466z"/><polygon fill="#285294" points="195.424 48.513 193.285 52.143 195.501 54.408 194.592 54.932 192.778 53.002 191.954 54.386 191.96 56.452 191.278 56.846 191.261 50.916 191.943 50.523 191.952 53.412 194.458 49.071"/><polygon fill="#285294" points="199.891 45.934 199.893 46.66 196.812 48.439 196.817 50.241 199.666 48.596 199.668 49.282 196.819 50.927 196.824 52.936 199.958 51.127 199.96 51.833 196.144 54.036 196.128 48.107"/><path fill="#285294" d="M204.6365662,44.0632324c0.3492279,0.3223839,0.5259094,0.8903503,0.5282288,1.7049217
						c0.0017853,0.6291122-0.1003113,1.258522-0.3044434,1.8871346c-0.3605347,1.1080551-0.9836273,1.9166527-1.8692322,2.4279594
						l-2.0824738,1.2023201l-0.0168152-5.9292679l2.0901489-1.2067413
						C203.6908722,43.7402802,204.243042,43.7111244,204.6365662,44.0632324z M204.4004669,46.9700356
						c0.0358429-0.2440033,0.0525665-0.4615135,0.0520172-0.6535492c-0.0020905-0.7351074-0.1304932-1.231411-0.387146-1.4900665
						c-0.2547302-0.2597733-0.664505-0.2266121-1.2293091,0.0994759l-1.2391357,0.715416l0.0129089,4.5540199l1.2468109-0.719841
						c0.2362671-0.1364136,0.4302521-0.2771683,0.5818481-0.422184c0.272522-0.2612534,0.4947815-0.5929947,0.6668396-0.9908218
						C204.2429352,47.7419968,204.3419647,47.3774834,204.4004669,46.9700356"/></g><path fill="#b0c4ff" d="M68.9304657,66.669548c0.0100098,3.4499512-2.4099121,7.6600342-5.4099121,9.3900146l-37.2399902,21.5
			c-1.5100098,0.8699951-2.880127,0.9499512-3.8701172,0.3798828l-0.0600586-0.039917l-2.2397461-1.2999268
			c-0.9702148-0.5700684-1.5800781-1.7700195-1.5800781-3.4899902l-0.1401367-34.7100792
			c-0.0100098-3.4500732,2.4101563-7.6500244,5.4101563-9.3800049l37.25-21.5
			c1.5100098-0.8699951,2.869873-0.9499512,3.8598633-0.3800049l2.3000488,1.3299561
			c-0.0700684-0.039917-0.1398926-0.0799561-0.2099609-0.0999756c1.0900879,0.5100098,1.7800293,1.7600098,1.7900391,3.5899658
			L68.9304657,66.669548z"/><path fill="#92b2f9" d="M67.211319,28.4734535c-0.990387-0.5733719-2.3597717-0.4927959-3.8665848,0.3790741L26.1037769,50.3571701
			c-3.0042591,1.7295685-5.4256897,5.9326286-5.4162045,9.3775368l0.1374359,34.7189369
			c0.0047436,1.7105942,0.6112862,2.9189072,1.5874481,3.4875412l-2.3003635-1.3392868
			c-0.9760475-0.5686264-1.5778465-1.7722015-1.5825901-3.4875412l-0.1421795-34.7141914
			c-0.0094852-3.4496498,2.4166889-7.6479683,5.41609-9.3822517l37.2457008-21.4999256
			c1.506813-0.87187,2.8763084-0.952446,3.8618431-0.379076L67.211319,28.4734535z"/><path fill="#b0c4ff" d="M63.3434486,28.8529453c3.001255-1.7327728,5.4415245-0.3420696,5.4513054,3.1065102l0.1385269,34.7148056
			c0.0097809,3.4485779-2.4146423,7.6513901-5.4158897,9.3841629L26.2760258,97.5614777
			c-3.0011692,1.7327271-5.4415359,0.3385925-5.451313-3.1099854L20.686182,59.7366867
			c-0.0097771-3.4485779,2.4147339-7.6479683,5.4159012-9.3806915L63.3434486,28.8529453z"/><path fill="#fff" d="M23.8390713,95.7492218c-0.4478512,0-0.4570065-1.2519836-0.4570065-1.3052597l-0.1390171-34.7279778
			c-0.0066605-2.5239487,1.9270916-5.8695145,4.1372108-7.1448059l37.2415619-21.504343
			c0.6293259-0.3629436,1.0205688-0.4020672,1.159584-0.4020672c0.4470215,0,0.4561768,1.2486553,0.4561768,1.3019314
			L66.3757629,66.69384c0.0074921,2.5264511-1.9262543,5.8736801-4.137207,7.1506348L24.9969921,95.3471527
			C24.3685017,95.7100983,23.9780884,95.7492218,23.8390713,95.7492218z"/><g><path fill="#285294" d="M44.7506027,48.7351799c0.8645439-0.4991455,1.7303085-0.5674629,2.3253784-0.0479622
				l12.6294746,13.4204025c1.5420609,1.3429794,0.1702538,5.4241257-2.3060875,6.8538361l-25.160511,14.5264282
				c-2.4763374,1.429718-3.8668365-1.0566101-2.337347-4.1729507l12.5309696-27.946785
				C43.0227318,50.164299,43.886055,49.2343254,44.7506027,48.7351799z"/><path fill="#fff" d="M44.8026466,55.7137413c1.1608391-0.6702118,2.0846672-0.0737572,2.0109787,1.3002052l-0.3100815,7.192421
						c-0.0541344,1.0485764-0.7810364,2.2605362-1.6689568,2.7731781c-0.8838348,0.5102844-1.6193085,0.1426239-1.679203-0.8401184
						L42.805603,59.32798C42.728466,58.0410957,43.6458969,56.3815918,44.8026466,55.7137413z"/><path fill="#fff" d="M44.8414612,68.2482071c0.8349953-0.4820862,1.5174065-0.0931625,1.5201416,0.8710022
						c0.0027313,0.9641724-0.6752625,2.1338425-1.5102577,2.615921c-0.8431702,0.4868088-1.5214806,0.1002045-1.5242119-0.8639679
						C43.324398,69.9069977,43.9982872,68.7350159,44.8414612,68.2482071z"/></g><g><path fill="#5789dc" d="M178.9104462,156.7495117c0,1.2099609-0.8498535,2.6899414-1.9099121,3.3000488l-31.4001465,18.1300049
					l0.0700684,25.25l16.8000488-9.7000732c0.5300293-0.3099365,1.0100098-0.3299561,1.3598633-0.1298828l3.3100586,1.9299316
					c0,0,0,0,0.0100098,0c0.3400879,0.1999512,0.5600586,0.6199951,0.5600586,1.2299805
					c0,1.2099609-0.8498535,2.6899414-1.9099121,3.3000488l-22.0100098,12.7099609
					c-0.5100098,0.2900391-1,0.3400879-1.3601074,0.1400146l-3.3198242-1.9300537
					c-0.3601074-0.2099609-0.5700684-0.6499023-0.5700684-1.2299805l-0.0900879-33.4799805
					c0-0.5800781,0.1999512-1.2700195,0.5500488-1.8900146c0.3601074-0.6099854,0.8498535-1.1300049,1.3498535-1.4200439
					l33.3100586-19.2299805c0.5400391-0.3099365,1.0200195-0.3399658,1.3701172-0.1398926l3.3198242,1.9299316
					c-0.0200195-0.0100098-0.0297852-0.0200195-0.0498047-0.0200195
					C178.6804657,155.6795654,178.9104462,156.1195068,178.9104462,156.7495117z"/><path fill="#5789dc" d="M234.2507782,188.9095459c0,1.2199707-0.8500977,2.6900635-1.9101563,3.3099365l-31.4001465,18.1201172
					l0.0800781,25.25l16.7900391-9.6900635c0.5300293-0.3099365,1.0100098-0.3399658,1.3601074-0.1400146l3.3095703,1.9299316
					h0.0102539c0.3500977,0.2000732,0.5600586,0.630127,0.5600586,1.2301025c0,1.2099609-0.8500977,2.6900635-1.9101563,3.2999268
					l-22.0100098,12.710083c-0.5100098,0.289917-1,0.3399658-1.3598633,0.1400146
					c-0.0300293-0.0200195-0.0600586-0.0400391-0.0800781-0.0600586c0.0300293,0.0300293,0.0500488,0.0500488,0.0800781,0.0700684
					l-3.3200684-1.9400635c-0.3598633-0.2099609-0.5700684-0.6500244-0.5700684-1.2299805l-0.0898438-33.4799805
					c0-0.5799561,0.1999512-1.2700195,0.5500488-1.8800049c0.3598633-0.6199951,0.8498535-1.1400146,1.3598633-1.4300537
					l33.3100586-19.2299805c0.5297852-0.3099365,1.0097656-0.3399658,1.3598633-0.1300049l3.3198242,1.9200439
					c-0.0195313-0.0100098-0.0395508-0.0200195-0.0595703-0.0200195
					C234.0105438,187.8395996,234.2507782,188.2695313,234.2507782,188.9095459z"/><path fill="#5789dc" d="M197.7045441,237.5003967l3.3224792,1.9342041l20.1037445-11.6053009
								c0.5324402-0.3099823,1.0176544-0.3369598,1.3613739-0.1347504l-3.3226471-1.9342041
								c-0.3504639-0.2022247-0.8289337-0.1752319-1.3613739,0.1347504L197.7045441,237.5003967z"/><path fill="#5789dc" d="M193.7888947,208.4265289l0.0942841,33.4814301c0,0.5795746,0.2089539,1.0244141,0.5661621,1.2333221
								l3.3224945,1.9342194c-0.3570404-0.2089233-0.5592651-0.6604614-0.5660095-1.2333221l-0.0944366-33.4881897
								c0-0.5795746,0.2022095-1.2670135,0.5594177-1.8802795c0.3504639-0.613266,0.8491821-1.1322174,1.3478851-1.4220123
								l33.3109131-19.2342377c0.5324402-0.3032837,1.0176544-0.3369751,1.3613739-0.1347961l-3.3224945-1.927475
								c-0.3504486-0.2021637-0.8289337-0.1752319-1.3613739,0.1347961l-33.3108978,19.2275085
								c-0.5054626,0.2897949-0.9974213,0.8154449-1.3546295,1.4287567
								C193.9911194,207.1595154,193.7888947,207.8469543,193.7888947,208.4265289z"/><path fill="#4075c1" d="M199.0214539,207.0500031c-0.5034332,0.2906494-0.9975433,0.8136597-1.3535767,1.425293
								c-0.3516846,0.6141052-0.5566711,1.3019867-0.5550385,1.8804779l0.0949249,33.4831238
								c0.0016479,0.5784912,0.2098541,1.0278168,0.5638733,1.2344666c0.3583221,0.199234,0.8537903,0.1508942,1.3572083-0.1397705
								l22.0135651-12.7095337c1.0585632-0.6111603,1.9120483-2.0894623,1.9085999-3.3057556
								c-0.0034332-1.21138-0.8625031-1.7009277-1.9210663-1.0897675l-20.1030273,11.6064911l-0.0824738-29.0925446
								l31.3985138-18.1270447c1.0585632-0.6111603,1.9120636-2.0894623,1.9086151-3.300827
								c-0.0034485-1.2163239-0.8625183-1.7058716-1.9210815-1.0947113L199.0214539,207.0500031z"/><g><path fill="#5789dc" d="M142.361969,205.3387451l3.3224945,1.9342041l20.1037292-11.6053009
								c0.5324402-0.3099823,1.0176697-0.3369751,1.3613739-0.1347504l-3.3226471-1.9342194
								c-0.3504639-0.2022095-0.8289337-0.1752319-1.3613739,0.1347504L142.361969,205.3387451z"/><path fill="#5789dc" d="M138.4463348,176.2648773l0.0942688,33.4814301c0,0.5795746,0.2089691,1.0243988,0.5661774,1.2333221
								l3.3224792,1.9342041c-0.3570404-0.2089081-0.5592499-0.6604462-0.5659943-1.2333221l-0.0944519-33.4881744
								c0-0.5795746,0.2022095-1.2670135,0.559433-1.8802795c0.3504486-0.613266,0.8491669-1.1322174,1.3478699-1.4220123
								l33.3109131-19.2342529c0.5324402-0.3032837,1.0176544-0.3369751,1.3613739-0.1347961l-3.3224792-1.9274597
								c-0.3504639-0.202179-0.8289337-0.1752319-1.3613739,0.1347961l-33.3109131,19.2275085
								c-0.5054626,0.2897797-0.9974213,0.8154449-1.3546295,1.4287415
								C138.6485443,174.9978638,138.4463348,175.6852875,138.4463348,176.2648773z"/><path fill="#4075c1" d="M143.6788788,174.8883514c-0.5034332,0.2906494-0.9975433,0.8136444-1.3535767,1.425293
								c-0.3516846,0.6141052-0.5566711,1.3019867-0.5550385,1.8804779l0.0949249,33.4831238
								c0.0016479,0.5784912,0.2098541,1.0278015,0.5638733,1.2344666c0.3583221,0.1992188,0.8537903,0.1508789,1.3572235-0.1397705
								l22.0135498-12.7095337c1.0585632-0.6111603,1.9120483-2.0894623,1.9085999-3.3057709
								c-0.0034332-1.2113647-0.8625031-1.7009125-1.9210663-1.0897522l-20.1030273,11.6064911l-0.0824738-29.0925446
								l31.3985138-18.1270599c1.0585632-0.6111603,1.9120636-2.0894623,1.9086304-3.300827
								c-0.0034485-1.2163086-0.8625183-1.7058563-1.9210815-1.094696L143.6788788,174.8883514z"/></g><path fill="#dde9fe" d="M257.6902466,113.9894943l-22.3999176,68.2800369
				c-0.5395508,1.6699219-1.7197266,3.2099609-3.0200195,3.9699707l-37.1699219,21.4599609
				c-1.0598145,0.6101074-1.9897461,0.5700684-2.6098633,0.0400391c0.0700684,0.0600586,0.1398926,0.1400146,0.2299805,0.1900635
				l-57.8000488-33.5899658c-0.5998535-0.3500977-0.9699707-1.0900879-0.9799805-2.1501465
				c0-2.1298828,1.4899902-4.7099609,3.3400879-5.7799072l35.0400391-20.2299805h0.0097656l21.4902344-65.5400467
				c0.5598145-1.7199707,1.7597656-3.25,3.0297852-3.9699707c0.4702148-0.2800293,0.9602051-0.4400635,1.420166-0.4500732
				c0.3598633-0.0200195,0.6799316,0.0600586,0.9599609,0.210083l57.7898102,33.5899658
				c-0.0698242-0.0300293-0.1499023-0.0500488-0.2197266-0.0800781
				C257.930481,110.3895187,258.3406372,111.9995041,257.6902466,113.9894943z"/><g><path fill="#dde9fe" d="M257.0193787,110.0236359c-0.2654114-0.1560516-0.5931396-0.234169-0.9599304-0.2263565
							c-0.4605255,0.0234375-0.9443054,0.1794891-1.4204559,0.4605331c-1.2564087,0.7257538-2.458313,2.2399597-3.0280304,3.9647141
							l-21.4934387,65.5416489l-57.7919006-33.5825195l21.493454-65.5416489
							c0.5618896-1.7249374,1.7638092-3.2467651,3.0280304-3.9725266c0.4761505-0.2732315,0.9601135-0.437088,1.4204559-0.452713
							c0.3667908-0.015625,0.6867065,0.0624924,0.9599304,0.218544L257.0193787,110.0236359z"/><polygon fill="#b3c9e2" points="195.078 199.998 137.281 166.41 172.322 146.179 230.119 179.767"/><path fill="#dde9fe" d="M192.7186127,207.9281921l-57.7969666-33.5879211
							c-0.6017151-0.3496857-0.9747162-1.0937195-0.9777222-2.1506958c-0.0060272-2.1256866,1.4868622-4.7114563,3.336853-5.7795563
							l57.7969513,33.5879211c-1.8499908,1.0681-3.342865,3.6538696-3.3368378,5.7795563
							C191.7438812,206.8344727,192.1168823,207.5785065,192.7186127,207.9281921z"/><path fill="#c7d8ef" d="M254.6419067,110.2547836c0.4763641-0.2750244,0.9606323-0.4369125,1.4210815-0.454277
							c1.6748657-0.0648422,2.4048767,1.8108902,1.6233826,4.1905136l-22.3920135,68.2770462
							c-0.5482635,1.6752167-1.723114,3.2154541-3.0241089,3.966568l-37.1706848,21.4605103
							c-1.8500061,1.0681-3.3526459,0.2081299-3.3586731-1.9176483c-0.0060272-2.1256866,1.4868469-4.7114563,3.3368378-5.7795563
							l35.0414734-20.2312012l21.4938812-65.5417557C252.1778412,112.4997177,253.3823395,110.9820099,254.6419067,110.2547836z"/></g><g><path fill="#f7b2b2" d="M185.8698578,121.9196472l-6.2557678,14.180542c-0.299881,0.6797638-0.8096161,1.250946-1.4633331,1.6040192
				c-4.1397552,2.2359314-8.6707916,3.9197083-13.4803619,5.2101898l4.9043732,8.0857086l22.7990417-5.964859l6.8927307-19.0875702
				l-8.2182617-4.0280304H185.8698578z"/><path fill="#eaa7a7" d="M199.2652893,125.951004l-6.8913727,19.0819092l-22.7967377,5.9704132l-2.3881989-3.9412842
				c3.2780151-0.6009521,6.4542847-1.7794342,9.3420868-3.4494934c0.6009521-0.3434448,1.2251587-0.6322021,1.8886108-0.8351288
				c0.5072021-0.1560516,0.9831696-0.3589783,1.3813934-0.7023315c0.3277283-0.2810364,0.5697174-0.6790771,0.6634521-1.1005402
				c0.1638641-0.7101288,0.6554565-1.2798462,1.3421478-1.5218201c0.0080109,0,0.0080109,0,0.015625,0
				c1.5207214-0.5363159,2.8588715-1.5623169,3.7893982-2.8762817c0.464798-0.656311,1.085083-1.1672211,1.72435-1.6551971
				c0.5467987-0.4173889,0.9040833-1.2047424,1.0186615-1.9228058c0.1794891-1.0769348,0.1406097-2.2788391,0.8661804-3.0983429
				c0.7415771-0.8428497,2.2635956-1.3032837,2.1306-2.4193573c-0.0544891-0.4058456-0.3353424-0.7336655-0.5460815-1.0770187
				c-0.8208771-1.3486023-0.5811615-3.1647415,0.3050079-4.4544601c0.002655-0.0006943,0.0044403-0.001152,0.0070953-0.0018463
				L199.2652893,125.951004z"/><path fill="#eaa7a7" d="M200.8185577,121.1669769c-0.0079956,0.0780258-0.0392456,0.1482391-0.1017456,0.2029266
				c-0.046875-0.0390625-0.0933685-0.0703125-0.1326141-0.1093674
				C200.6546936,121.2215652,200.7324371,121.1904144,200.8185577,121.1669769z"/><path fill="#54d391" d="M154.4352417,230.7402344c0.537323-0.3603668,0.7631226-1.0385437,0.5657349-1.6546631l-1.02005-2.2897949
				l-8.464447,4.2660675l-1.524353,3.9434357l-0.1044464,2.8682709L154.4352417,230.7402344z"/><path fill="#f7b2b2" d="M143.1100922,222.3841858c-1.0949249,2.9385529-3.7866821,6.3646545-6.7397919,9.8705597
				l5.1696014,6.5614166l5.559433-4.7084808c0.6205292-0.5255585,1.3135681-0.9589081,2.0577545-1.2867126l3.3322906-1.4678345
				c1.0279541-0.4528046,1.666748-1.4962158,1.6025696-2.6176453l-0.3903503-6.8198395L143.1100922,222.3841858z"/><path fill="#54d391" d="M144.5176544,236.1507263c-0.8956451-3.9672241-3.3609772-5.8422089-6.9455261-6.2255707
				c-0.7301178-0.0780792-1.459259,0.2210236-1.9369812,0.778656c-2.074173,2.4211731-4.0489044,4.0619965-5.6114044,6.3531494
				c-1.6397705,2.4044495-0.6555176,5.7094116,2.0176849,6.8601227h0.0000153
				c1.6426392,0.7070923,3.5453644,0.4078522,4.8916626-0.7693176l7.0569153-5.3636932
				C144.4522247,237.3799286,144.6528625,236.7496338,144.5176544,236.1507263z"/><path fill="#46c17e" d="M143.9864044,237.7808075l-7.0552368,5.3694611
				c-0.8581848,0.7570953-1.9431152,1.1473236-3.0516663,1.1473236c-0.6161957,0-1.2483978-0.1248932-1.8417358-0.3824158
				c-2.1069641-0.905426-3.1606445-3.1608276-2.7003021-5.2524567c0.2968597,1.4126434,1.2487793,2.6769562,2.7003021,3.3013458
				c0.593338,0.2575226,1.2255402,0.3824158,1.8417358,0.3824158c1.108551,0,2.1934814-0.3902283,3.0516663-1.1473236
				l7.0552368-5.3694611c0.140625-0.1169891,0.2499847-0.2496948,0.3433533-0.3980255
				c0.0704956,0.2341614,0.1329956,0.468338,0.1874847,0.7180328
				C144.6498566,236.7506714,144.4547424,237.382782,143.9864044,237.7808075z"/><path fill="#54d391" d="M118.2106628,204.0874634l10.881546,0.7884674
				c0.9971008,0.0722504,1.9164734-0.5401154,2.2340698-1.4880371l0.9677277-2.8883362l-9.8582306-5.824585l-4.970726,7.2915802
				L118.2106628,204.0874634z"/><path fill="#f7b2b2" d="M125.535675,189.428894c-2.7195282,1.9601288-5.4609222,2.5241547-9.5093384,2.3552246l-1.5271454,8.9231873
				l13.1621552,2.6985168c1.596283,0.3272705,3.2215271-0.4119415,4.02388-1.8301849l2.6968384-4.7669525L125.535675,189.428894z"/><path fill="#54d391" d="M116.0262604,191.7841492c-5.2072372-0.1141052-9.1724243,0.6494141-11.6925888,2.4342957
				c-1.5897141,1.1259003-1.9160385,3.3441925-0.7950058,4.9373322c2.5160065,3.5756073,7.5580673,5.0963593,14.6719971,4.9316864
				C120.5028229,198.5787048,120.344574,194.211853,116.0262604,191.7841492z"/><path fill="#46c17e" d="M118.8483505,202.3877106c-0.1874924,0.554184-0.39785,1.1238861-0.6398315,1.7014008
				c-7.1097336,0.1638641-12.1517487-1.3579559-14.6725693-4.9324493c-1.1157913-1.5921326-0.788063-3.8085632,0.7960663-4.9401703
				c0.5232162-0.3668823,1.1005478-0.6867981,1.7403793-0.9677429c-0.913063,1.1940002-0.9599304,2.9032288-0.0464935,4.1987915
				C108.312355,200.7019196,112.7061615,202.2628174,118.8483505,202.3877106z"/><path fill="#353437" d="M179.1185608,164.520462c0,0-21.6812592-0.1029663-25.2512665,5.766037
				c-6.3293915,10.4053802-10.8030396,51.6291504-10.8030396,51.6291504c0,4.3522949,9.9911499,3.388443,10.6373444,0
				l10.8460388-35.507431c0.4060211-1.3292084,1.4696198-2.3545074,2.8128052-2.7115326l25.5435791-6.7895966
				L179.1185608,164.520462z"/><path fill="#353437" d="M206.5568695,176.907135c-4.1499786,6.6178589-10.7235565,6.7174683-18.4246826,3.7847443
				l-22.4509735-12.6010284c-1.1050873-0.6202545-2.4891357-0.4198151-3.3728638,0.4884491l-26.6826935,27.4233704
				c-2.6105957,3.2944641-12.2712708-4.3614197-9.660675-7.6558838c0,0,23.4618073-30.5202179,34.4967957-35.6897736
				c6.7669067-3.1700745,30.7190552,2.0545654,30.7190552,2.0545654l16.5756683,14.8458862L206.5568695,176.907135z"/><path fill="#29282b" d="M207.1322327,173.3863983l-0.577713,3.5198059
				c-4.1438293,6.6181488-10.7230988,6.7197113-18.426178,3.7852325l-22.445755-12.6042786
				c-1.1081696-0.6164856-2.4891815-0.4135742-3.3713837,0.4917755l-26.6833191,27.4246979
				c-1.1470337,1.4517212-3.6602325,0.7804565-5.8921967-0.7101288c0.1089935-0.6165771,0.3902283-1.2097321,0.7099457-1.7559967
				c1.2800293-2.177475,3.2155151-3.9725342,5.4867249-5.0728912c1.0925598-0.5229187,2.3257141-0.9599304,2.9735413-1.9823456
				c0.3433533-0.5540924,0.4759674-1.2175446,0.7023315-1.8340302c0.6398163-1.6935883,2.1462097-3.0281219,3.9098358-3.4574127
				c0.5232086-0.1248016,1.0925446-0.1872864,1.5376434-0.4915771c0.5072021-0.3590698,0.7568207-0.9600372,1.0144196-1.5219269
				c0.8040771-1.7170258,1.9434814-3.2466736,3.0752869-4.7684937c0.9130554-1.2253571,1.896225-2.5052032,3.3168793-3.0670929
				c0.5853424-0.2341766,1.2327881-0.3356323,1.7323761-0.7258606c0.4447174-0.3434448,0.7103271-0.8740845,0.9755554-1.3813934
				c1.0068054-1.9121552,2.2868347-3.730545,4.0584564-4.9636078c1.7712402-1.2409821,4.0973358-1.8184967,6.1417999-1.1394196
				c2.552063,0.850647,4.4955597,3.5041809,7.1802368,3.4182434c1.1550446-0.0389557,2.2712097-0.6087646,3.4262543-0.4993896
				c1.9976044,0.1950989,3.1995087,2.2475739,4.8541412,3.3948975c1.6390076,1.1394196,3.7151184,1.3657837,5.6662292,1.8184052
				c0.6710663,0.1560516,1.3577728,0.3511658,1.8806,0.7960663c1.0693054,0.9130554,1.2644196,2.6690521,2.5052032,3.309082
				c1.498764,0.7804413,3.3328857-0.6165924,4.9638977-0.1873016c1.0224152,0.2731323,1.7323608,1.1940918,2.6846771,1.654541
				c1.3501434,0.6399078,2.9735413,0.2418823,4.2691956-0.4994965c1.2876587-0.741394,2.3721924-1.7950592,3.6209869-2.6066589
				C206.6482544,173.5815125,206.8822327,173.4410858,207.1322327,173.3863983z"/><path fill="#fc6c85" d="M232.5529938,119.8842316c-9.3593903-12.1435776-21.5446625-16.1524277-35.9797211-13.6858139
					c-1.5088043,0.2578201-2.9352417,0.9158783-4.0603333,1.953743c-3.3066864,3.0503235-5.4405975,7.5674896-6.6116791,13.2894821
					c-0.1120453,0.5474167,0.0208893,1.1232452,0.3452911,1.578186c1.4888763,2.0879364,3.6274719,3.1410751,6.2648163,3.4000015
					c0.4441223,0.043602,0.710907,0.5145264,0.5230408,0.9193268l-11.3349304,24.4230347
					c-0.6792908,1.4636536-0.3804016,3.1981659,0.7492981,4.3503113
					c5.5217896,5.6315308,10.9028625,10.5006714,15.8586273,13.0626984
					c0.8626251,0.4459686,1.5715942,1.1336212,2.0400696,1.9842377c0.9382172,1.7035065,2.0365295,3.200058,3.2846069,4.5030518
					c2.134552,2.2284851,5.8951721,1.3244934,6.8837433-1.5987091l10.1349792-29.9689636
					c0.209137-0.6183929,0.8084717-1.0144806,1.4602203-0.9774475c3.3657227,0.1911774,6.5326843,0.1512299,9.3047485-0.3481903
					c1.2695923-0.2287292,2.2080536-1.309082,2.2507477-2.5984192l0.5027313-15.1797943
					C234.2300415,123.1552582,233.6742249,121.3389969,232.5529938,119.8842316z"/><path fill="#ea2856" d="M220.7976074,109.538353c-0.1246033,0.4057465-0.3277283,0.7882538-0.5929565,1.1315994
					c-2.520813,3.3246994-4.9478912,6.0407257-7.4222107,8.3039322c-0.9599304,0.8740921-2.03685,1.5140152-3.2075195,1.896431
					c-0.9831696,0.3200989-1.8653717,0.4761505-2.6846771,0.4761505c-1.6934967,0-3.0749054-0.694603-4.0115814-2.0057907
					c-0.6085815-0.8584747-0.9286957-1.9432983-0.9286957-3.1452103v-2.3257065l7.0396271-8.0931015
					C213.1806641,106.2838669,217.1297607,107.5170288,220.7976074,109.538353z"/><path fill="#fc6c85" d="M217.7570496,152.65802l-3.0745392,9.092392
					c-9.4506989,0.0376587-19.5240479-1.4430847-19.5240479-1.4430847l0.6981659-5.3667603L217.7570496,152.65802z"/><path fill="#ea2856" d="M222.5639496,143.1450806c-0.151062-0.0079651-0.3021393-0.0159302-0.4532013-0.0238953
					c-0.6522064-0.0397949-1.2486877,0.3578644-1.4634399,0.9702606l-10.132309,29.9753876
					c-0.9861908,2.9187469-4.7480164,3.8255157-6.8795929,1.5986023c-1.2485046-1.304245-2.3461456-2.79953-3.2845612-4.5093842
					c-0.4693146-0.8510437-1.1770477-1.5348969-2.0440216-1.9803314c-0.4613342-0.2386322-0.9304504-0.500946-1.399765-0.7793884
					c0.6761017-1.0578308,1.4793854-2.0599365,1.9325714-3.2290192c0.2306671-0.6203766,0.3739624-1.2803497,0.7079315-1.8451843
					c1.0180359-1.7416992,3.4597015-2.1075134,4.7082062-3.6901855c0.8828888-1.121521,1.0578308-2.7438049,2.1315918-3.6903687
					c0.5805664-0.5089111,1.3360748-0.7475586,1.9882813-1.1531677c0.6520233-0.3976593,1.2485046-1.0974426,1.1213226-1.852951
					c-0.07164-0.4772644-0.4135742-0.8669739-0.6442413-1.296463c-0.5964966-1.1133728-0.3896942-2.5449829,0.2784271-3.6187286
					c0.6599884-1.0815277,1.7178192-1.8609161,2.82341-2.4892426c0.230484-0.1351471,0.4929962-0.2943573,0.5328064-0.5568848
					c0.0953369-0.6997833-1.3044281-0.6520081-1.4714203-1.3440247c-0.0396118-0.1590271,0-0.3260193,0.0477753-0.4850311
					c1.0419006-3.1892242,5.1376953-4.1117249,7.3566589-6.6330109c0.7634735-0.8588104,0.9463806-4.0241394,1.4634552-4.9866333
					c0.6362915-1.1770477,0.5805664-1.1611328,0.9065704,0.2545471c0.5646515,2.4178009,0.7714386,7.1737671,1.352005,9.6152344
					C222.2777405,141.9759827,222.4208374,142.5565491,222.5639496,143.1450806z"/><path fill="#ea2856" d="M220.7976074,109.538353c-0.1246033,0.4057465-0.3277283,0.7882538-0.5929565,1.1315994
					c-2.520813,3.3246994-4.9478912,6.0407257-7.4222107,8.3039322c-0.9599304,0.8740921-2.03685,1.5140152-3.2075195,1.896431
					c-0.9831696,0.3200989-1.8653717,0.4761505-2.6846771,0.4761505c-1.6934967,0-3.0749054-0.694603-4.0115814-2.0057907
					c-0.6085815-0.8584747-0.9286957-1.9432983-0.9286957-3.1452103v-2.3257065l7.0396271-8.0931015
					C213.1806641,106.2838669,217.1297607,107.5170288,220.7976074,109.538353z"/><path fill="#f7b2b2" d="M218.0876312,102.1266556l1.4973755,6.7746201
					c-2.5333405,3.4185715-5.1519775,6.4485397-7.887558,8.9446716c-0.7740021,0.7062607-1.692627,1.2490845-2.691391,1.5658646
					c-2.192688,0.6954498-3.9049683,0.4683838-4.9276886-1.0827866c-0.4045563-0.6135941-0.5701904-1.3546295-0.5701752-2.089592
					l0.0000305-1.7856445l10.7367554-12.3271332H218.0876312z"/><path fill="#f7b2b2" d="M219.5850983,99.3552628c0,0-7.726059,15.9716415-15.6792145,15.1763229
					c-5.1921692-0.5192184-7.97789-19.1415863-7.97789-19.1415863l20.7029266-1.1223831L219.5850983,99.3552628z"/><path fill="#eaa7a7" d="M219.5880737,99.3535233c0,0-7.7263184,15.9757538-15.6789856,15.1796875
					c-5.197876-0.522934-7.9850769-19.14431-7.9850769-19.14431l0.9763184,0.3902206
					c0.9523163,4.8543396,3.5825043,16.0615005,7.6485748,16.4673462
					c6.2980499,0.6321106,12.4558563-9.2638626,14.742691-13.4002533L219.5880737,99.3535233z"/><g><path fill="#dde9fe" d="M201.5605927,157.4694824l-0.0100098,1.9699707c0,0.6101074-0.4001465,1.2200928-1.2001953,1.6800537
								l-19.5598145,11.3699951c-1.6201172,0.9400635-4.2399902,0.9400635-5.8601074,0l-28.2600098-16.3199463
								c-0.8200684-0.4700928-1.2299805-1.0899658-1.2299805-1.710083l0.0100098-1.9599609
								c0-0.6099854,0.3999023-1.2199707,1.1999512-1.6899414l19.5700684-11.3701172
								c1.6098633-0.9399414,4.2299805-0.9399414,5.8500977,0l28.2700195,16.3200684
								C201.1604462,156.2294922,201.5605927,156.8496094,201.5605927,157.4694824z"/><path fill="#9db6ce" d="M201.5575256,157.4651031l-0.004837,1.971283
										c-0.0024261,0.6119537-0.4039154,1.2214813-1.2045441,1.6858826l-19.5604553,11.3681641
										c-1.6133423,0.9360504-4.2352448,0.9360504-5.8558044,0l-28.2631836-16.3169403
										c-0.8175812-0.4716644-1.2263336-1.0908661-1.2239075-1.7100677l0.0072632-1.9664459
										c0,0.6192017,0.4087524,1.2359924,1.2214813,1.7052307l28.2631378,16.316925
										c1.6205597,0.9360504,4.2425079,0.9360504,5.8558655,0l19.5604553-11.3681641
										C201.1560364,158.6841583,201.5550995,158.0746307,201.5575256,157.4651031z"/><path fill="#dde9fe" d="M200.3363037,155.7582092c1.6215057,0.9361725,1.6300507,2.4554749,0.0175476,3.3925629
								l-19.5617828,11.3680573c-1.6125031,0.9370728-4.2338867,0.936203-5.8553772,0.0000305l-28.2621155-16.3171387
								c-1.6230621-0.9370728-1.6331329-2.4554749-0.0206299-3.3925629l19.5617676-11.3680573
								c1.6125031-0.9370728,4.2354279-0.9371033,5.8584747-0.0000305L200.3363037,155.7582092z"/><path fill="#92b2f9" d="M177.2905731,171.0095215c0.0397949-0.0400391,0.079834-0.0799561,0.1098633-0.1300049
									c-0.0200195,0.0300293-0.0397949,0.0599365-0.0598145,0.0899658
									C177.3206024,170.9794922,177.3105927,170.9995117,177.2905731,171.0095215z"/><path fill="#92b2f9" d="M178.9304657,169.5495605l-1.5898438,1.4199219
							c0.0200195-0.0300293,0.0397949-0.0599365,0.0598145-0.0899658c-0.0300293,0.0500488-0.0700684,0.0899658-0.1098633,0.1300049
							c-0.3601074,0.3400879-1.0800781,0.2800293-2.0100098-0.2600098l-28.2700195-16.3199463
							c-1.6201172-0.9300537-3.2700195-2.960083-3.6801758-4.5200195l-5-18.9100342
							c-0.1799316-0.6699219-0.0998535-1.1398926,0.1801758-1.3898926l1.6499023-1.4700928
							c0.3701172-0.3299637,1.0800781-0.2600174,2.0100098,0.2700195l28.2600098,16.3199463
							c1.6201172,0.9300537,3.2700195,2.9599609,3.6801758,4.5100098l5,18.9200439
							C179.2905731,168.8295898,179.210495,169.3095703,178.9304657,169.5495605z"/><path fill="#92b2f9" d="M177.2905731,171.0095215c0.0397949-0.0400391,0.079834-0.0799561,0.1098633-0.1300049
							c-0.0200195,0.0300293-0.0397949,0.0599365-0.0598145,0.0899658
							C177.3206024,170.9794922,177.3105927,170.9995117,177.2905731,171.0095215z"/><g><path fill="#92b2f9" d="M178.9314728,169.5539856l-1.6471252,1.4657745
									c0.2781219-0.2491302,0.3603821-0.7232208,0.1838226-1.3956299l-5.0020294-18.912262
									c-0.4136047-1.5576782-2.060791-3.5797577-3.6837616-4.5158081l-28.2607269-16.3169403
									c-0.9239807-0.5345459-1.642334-0.6022644-2.0099945-0.2733154l1.6471863-1.4657745
									c0.3700714-0.3289413,1.0860138-0.263649,2.0099945,0.2709045l28.2607269,16.3169403
									c1.6229706,0.9360504,3.272583,2.9581299,3.6837616,4.5158081l5.0020294,18.912262
									C179.2919159,168.8283539,179.2120819,169.3048553,178.9314728,169.5539856z"/><path fill="#285294" d="M168.7826843,146.1950531c1.6215057,0.9361725,3.2710266,2.9580841,3.6832733,4.5170135
							l5.0009918,18.9118195c0.4122467,1.5589294-0.5693054,2.0630493-2.1908112,1.1268768l-28.2621002-16.3171387
							c-1.6230621-0.9370728-3.2729797-2.9604645-3.6852112-4.5193939l-5.0010071-18.9118195
							c-0.4122314-1.5589294,0.5697021-2.0615692,2.192749-1.1244965L168.7826843,146.1950531z"/></g><g><path fill="#b0c4ff" d="M157.0809784,153.285675c1.3500061,0.7794342,2.4486084,0.1551056,2.4530029-1.3961792
						c0.0043945-1.5513-1.0870667-3.4417877-2.4370728-4.2212067c-1.3500519-0.7794495-2.4486542-0.1534119-2.453064,1.3978882
						C154.6394501,150.6174622,155.7309265,152.5062256,157.0809784,153.285675z"/></g></g><path fill="#f7b2b2" d="M229.5543518,158.815567c-2.6069336,2.2242584-8.6081238,2.9188538-14.8752899,2.9344788
				c-7.1409912,0.03125-14.6333313-0.8116913-17.8720856-1.2175293c0,0-12.5808411,1.2565002-12.4714813-1.7559967
				c0.0792694-2.0787354,4.5031281-3.0317383,5.8674011-3.276474c0.0980072-0.0175781,0.1078033-0.1530304,0.013916-0.186203
				c-0.547821-0.1935577-1.524765-0.6228943-1.8388672-1.3058319c-0.541748-1.1702118,0.7856445-0.862442,2.1938019-0.3585052
				c1.2892914,0.4613953,3.45784,0.9406281,4.8225708,1.0531158l0.1636658,0.0134888
				c0.8982849,0.0740509,1.8015137,0.0643616,2.6980133-0.0289459l19.4979553-2.0292969l1.9354858-0.1951141
				c0.9366913-0.0936584,1.6390076-0.8819122,1.6546326-1.8262177l0.0545044-7.3830566
				c0.2187347-0.1014557,0.4607086-0.1482391,0.7183228-0.1405182c3.3557587,0.1950989,6.5243988,0.1483307,9.2948303-0.3433533
				c0.5384521-0.1014557,1.014801-0.3433533,1.3813934-0.694519
				C232.7931213,142.0750885,232.9337463,155.9513092,229.5543518,158.815567z"/><path fill="#eaa7a7" d="M229.5543518,158.815567c-2.6069336,2.2242584-8.6081238,2.9188538-14.8752899,2.9344788
				c-7.1409912,0.03125-14.6333313-0.8116913-17.8720856-1.2175293c0,0-12.0968781,1.2097168-12.4638519-1.5843353
				c0.452713-0.1013641,0.9130554-0.2029114,1.3657684-0.3042755c1.0456696-0.2419891,2.0917206-0.4761658,3.1530304-0.5775299
				c3.4182434-0.3200989,6.8132477,0.7570038,10.2471313,0.8037872c1.7716217,0.03125,3.5432434-0.2184448,5.2367401-0.7258606
				c0.593338-0.1794739,1.1786652-0.390213,1.7952576-0.4213715c0.4134674-0.015625,0.8349304,0.0467834,1.2407837,0.1170959
				c0.8116913,0.1248016,1.6153717,0.2575073,2.427063,0.3824005c1.6702576,0.2731323,3.3793793,0.5384674,5.0576477,0.2809448
				c2.2083282-0.3434448,4.3076782-1.5843201,6.5320282-1.3579559c0.858551,0.0858307,1.7483673,0.3980255,2.5756836,0.1405182
				c0.5384674-0.1639557,0.9755554-0.538559,1.3970337-0.913147c0.7880554-0.6946106,1.5841217-1.3892212,2.3725739-2.0838318
				c0.3277283-0.2887573,0.6630707-0.5931396,0.8036804-1.0067902c0.4134827-1.2252655-1.1474152-2.4115448-0.874176-3.68367
				c0.3669739-1.677887,3.504364-1.8262177,3.4026184-3.5432587c-0.0621033-0.9364929-1.1546631-1.4905701-1.381012-2.4037323
				c-0.046875-0.2106323-0.046875-0.429184-0.0160065-0.6399078c0.593338-0.0625,1.1706696-0.1405334,1.7327576-0.2419891
				c0.5384521-0.1014557,1.014801-0.3433533,1.3813934-0.694519
				C232.7931213,142.0750885,232.9337463,155.9513092,229.5543518,158.815567z"/><path fill="#353437" d="M219.6890869,99.0468597c1.7608032-8.0452881-0.8464203-13.0664291-7.3135681-15.4155045
				c-2.3431549-0.8511047-4.9161072-0.9062271-7.3164215-0.2330475c-6.197052,1.737999-9.2909698,5.6930923-9.19841,11.3817368
				c0.0082092,0.5046921,0.1455536,1.0108643,0.4180298,1.4357605c1.4773865,2.3037872,4.666214,2.6273041,8.3578033,1.7546387
				c1.3108215-0.3098679,2.688797,0.1044235,3.6000214,1.0963821l1.9190674,2.0891037
				c0.8973389,0.9768448,2.5098114,1.133934,3.5924835,0.3676147c1.3747253-0.9730301,2.7858124-1.4864883,4.2516937-1.3068771
				C218.7655945,100.3104935,219.5241394,99.8005447,219.6890869,99.0468597z"/><path fill="#29282b" d="M219.6894379,99.0491409c-0.1013641,0.4605255-0.421463,0.8351212-0.8429413,1.0224228
				c1.1786804-7.2425385-1.490387-11.8237381-7.5780792-14.0323639c-2.3413239-0.8507462-4.9166412-0.9053421-7.3128357-0.234169
				c-3.5432434,0.9989929-6.0716858,2.7159271-7.5700836,5.0650711c1.1081696-3.6056442,4.0115967-6.1654282,8.6706238-7.4688034
				c2.4038239-0.678978,4.9791412-0.6243896,7.3204651,0.226265
				C218.8388824,85.9767075,221.4534454,91.0028152,219.6894379,99.0491409z"/></g></g></svg>