<svg xmlns="http://www.w3.org/2000/svg" id="Layer_1" data-name="Layer 1" viewBox="0 0 5000 3750"><defs><clipPath id="clip-path"><path d="m2245.791 1987.81-116.212 258.034c-2.907 11.43-19.88 92.018 48.428 191.98a26.967 26.967 0 0 1 1.882 3.212c1.444 2.906 146.541 290.65 318.248 290.65.536 0 1.053-.003 1.59-.008l.278-.002.279.003c.524.004 1.062.007 1.589.007 171.723 0 316.806-287.744 318.255-290.66a27.223 27.223 0 0 1 1.877-3.202c68.09-99.64 51.442-180.028 48.411-192.016l-116.195-257.998c-.112-.247-.22-.498-.324-.748-21.801-52.616-52.016-96.67-89.805-130.937-92.014-83.438-236.167-83.436-328.172 0-37.789 34.268-68.003 78.32-89.805 130.937-.105.25-.212.5-.324.748Z" style="fill:none"/></clipPath><clipPath id="clip-path-2"><path class="cls-2" d="M2639.791 2248.701c30.269.14 66.995-10.526 80.797-34.665l.002-.003c21.894-38.263 26.853-108.072 8.55-120.476-.072-.047-.15-.1-.228-.15-7.924-5.073-40.351-11.255-81.732-9.879-45.007 1.472-78.966 11.742-90.844 27.48-7.96 10.505-9.713 28.432-4.95 50.497 7.233 33.505 27.94 67.942 47.38 78.463 10.23 5.54 24.807 8.643 41.025 8.733Z"/></clipPath><clipPath id="clip-path-3"><path class="cls-2" d="M2271.301 2084.96c-19.713 11.792-22.202 81.829-4.298 120.878 11.491 25.094 49.17 36.952 79.303 37.338 15.16.167 29.12-2.42 39.291-7.282 21.55-10.302 47.129-46.67 57.011-81.066 5.736-19.947 5.428-36.397-.858-46.313-2.585-4.076-6.638-7.855-11.98-11.274-15.816-10.123-42.958-17.099-76.916-19.372-37.502-2.507-72.446 1.643-81.553 7.09Z"/></clipPath><style>.cls-2{fill:none;clip-rule:evenodd}.cls-17,.cls-23{fill-rule:evenodd}.cls-17,.cls-5{fill:#303030}.cls-6{fill:#fff}.cls-7{fill:red}.cls-8{opacity:.2}.cls-9{opacity:.6}.cls-10{fill:#4c5a69}.cls-11{fill:#30cef2}.cls-12{opacity:.3}.cls-13{fill:#22a7f0}.cls-15{fill:#ffe0b2}.cls-19{opacity:.8}.cls-20{fill:#fefefe}.cls-23{fill:#e2e5e6}.cls-25{fill:#c5d3e2}</style></defs><circle cx="2500" cy="2095.144" r="1081.345" style="fill:#37dbff"/><path d="m3435.192 3058.637-165.544-415.914q-.106-.265-.214-.528a729.263 729.263 0 0 0-130.954-209.326 742.687 742.687 0 0 0-54.874-55.223c34.767-126.607 13.121-226.793 9.611-241.304l-84.824-414.426-.77-3.217c-37.005-134.077-115.2-234.686-226.126-290.95-19.041-9.657-42.902-20.2-68.63-30.8a558.662 558.662 0 0 0-425.73-.003c-25.726 10.599-49.584 21.14-68.622 30.795-110.934 56.262-189.133 156.875-226.139 290.962-.256 1.068-.513 2.145-.77 3.213l-84.823 414.426c-3.511 14.511-25.156 114.697 9.61 241.304a742.732 742.732 0 0 0-54.872 55.223 729.252 729.252 0 0 0-130.955 209.326q-.109.264-.214.528l-165.544 415.914c-12.771 23.714-67.737 136.432-13.749 229.079 38.861 66.688 120.99 100.501 244.104 100.501h146.024a24.9 24.9 0 0 0 12.588 3.42h1092.447a24.895 24.895 0 0 0 12.588-3.42h146.028c123.113 0 205.242-33.813 244.103-100.501 53.988-92.647-.978-205.365-13.75-229.079Z" style="fill-rule:evenodd;fill:#606060"/><path class="cls-5" d="M3758.45 2080.707h-2516.9a25 25 0 0 1 0-50h2516.9a25 25 0 0 1 0 50Z"/><path class="cls-6" d="m1692.011 1027.664 441.18 582.133"/><path class="cls-5" d="M2133.21 1634.796a24.96 24.96 0 0 1-19.944-9.9l-441.18-582.132a25 25 0 1 1 39.85-30.2l441.18 582.132a25 25 0 0 1-19.907 40.1Z"/><path class="cls-6" d="m3251.971 1027.664-441.181 582.133"/><path class="cls-5" d="M2810.773 1634.796a25 25 0 0 1-19.907-40.1l441.18-582.132a25 25 0 1 1 39.85 30.2l-441.18 582.132a24.96 24.96 0 0 1-19.943 9.9Z"/><circle class="cls-7" cx="3462.885" cy="721.613" r="413.251"/><path class="cls-5" d="M3462.885 333.362c214.425 0 388.252 173.825 388.252 388.25 0 214.426-173.827 388.254-388.252 388.254s-388.253-173.828-388.253-388.254c0-214.425 173.827-388.25 388.252-388.25m0-50c-241.653 0-438.252 196.597-438.252 438.25s196.6 438.254 438.252 438.254 438.253-196.6 438.253-438.254-196.599-438.25-438.253-438.25Z"/><g class="cls-8"><path class="cls-5" d="M3759.2 470.864a386.29 386.29 0 0 1 61.04 208.861c0 214.426-173.825 388.252-388.25 388.252-118.815 0-225.098-53.428-296.317-137.502 68.98 107.838 189.702 179.39 327.211 179.39 214.426 0 388.253-173.825 388.253-388.251a386.607 386.607 0 0 0-91.937-250.75Z"/></g><g class="cls-9"><path class="cls-6" d="M3093.627 742.912c0-214.425 173.826-388.252 388.252-388.252 110.578 0 210.279 46.305 280.992 120.488-71.208-86.57-179.144-141.786-299.987-141.786-214.425 0-388.251 173.826-388.251 388.252a386.816 386.816 0 0 0 107.258 267.762 386.642 386.642 0 0 1-88.264-246.464Z"/></g><path class="cls-10" d="M1857.663 3394.467c-113.582 0-188.441-29.639-222.504-88.089-48.398-83.053 6.626-190.732 14.809-205.817l166.112-417.343a704.635 704.635 0 0 1 126.578-202.435c192.599-215.408 441.842-238.663 540.063-238.663 6.638 0 12.427.11 17.279.266a540.566 540.566 0 0 1 17.279-.266c98.22 0 347.464 23.255 540.063 238.663a704.27 704.27 0 0 1 126.471 202.17l166.22 417.608c8.188 15.098 63.202 122.77 14.808 205.817-34.064 58.45-108.924 88.09-222.504 88.09Z"/><path class="cls-5" d="M2517.279 2267.12c88.177 0 333.697 20.365 521.427 230.326a680.363 680.363 0 0 1 121.986 195.016l166.691 418.799s146.315 258.206-185.046 258.206H1857.663c-331.36 0-185.046-258.206-185.046-258.206l166.69-418.799a680.385 680.385 0 0 1 121.988-195.016c187.74-209.976 433.265-230.326 521.426-230.326 6.699 0 12.492.116 17.279.278a513.74 513.74 0 0 1 17.279-.278m0-50c-5.927 0-11.73.086-17.28.254a574.748 574.748 0 0 0-17.278-.254c-101.582 0-359.374 24.067-558.7 246.997a729.316 729.316 0 0 0-130.955 209.327c-.073.177-.144.35-.214.528l-165.543 415.915c-12.772 23.715-67.738 136.431-13.75 229.08 38.862 66.687 120.99 100.5 244.104 100.5h1284.674c123.114 0 205.243-33.813 244.104-100.5 53.984-92.642-.972-205.356-13.75-229.077l-165.544-415.918c-.07-.177-.142-.351-.213-.528a729.276 729.276 0 0 0-130.954-209.323c-199.326-222.934-457.117-247-558.701-247Z"/><path class="cls-11" d="m1672.616 3139.682 166.691-418.798a680.371 680.371 0 0 1 121.986-195.017c202.008-225.93 470.914-232.324 538.707-230.048 67.792-2.276 336.698 4.117 538.705 230.048a680.356 680.356 0 0 1 121.987 195.017l166.691 418.798s27.159 47.973 31.56 102.558c5.704-65.171-31.56-130.979-31.56-130.979l-166.69-418.798a680.371 680.371 0 0 0-121.987-195.017c-202.007-225.93-470.914-232.324-538.706-230.047-67.793-2.277-336.698 4.116-538.705 230.047a680.339 680.339 0 0 0-121.987 195.017l-166.692 418.798s-37.262 65.805-31.559 130.974c4.402-54.583 31.559-102.553 31.559-102.553Z"/><g class="cls-12"><path class="cls-5" d="M2976.035 3369.467h166.303c331.36 0 185.046-258.206 185.046-258.206l-109.676-275.55c-.001.017-19.47 256.42-205.533 245.162Z"/></g><g class="cls-12"><path class="cls-5" d="M2009.463 3369.467h-166.302c-331.361 0-185.047-258.206-185.047-258.206l109.676-275.55c-36.174 56.958 71.769 266.878 205.533 245.162Z"/></g><path class="cls-10" d="M2500 3002.6a24.986 24.986 0 0 1-12.762-3.503l-189.731-112.644h-5.109a25 25 0 0 1-21.246-11.825L2076.505 2560.7c-128.547-189.2-86.503-372.88-82.82-387.668l84.913-414.853c.113-.55.244-1.099.397-1.64 84.707-306.78 355.527-322.323 408.957-322.323 5.746 0 9.857.159 12.048.269 2.191-.113 6.299-.269 12.048-.269 53.43 0 324.25 15.543 408.957 322.324.153.54.284 1.09.397 1.639l84.912 414.853c3.684 14.788 45.728 198.468-82.818 387.668l-194.648 313.928a25 25 0 0 1-21.246 11.825h-5.109l-189.73 112.644A24.986 24.986 0 0 1 2500 3002.6Z"/><path class="cls-5" d="M2512.048 1459.216c57.642 0 305.623 17.008 384.86 303.977l85.029 415.417s47.316 182.34-79.412 368.47l-194.923 314.373h-11.972L2500 2977.6l-195.63-116.147h-11.973l-194.923-314.374c-126.726-186.13-79.41-368.469-79.41-368.469l85.027-415.417c79.243-286.988 327.241-303.977 384.861-303.977 7.74 0 12.048.308 12.048.308s4.3-.308 12.048-.308m0-50c-5.284 0-9.363.125-12.049.241a280.715 280.715 0 0 0-12.047-.24c-32.71 0-118.356 4.848-206.937 49.773-110.915 56.253-189.106 156.842-226.12 290.894q-.448 1.63-.788 3.284l-84.824 414.425c-4.958 20.496-46.154 211.493 86.247 406.72l194.373 313.49a50.002 50.002 0 0 0 40.688 23.617l183.883 109.173a49.998 49.998 0 0 0 51.052 0l183.883-109.173a50 50 0 0 0 40.687-23.618l194.371-313.483c132.402-195.23 91.21-386.23 86.25-406.726l-84.825-414.425q-.338-1.657-.787-3.284c-37.012-134.045-115.2-234.631-226.108-290.884-88.586-44.931-174.237-49.784-206.95-49.784Z"/><g class="cls-12"><path class="cls-5" d="m2018.064 2275.928 85.027-415.42c89.886-325.533 396.91-303.668 396.91-303.668s307.021-21.865 396.908 303.669l85.027 415.42s3.579 13.871 6.132 37.77c8.04-80.206-6.132-135.088-6.132-135.088l-85.027-415.419C2807.023 1437.66 2500 1459.523 2500 1459.523s-307.023-21.864-396.909 303.67l-85.027 415.418s-14.172 54.882-6.132 135.089c2.554-23.9 6.132-37.772 6.132-37.772Z"/></g><path class="cls-11" d="M2918.03 2199.37a21.957 21.957 0 0 0-.97-2.582l-115.479-256.409c-24.28-58.478-58.179-107.709-100.763-146.332-110.919-100.574-278.204-100.586-389.135 0-42.585 38.623-76.484 87.854-100.763 146.332l-115.482 256.409a21.904 21.904 0 0 0-.97 2.582c-1.322 4.315-31.3 106.83 52.96 231.103 12.857 25.476 162.082 312.598 356.546 312.567h4.101c194.892-.006 344.141-287.09 356.995-312.567 84.259-124.274 54.285-226.788 52.96-231.104Z"/><path class="cls-11" d="M2911.78 2249.37a21.957 21.957 0 0 0-.97-2.582l-115.479-256.409c-24.28-58.478-58.179-107.709-100.763-146.332-110.919-100.574-278.204-100.586-389.135 0-42.585 38.623-76.484 87.854-100.763 146.332l-115.482 256.409a21.904 21.904 0 0 0-.97 2.582c-1.322 4.315-31.3 106.83 52.96 231.103 12.857 25.476 162.082 312.598 356.546 312.567h4.101c194.892-.006 344.141-287.09 356.995-312.567 84.259-124.274 54.285-226.788 52.96-231.104Z"/><path class="cls-13" d="m2890.866 2237.021-115.617-256.708c-25.654-61.91-59.842-106.586-95.38-138.812-101.71-92.234-258.029-92.234-359.738 0-35.538 32.226-69.726 76.902-95.38 138.812l-115.617 256.708s-29.395 96.022 50.95 213.6c0 0 150.736 303.74 339.916 301.78 189.18 1.96 339.916-301.78 339.916-301.78 80.345-117.578 50.95-213.6 50.95-213.6Z"/><path class="cls-5" d="M2501.828 2774.286h-4.105c-194.467.03-343.689-287.085-356.546-312.561-84.259-124.274-54.281-226.789-52.96-231.104a21.984 21.984 0 0 1 .97-2.582l115.482-256.408c24.286-58.49 58.188-107.724 100.766-146.335 110.92-100.58 278.21-100.586 389.13 0 42.578 38.61 76.48 87.845 100.766 146.335l115.481 256.408a21.949 21.949 0 0 1 .97 2.582c1.322 4.315 31.3 106.83-52.96 231.104-12.853 25.476-162.106 312.555-356.994 312.56Zm-2.054-43.762c.528.006 1.084.012 1.615.012 172.958 0 317.492-286.737 318.936-289.643a21.507 21.507 0 0 1 1.532-2.612c69.131-101.172 51.031-183.526 48.382-193.786l-114.935-255.2c-.088-.202-.177-.403-.263-.61-21.801-52.607-52.035-96.674-89.865-130.98-92.617-83.99-237.728-83.99-330.352 0-37.83 34.306-68.064 78.373-89.865 130.98-.086.207-.174.408-.263.61l-114.941 255.212c-2.799 10.711-20.856 92.438 48.388 193.774a21.521 21.521 0 0 1 1.532 2.612c1.447 2.912 146.637 291.602 320.1 289.63Z"/><path class="cls-13" d="m2890.866 2237.021-115.617-256.708c-25.654-61.91-59.842-106.586-95.38-138.812-101.71-92.234-258.029-92.234-359.738 0-35.538 32.226-69.726 76.902-95.38 138.812l-115.617 256.708s-29.395 96.022 50.95 213.6c0 0 150.736 303.74 339.916 301.78 189.18 1.96 339.916-301.78 339.916-301.78 80.345-117.578 50.95-213.6 50.95-213.6Z"/><path class="cls-5" d="M2501.828 2774.286h-4.105c-194.467.03-343.689-287.085-356.546-312.561-84.259-124.274-54.281-226.789-52.96-231.104a21.984 21.984 0 0 1 .97-2.582l115.482-256.408c24.286-58.49 58.188-107.724 100.766-146.335 110.92-100.58 278.21-100.586 389.13 0 42.578 38.61 76.48 87.845 100.766 146.335l115.481 256.408a21.949 21.949 0 0 1 .97 2.582c1.322 4.315 31.3 106.83-52.96 231.104-12.853 25.476-162.106 312.555-356.994 312.56Zm-2.054-43.762c.528.006 1.084.012 1.615.012 172.958 0 317.492-286.737 318.936-289.643a21.507 21.507 0 0 1 1.532-2.612c69.131-101.172 51.031-183.526 48.382-193.786l-114.935-255.2c-.088-.202-.177-.403-.263-.61-21.801-52.607-52.035-96.674-89.865-130.98-92.617-83.99-237.728-83.99-330.352 0-37.83 34.306-68.064 78.373-89.865 130.98-.086.207-.174.408-.263.61l-114.941 255.212c-2.799 10.711-20.856 92.438 48.388 193.774a21.521 21.521 0 0 1 1.532 2.612c1.447 2.912 146.637 291.602 320.1 289.63Z"/><g class="cls-12"><path class="cls-5" d="M2143.057 2162.25s-17.266 253.673 176.889 366.679l113.243-243.827-145.066-159.968s-76.212-45.24-85.81-40.373c-9.598 4.866-59.256 77.49-59.256 77.49Z"/></g><g class="cls-12"><path class="cls-5" d="M2856.943 2162.25s17.266 253.673-176.889 366.679l-113.243-243.827 145.066-159.968s76.212-45.24 85.81-40.373c9.598 4.866 59.256 77.49 59.256 77.49Z"/></g><g style="clip-path:url(#clip-path)"><path class="cls-15" d="m2345.717 2445.685-70.34 225.578s233.49 184.91 242.634 190.502 195.957-138.563 195.957-138.563l-65.558-308.246"/><path class="cls-5" d="M2517.032 2887.396c-5.036 0-8.3-2.002-12.064-4.303-9.42-5.767-174.554-136.352-245.114-192.23a25.005 25.005 0 0 1-8.346-27.038l70.34-225.58a25 25 0 0 1 47.735 14.88l-65.231 209.192c78.229 61.92 183.206 144.745 216.983 170.727 27.09-16.613 98.572-69.165 164.902-120.05l-62.28-292.84a25 25 0 0 1 48.907-10.4l65.558 308.245a25 25 0 0 1-9.18 24.994c-155.716 120.16-194.675 144.397-212.21 144.403Z"/><g class="cls-12"><path class="cls-5" d="m2648.41 2414.956-296.205 30.07-12.175 46.874s53.568 80.64 143.855 109.336c32.776 10.417 31.376 57.454-1.688 66.918-42.2 12.078-104.95 10.124-195.348-33.68l-11.472 36.79s233.49 184.909 242.633 190.5 195.958-138.563 195.958-138.563Z"/></g><path class="cls-15" d="M2646.347 1668.461h-292.682l-177.895 239.33 31.553 100.077v204.158c0 85.514 35.274 167.663 98.63 225.096 29.06 26.345 66.292 51.724 113.82 72.076a204 204 0 0 0 160.465 0c47.53-20.352 84.761-45.731 113.822-72.076 63.355-57.433 98.629-139.582 98.629-225.096v-204.158l31.553-100.076Z"/><path class="cls-5" d="M2500.006 2550.561a228.981 228.981 0 0 1-90.072-18.383c-45.707-19.574-86.34-45.325-120.774-76.532-67.895-61.554-106.836-150.348-106.836-243.622v-200.311l-30.398-96.4a24.998 24.998 0 0 1 3.778-22.43l177.896-239.337a25.006 25.006 0 0 1 20.065-10.086h292.682a25.006 25.006 0 0 1 20.065 10.086l177.897 239.337a24.998 24.998 0 0 1 3.777 22.43l-30.398 96.4v200.31c0 93.275-38.94 182.069-106.836 243.623-34.433 31.207-75.067 56.958-120.773 76.532a228.982 228.982 0 0 1-90.073 18.383Zm-296.554-638.104 27.716 87.89a25.05 25.05 0 0 1 1.156 7.52v204.157c0 79.187 32.956 154.486 90.418 206.573 30.316 27.484 66.275 50.232 106.875 67.621a179.614 179.614 0 0 0 140.778 0c40.6-17.389 76.56-40.137 106.876-67.62 57.461-52.088 90.417-127.387 90.417-206.574v-204.157a25.05 25.05 0 0 1 1.157-7.52l27.716-87.89-162.781-218.997h-267.548Z"/><path class="cls-11" d="M2677.271 2398.695c-30.316 27.484-66.278 50.238-106.879 67.62a179.64 179.64 0 0 1-140.777 0c-40.607-17.382-76.563-40.136-106.873-67.62-57.465-52.088-90.417-127.375-90.417-206.568v19.901c0 79.193 32.953 154.48 90.417 206.568 30.31 27.484 66.266 50.238 106.873 67.62a179.64 179.64 0 0 0 140.777 0c40.6-17.382 76.563-40.136 106.879-67.62 57.465-52.088 90.417-127.375 90.417-206.568v-19.9c0 79.192-32.953 154.48-90.417 206.567Z"/><path d="M2228.815 2195.593a24.997 24.997 0 0 1-20.804-11.142c-20.734-31.134-30.13-54.828-30.52-55.82-88.569-239.636 12.743-356.597 27.819-372.213 60.083-78.446 147.11-104.77 197.455-113.593.046-.451.1-.903.168-1.358a24.933 24.933 0 0 1 19.974-20.898 119.154 119.154 0 0 1 21.756-2.182 70.48 70.48 0 0 1 26.013 4.538c13.894-10.758 33.163-16.593 56.189-16.593a119.183 119.183 0 0 1 16.43 1.056 25.011 25.011 0 0 1 20.993 28.592c53.498 6.409 133.179 26.34 187.116 86.512 16.135 14.431 135.626 131.143 67.78 364.312-1.533 6.311-11.692 45.426-38.291 91.33a25 25 0 0 1-35.495 8.27l-6.726-4.483a41.747 41.747 0 0 1-14.48-52.67c7.876-16.302 13.583-49.82 15.371-90.054-34.75-13.236-104.88-43.958-162.613-94.528a45.112 45.112 0 0 0 5.347 10.733 24.999 24.999 0 0 1-20.55 39.23c-.153 0-.303 0-.455-.003-3.104-.058-66.282-2.191-100.779-77.423-40.252 41.492-117.633 106.875-212.097 115.604 1.538 44.635 6.049 81.872 12.348 101.113a48.502 48.502 0 0 1-5.631 42.264l-5.511 8.267a24.998 24.998 0 0 1-20.804 11.14Z" style="fill:#e3724b"/><path class="cls-5" d="M2526.867 1631.33a94.627 94.627 0 0 1 12.722.78c-28.67 10.425-28.67 26.063-28.67 26.063s2.379-.107 6.687-.107c29.305 0 147.987 4.95 216.156 82.208 0 0 129.014 108.163 61.25 340.128 0 0-8.873 38.812-35.75 85.199l-6.724-4.484a16.602 16.602 0 0 1-5.84-20.986c13.353-27.631 16.985-77.768 17.972-102.997a20.748 20.748 0 0 0-13.45-20.258c-37.412-14.004-141.76-58.337-199.903-135.858 0 0-13.031 54.733 10.426 88.614 0 0-68.912-1.248-91.223-101.648 0 0-102.988 136.044-236.121 140.677a11.829 11.829 0 0 0-11.324 12.128c.551 25.973 3.005 87.548 13.93 120.913a23.741 23.741 0 0 1-2.67 20.615c-1.806 2.71-3.712 5.57-5.518 8.276-19.485-29.26-28.054-51.095-28.054-51.095-88.616-239.783 23.456-346.646 23.456-346.646 80.798-106.86 218.934-109.467 218.934-109.467 0-10.425-15.638-18.243-15.638-18.243a93.592 93.592 0 0 1 17.147-1.755c26.076-.003 29.768 14.786 29.768 14.786 8.917-23.181 36.135-26.844 52.437-26.844m0-50c-23.383 0-43.881 4.975-60.458 14.304a102.557 102.557 0 0 0-21.741-2.246 143.855 143.855 0 0 0-26.367 2.612 49.996 49.996 0 0 0-34.702 25.232c-55.32 12.009-138.261 42.374-197.488 119.14-21.4 23.167-123.102 150.62-32.247 396.46.115.312.233.623.355.932 1.077 2.746 11.156 27.77 32.981 60.543a50 50 0 0 0 41.596 22.287h.021a49.998 49.998 0 0 0 41.594-22.253l5.392-8.087a73.475 73.475 0 0 0 8.72-64.109c-4.516-13.794-8.103-39.898-10.055-71.768 75.206-14.02 138.35-58.935 180.352-97.058 32.813 46.683 77.844 61.795 106.017 62.305q.455.009.91.009a50 50 0 0 0 41.98-22.846c40.325 27.573 81.031 46.973 109.79 58.936-2.593 33.17-7.725 54.141-11.837 62.653a66.853 66.853 0 0 0 23.135 84.353l6.713 4.474a49.999 49.999 0 0 0 70.997-16.534c27.593-47.626 38.503-87.964 40.83-97.446 69.873-240.958-51.375-367.224-74.103-388.269-52.888-58.432-127.06-81.839-183.098-91.067a50.015 50.015 0 0 0-39.148-31.223 142.521 142.521 0 0 0-20.14-1.334Z"/><path class="cls-11" d="M2438.337 1653.181c3.068-.197 4.817-.239 4.817-.239 0-3.448-1.723-6.601-4.013-9.29a101.102 101.102 0 0 0-11.626 1.49 43.627 43.627 0 0 1 10.822 8.04ZM2510.919 1647.73s1.689-.07 4.654-.095c3.869-4.945 10.943-10.772 24.016-15.525a102.862 102.862 0 0 0-18.3-.612c-10.314 8.32-10.37 16.232-10.37 16.232ZM2234.334 2151.875l-5.517 8.276c-19.484-29.262-28.054-51.096-28.054-51.096-24.147-65.338-33.323-120.731-33.996-166.857-.653 48.125 7.995 106.948 33.996 177.3 0 0 8.57 21.835 28.054 51.097l5.517-8.276a23.506 23.506 0 0 0 3.173-18.227 22.962 22.962 0 0 1-3.173 7.783ZM2795.012 2069.96s-8.873 38.81-35.751 85.198l-6.724-4.483a16.694 16.694 0 0 1-6.551-8.636 16.597 16.597 0 0 0 6.55 19.08l6.725 4.483c26.878-46.389 35.75-85.2 35.75-85.2 15.039-51.477 20.354-96.825 19.57-136.28-.279 36.976-5.834 78.82-19.57 125.837ZM2764.38 2033.048c.113-2.24.212-4.397.29-6.358a20.747 20.747 0 0 0-13.45-20.258c-37.412-14.003-141.76-58.336-199.903-135.859a167.013 167.013 0 0 0-3.494 39.695 165.622 165.622 0 0 1 3.494-29.251c58.143 77.523 162.491 121.855 199.903 135.858a20.7 20.7 0 0 1 13.16 16.173ZM2470.52 1857.541s-102.989 136.045-236.122 140.675a11.831 11.831 0 0 0-11.323 12.128c.05 2.356.123 5.092.209 7.987a11.79 11.79 0 0 1 11.114-9.672c133.133-4.63 236.122-140.674 236.122-140.674 22.312 100.4 91.223 101.648 91.223 101.648a66.265 66.265 0 0 1-6.086-11.152c-17.307-2.985-66.855-18.67-85.137-100.94Z"/></g><g class="cls-12"><path class="cls-5" d="m2109.134 2307.048 115.617-256.709c25.654-61.91 59.843-106.585 95.38-138.812 101.71-92.233 258.029-92.233 359.739 0 35.537 32.227 69.725 76.902 95.38 138.812l115.617 256.709a106.819 106.819 0 0 1 2.562 11.834c7.215-49.759-2.562-81.86-2.562-81.86l-115.618-256.71c-25.654-61.909-59.842-106.585-95.38-138.812-101.71-92.233-258.029-92.233-359.738 0-35.537 32.227-69.726 76.903-95.38 138.812l-115.617 256.71s-9.778 32.101-2.562 81.86a106.73 106.73 0 0 1 2.562-11.834Z"/></g><path class="cls-17" d="M2789.08 2091.621c-.068-12.42-.434-13.783-15.291-19.283-11.762-4.387-77.168-11.714-126.397-9.667a210.71 210.71 0 0 0-8.96.476c-44.506 3.1-98.773 21.382-138.717 21.578-16.945.047-85.851-21.412-135.068-26.71a252.57 252.57 0 0 0-10.783-1.016c-48.63-3.625-113.254 1.145-125.247 4.978-15.425 4.978-15.927 6.323-17.273 18.755-1.309 12.41.084 23.168 8.812 26.54 11.99 4.604 11.235 21.263 16.844 69.208 5.03 43.649 21.073 78.38 97.359 86.077 3.89.42 7.682.623 11.36.744 66.37 1.5 91.915-45.828 100.434-61.628 16.06-29.717 13.756-71.223 51.743-70.49 37.941.71 32.115 41.275 45.038 71.584 6.971 16.344 27.46 66.51 96.375 66.021 2.632-.016 5.394-.122 8.216-.3 76.899-4.79 96.534-38.887 106.065-82.25 10.52-47.657 11.477-64.286 23.936-68.418 9.102-3.067 11.548-13.716 11.554-26.199Zm-400.038 151.477c-11.638 5.562-26.884 8.237-42.84 8.064-35.114-.456-73.889-14.577-86.457-41.995-17.641-38.474-18.59-115.481 7.457-131.058 11.242-6.727 48.151-10.751 86.188-8.209 40.041 2.682 81.345 12.643 95.101 34.34 22.584 35.606-21.144 120.548-59.448 138.858ZM2727.52 2218c-14.968 26.18-53.394 38.845-87.774 38.685-16.985-.094-33.083-3.362-44.789-9.698-36.324-19.719-71.248-106.127-44.994-140.792 15.798-20.926 57.183-29.348 96.95-30.648 38.774-1.288 76.04 4.16 86.705 11.402 24.308 16.474 15.484 93.336-6.098 131.051Z"/><path class="cls-17" d="M2389.043 2243.098c-11.639 5.563-26.885 8.237-42.84 8.065-35.115-.457-73.89-14.578-86.457-41.996-17.642-38.474-18.592-115.481 7.456-131.058 11.242-6.727 48.151-10.751 86.188-8.209 40.041 2.682 81.345 12.643 95.101 34.34 22.584 35.606-21.144 120.548-59.448 138.858ZM2727.52 2218c-14.969 26.18-53.395 38.845-87.775 38.685-16.985-.094-33.083-3.362-44.789-9.698-36.324-19.719-71.248-106.127-44.994-140.792 15.798-20.926 57.183-29.348 96.95-30.648 38.774-1.288 76.04 4.16 86.705 11.402 24.308 16.474 15.484 93.336-6.098 131.051Z"/><g style="clip-path:url(#clip-path-2)"><g class="cls-19"><path class="cls-20" transform="rotate(-39.881 2601.119 2160.014)" d="M2431.44 2156.368h339.357v7.292H2431.44z"/></g><g class="cls-19"><path class="cls-20" transform="rotate(-39.881 2661.427 2166.11)" d="M2491.748 2158.915h339.357v14.39h-339.357z"/></g></g><g class="cls-19" style="clip-path:url(#clip-path-3)"><path class="cls-20" transform="rotate(-37.846 2335.314 2159.693)" d="M2165.635 2152.498h339.357v14.39h-339.357z"/></g><path d="M2017.691 2733.66a86.905 86.905 0 0 0-85.947 99.778l84.531 564.45h967.45l84.531-564.45a86.905 86.905 0 0 0-85.947-99.777Z" style="fill:#e2e5e6"/><path class="cls-5" d="M2983.725 3422.888h-967.45a25.002 25.002 0 0 1-24.725-21.295l-84.531-564.453a111.909 111.909 0 0 1 110.672-128.48h964.618a111.909 111.909 0 0 1 110.672 128.48l-84.53 564.453a25.002 25.002 0 0 1-24.726 21.295Zm-945.914-50h924.378l81.341-543.158a61.903 61.903 0 0 0-61.221-71.07h-964.618a61.903 61.903 0 0 0-61.221 71.07Z"/><g class="cls-8"><path class="cls-5" d="m3027.555 2815.142.001-.006c-13.098 125.983-121.919 548.499-993.113 535.256l3.369 22.494h909.265l80.647-538.51a61.87 61.87 0 0 0-.169-19.234Z"/></g><path class="cls-6" d="M1990.165 2853.994a61.905 61.905 0 0 1 61.221-71.075h964.615a61.81 61.81 0 0 1 17.303 2.549 61.91 61.91 0 0 0-50.998-26.809h-964.615a61.905 61.905 0 0 0-61.22 71.075l81.34 543.152h30.062Z"/><path class="cls-5" d="M2458.012 2375.063c11.223-5.178 22.446-7.863 33.669-9.795a209.89 209.89 0 0 1 33.667-2.7 206.078 206.078 0 0 1 33.667 2.666c11.223 1.925 22.444 4.62 33.667 9.829-11.223 5.209-22.444 7.904-33.667 9.828a206.224 206.224 0 0 1-33.667 2.669 210.042 210.042 0 0 1-33.667-2.703c-11.223-1.932-22.446-4.617-33.669-9.794Z"/><path class="cls-17" d="m2575.323 3161.883-9.965 7.997-1.192 25.272c-.321 6.801-6.396 12.124-13.568 11.936l-.058-.001c-7.168-.187-12.8-5.81-12.582-12.607l.343-10.691a3.854 3.854 0 0 0-3.854-3.884 3.897 3.897 0 0 0-4.08 3.684l-.294 10.689c-.187 6.795-6.138 12.114-13.291 11.927-7.149-.187-12.872-5.805-12.787-12.596l.112-8.933a5.763 5.763 0 0 0-5.735-5.676 5.544 5.544 0 0 0-5.834 5.384l-.053 8.93c-.04 6.79-5.857 12.103-12.988 11.917-7.127-.187-12.952-5.799-13.013-12.584l-.096-10.672a4.033 4.033 0 0 0-3.988-3.876 3.693 3.693 0 0 0-3.9 3.678l.144 10.669c.091 6.784-5.603 12.094-12.716 11.908l-.058-.002c-7.109-.186-13.023-5.793-13.216-12.572l-.717-25.188-9.702-8.431a125.158 125.158 0 0 1-42.804-87.229c-3.84-69.584 50.232-129.291 121.12-128.177 71.29 1.12 125.077 63.123 119.86 133.21a121.905 121.905 0 0 1-45.088 85.918Z"/><path class="cls-23" d="M2452.57 3042.22a32.156 32.156 0 0 0-32.442 34.183 35.392 35.392 0 0 0 34.68 33.44 32.164 32.164 0 0 0 32.559-33.017c-.321-18.904-15.918-34.51-34.797-34.606ZM2546.685 3041.263a34.495 34.495 0 0 0-34.565 34.308 33.336 33.336 0 0 0 33.148 33.558 34.535 34.535 0 0 0 34.62-33.132 33.302 33.302 0 0 0-33.203-34.734Z"/><circle class="cls-7" cx="1537.115" cy="721.613" r="413.251" transform="rotate(-45 1537.115 721.613)"/><path class="cls-5" d="M1537.116 333.362c214.425 0 388.251 173.825 388.251 388.25 0 214.426-173.826 388.254-388.251 388.254s-388.253-173.828-388.253-388.254c0-214.425 173.827-388.25 388.253-388.25m0-50c-241.654 0-438.253 196.597-438.253 438.25s196.599 438.254 438.253 438.254c241.652 0 438.251-196.6 438.251-438.254s-196.599-438.25-438.251-438.25Z"/><g class="cls-8"><path class="cls-5" d="M1833.43 470.864a386.29 386.29 0 0 1 61.041 208.861c0 214.426-173.825 388.252-388.251 388.252-118.814 0-225.098-53.428-296.316-137.502 68.98 107.838 189.701 179.39 327.211 179.39 214.426 0 388.252-173.826 388.252-388.251a386.606 386.606 0 0 0-91.936-250.75Z"/></g><g class="cls-9"><path class="cls-6" d="M1167.858 742.912c0-214.425 173.826-388.252 388.251-388.252 110.579 0 210.28 46.305 280.992 120.488-71.207-86.57-179.143-141.787-299.986-141.787-214.425 0-388.251 173.827-388.251 388.253a386.815 386.815 0 0 0 107.258 267.762 386.642 386.642 0 0 1-88.264-246.464Z"/></g><circle class="cls-7" cx="853.299" cy="2017.339" r="413.252" transform="rotate(-45 853.299 2017.34)"/><path class="cls-5" d="M853.298 1629.086c214.426 0 388.252 173.828 388.252 388.254s-173.826 388.25-388.252 388.25c-214.426 0-388.251-173.824-388.251-388.25s173.825-388.254 388.251-388.254m0-50c-241.653 0-438.251 196.6-438.251 438.254s196.598 438.25 438.251 438.25c241.654 0 438.252-196.596 438.252-438.25s-196.598-438.254-438.252-438.254Z"/><g class="cls-8"><path class="cls-5" d="M1149.614 1766.59a386.289 386.289 0 0 1 61.04 208.86c0 214.426-173.825 388.252-388.251 388.252-118.814 0-225.098-53.428-296.316-137.502 68.98 107.839 189.701 179.391 327.211 179.391 214.426 0 388.253-173.826 388.253-388.252a386.605 386.605 0 0 0-91.937-250.75Z"/></g><g class="cls-9"><path class="cls-6" d="M484.04 2038.638c0-214.426 173.827-388.253 388.252-388.253 110.579 0 210.28 46.305 280.993 120.489-71.208-86.57-179.144-141.787-299.987-141.787-214.425 0-388.251 173.827-388.251 388.252a386.815 386.815 0 0 0 107.258 267.763 386.642 386.642 0 0 1-88.264-246.464Z"/></g><circle class="cls-7" cx="4146.702" cy="2017.339" r="413.253" transform="rotate(-45 4146.702 2017.34)"/><path class="cls-5" d="M4146.701 1629.086c214.426 0 388.252 173.828 388.252 388.254s-173.826 388.25-388.252 388.25c-214.426 0-388.252-173.824-388.252-388.25s173.826-388.254 388.252-388.254m0-50c-241.653 0-438.252 196.6-438.252 438.254s196.599 438.25 438.252 438.25 438.252-196.596 438.252-438.25-196.599-438.254-438.252-438.254Z"/><g class="cls-8"><path class="cls-5" d="M4443.017 1766.59a386.289 386.289 0 0 1 61.04 208.86c0 214.426-173.825 388.252-388.251 388.252-118.814 0-225.098-53.428-296.316-137.502 68.98 107.839 189.701 179.391 327.211 179.391 214.426 0 388.252-173.826 388.252-388.252a386.605 386.605 0 0 0-91.936-250.75Z"/></g><g class="cls-9"><path class="cls-6" d="M3777.444 2038.638c0-214.426 173.826-388.253 388.251-388.253 110.579 0 210.28 46.305 280.993 120.489-71.208-86.57-179.144-141.787-299.987-141.787-214.425 0-388.251 173.827-388.251 388.252a386.815 386.815 0 0 0 107.258 267.763 386.642 386.642 0 0 1-88.264-246.464Z"/></g><path d="m937.045 2014.968-11.08 8.891-1.325 28.098c-.357 7.562-7.111 13.48-15.085 13.272l-.065-.002c-7.97-.208-14.231-6.46-13.989-14.017l.382-11.886a4.285 4.285 0 0 0-4.286-4.319 4.333 4.333 0 0 0-4.535 4.096l-.327 11.884c-.208 7.556-6.825 13.469-14.777 13.261h-.001c-7.948-.207-14.311-6.454-14.216-14.004l.124-9.932a6.407 6.407 0 0 0-6.376-6.31 6.164 6.164 0 0 0-6.487 5.985l-.059 9.929c-.044 7.548-6.511 13.456-14.44 13.25-7.924-.208-14.4-6.448-14.468-13.992l-.107-11.864a4.484 4.484 0 0 0-4.433-4.31 4.106 4.106 0 0 0-4.337 4.088l.16 11.863c.102 7.542-6.23 13.446-14.137 13.24l-.065-.002c-7.903-.207-14.48-6.441-14.694-13.979l-.796-28.004-10.788-9.374a139.153 139.153 0 0 1-47.59-96.982c-4.269-77.366 55.85-143.749 134.665-142.51 79.26 1.245 139.061 70.182 133.262 148.106a135.535 135.535 0 0 1-50.13 95.525Z" style="fill:#c5d3e2;fill-rule:evenodd"/><path class="cls-5" d="M909.955 2090.234c-.376 0-.778 0-1.114-.012a39.884 39.884 0 0 1-18.689-5.145 40.428 40.428 0 0 1-18.848 4.162 39.842 39.842 0 0 1-20.59-6.353 40.336 40.336 0 0 1-39.569.195 41.254 41.254 0 0 1-18.353 4.108c-.116-.006-.232-.006-.333-.006-21.283-.562-38.428-17.365-39.029-38.257l-.485-17.047-2.506-2.185a164.471 164.471 0 0 1-56.155-114.466 162.021 162.021 0 0 1 44.516-120.917c30.405-31.628 71.38-48.489 115.506-47.97a158.204 158.204 0 0 1 115.35 52.057 164.742 164.742 0 0 1 42.447 122.903 160.715 160.715 0 0 1-59.417 113.166l-2.28 1.83-.794 16.84c-.976 20.66-18.661 37.097-39.657 37.097Zm-119.028-52.685Zm60.404-28.546c.268 0 .534 0 .8.006a31.487 31.487 0 0 1 20.241 8.02 29.452 29.452 0 0 1 31.257-4.4 24.931 24.931 0 0 1 6.689-8.265l11.08-8.893c0-.006.004-.006.007-.006a110.578 110.578 0 0 0 40.839-77.875 114.564 114.564 0 0 0-29.496-85.464 108.694 108.694 0 0 0-79.23-35.791 106.145 106.145 0 0 0-78.67 32.63 111.815 111.815 0 0 0-30.637 83.504 114.208 114.208 0 0 0 39.02 79.48l10.794 9.388a24.986 24.986 0 0 1 6.463 8.752 29.707 29.707 0 0 1 31.131 5.804 31.741 31.741 0 0 1 19.712-6.89Z"/><path class="cls-25" d="M714.247 2114.51s-12.729-31.115 16.94-29.703c0 0 22.618 4.84 12.714 33.907l115.756 51.655 114.36 41.743s12.088-18.33 27.865-15.403a14.764 14.764 0 0 1 11.679 12.8c1.172 8.693-.075 21.146-16.77 21.342 0 0 16.015 35.053-21.456 29.312 0 0-14.505-2.72-10.274-27.197l-109.78-51.069-120.787-42.91s-14.582 21.363-30.895 11.591a22.354 22.354 0 0 1-10.87-19.813c.292-7.356 4.457-15.662 21.518-16.255Z"/><path class="cls-5" d="M982.901 2285.785a75.49 75.49 0 0 1-11.352-.91c-.272-.042-.544-.091-.815-.14-12.311-2.307-27.967-13.617-30.927-35.944l-94.003-43.731-104.773-37.22c-14.252 10.645-32.94 14.576-50.278 4.188a47.15 47.15 0 0 1-23.007-42.255 40.17 40.17 0 0 1 18.97-32.965 40.465 40.465 0 0 1 7.138-20.398c4.7-6.647 15.976-17.64 38.525-16.571a24.337 24.337 0 0 1 4.038.525c3.198.683 19.628 4.937 29.058 21.57a46.449 46.449 0 0 1 5.887 21.661l97.684 43.585 98.187 35.84c10.389-8.221 24.002-13.733 39.215-10.889a39.695 39.695 0 0 1 31.888 34.033c2.442 18.097-3.64 29.53-9.173 35.932a37.756 37.756 0 0 1-3.989 3.98 39.754 39.754 0 0 1-7.785 24.255c-5.606 7.422-15.96 15.454-34.488 15.454Z"/><path class="cls-25" d="M992.825 2115.659s31.003 13 9.025 32.98c0 0-19.415 12.572-32.965-14.985l-118.378 45.326-110.382 51.349s4.415 21.508-8.812 30.594a14.765 14.765 0 0 1-17.309-.792c-6.975-5.318-14.899-15.006-3.232-26.95 0 0-36.112-13.462-5.556-35.898 0 0 12.18-8.333 26.496 11.966l113.737-41.514 115.752-55.068s-4.795-25.417 13.65-30.042a22.353 22.353 0 0 1 21.697 6.323c4.994 5.409 7.922 14.227-3.723 26.71Z"/><path class="cls-5" d="M723.37 2288.36a40.46 40.46 0 0 1-24.511-8.337c-14.53-11.072-18.314-23.462-18.93-31.909a37.646 37.646 0 0 1 .009-5.627 39.768 39.768 0 0 1-11.649-22.65c-1.523-10.95 1.078-27.247 22.129-42.7.225-.172.451-.33.683-.489 10.33-7.068 29.4-10.132 47.275 3.552l97.397-35.547 100.402-47.766c2.558-17.602 12.992-33.593 32.593-38.513a47.14 47.14 0 0 1 46.14 13.605 40.166 40.166 0 0 1 9.897 36.725 40.474 40.474 0 0 1 9.38 19.476c1.38 8.026 1.2 23.76-15.52 38.959a24.893 24.893 0 0 1-3.226 2.484c-2.747 1.776-17.362 10.388-35.8 5.298a46.429 46.429 0 0 1-19.483-11.158l-99.896 38.251-94.766 44.086c-1.535 13.159-7.279 26.672-20.023 35.43a38.972 38.972 0 0 1-22.1 6.83Zm-15.567-68.652Zm278.937-78.613Z"/><path d="m937.045 2014.968-11.08 8.891-1.325 28.098c-.357 7.562-7.111 13.48-15.085 13.272l-.065-.002c-7.97-.208-14.231-6.46-13.989-14.017l.382-11.886a4.285 4.285 0 0 0-4.286-4.319 4.333 4.333 0 0 0-4.535 4.096l-.327 11.884c-.208 7.556-6.825 13.469-14.777 13.261h-.001c-7.948-.207-14.311-6.454-14.216-14.004l.124-9.932a6.407 6.407 0 0 0-6.376-6.31 6.164 6.164 0 0 0-6.487 5.985l-.059 9.929c-.044 7.548-6.511 13.456-14.44 13.25-7.924-.208-14.4-6.448-14.468-13.992l-.107-11.864a4.484 4.484 0 0 0-4.433-4.31 4.106 4.106 0 0 0-4.337 4.088l.16 11.863c.102 7.542-6.23 13.446-14.137 13.24l-.065-.002c-7.903-.207-14.48-6.441-14.694-13.979l-.796-28.004-10.788-9.374a139.153 139.153 0 0 1-47.59-96.982c-4.269-77.366 55.85-143.749 134.665-142.51 79.26 1.245 139.061 70.182 133.262 148.106a135.535 135.535 0 0 1-50.13 95.525Z" style="fill:#fff;fill-rule:evenodd"/><path class="cls-17" d="M800.565 1881.925c-20.963-.107-37.1 17.034-36.069 38.005 1.01 20.523 18.261 37.028 38.558 37.179a35.76 35.76 0 0 0 36.199-36.709c-.357-21.017-17.698-38.368-38.688-38.475ZM905.204 1880.861a38.353 38.353 0 0 0-38.43 38.144 37.063 37.063 0 0 0 36.855 37.311 38.396 38.396 0 0 0 38.492-36.837 37.026 37.026 0 0 0-36.917-38.618Z"/><path class="cls-6" d="M714.247 2114.51s-12.729-31.115 16.94-29.703c0 0 22.618 4.84 12.714 33.907l115.756 51.655 114.36 41.743s12.088-18.33 27.865-15.403a14.764 14.764 0 0 1 11.679 12.8c1.172 8.693-.075 21.146-16.77 21.342 0 0 16.015 35.053-21.456 29.312 0 0-14.505-2.72-10.274-27.197l-109.78-51.069-120.787-42.91s-14.582 21.363-30.895 11.591a22.354 22.354 0 0 1-10.87-19.813c.292-7.356 4.457-15.662 21.518-16.255Z"/><path class="cls-6" d="M992.825 2115.659s31.003 13 9.025 32.98c0 0-19.415 12.572-32.965-14.985l-118.378 45.326-110.382 51.349s4.415 21.508-8.812 30.594a14.765 14.765 0 0 1-17.309-.792c-6.975-5.318-14.899-15.006-3.232-26.95 0 0-36.112-13.462-5.556-35.898 0 0 12.18-8.333 26.496 11.966l113.737-41.514 115.752-55.068s-4.795-25.417 13.65-30.042a22.353 22.353 0 0 1 21.697 6.323c4.994 5.409 7.922 14.227-3.723 26.71Z"/><path class="cls-7" d="M3272.238 885.391a40.561 40.561 0 0 1-35.129-60.843l190.647-330.209a40.563 40.563 0 0 1 70.257 0l190.647 330.21a40.561 40.561 0 0 1-35.13 60.842Z"/><path class="cls-5" d="M3462.885 489.682a24.705 24.705 0 0 1 21.597 12.47l95.323 165.106 95.323 165.103a24.937 24.937 0 0 1-21.597 37.405h-381.293a24.937 24.937 0 0 1-21.597-37.405l95.323-165.103 95.325-165.107a24.702 24.702 0 0 1 21.595-12.469m0-31.25a55.614 55.614 0 0 0-48.66 28.097l-95.323 165.104-95.323 165.103a56.186 56.186 0 0 0 48.66 84.28h381.293a56.187 56.187 0 0 0 48.662-84.28l-95.325-165.103-95.323-165.107a55.613 55.613 0 0 0-48.66-28.094Z"/><g class="cls-9"><path class="cls-6" d="m3260.492 847.142 95.324-165.105 95.323-165.105a24.947 24.947 0 0 1 38.484-5.874l-5.142-8.907a24.938 24.938 0 0 0-43.193 0l-95.324 165.105-95.323 165.105a24.907 24.907 0 0 0 7.16 32.78 24.537 24.537 0 0 1 2.691-18Z"/></g><path class="cls-6" d="M3438.944 626.866a12.592 12.592 0 0 1-.07-1.332v-4.728h48.022v4.728a12.618 12.618 0 0 1-.071 1.332l-11.412 107.313a12.6 12.6 0 0 1-12.528 11.267 12.6 12.6 0 0 1-12.53-11.267Zm23.671 139.623h.54a21.583 21.583 0 0 1 21.582 21.582 21.583 21.583 0 0 1-21.583 21.583h-.539a21.583 21.583 0 0 1-21.583-21.582 21.583 21.583 0 0 1 21.583-21.583Z"/><g class="cls-8"><path class="cls-5" d="M3603.055 707.526c1.633 55.717-27.787 185.481-345.254 157.616a24.571 24.571 0 0 0 14.437 4.626h381.293a24.938 24.938 0 0 0 21.598-37.407Z"/></g><path class="cls-13" d="M3960.171 2182.605a39.951 39.951 0 0 1-39.718-38.895l-5.16-242.791a39.784 39.784 0 0 1 38.885-40.57s389.697-8.274 389.81-8.274a39.954 39.954 0 0 1 39.716 38.892l5.157 242.791a39.738 39.738 0 0 1-38.882 40.574s-389.698 8.273-389.808 8.273Z"/><path class="cls-5" d="M4343.988 1867.7a24.109 24.109 0 0 1 24.094 23.6l5.159 242.791a24.113 24.113 0 0 1-23.593 24.619l-388.956 8.264c-.173.003-.347.006-.519.006a24.113 24.113 0 0 1-24.098-23.6l-5.16-242.794a24.107 24.107 0 0 1 23.594-24.615l388.956-8.265c.175-.003.35-.006.523-.006m.002-31.25-1.2.012-388.945 8.265a55.357 55.357 0 0 0-54.172 56.524l5.16 242.795a55.663 55.663 0 0 0 55.34 54.184l1.176-.012 388.962-8.264a55.428 55.428 0 0 0 54.172-56.525l-5.159-242.795a55.66 55.66 0 0 0-55.334-54.184Z"/><g class="cls-9"><path class="cls-6" d="m3947.902 2154.65-5.159-242.792a24.11 24.11 0 0 1 23.593-24.617l388.956-8.266a23.904 23.904 0 0 1 10.188 2.09 24.05 24.05 0 0 0-22.016-13.36l-388.955 8.264a24.112 24.112 0 0 0-23.594 24.619l5.16 242.791a24.058 24.058 0 0 0 14.43 21.504 23.88 23.88 0 0 1-2.603-10.232Z"/></g><path class="cls-5" transform="rotate(-1.217 4152.04 1960.095)" d="M3919.955 1927.807h464.162v64.574h-464.162z"/><path d="M4232.086 2123.895a43.636 43.636 0 0 1-.915-87.262l.94-.012a43.636 43.636 0 0 1 .915 87.262Z" style="fill:#e8edf3"/><path class="cls-5" d="M4232.11 2045.532a34.725 34.725 0 0 1 .725 69.443c-.248.006-.5.01-.749.01a34.725 34.725 0 0 1-.726-69.444c.249-.006.5-.009.75-.009m.002-17.822-1.128.012a52.548 52.548 0 0 0 1.102 105.084l1.125-.012a52.548 52.548 0 0 0-1.099-105.084Z"/><path d="M4283.328 2122.806a43.865 43.865 0 0 1-43.606-42.71 43.625 43.625 0 0 1 42.697-44.55l.943-.011a43.871 43.871 0 0 1 43.61 42.709 43.63 43.63 0 0 1-42.7 44.55Z" style="fill:#ffa726"/><path class="cls-5" d="M4283.363 2044.446a34.724 34.724 0 0 1 .72 69.44c-.251.006-.504.009-.755.009a34.724 34.724 0 0 1-.72-69.44c.252-.006.505-.01.755-.01m.002-17.821-1.137.012a52.544 52.544 0 0 0-51.417 53.65 52.83 52.83 0 0 0 52.517 51.43l1.136-.011a52.549 52.549 0 0 0 51.417-53.65 52.83 52.83 0 0 0-52.516-51.431Z"/><g class="cls-8"><path class="cls-5" d="m4373.24 2134.091-5.159-242.793c-.003-.156-.026-.306-.033-.46l-3.29-.597s-15.15 240.013-428.277 256.918a24.095 24.095 0 0 0 24.21 19.814l388.956-8.264a24.11 24.11 0 0 0 23.593-24.618Z"/></g><path class="cls-6" d="M1440.166 713.687a35.223 35.223 0 0 1-35.182-35.184V573.831a132.132 132.132 0 0 1 264.263 0v24.332a35.183 35.183 0 1 1-70.366 0V573.83a61.766 61.766 0 1 0-123.532 0v104.672a35.224 35.224 0 0 1-35.183 35.184Z"/><path class="cls-5" d="M1537.116 457.324a116.508 116.508 0 0 1 116.506 116.507v24.332a19.558 19.558 0 1 1-39.115 0V573.83a77.391 77.391 0 1 0-154.783 0v104.672a19.558 19.558 0 1 1-39.115 0V573.831a116.508 116.508 0 0 1 116.507-116.507m0-31.25a147.757 147.757 0 0 0-147.757 147.757v104.672a50.808 50.808 0 1 0 101.615 0V573.831a46.141 46.141 0 1 1 92.283 0v24.332a50.808 50.808 0 1 0 101.615 0V573.83a147.76 147.76 0 0 0-147.757-147.757Z"/><path d="M1397.907 656.65h278.416a30.179 30.179 0 0 1 30.179 30.179V907.29a30.179 30.179 0 0 1-30.18 30.178h-278.414a30.179 30.179 0 0 1-30.179-30.178V686.827a30.177 30.177 0 0 1 30.178-30.177Z" style="fill:#ffca28"/><path class="cls-5" d="M1676.324 672.275a14.553 14.553 0 0 1 14.553 14.554V907.29a14.553 14.553 0 0 1-14.553 14.553h-278.417a14.554 14.554 0 0 1-14.554-14.553V686.829a14.554 14.554 0 0 1 14.554-14.554h278.417m0-31.25h-278.417a45.856 45.856 0 0 0-45.804 45.804V907.29a45.856 45.856 0 0 0 45.804 45.803h278.417a45.856 45.856 0 0 0 45.803-45.803V686.829a45.856 45.856 0 0 0-45.803-45.804Z"/><g class="cls-9"><path class="cls-6" d="M1400.377 918.186V697.722a14.553 14.553 0 0 1 14.553-14.553h275.425a14.518 14.518 0 0 0-14.032-10.895h-278.416a14.553 14.553 0 0 0-14.553 14.553v220.464a14.553 14.553 0 0 0 14.553 14.554h2.99a14.418 14.418 0 0 1-.52-3.66Z"/></g><path class="cls-5" d="M1569.76 774.683a31.77 31.77 0 1 0-47.22 27.76v29.71a15.45 15.45 0 0 0 15.45 15.45 15.45 15.45 0 0 0 15.45-15.45v-29.71a31.756 31.756 0 0 0 16.32-27.76Z"/><g class="cls-8"><path class="cls-5" d="M1690.877 907.291v-209.86c-5.66 54.332-39.734 211.321-243.988 224.414h229.434a14.554 14.554 0 0 0 14.554-14.554Z"/></g><ellipse class="cls-5" cx="2500" cy="3417.613" rx="1315.634" ry="47.132"/></svg>