<svg xmlns="http://www.w3.org/2000/svg" viewBox="0 0 445.98 512"><g data-name="Layer 2"><path fill="#03acf8" d="M210.34,314.64c-41.89,0-75.84,34.78-75.84,77.64s33.95,77.65,75.84,77.65,75.85-34.78,75.85-77.65-34-77.64-75.85-77.64Z"/><path d="M210.34,479.93c-47.33,0-85.84-39.32-85.84-87.65s38.51-87.64,85.84-87.64,85.85,39.32,85.85,87.64S257.68,479.93,210.34,479.93Zm0-155.29c-36.3,0-65.84,30.34-65.84,67.64s29.54,67.65,65.84,67.65,65.85-30.35,65.85-67.65S246.65,324.64,210.34,324.64Z"/><path fill="#03acf8" d="M304.78,299.76A135.8,135.8,0,0,1,285.06,502c62.61-19.75,114.42-67.9,137.58-126.23,32.1-80.72,2.16-141.42-47.92-196.49a101.36,101.36,0,0,1,2.44,22.11c-.16,46.8-30.64,86.13-72.38,98.37Z"/><path d="M285.06,512a10,10,0,0,1-5.81-18.14C311.68,470.69,331,432.7,331,392.25a124.9,124.9,0,0,0-33.56-85.66A10,10,0,0,1,302,290.16c38.24-11.21,65-47.73,65.19-88.81A91.56,91.56,0,0,0,365,181.46a10,10,0,0,1,17.15-8.91c29.62,32.57,47.71,61.95,56.95,92.46,11.16,36.87,8.82,74.31-7.14,114.46-12,30.11-31.5,58.21-56.51,81.24a233.86,233.86,0,0,1-87.35,50.83A10.14,10.14,0,0,1,285.06,512Zm36.51-207.84a146.29,146.29,0,0,1,6,167.53c38.52-23.46,69.65-59,85.77-99.61,23.05-58,15.29-107.89-26.47-162.73a113.28,113.28,0,0,1-22.29,60.17A111.39,111.39,0,0,1,321.57,304.16Z"/><path fill="#03acf8" d="M219,201.51c0,32.84,26,59.38,58,59.38s58.14-26.66,58.14-59.38-26-59.38-58-59.38S219,168.64,219,201.51Z"/><path d="M277,270.89c-37.49,0-68-31.12-68-69.38s30.57-69.38,68.14-69.38,68,31.13,68,69.38S314.54,270.89,277,270.89Zm.15-118.76c-26.54,0-48.14,22.15-48.14,49.38s21.53,49.38,48,49.38,48.14-22.15,48.14-49.38S303.58,152.13,277.12,152.13Z"/><path fill="#03acf8" d="M110.34,478.45a135.29,135.29,0,0,1-30.67-86.17c0-68.51,50.23-124.9,115.13-132.71a104.22,104.22,0,0,1-17.68-58.06c0-56.58,44.75-102.24,100-102.24a98.94,98.94,0,0,1,13.39.89C257.86,71.28,225.19,42,199.42,10,212.5,150.21,74.65,99.27,23.54,228.6c-34.1,86.62-3.31,193.7,86.8,249.85Z"/><path d="M110.33,488.45a10,10,0,0,1-5.28-1.52c-44.66-27.82-78.11-70-94.19-118.85C-4.7,320.84-3.5,270,14.24,224.94c24.64-62.35,67.85-84.9,106-104.79,44-23,75.74-39.52,69.24-109.22a10,10,0,0,1,17.74-7.2c24.45,30.34,55.21,58.23,90,88.94a10,10,0,0,1-8,17.4,90.55,90.55,0,0,0-12.05-.8c-49.64,0-90,41.38-90,92.24a94,94,0,0,0,16,52.49A10,10,0,0,1,196,269.5c-60.61,7.29-106.32,60.08-106.32,122.78a126,126,0,0,0,28.39,79.82,10,10,0,0,1-7.73,16.35ZM210,37.55c-1.41,23.73-8.27,42.63-20.93,58.28-15.34,18.94-36.85,30.17-59.62,42.05-36.74,19.17-74.73,39-96.63,94.4C4.64,303.91,23.6,384.69,77.45,439.41a146.66,146.66,0,0,1-7.78-47.13c0-67.7,46.06-125.47,109.32-140.08a113.79,113.79,0,0,1-11.87-50.69c0-57.4,42.46-104.88,97-111.46C244.49,72.36,226.33,55.24,210,37.55Z"/></g></svg>