<svg xmlns="http://www.w3.org/2000/svg" version="1.1" id="Layer_1" x="0" y="0" viewBox="0 0 60 60" xml:space="preserve"><style>.st0{fill:#fdce3a}.st1{fill:#4cb1cd}.st3{fill:#e0539c}.st4{fill:#787878}.st5{fill:#d2d3d3}.st6{fill:#e1494f}.st9{stroke-linejoin:round}.st10,.st9{fill:none;stroke:#000;stroke-width:2;stroke-linecap:round;stroke-miterlimit:10}</style><path d="M7 15.551v33.578A3.872 3.872 0 0 0 10.872 53H49.13A3.872 3.872 0 0 0 53 49.13V15.55H7z" fill="#57C5E6" style="fill:#57c5e6"/><path d="M49.129 54H10.872A4.877 4.877 0 0 1 6 49.128V14.551h48v34.577A4.877 4.877 0 0 1 49.129 54zM8 16.55v32.578A2.875 2.875 0 0 0 10.872 52H49.13A2.875 2.875 0 0 0 52 49.128V16.551H8z"/><path d="M11.387 19.157h3.536v2h-3.536zM18.167 19.157h3.535v2h-3.535zM24.946 19.157h3.536v2h-3.536zM31.727 19.157h3.535v2h-3.535z"/><path d="M53 10.872A3.872 3.872 0 0 0 49.13 7H10.872A3.872 3.872 0 0 0 7 10.872v4.679h46v-4.679z" fill="#F48A33" style="fill:#f48a33"/><path d="M54 16.55H6v-5.678A4.878 4.878 0 0 1 10.872 6H49.13A4.877 4.877 0 0 1 54 10.872v5.679zm-46-2h44v-3.678A2.875 2.875 0 0 0 49.129 8H10.872A2.875 2.875 0 0 0 8 10.872v3.679z"/><path d="M11.387 10.275h2v2h-2zM15.545 10.275h2v2h-2zM19.702 10.275h2v2h-2z"/><path fill="#FFF" d="M24.702 10.275h23.911v2h-23.91z" style="fill:#fff"/><path d="M15 45.168a1 1 0 0 1-1-1V30.383a1 1 0 0 1 1-1h2.977c2.119 0 3.843 1.724 3.843 3.844s-1.724 3.844-3.843 3.844H16v7.097a1 1 0 0 1-1 1zm1-10.097h1.977a1.846 1.846 0 0 0 1.843-1.844 1.846 1.846 0 0 0-1.843-1.844H16v3.688zM39.18 45.168a1 1 0 0 1-1-1V30.383a1 1 0 0 1 1-1h2.976c2.12 0 3.844 1.724 3.844 3.844s-1.725 3.844-3.844 3.844H40.18v7.097a1 1 0 0 1-1 1zm1-10.097h1.976A1.846 1.846 0 0 0 44 33.227a1.846 1.846 0 0 0-1.844-1.844H40.18v3.688zM25.582 45.374a1 1 0 0 1-1-1V30.178a1 1 0 1 1 2 0v14.196a1 1 0 0 1-1 1zM33.73 45.374a1 1 0 0 1-1-1V30.178a1 1 0 1 1 2 0v14.196a1 1 0 0 1-1 1z"/><path d="M33.73 37.775h-8.148a1 1 0 1 1 0-2h8.148a1 1 0 1 1 0 2z"/></svg>