<svg xmlns="http://www.w3.org/2000/svg" width="1500" height="1500" fill="none" viewBox="0 0 1500 1500"><path fill="#fff" d="M625.145 352.614L632.391 877.543L127.572 740.033L187.676 466.25L345.97 343.008L625.145 352.614Z"/><path fill="#010101" d="M646.658 896.023L111 749.975L175.036 458.161L341.362 328.965L639.075 339.245L646.658 896.023ZM144.029 729.978L617.954 859.174L611.213 366.263L350.462 357.276L200.201 474.17L144.029 729.978Z"/><path fill="#010101" d="M616.546 341.482L118.981 728.964L136.238 751.124L633.802 363.641L616.546 341.482Z"/><path fill="#010101" d="M618.965 881.699L487.916 458.947L337.992 354.523L354.001 331.437L511.901 441.422L645.76 873.386L618.965 881.699Z"/><path fill="#010101" d="M624.974 889.508L241.319 651.899L174.474 471.137L200.818 461.363L264.349 633.138L639.748 865.634L624.974 889.508Z"/><path fill="#fff" d="M360.807 620.941L345.359 644.533L475.306 729.617L490.753 706.025L360.807 620.941Z"/><path fill="#FF3938" d="M1296.23 716.89L684.519 918.661L589.363 281.612L940.833 250.549L1165.75 389.013L1296.23 716.89Z"/><path fill="#010101" d="M673.114 937.253L573.296 268.805L944.032 236L1176.87 379.351L1314.54 725.372L673.114 937.253ZM605.483 294.419L695.976 900.236L1277.64 708.295L1154.45 398.562L937.46 264.929L605.483 294.419Z"/><path fill="#010101" d="M596.732 269.646L582.007 293.563L1288.84 728.747L1303.56 704.831L596.732 269.646Z"/><path fill="#010101" d="M692.717 930.119L676.314 907.257L1105.69 599.04L1152.04 386.036L1179.5 391.99L1130.86 615.555L692.717 930.119Z"/><path fill="#010101" d="M698.392 920.85L670.643 916.525L754.283 383.676L932.012 239.651L949.706 261.445L780.347 398.73L698.392 920.85Z"/><path fill="#fff" d="M948.697 292.915L895.046 342.371L914.082 363.021L967.733 313.566L948.697 292.915Z"/><path fill="#FF3938" d="M874.269 773.175L536.786 913.942L494.77 551.912L687.384 519.782L808.098 590.166L874.269 773.175Z"/><path fill="#010101" d="M524.987 934.107L479.263 540.284L690.077 505.064L819.61 580.897L892.016 781.263L524.987 934.107ZM510.27 563.371L548.467 893.832L856.403 765.366L796.523 599.714L684.572 534.442L510.27 563.371Z"/><path fill="#010101" d="M501.806 539.733L487.661 563.997L867.154 785.222L881.298 760.957L501.806 539.733Z"/><path fill="#010101" d="M545.602 924.839L527.908 903.044L766.134 709.587L794.445 587.02L821.801 593.311L791.356 725.316L545.602 924.839Z"/><path fill="#010101" d="M550.604 916.357L522.911 911.526L577.342 600.444L677.946 509.389L696.82 530.173L603.293 614.768L550.604 916.357Z"/><path fill="#fff" d="M891.738 1071.79H348.947L284.124 804.687H974.199L891.738 1071.79Z"/><path fill="#010101" d="M902.351 1085.83H337.877L266.258 790.644H993.238L902.351 1085.83ZM360.234 1057.74H881.624L955.49 818.73H301.983L360.234 1057.74Z"/><path fill="#010101" d="M974.199 804.687H1084.3L961.448 1071.79H891.738L974.199 804.687Z"/><path fill="#010101" d="M970.432 1085.83H872.692L964.141 790.644H1106.48L970.432 1085.83ZM910.777 1057.74H952.457L1062.39 818.73H984.587L910.777 1057.74Z"/><path fill="#010101" d="M506.451 1245.47C539.459 1245.47 566.218 1218.71 566.218 1185.7C566.218 1152.69 539.459 1125.94 506.451 1125.94C473.442 1125.94 446.684 1152.69 446.684 1185.7C446.684 1218.71 473.442 1245.47 506.451 1245.47Z"/><path fill="#010101" d="M842.025 1245.47C875.033 1245.47 901.792 1218.71 901.792 1185.7C901.792 1152.69 875.033 1125.94 842.025 1125.94C809.016 1125.94 782.258 1152.69 782.258 1185.7C782.258 1218.71 809.016 1245.47 842.025 1245.47Z"/><path fill="#010101" d="M506.452 1259.51C491.841 1259.51 477.557 1255.18 465.409 1247.06C453.26 1238.94 443.792 1227.4 438.203 1213.9C432.614 1200.4 431.155 1185.55 434.009 1171.21C436.864 1156.88 443.905 1143.72 454.241 1133.39C464.577 1123.07 477.744 1116.04 492.076 1113.19C506.409 1110.35 521.262 1111.82 534.759 1117.42C548.255 1123.02 559.788 1132.49 567.897 1144.65C576.007 1156.8 580.33 1171.09 580.319 1185.7C580.304 1205.28 572.515 1224.06 558.664 1237.9C544.813 1251.74 526.033 1259.51 506.452 1259.51V1259.51ZM506.452 1139.92C497.398 1139.92 488.547 1142.61 481.018 1147.64C473.49 1152.67 467.622 1159.82 464.157 1168.18C460.692 1176.55 459.785 1185.75 461.552 1194.63C463.318 1203.51 467.678 1211.67 474.081 1218.07C480.483 1224.48 488.641 1228.84 497.521 1230.6C506.402 1232.37 515.606 1231.46 523.972 1228C532.337 1224.53 539.487 1218.67 544.517 1211.14C549.548 1203.61 552.233 1194.76 552.233 1185.7C552.218 1173.57 547.39 1161.93 538.807 1153.35C530.225 1144.76 518.589 1139.94 506.452 1139.92Z"/><path fill="#010101" d="M842.026 1259.51C827.414 1259.51 813.13 1255.18 800.982 1247.06C788.833 1238.94 779.366 1227.4 773.777 1213.9C768.187 1200.4 766.728 1185.55 769.583 1171.21C772.437 1156.88 779.478 1143.72 789.814 1133.39C800.15 1123.07 813.317 1116.04 827.649 1113.19C841.982 1110.35 856.836 1111.82 870.332 1117.42C883.828 1123.02 895.361 1132.49 903.471 1144.65C911.58 1156.8 915.903 1171.09 915.892 1185.7C915.862 1205.28 908.069 1224.04 894.221 1237.88C880.373 1251.72 861.602 1259.5 842.026 1259.51ZM842.026 1139.92C832.971 1139.92 824.12 1142.61 816.591 1147.64C809.063 1152.67 803.195 1159.82 799.73 1168.18C796.265 1176.55 795.359 1185.75 797.125 1194.63C798.891 1203.51 803.252 1211.67 809.654 1218.07C816.057 1224.48 824.214 1228.84 833.094 1230.6C841.975 1232.37 851.18 1231.46 859.545 1228C867.91 1224.53 875.06 1218.67 880.091 1211.14C885.121 1203.61 887.806 1194.76 887.806 1185.7C887.791 1173.57 882.963 1161.93 874.381 1153.35C865.799 1144.76 854.163 1139.94 842.026 1139.92V1139.92Z"/><path fill="#fff" d="M417.024 1250.36C452.732 1250.36 481.678 1221.41 481.678 1185.7C481.678 1150 452.732 1121.05 417.024 1121.05C381.317 1121.05 352.37 1150 352.37 1185.7C352.37 1221.41 381.317 1250.36 417.024 1250.36Z"/><path fill="#fff" d="M779.9 1250.36C815.608 1250.36 844.554 1221.41 844.554 1185.7C844.554 1150 815.608 1121.05 779.9 1121.05C744.193 1121.05 715.246 1150 715.246 1185.7C715.246 1221.41 744.193 1250.36 779.9 1250.36Z"/><path fill="#010101" d="M417.029 1264.4C401.475 1264.4 386.271 1259.79 373.338 1251.15C360.406 1242.51 350.326 1230.22 344.374 1215.85C338.422 1201.48 336.864 1185.67 339.899 1170.42C342.933 1155.16 350.423 1141.15 361.421 1130.15C372.419 1119.15 386.432 1111.66 401.687 1108.63C416.942 1105.59 432.754 1107.15 447.123 1113.1C461.493 1119.06 473.775 1129.14 482.416 1142.07C491.058 1155 495.67 1170.21 495.67 1185.76C495.67 1206.62 487.384 1226.62 472.636 1241.37C457.888 1256.11 437.886 1264.4 417.029 1264.4V1264.4ZM417.029 1135.2C407.03 1135.2 397.256 1138.17 388.942 1143.72C380.628 1149.28 374.148 1157.18 370.322 1166.41C366.496 1175.65 365.495 1185.82 367.445 1195.62C369.396 1205.43 374.211 1214.44 381.281 1221.51C388.351 1228.58 397.359 1233.39 407.166 1235.34C416.973 1237.29 427.138 1236.29 436.375 1232.47C445.613 1228.64 453.509 1222.16 459.064 1213.85C464.619 1205.53 467.584 1195.76 467.584 1185.76C467.598 1179.11 466.302 1172.52 463.768 1166.38C461.234 1160.23 457.512 1154.65 452.816 1149.94C448.12 1145.23 442.542 1141.5 436.401 1138.95C430.26 1136.4 423.677 1135.09 417.029 1135.09V1135.2Z"/><path fill="#010101" d="M779.899 1264.4C764.345 1264.4 749.141 1259.79 736.208 1251.15C723.276 1242.51 713.196 1230.22 707.244 1215.85C701.292 1201.48 699.735 1185.67 702.769 1170.42C705.803 1155.16 713.293 1141.15 724.291 1130.15C735.289 1119.15 749.302 1111.66 764.557 1108.63C779.812 1105.59 795.624 1107.15 809.994 1113.1C824.363 1119.06 836.645 1129.14 845.286 1142.07C853.928 1155 858.54 1170.21 858.54 1185.76C858.54 1206.62 850.255 1226.62 835.507 1241.37C820.758 1256.11 800.756 1264.4 779.899 1264.4V1264.4ZM779.899 1135.2C769.9 1135.2 760.126 1138.17 751.812 1143.72C743.498 1149.28 737.019 1157.18 733.192 1166.41C729.366 1175.65 728.365 1185.82 730.315 1195.62C732.266 1205.43 737.081 1214.44 744.151 1221.51C751.221 1228.58 760.229 1233.39 770.036 1235.34C779.843 1237.29 790.008 1236.29 799.245 1232.47C808.483 1228.64 816.379 1222.16 821.934 1213.85C827.489 1205.53 830.454 1195.76 830.454 1185.76C830.469 1179.11 829.172 1172.52 826.638 1166.38C824.104 1160.23 820.382 1154.65 815.686 1149.94C810.99 1145.23 805.412 1141.5 799.271 1138.95C793.13 1136.4 786.547 1135.09 779.899 1135.09V1135.2Z"/><path fill="#010101" d="M978.247 918.092L963.923 942.246L1218.26 1093.08L1232.59 1068.92L978.247 918.092Z"/><path fill="#010101" d="M1331.34 1214.07L1159.57 1110.71L1252.19 1061.67L1388.3 1137.9L1331.34 1214.07ZM1216.92 1112.23L1324.37 1176.88L1346.84 1146.72L1252.02 1093.64L1216.92 1112.23Z"/><path fill="#010101" d="M495.725 1071.79H467.639V1160.2H495.725V1071.79Z"/><path fill="#010101" d="M848.935 1062.29H820.849V1150.71H848.935V1062.29Z"/></svg>