<svg xmlns="http://www.w3.org/2000/svg" enable-background="new 0 0 24 24" viewBox="0 0 24 24"><path fill="#FF7A55" d="M3.805 14.392c-.315-.529-.407-1.158-.246-1.681.244-.786.951-1.146 1.75-.896.789.243 1.093 1.151.882 1.847-.041.118-.071.203-.12.308-.031.068-.073.138-.118.207-.01.016-.021.033-.031.05.066.05.192.121.366.174.525.164.999-.111 1.107-.467.068-.22.001-.417-.219-.643C6.959 12.989 4.969 11.466 5.6 9.404c.79-2.608 5.044-3.573 6.976.445.108.227.032.498-.178.636-.209.137-.489.098-.652-.093-.738-.859-1.202-1.261-2.164-1.523l0 0C8.965 8.701 8.729 8.87 8.564 9.076c-.754.955 2.242 1.951 1.834 4.382C9.868 16.594 5.139 16.648 3.805 14.392zM5.887 14.291C5.887 14.291 5.887 14.291 5.887 14.291S5.887 14.291 5.887 14.291zM13.912 11.246c-.156-.16-.188-.403-.077-.598.111-.193.334-.292.554-.237 1.334.324 1.724-.263 1.827-.532.05-.129.05-.129-.039-.264-.104-.157-.276-.42-.191-.81.143-.605.67-1.033 1.283-1.047.342-.014.606.115.836.344.271.271.428.675.419 1.078C18.485 11.181 15.637 13.01 13.912 11.246z"/><path fill="#110638" d="M12,24C5.383,24,0,18.617,0,12S5.383,0,12,0s12,5.383,12,12S18.617,24,12,24z M12,1C5.935,1,1,5.935,1,12s4.935,11,11,11s11-4.935,11-11S18.065,1,12,1z"/><path fill="#110638" d="M7.882,21.17c-0.73,0-1.371-0.225-1.813-0.638c-0.365-0.341-0.575-0.8-0.592-1.291c-0.036-1.136,0.939-1.777,1.658-1.804c0.458,0.004,0.84,0.134,1.14,0.415c0.292,0.272,0.46,0.644,0.473,1.043c0.008,0.206-0.022,0.377-0.073,0.518c0.021-0.015,0.042-0.029,0.063-0.044c0.996-0.831,1.428-2.347,2.015-5.428l0.121-0.733c0.204-1.024,0.43-2.156,0.773-3.287c0.225-0.66,1.029-2.864,2.147-4.164c0.963-1.129,2.184-1.775,3.438-1.817c1.519-0.021,2.645,0.718,2.687,1.867c0.016,0.619-0.358,1.604-1.431,1.637c-0.411,0.008-0.79-0.115-1.06-0.366c-0.253-0.235-0.399-0.566-0.412-0.932c-0.008-0.266,0.063-0.528,0.199-0.753c-1.397,0.066-1.829,2.279-2.177,4.06l-0.275,1.533l0,0l-0.383,2.116c-0.364,1.704-0.846,3.954-2.546,5.942c-1.502,1.786-3.042,2.098-3.827,2.124C7.964,21.169,7.923,21.17,7.882,21.17z M7.194,18.437c-0.009,0-0.017,0-0.025,0.001c-0.209,0.008-0.71,0.24-0.692,0.771c0.008,0.229,0.1,0.43,0.274,0.593c0.104,0.097,0.231,0.176,0.377,0.235c-0.004-0.027-0.007-0.055-0.008-0.082c-0.014-0.424,0.287-0.646,0.415-0.74c0.02-0.014,0.082-0.059,0.103-0.07c0.098-0.053,0.115-0.062,0.109-0.214c-0.004-0.136-0.06-0.259-0.155-0.349C7.489,18.486,7.353,18.437,7.194,18.437z M15.045,5.903c-0.171,0.151-0.336,0.32-0.492,0.504c-1.003,1.166-1.75,3.219-1.955,3.82c-0.325,1.068-0.546,2.175-0.74,3.151l-0.122,0.737c-0.438,2.306-0.82,4.031-1.628,5.208c0.313-0.237,0.638-0.54,0.963-0.927c1.538-1.799,1.988-3.905,2.317-5.443l0.666-3.684C14.266,8.185,14.52,6.887,15.045,5.903z M14.27,10.896h0.01H14.27z M18.322,5.11c0.004,0.029,0.007,0.059,0.008,0.089c0.006,0.223-0.062,0.351-0.154,0.528l-0.049,0.094c-0.09,0.131-0.115,0.212-0.112,0.291c0.003,0.1,0.034,0.179,0.093,0.232c0.074,0.069,0.198,0.111,0.346,0.099c0.467-0.014,0.464-0.599,0.464-0.605C18.905,5.523,18.684,5.269,18.322,5.11z"/></svg>