<svg xmlns="http://www.w3.org/2000/svg" fill="none" viewBox="0 0 512 512"><path fill="url(#a)" d="M43 90C43 78.9543 51.9543 70 63 70H449C460.046 70 469 78.9543 469 90V158.897V422C469 433.046 460.046 442 449 442H63C51.9543 442 43 433.046 43 422V158.897V90Z"/><path fill="url(#b)" d="M449 70H63C51.9543 70 43 78.9543 43 90V158.897H469V90C469 78.9543 460.046 70 449 70Z"/><path fill="#F5FFFC" d="M379 293.5C379 361.707 323.707 417 255.5 417C187.293 417 132 361.707 132 293.5C132 225.293 187.293 170 255.5 170C323.707 170 379 225.293 379 293.5Z"/><path fill="url(#c)" d="M221.878 365.567L180.34 235.053C180.026 234.068 180.761 233.062 181.795 233.062H191.606C194.384 233.062 196.635 230.811 196.635 228.033C196.635 225.256 194.384 223.004 191.606 223.004H154L152.465 225.306C148.828 230.759 145.662 236.511 143 242.5L198 403L205.5 406.5L216.642 411.332L257.426 304.231L295 410.5C301.964 408.179 308.746 405.242 315.201 401.746L317.181 400.673C317.387 400.561 317.546 400.384 317.633 400.166C340.646 342.292 367.701 266.632 365.513 237.168C365.504 237.052 365.472 236.947 365.418 236.845C359.503 225.672 352.026 215.399 343.214 206.334L339 202C325.149 199.668 295.902 207.519 332.069 262.462C342.622 276.862 332.5 324.672 316.169 365.89C315.824 366.76 314.584 366.711 314.3 365.819L272.926 235.823C272.483 234.431 273.483 232.999 274.941 232.936L284.809 232.504C287.504 232.386 289.56 230.052 289.338 227.364C289.133 224.9 287.083 223.061 284.612 223.152C272.826 223.586 240.349 224.744 219.581 223.419C216.761 223.24 214.334 225.451 214.334 228.277C214.334 230.92 216.476 233.062 219.119 233.062H228.977C230.804 233.062 232.429 234.225 233.019 235.955L249.73 284.961C250.23 286.426 250.23 288.015 249.73 289.48L223.778 365.586C223.466 366.499 222.171 366.486 221.878 365.567Z"/><path fill="#F5FFFC" d="M94 114C94 124.493 85.4934 133 75 133 64.5066 133 56 124.493 56 114 56 103.507 64.5066 95 75 95 85.4934 95 94 103.507 94 114zM154 114C154 124.493 145.493 133 135 133 124.507 133 116 124.493 116 114 116 103.507 124.507 95 135 95 145.493 95 154 103.507 154 114zM214 114C214 124.493 205.493 133 195 133 184.507 133 176 124.493 176 114 176 103.507 184.507 95 195 95 205.493 95 214 103.507 214 114z"/><defs><linearGradient id="a" x1="43" x2="469" y1="94.5" y2="457.5" gradientUnits="userSpaceOnUse"><stop stop-color="#7C73C0"/><stop offset="1" stop-color="#94ADD7"/></linearGradient><linearGradient id="b" x1="256" x2="256" y1="70" y2="197" gradientUnits="userSpaceOnUse"><stop stop-color="#FFD98F"/><stop offset="1" stop-color="#E0AE30"/><stop offset="1" stop-color="#E0AE30"/></linearGradient><linearGradient id="c" x1="84.5" x2="459" y1="217.5" y2="406" gradientUnits="userSpaceOnUse"><stop stop-color="#8E9FD2"/><stop offset="1" stop-color="#7C73C0"/></linearGradient></defs></svg>